<svg xmlns="http://www.w3.org/2000/svg" viewBox="0 0 142.72 127.96"><defs><style>.cls-1{fill:#f8f9f9;}.cls-1,.cls-4{stroke:#231815;}.cls-1,.cls-2,.cls-3,.cls-4,.cls-5{stroke-miterlimit:10;}.cls-2,.cls-3,.cls-4,.cls-5,.cls-6{fill:none;}.cls-2,.cls-6{stroke:#040000;}.cls-3{stroke:#00a0e9;}.cls-4,.cls-5{stroke-dasharray:1;}.cls-5{stroke:#1d2088;}.cls-6{stroke-linejoin:round;}.cls-7{fill:#040000;}.cls-8{font-size:20px;fill:#231815;font-family:NanumSquareRoundR, NanumSquareRound;}</style></defs><title>자산 33</title><g id="레이어_2" data-name="레이어 2"><g id="레이어_1-2" data-name="레이어 1"><path class="cls-1" d="M76.45,26.27h56.23s12.59,20.89,8.15,33.33c0,0-9.19,24.3-9.78,35.56,0,0,.72,17.48,10.73,32.3H22v-58l8.81-8.11,45.72,0Z"/><line class="cls-2" x1="22.01" y1="98.35" x2="130.89" y2="98.35"/><line class="cls-2" x1="76.45" y1="54.4" x2="141.75" y2="54.4"/><path class="cls-3" d="M132.68,26.27s12.59,20.89,8.15,33.33c0,0-9.19,24.3-9.78,35.56a68.78,68.78,0,0,0,10.73,32.3"/><polygon class="cls-4" points="22.01 69.49 30.82 61.38 76.45 61.38 76.45 26.27 22.01 26.27 22.01 69.49"/><path class="cls-5" d="M58.11,26.27,76,61.42a.18.18,0,0,0,.34,0L93.51,26.27"/><line class="cls-4" x1="22.01" y1="54.4" x2="76.45" y2="54.4"/><line class="cls-6" x1="25.5" y1="19.26" x2="72.29" y2="19.26"/><polygon class="cls-7" points="25.94 20.75 23.35 19.25 25.94 17.76 25.94 20.75"/><polygon class="cls-7" points="71.85 20.75 74.44 19.25 71.85 17.76 71.85 20.75"/><line class="cls-6" x1="22.01" y1="23.27" x2="22.01" y2="17.48"/><line class="cls-6" x1="75.77" y1="23.27" x2="75.77" y2="17.48"/><text class="cls-8" transform="translate(42.49 16)">B</text><text class="cls-8" transform="translate(84.76 63.6)">C</text><line class="cls-6" x1="79.03" y1="61.37" x2="84.06" y2="61.37"/><line class="cls-6" x1="82.29" y1="56.88" x2="82.29" y2="58.92"/><polygon class="cls-7" points="81.29 57.18 82.29 55.45 83.28 57.18 81.29 57.18"/><polygon class="cls-7" points="81.29 58.63 82.29 60.35 83.28 58.63 81.29 58.63"/><line class="cls-6" x1="19.5" y1="69.21" x2="14.71" y2="69.21"/><line class="cls-6" x1="27.33" y1="61.35" x2="14.71" y2="61.35"/><line class="cls-6" x1="16.49" y1="66.55" x2="16.49" y2="63.84"/><polygon class="cls-7" points="17.48 66.26 16.49 67.99 15.49 66.26 17.48 66.26"/><polygon class="cls-7" points="17.48 64.14 16.49 62.41 15.49 64.14 17.48 64.14"/><text class="cls-8" transform="translate(0 72.85)">D</text><line class="cls-6" x1="72.97" y1="74.07" x2="25.5" y2="74.07"/><polygon class="cls-7" points="72.53 72.58 75.12 74.07 72.53 75.57 72.53 72.58"/><polygon class="cls-7" points="25.94 72.58 23.35 74.07 25.94 75.57 25.94 72.58"/><line class="cls-6" x1="76.58" y1="76.37" x2="76.58" y2="64.2"/><text class="cls-8" transform="translate(42.61 91.87)">A</text></g></g></svg>