<svg xmlns="http://www.w3.org/2000/svg" viewBox="0 0 122.17 136.25"><defs><style>.cls-1{fill:#f8f9f9;}.cls-1,.cls-4{stroke:#231815;}.cls-1,.cls-2,.cls-3,.cls-4{stroke-miterlimit:10;}.cls-2,.cls-3,.cls-4,.cls-5{fill:none;}.cls-2,.cls-5{stroke:#040000;}.cls-3{stroke:#00a0e9;}.cls-4{stroke-dasharray:1;}.cls-5{stroke-linejoin:round;}.cls-6{fill:#040000;}.cls-7{font-size:20px;fill:#231815;font-family:NanumSquareRoundR, NanumSquareRound;}</style></defs><title>자산 31</title><g id="레이어_2" data-name="레이어 2"><g id="레이어_1-2" data-name="레이어 1"><path class="cls-1" d="M1.46,26.27H112.13s12.59,20.89,8.15,33.33c0,0-9.19,24.3-9.78,35.56,0,0,.72,17.48,10.73,32.3H30.64l0-29.11,0-43.95Z"/><line class="cls-2" x1="30.64" y1="98.35" x2="110.34" y2="98.35"/><line class="cls-2" x1="30.64" y1="54.4" x2="121.2" y2="54.4"/><path class="cls-3" d="M112.13,26.27s12.59,20.89,8.15,33.33c0,0-9.19,24.3-9.78,35.56a68.78,68.78,0,0,0,10.73,32.3"/><polygon class="cls-4" points="1.46 26.27 30.64 54.4 30.64 127.46 1.46 127.46 1.46 26.27"/><line class="cls-4" x1="1.46" y1="54.4" x2="30.64" y2="54.4"/><line class="cls-4" x1="1.46" y1="98.35" x2="30.64" y2="98.35"/><line class="cls-5" x1="4.95" y1="19.26" x2="23.74" y2="19.26"/><polygon class="cls-6" points="5.39 20.75 2.8 19.26 5.39 17.76 5.39 20.75"/><polygon class="cls-6" points="23.3 20.75 25.89 19.26 23.3 17.76 23.3 20.75"/><line class="cls-5" x1="1.46" y1="23.27" x2="1.46" y2="17.48"/><line class="cls-5" x1="27.22" y1="23.27" x2="27.22" y2="17.48"/><text class="cls-7" transform="translate(8.07 16)">A</text><line class="cls-5" x1="4.11" y1="133.95" x2="27.11" y2="133.95"/><polygon class="cls-6" points="4.55 135.45 1.96 133.95 4.55 132.46 4.55 135.45"/><polygon class="cls-6" points="26.68 135.45 29.27 133.95 26.68 132.46 26.68 135.45"/><line class="cls-5" x1="0.5" y1="136.25" x2="0.5" y2="130.46"/><line class="cls-5" x1="30.47" y1="136.25" x2="30.47" y2="130.46"/><text class="cls-7" transform="translate(9.63 129.82)">D</text><line class="cls-5" x1="5.14" y1="101.05" x2="26.97" y2="101.05"/><polygon class="cls-6" points="5.58 102.54 2.99 101.05 5.58 99.55 5.58 102.54"/><polygon class="cls-6" points="26.53 102.54 29.12 101.05 26.53 99.55 26.53 102.54"/><text class="cls-7" transform="translate(9.6 96.02)">C</text><line class="cls-5" x1="5.14" y1="56.91" x2="26.97" y2="56.91"/><polygon class="cls-6" points="5.58 58.41 2.99 56.91 5.58 55.41 5.58 58.41"/><polygon class="cls-6" points="26.53 58.41 29.12 56.91 26.53 55.41 26.53 58.41"/><text class="cls-7" transform="translate(9.65 51.89)">B</text></g></g></svg>