<svg xmlns="http://www.w3.org/2000/svg" viewBox="0 0 121.21 127.96"><defs><style>.cls-1{fill:#f8f9f9;}.cls-1,.cls-4{stroke:#231815;}.cls-1,.cls-2,.cls-3,.cls-4{stroke-miterlimit:10;}.cls-2,.cls-3,.cls-4,.cls-5{fill:none;}.cls-2,.cls-5{stroke:#040000;}.cls-3{stroke:#00a0e9;}.cls-4{stroke-dasharray:1;}.cls-5{stroke-linejoin:round;}.cls-6{fill:#040000;}.cls-7{font-size:20px;fill:#231815;font-family:NanumSquareRoundR, NanumSquareRound;}</style></defs><title>자산 39</title><g id="레이어_2" data-name="레이어 2"><g id="레이어_1-2" data-name="레이어 1"><path class="cls-1" d="M.5,43.23l20.44-17h90.23s12.59,20.89,8.14,33.33c0,0-9.18,24.3-9.77,35.56,0,0,.71,17.48,10.72,32.3H.5Z"/><line class="cls-2" x1="0.5" y1="98.35" x2="109.38" y2="98.35"/><line class="cls-2" x1="0.5" y1="54.4" x2="120.24" y2="54.4"/><path class="cls-3" d="M111.17,26.27s12.59,20.89,8.14,33.33c0,0-9.18,24.3-9.77,35.56a68.84,68.84,0,0,0,10.72,32.3"/><polygon class="cls-4" points="0.5 43.23 20.94 26.27 0.5 26.27 0.5 43.23"/><line class="cls-5" x1="3.99" y1="19.26" x2="16.99" y2="19.26"/><polygon class="cls-6" points="4.42 20.75 1.83 19.25 4.42 17.76 4.42 20.75"/><polygon class="cls-6" points="16.55 20.75 19.14 19.25 16.55 17.76 16.55 20.75"/><line class="cls-5" x1="0.5" y1="23.27" x2="0.5" y2="17.48"/><line class="cls-5" x1="20.47" y1="23.27" x2="20.47" y2="17.48"/><text class="cls-7" transform="translate(4.12 16)">A</text><line class="cls-5" x1="28.44" y1="43.23" x2="3.65" y2="43.23"/><line class="cls-5" x1="26.28" y1="39.51" x2="26.28" y2="29.77"/><polygon class="cls-6" points="27.77 39.08 26.28 41.66 24.78 39.08 27.77 39.08"/><polygon class="cls-6" points="27.77 30.21 26.28 27.62 24.78 30.21 27.77 30.21"/><text class="cls-7" transform="translate(29.88 43.23)">B</text></g></g></svg>