<svg xmlns="http://www.w3.org/2000/svg" viewBox="0 0 121.21 102.19"><defs><style>.cls-1{fill:#f8f9f9;}.cls-1,.cls-4{stroke:#231815;}.cls-1,.cls-2,.cls-3,.cls-4{stroke-miterlimit:10;}.cls-2,.cls-3,.cls-4,.cls-5{fill:none;}.cls-2,.cls-5{stroke:#040000;}.cls-3{stroke:#00a0e9;}.cls-4{stroke-dasharray:1;}.cls-5{stroke-linejoin:round;}.cls-6{fill:#040000;}.cls-7{font-size:20px;fill:#231815;font-family:NanumSquareRoundR, NanumSquareRound;}</style></defs><title>자산 35</title><g id="레이어_2" data-name="레이어 2"><g id="레이어_1-2" data-name="레이어 1"><path class="cls-1" d="M8,78.85.5,86.26v15.43H120.26c-10-14.82-10.72-32.3-10.72-32.3.59-11.26,9.77-35.56,9.77-35.56C123.76,21.39,111.17.5,111.17.5H.5V15.63L8.17,23.3H52.29V78.86Z"/><line class="cls-2" x1="52.29" y1="72.58" x2="109.38" y2="72.58"/><line class="cls-2" x1="52.29" y1="28.63" x2="120.24" y2="28.63"/><path class="cls-3" d="M111.17.5s12.59,20.89,8.14,33.33c0,0-9.18,24.3-9.77,35.56a68.84,68.84,0,0,0,10.72,32.3"/><line class="cls-4" x1="0.5" y1="28.63" x2="52.29" y2="28.63"/><line class="cls-4" x1="0.76" y1="72.58" x2="52.29" y2="72.58"/><line class="cls-5" x1="3.99" y1="51.22" x2="48.77" y2="51.22"/><polygon class="cls-6" points="4.42 52.72 1.83 51.22 4.42 49.73 4.42 52.72"/><polygon class="cls-6" points="48.34 52.72 50.93 51.22 48.34 49.73 48.34 52.72"/><text class="cls-7" transform="translate(19.92 47.97)">A</text><text class="cls-7" transform="translate(60.01 31.43)">B</text><line class="cls-5" x1="54.53" y1="22.72" x2="59.57" y2="22.72"/><line class="cls-5" x1="57.79" y1="26.38" x2="57.79" y2="24.79"/><polygon class="cls-6" points="58.79 26.08 57.79 27.81 56.79 26.08 58.79 26.08"/><polygon class="cls-6" points="58.79 25.08 57.79 23.35 56.79 25.08 58.79 25.08"/></g></g></svg>