<svg xmlns="http://www.w3.org/2000/svg" viewBox="0 0 121.71 102.19"><defs><style>.cls-1{fill:#f8f9f9;stroke:#231815;}.cls-1,.cls-2,.cls-3,.cls-7{stroke-miterlimit:10;}.cls-2,.cls-3,.cls-4,.cls-7{fill:none;}.cls-2{stroke:#00a0e9;}.cls-3,.cls-4{stroke:#040000;}.cls-4{stroke-linejoin:round;}.cls-5{fill:#040000;}.cls-6{font-size:20px;fill:#231815;font-family:NanumSquareRoundR, NanumSquareRound;}.cls-7{stroke:#0768ac;stroke-dasharray:1;}.cls-8{fill:#e71f19;}</style></defs><title>자산 8</title><g id="레이어_2" data-name="레이어 2"><g id="레이어_1-2" data-name="레이어 1"><path class="cls-1" d="M11.74,101.69h109c-10-14.82-10.73-32.3-10.73-32.3.6-11.26,9.78-35.56,9.78-35.56C124.27,21.39,111.67.5,111.67.5H1s15.84,20.85,10.59,35c0,0-11.47,27.83-9.17,39.52C2.43,75,3.3,86.63,11.74,101.69Z"/><path class="cls-2" d="M111.82.75s12.61,20.75,7.89,33.68c0,0-9,23.06-9.63,35.56a68.25,68.25,0,0,0,10.77,31.86"/><line class="cls-3" x1="110.43" y1="73.81" x2="2.13" y2="73.81"/><line class="cls-3" x1="120.66" y1="29.96" x2="12.63" y2="29.96"/><path class="cls-2" d="M12.17,101.69A63,63,0,0,1,2,70c.6-11.26,9.78-35.55,9.78-35.55C16.27,22,1.34.5,1.34.5"/><line class="cls-4" x1="71.12" y1="8.71" x2="76.91" y2="8.71"/><line class="cls-4" x1="71.12" y1="19.42" x2="76.91" y2="19.42"/><line class="cls-4" x1="75.13" y1="12.2" x2="75.13" y2="15.94"/><polygon class="cls-5" points="73.64 12.63 75.13 10.04 76.63 12.63 73.64 12.63"/><polygon class="cls-5" points="73.64 15.5 75.13 18.09 76.63 15.5 73.64 15.5"/><text class="cls-6" transform="translate(78.56 21.42)">C</text><rect class="cls-7" x="56.37" y="9.68" width="14.71" height="8.78" rx="4.39" transform="translate(77.79 -49.66) rotate(90)"/><circle class="cls-8" cx="63.73" cy="14.07" r="0.8"/><polyline class="cls-3" points="66.07 27.05 69.92 37.04 74.56 37.04"/><polygon class="cls-5" points="64.42 28.31 65.04 24.37 68.14 26.88 64.42 28.31"/><text class="cls-6" transform="translate(73.24 46.98)">A</text><line class="cls-4" x1="49.52" y1="14.07" x2="56.05" y2="14.07"/><line class="cls-4" x1="51.52" y1="10.35" x2="51.52" y2="4.22"/><polygon class="cls-5" points="53.02 9.91 51.52 12.5 50.03 9.91 53.02 9.91"/><polygon class="cls-5" points="53.02 4.66 51.52 2.07 50.03 4.66 53.02 4.66"/><text class="cls-6" transform="translate(35.13 16.32)">B</text></g></g></svg>