<svg xmlns="http://www.w3.org/2000/svg" viewBox="0 0 121.71 127.68"><defs><style>.cls-1{fill:#f8f9f9;}.cls-1,.cls-4{stroke:#231815;}.cls-1,.cls-2,.cls-3,.cls-4{stroke-miterlimit:10;}.cls-2,.cls-3,.cls-4,.cls-5{fill:none;}.cls-2{stroke:#00a0e9;}.cls-3,.cls-5{stroke:#040000;}.cls-4{stroke-dasharray:1;}.cls-5{stroke-linejoin:round;}.cls-6{fill:#040000;}.cls-7{font-size:20px;fill:#231815;font-family:NanumSquareRoundR, NanumSquareRound;}</style></defs><title>자산 27</title><g id="레이어_2" data-name="레이어 2"><g id="레이어_1-2" data-name="레이어 1"><path class="cls-1" d="M83.85,26h27.82s12.6,20.89,8.15,33.33c0,0-9.18,24.3-9.78,35.56,0,0,.72,17.48,10.73,32.3h-109c-8.44-15.06-9.31-26.65-9.31-26.65C.13,88.84,11.6,61,11.6,61,16.85,46.84,1,26,1,26H37.78V41.55H83.85Z"/><path class="cls-2" d="M111.82,26.24S124.43,47,119.71,59.92c0,0-9,23.06-9.63,35.56a68.25,68.25,0,0,0,10.77,31.86"/><line class="cls-3" x1="110.43" y1="99.3" x2="2.13" y2="99.3"/><line class="cls-3" x1="120.66" y1="55.45" x2="12.63" y2="55.45"/><path class="cls-2" d="M12.17,127.18A63,63,0,0,1,2,95.47c.6-11.26,9.78-35.55,9.78-35.55C16.27,47.47,1.34,26,1.34,26"/><rect class="cls-4" x="37.78" y="26.24" width="46.07" height="15.31"/><line class="cls-5" x1="41.27" y1="19.26" x2="80.39" y2="19.26"/><polygon class="cls-6" points="41.7 20.75 39.11 19.25 41.7 17.76 41.7 20.75"/><polygon class="cls-6" points="79.95 20.75 82.54 19.25 79.95 17.76 79.95 20.75"/><line class="cls-5" x1="37.78" y1="23.27" x2="37.78" y2="17.48"/><line class="cls-5" x1="83.87" y1="23.27" x2="83.87" y2="17.48"/><text class="cls-7" transform="translate(54.22 16)">A</text><line class="cls-5" x1="28.99" y1="41.55" x2="35.52" y2="41.55"/><line class="cls-5" x1="30.99" y1="37.83" x2="30.99" y2="30.03"/><polygon class="cls-6" points="32.48 37.39 30.99 39.98 29.49 37.39 32.48 37.39"/><polygon class="cls-6" points="32.48 30.47 30.99 27.88 29.49 30.47 32.48 30.47"/><text class="cls-7" transform="translate(14.27 42.5)">B</text></g></g></svg>