<svg xmlns="http://www.w3.org/2000/svg" viewBox="0 0 120.68 102.19"><defs><style>.cls-1{fill:#f8f9f9;}.cls-1,.cls-4{stroke:#231815;}.cls-1,.cls-2,.cls-3,.cls-4{stroke-miterlimit:10;}.cls-2,.cls-3,.cls-4,.cls-5{fill:none;}.cls-2,.cls-5{stroke:#040000;}.cls-3{stroke:#00a0e9;}.cls-4{stroke-dasharray:1;}.cls-5{stroke-linejoin:round;}.cls-6{fill:#040000;}.cls-7{font-size:20px;fill:#231815;font-family:NanumSquareRoundR, NanumSquareRound;}</style></defs><title>자산 34</title><g id="레이어_2" data-name="레이어 2"><g id="레이어_1-2" data-name="레이어 1"><path class="cls-1" d="M120.06,86.39v15.3H11.23C1.22,86.87.5,69.39.5,69.39c.59-11.26,9.78-35.56,9.78-35.56C14.72,21.39,2.13.5,2.13.5H120.06V16.19l-7.77,7.23H68.38V79.13h44.34Z"/><line class="cls-2" x1="68.38" y1="72.54" x2="0.73" y2="72.54"/><line class="cls-2" x1="68.38" y1="28.66" x2="11.22" y2="28.66"/><path class="cls-3" d="M2.13.5s12.59,20.89,8.15,33.33c0,0-9.19,24.3-9.78,35.56a68.78,68.78,0,0,0,10.73,32.3"/><polygon class="cls-4" points="120.17 15.91 112.53 23.42 68.39 23.42 68.39 79.14 112.72 79.14 119.86 86.27 120.17 15.91"/><line class="cls-4" x1="120.53" y1="28.66" x2="68.38" y2="28.66"/><line class="cls-4" x1="119.59" y1="72.54" x2="68.33" y2="72.54"/><line class="cls-5" x1="71.89" y1="50.71" x2="116.67" y2="50.71"/><polygon class="cls-6" points="72.32 52.21 69.73 50.71 72.32 49.22 72.32 52.21"/><polygon class="cls-6" points="116.24 52.21 118.83 50.71 116.24 49.22 116.24 52.21"/><text class="cls-7" transform="translate(87.82 47.46)">A</text><text class="cls-7" transform="translate(45.98 33.4)">B</text><line class="cls-5" x1="65.57" y1="22.21" x2="60.54" y2="22.21"/><line class="cls-5" x1="62.31" y1="25.87" x2="62.31" y2="24.28"/><polygon class="cls-6" points="63.31 25.58 62.31 27.3 61.32 25.58 63.31 25.58"/><polygon class="cls-6" points="63.31 24.57 62.31 22.84 61.32 24.57 63.31 24.57"/></g></g></svg>