<?xml version="1.0" encoding="UTF-8" standalone="no"?>
<svg
   width="142.38184"
   height="124.93167"
   version="1.1"
   viewBox="0 0 142.38183 124.93167"
   id="svg88"
   sodipodi:docname="CH022.svg"
   inkscape:version="1.1 (c68e22c387, 2021-05-23)"
   xmlns:inkscape="http://www.inkscape.org/namespaces/inkscape"
   xmlns:sodipodi="http://sodipodi.sourceforge.net/DTD/sodipodi-0.dtd"
   xmlns="http://www.w3.org/2000/svg"
   xmlns:svg="http://www.w3.org/2000/svg"
   xmlns:rdf="http://www.w3.org/1999/02/22-rdf-syntax-ns#"
   xmlns:cc="http://creativecommons.org/ns#"
   xmlns:dc="http://purl.org/dc/elements/1.1/">
  <sodipodi:namedview
     id="namedview90"
     pagecolor="#ffffff"
     bordercolor="#666666"
     borderopacity="1.0"
     inkscape:pageshadow="2"
     inkscape:pageopacity="0.0"
     inkscape:pagecheckerboard="0"
     showgrid="false"
     inkscape:zoom="6.6597294"
     inkscape:cx="71.023907"
     inkscape:cy="62.465"
     inkscape:window-width="1920"
     inkscape:window-height="1058"
     inkscape:window-x="-8"
     inkscape:window-y="636"
     inkscape:window-maximized="1"
     inkscape:current-layer="svg88" />
  <defs
     id="defs4">
    <style
       id="style2">.cls-1{fill:#f8f9f9;}.cls-1,.cls-4{stroke:#231815;}.cls-1,.cls-2,.cls-3,.cls-4{stroke-miterlimit:10;}.cls-2,.cls-3,.cls-4,.cls-5{fill:none;}.cls-2,.cls-5{stroke:#040000;}.cls-3{stroke:#00a0e9;}.cls-4{stroke-dasharray:1;}.cls-5{stroke-linejoin:round;}.cls-6{fill:#040000;}.cls-7{font-size:20px;fill:#231815;font-family:NanumSquareRoundR, NanumSquareRound;}</style>
  </defs>
  <title
     id="title6">CH022</title>
  <g
     id="g1066"
     transform="translate(0,3.4637451e-5)">
    <path
       class="cls-1"
       d="M 120.04093,31.6003 H 92.540927 v -8.2 L 2.1309268,23.24164 c 0,0 12.5900002,20.89 8.1500002,33.33 0,0 -9.1900001,24.3 -9.78000015,35.56 0,0 0.72000005,17.48 10.73000015,32.3 H 120.06093 Z"
       id="path8" />
    <line
       class="cls-2"
       x1="120.06092"
       x2="0.73092687"
       y1="95.281296"
       y2="95.281296"
       id="line10" />
    <line
       class="cls-2"
       x1="120.06092"
       x2="11.220927"
       y1="51.401299"
       y2="51.401299"
       id="line12" />
    <path
       class="cls-3"
       d="m 2.1309268,23.2413 c 0,0 12.5900002,20.89 8.1500002,33.33 0,0 -9.1900001,24.3 -9.78000015,35.56 a 68.78,68.78 0 0 0 10.73000015,32.3"
       id="path14" />
    <rect
       class="cls-6"
       transform="scale(-1,1)"
       x="-120.04092"
       y="23.400301"
       width="27.5"
       height="8.1999998"
       fill="none"
       stroke="#231815"
       stroke-dasharray="1"
       stroke-miterlimit="10"
       stroke-width="0.79905"
       id="rect16"
       style="fill:none" />
    <line
       class="cls-7"
       x1="116.45092"
       x2="95.851921"
       y1="16.580299"
       y2="16.580299"
       fill="none"
       stroke="#040000"
       stroke-linejoin="round"
       id="line18" />
    <polygon
       class="cls-8"
       transform="matrix(-1,0,0,1,120.44093,-2.68003)"
       points="1.83,19.25 4.42,17.76 4.42,20.75 "
       fill="#040000"
       id="polygon20" />
    <polygon
       class="cls-8"
       transform="matrix(-1,0,0,1,120.44093,-2.68003)"
       points="26.74,19.25 24.15,17.76 24.15,20.75 "
       fill="#040000"
       id="polygon22" />
    <line
       class="cls-7"
       x1="119.94093"
       x2="119.94093"
       y1="20.5903"
       y2="14.800301"
       fill="none"
       stroke="#040000"
       stroke-linejoin="round"
       id="line24" />
    <line
       class="cls-7"
       x1="92.371925"
       x2="92.371925"
       y1="20.5903"
       y2="14.800301"
       fill="none"
       stroke="#040000"
       stroke-linejoin="round"
       id="line26" />
    <text
       class="cls-9"
       x="100.17202"
       y="13.319965"
       fill="#231815"
       font-family="NanumSquareRoundR, NanumSquareRound"
       font-size="20px"
       id="text28">A</text>
    <line
       class="cls-7"
       x1="82.671921"
       x2="88.961922"
       y1="31.806299"
       y2="31.806299"
       fill="none"
       stroke="#040000"
       stroke-linejoin="round"
       id="line30" />
    <line
       class="cls-7"
       x1="84.831924"
       x2="84.831924"
       y1="28.9023"
       y2="26.4603"
       fill="none"
       stroke="#040000"
       stroke-linejoin="round"
       stroke-width="0.62657"
       id="line32" />
    <polygon
       class="cls-8"
       transform="matrix(-1,0,0,1,120.44093,-6.68)"
       points="37.1,34.92 35.61,37.51 34.11,34.92 "
       fill="#040000"
       id="polygon34" />
    <polygon
       class="cls-8"
       transform="matrix(-1,0,0,1,120.44093,-2.68003)"
       points="35.61,26.99 34.11,29.58 37.1,29.58 "
       fill="#040000"
       id="polygon36" />
    <text
       class="cls-9"
       x="69.402023"
       y="39.019966"
       fill="#231815"
       font-family="NanumSquareRoundR, NanumSquareRound"
       font-size="20px"
       style="font-variant-ligatures:normal;font-variant-caps:normal;font-variant-numeric:normal;font-variant-east-asian:normal"
       id="text40"><tspan
         x="69.402023"
         y="39.019966"
         id="tspan38">C</tspan></text>
    <g
       transform="matrix(-1,0,0,1,120.44093,-2.68003)"
       fill="none"
       stroke="#040000"
       stroke-linejoin="round"
       id="g48">
      <line
         class="cls-7"
         x1="-9.4194002"
         x2="-3.1294"
         y1="34.328999"
         y2="34.328999"
         id="line42" />
      <line
         class="cls-7"
         x1="-9.4372997"
         x2="-3.1473"
         y1="25.997999"
         y2="25.997999"
         id="line44" />
      <line
         class="cls-7"
         x1="-7.2593999"
         x2="-7.2593999"
         y1="31.424999"
         y2="28.983"
         stroke-width="0.62657"
         id="line46" />
    </g>
    <polygon
       class="cls-8"
       transform="translate(92.090927,-6.8367)"
       points="37.1,34.92 35.61,37.51 34.11,34.92 "
       fill="#040000"
       id="polygon50" />
    <polygon
       class="cls-8"
       transform="translate(92.090927,-2.83673)"
       points="35.61,26.99 34.11,29.58 37.1,29.58 "
       fill="#040000"
       id="polygon52" />
    <line
       class="cls-7"
       x1="129.83093"
       x2="123.54092"
       y1="36.495296"
       y2="36.495296"
       fill="none"
       stroke="#040000"
       stroke-linejoin="round"
       id="line54" />
    <line
       class="cls-7"
       x1="127.68092"
       x2="127.68092"
       y1="35.189297"
       y2="32.736298"
       fill="none"
       stroke="#040000"
       stroke-linejoin="round"
       stroke-width="0.39969"
       id="line56" />
    <polygon
       class="cls-8"
       transform="matrix(1,0,0,0.51581,92.056927,18.2773)"
       points="34.11,29.58 37.1,29.58 35.61,26.99 "
       fill="#040000"
       id="polygon58" />
    <polygon
       class="cls-8"
       transform="matrix(1,0,0,-0.51581,92.055927,49.8313)"
       points="34.11,29.58 37.1,29.58 35.61,26.99 "
       fill="#040000"
       id="polygon60" />
    <text
       class="cls-9"
       x="129.37535"
       y="30.863295"
       fill="#231815"
       font-family="NanumSquareRoundR, NanumSquareRound"
       font-size="20px"
       style="font-variant-ligatures:normal;font-variant-caps:normal;font-variant-numeric:normal;font-variant-east-asian:normal"
       id="text64"><tspan
         x="129.37535"
         y="30.863295"
         id="tspan62">B</tspan></text>
    <text
       class="cls-9"
       x="129.20119"
       y="45.618782"
       fill="#231815"
       font-family="NanumSquareRoundR, NanumSquareRound"
       font-size="20px"
       style="font-variant-ligatures:normal;font-variant-caps:normal;font-variant-numeric:normal;font-variant-east-asian:normal"
       id="text68"><tspan
         x="129.20119"
         y="45.618782"
         id="tspan66">D</tspan></text>
    <g
       transform="matrix(-1,0,0,1,120.44093,-2.68003)"
       fill="#000080"
       stroke="#000000"
       stroke-miterlimit="1"
       id="g82">
      <path
         d="M 0.5094,39.245 C 5.1789,34.4057 5.1789,34.3208 5.1789,34.3208"
         stroke-dasharray="1, 1"
         id="path70" />
      <g
         stroke-dasharray="0.0212251, 0.0212251"
         stroke-width="0.021225"
         id="g80">
        <path
           d="m 1.9018,37.794 -0.34809,-0.33681 0.67406,-0.70187 0.33878,0.32324 c 0.18633,0.17778 0.34181,0.33234 0.34551,0.34345 0.0037,0.01111 -0.14377,0.17514 -0.32772,0.3645 L 2.24989,38.1308 Z"
           id="path72" />
        <path
           d="M 3.2825,36.344 C 2.94562,36.02545 2.94248,36.02164 2.97878,35.97549 2.998952,35.949845 3.14884,35.78933 3.31186,35.61878 l 0.2964,-0.31008 0.70367,0.67213 -0.32726,0.34252 c -0.18,0.18839 -0.33503,0.34252 -0.34452,0.34252 -0.00949,0 -0.17043,-0.14485 -0.35765,-0.32188 z"
           id="path74" />
        <path
           d="M 4.6713,34.909 C 4.48548,34.73745 4.32928,34.58456 4.32418,34.56924 4.31909,34.55392 4.375748,34.47751 4.4501,34.39944 4.524448,34.32137 4.63056,34.20625 4.6859,34.14363 l 0.10063,-0.11386 0.076599,0.0608 c 0.042129,0.03344 0.12888,0.10139 0.19277,0.151 l 0.11617,0.09021 h 0.50461 l -0.013146,0.06898 c -0.024696,0.12959 -0.09167,0.22592 -0.36074,0.51884 -0.14804,0.16116 -0.27467,0.29488 -0.2814,0.29716 -0.00673,0.0023 -0.16428,-0.13621 -0.35009,-0.30776 z"
           id="path76" />
        <path
           d="M 0.52359,39.245 C 0.33484,39.06174 0.18041,38.90445 0.18041,38.89546 c 0,-0.009 0.1489,-0.17022 0.33089,-0.3583 l 0.33089,-0.34196 0.34814,0.3341 c 0.19148,0.18375 0.34583,0.33988 0.34301,0.34695 -0.00282,0.0071 -0.15396,0.1679 -0.33585,0.3574 l -0.33072,0.34454 z"
           id="path78" />
      </g>
    </g>
  </g>
  <metadata
     id="metadata86">
    <rdf:RDF>
      <cc:Work
         rdf:about="">
        <dc:title>CH022</dc:title>
      </cc:Work>
    </rdf:RDF>
  </metadata>
</svg>
