<svg xmlns="http://www.w3.org/2000/svg" viewBox="0 0 120.56 127.96"><defs><style>.cls-1{fill:#f8f9f9;}.cls-1,.cls-4{stroke:#231815;}.cls-1,.cls-2,.cls-3,.cls-4{stroke-miterlimit:10;}.cls-2,.cls-3,.cls-4,.cls-5{fill:none;}.cls-2,.cls-5{stroke:#040000;}.cls-3{stroke:#00a0e9;}.cls-4{stroke-dasharray:1;}.cls-5{stroke-linejoin:round;}.cls-6{fill:#040000;}.cls-7{font-size:20px;fill:#231815;font-family:NanumSquareRoundR, NanumSquareRound;}</style></defs><title>자산 29</title><g id="레이어_2" data-name="레이어 2"><g id="레이어_1-2" data-name="레이어 1"><path class="cls-1" d="M99.62,26.27H2.13S14.72,47.16,10.28,59.6c0,0-9.19,24.3-9.78,35.56,0,0,.72,17.48,10.73,32.3H120.06V43.23Z"/><line class="cls-2" x1="120.06" y1="98.31" x2="0.73" y2="98.31"/><line class="cls-2" x1="120.06" y1="54.43" x2="11.22" y2="54.43"/><path class="cls-3" d="M2.13,26.27S14.72,47.16,10.28,59.6c0,0-9.19,24.3-9.78,35.56a68.78,68.78,0,0,0,10.73,32.3"/><polygon class="cls-4" points="120.06 43.23 99.62 26.27 120.06 26.27 120.06 43.23"/><line class="cls-5" x1="103.1" y1="19.26" x2="116.57" y2="19.26"/><polygon class="cls-6" points="103.54 20.75 100.95 19.25 103.54 17.76 103.54 20.75"/><polygon class="cls-6" points="116.14 20.75 118.73 19.25 116.14 17.76 116.14 20.75"/><line class="cls-5" x1="99.62" y1="23.27" x2="99.62" y2="17.48"/><line class="cls-5" x1="120.06" y1="23.27" x2="120.06" y2="17.48"/><text class="cls-7" transform="translate(103.24 16)">A</text><line class="cls-5" x1="95.49" y1="43.26" x2="116.73" y2="43.26"/><line class="cls-5" x1="97.49" y1="39.54" x2="97.49" y2="30.88"/><polygon class="cls-6" points="98.99 39.1 97.49 41.7 96 39.1 98.99 39.1"/><polygon class="cls-6" points="98.99 31.32 97.49 28.73 96 31.32 98.99 31.32"/><text class="cls-7" transform="translate(81.24 42.5)">B</text></g></g></svg>