<svg xmlns="http://www.w3.org/2000/svg" viewBox="0 0 121.3 136.25"><defs><style>.cls-1{fill:#f8f9f9;}.cls-1,.cls-4{stroke:#231815;}.cls-1,.cls-2,.cls-3,.cls-4{stroke-miterlimit:10;}.cls-2,.cls-3,.cls-4,.cls-5{fill:none;}.cls-2,.cls-5{stroke:#040000;}.cls-3{stroke:#00a0e9;}.cls-4{stroke-dasharray:1;}.cls-5{stroke-linejoin:round;}.cls-6{fill:#040000;}.cls-7{font-size:20px;fill:#231815;font-family:NanumSquareRoundR, NanumSquareRound;}</style></defs><title>자산 30</title><g id="레이어_2" data-name="레이어 2"><g id="레이어_1-2" data-name="레이어 1"><path class="cls-1" d="M120.06,26.27H2.13S14.72,47.16,10.28,59.6c0,0-9.19,24.3-9.78,35.56,0,0,.72,17.48,10.73,32.3H90.88v-73Z"/><line class="cls-2" x1="90.88" y1="98.31" x2="0.73" y2="98.31"/><line class="cls-2" x1="90.88" y1="54.43" x2="11.22" y2="54.43"/><path class="cls-3" d="M2.13,26.27S14.72,47.16,10.28,59.6c0,0-9.19,24.3-9.78,35.56a68.78,68.78,0,0,0,10.73,32.3"/><path class="cls-4" d="M118.51,27.76,90.88,54.4v73.06h29.18v-99A.92.92,0,0,0,118.51,27.76Z"/><line class="cls-4" x1="120.06" y1="54.43" x2="90.88" y2="54.43"/><line class="cls-4" x1="120.06" y1="98.31" x2="90.88" y2="98.31"/><line class="cls-5" x1="94.1" y1="133.95" x2="117.1" y2="133.95"/><polygon class="cls-6" points="94.53 135.45 91.94 133.95 94.53 132.46 94.53 135.45"/><polygon class="cls-6" points="116.66 135.45 119.25 133.95 116.66 132.46 116.66 135.45"/><line class="cls-5" x1="90.48" y1="136.25" x2="90.48" y2="130.46"/><line class="cls-5" x1="120.46" y1="136.25" x2="120.46" y2="130.46"/><text class="cls-7" transform="translate(99.62 130.46)">D</text><line class="cls-5" x1="97.79" y1="19.26" x2="116.57" y2="19.26"/><polygon class="cls-6" points="98.22 20.75 95.63 19.26 98.22 17.76 98.22 20.75"/><polygon class="cls-6" points="116.14 20.75 118.73 19.26 116.14 17.76 116.14 20.75"/><line class="cls-5" x1="94.3" y1="23.27" x2="94.3" y2="17.48"/><line class="cls-5" x1="120.06" y1="23.27" x2="120.06" y2="17.48"/><text class="cls-7" transform="translate(100.91 16)">A</text><line class="cls-5" x1="94.16" y1="101.05" x2="115.99" y2="101.05"/><polygon class="cls-6" points="94.6 102.54 92.01 101.05 94.6 99.55 94.6 102.54"/><polygon class="cls-6" points="115.55 102.54 118.14 101.05 115.55 99.55 115.55 102.54"/><text class="cls-7" transform="translate(98.62 96.02)">C</text><line class="cls-5" x1="94.16" y1="56.91" x2="115.99" y2="56.91"/><polygon class="cls-6" points="94.6 58.41 92.01 56.91 94.6 55.41 94.6 58.41"/><polygon class="cls-6" points="115.55 58.41 118.14 56.91 115.55 55.41 115.55 58.41"/><text class="cls-7" transform="translate(98.67 51.89)">B</text></g></g></svg>