<svg xmlns="http://www.w3.org/2000/svg" viewBox="0 0 140.16 127.96"><defs><style>.cls-1{fill:#f8f9f9;}.cls-1,.cls-4{stroke:#231815;}.cls-1,.cls-2,.cls-3,.cls-4,.cls-5{stroke-miterlimit:10;}.cls-2,.cls-3,.cls-4,.cls-5,.cls-6{fill:none;}.cls-2,.cls-6{stroke:#040000;}.cls-3{stroke:#00a0e9;}.cls-4,.cls-5{stroke-dasharray:1;}.cls-5{stroke:#1d2088;}.cls-6{stroke-linejoin:round;}.cls-7{fill:#040000;}.cls-8{font-size:20px;fill:#231815;font-family:NanumSquareRoundR, NanumSquareRound;}</style></defs><title>자산 26</title><g id="레이어_2" data-name="레이어 2"><g id="레이어_1-2" data-name="레이어 1"><path class="cls-1" d="M65.62,26.27H2.13S14.72,47.16,10.28,59.6c0,0-9.19,24.3-9.78,35.56,0,0,.72,17.48,10.73,32.3H120.06V69.75l-8.81-8.12-45.51,0Z"/><line class="cls-2" x1="120.06" y1="98.31" x2="0.73" y2="98.31"/><line class="cls-2" x1="65.62" y1="54.43" x2="11.22" y2="54.43"/><path class="cls-3" d="M2.13,26.27S14.72,47.16,10.28,59.6c0,0-9.19,24.3-9.78,35.56a68.78,68.78,0,0,0,10.73,32.3"/><polygon class="cls-4" points="65.62 26.52 65.62 61.63 111.25 61.63 120.06 69.75 120.06 26.52 65.62 26.52"/><path class="cls-5" d="M84,26.52,66.07,61.67a.18.18,0,0,1-.33,0L48.57,26.52"/><line class="cls-4" x1="120.06" y1="54.43" x2="65.62" y2="54.43"/><line class="cls-6" x1="68.89" y1="19.26" x2="116.68" y2="19.26"/><polygon class="cls-7" points="69.33 20.75 66.74 19.25 69.33 17.76 69.33 20.75"/><polygon class="cls-7" points="116.24 20.75 118.83 19.25 116.24 17.76 116.24 20.75"/><line class="cls-6" x1="65.4" y1="23.27" x2="65.4" y2="17.48"/><line class="cls-6" x1="120.16" y1="23.27" x2="120.16" y2="17.48"/><text class="cls-8" transform="translate(86.38 16)">B</text><line class="cls-6" x1="69.41" y1="76.04" x2="115.88" y2="76.04"/><polygon class="cls-7" points="69.84 77.53 67.25 76.04 69.84 74.54 69.84 77.53"/><polygon class="cls-7" points="115.44 77.53 118.03 76.04 115.44 74.54 115.44 77.53"/><line class="cls-6" x1="65.79" y1="78.33" x2="65.79" y2="64.16"/><text class="cls-8" transform="translate(86.04 93.91)">A</text><line class="cls-6" x1="114.79" y1="61.52" x2="126.49" y2="61.52"/><line class="cls-6" x1="121.7" y1="69.86" x2="126.49" y2="69.86"/><line class="cls-6" x1="124.71" y1="64.18" x2="124.71" y2="67.36"/><polygon class="cls-7" points="123.72 64.47 124.71 62.75 125.71 64.47 123.72 64.47"/><polygon class="cls-7" points="123.72 67.07 124.71 68.8 125.71 67.07 123.72 67.07"/><text class="cls-8" transform="translate(126.5 72.36)">D</text><text class="cls-8" transform="translate(44.25 63.23)">C</text><line class="cls-6" x1="63.24" y1="61.67" x2="58.2" y2="61.67"/><line class="cls-6" x1="59.98" y1="56.75" x2="59.98" y2="59.22"/><polygon class="cls-7" points="58.98 57.04 59.98 55.31 60.98 57.04 58.98 57.04"/><polygon class="cls-7" points="58.98 58.93 59.98 60.66 60.98 58.93 58.98 58.93"/></g></g></svg>