<svg xmlns="http://www.w3.org/2000/svg" viewBox="0 0 121.71 102.19"><defs><style>.cls-1{fill:#f8f9f9;stroke:#231815;}.cls-1,.cls-2,.cls-3,.cls-7,.cls-8,.cls-9{stroke-miterlimit:10;}.cls-2,.cls-3,.cls-4,.cls-7,.cls-8,.cls-9{fill:none;}.cls-2{stroke:#00a0e9;}.cls-3,.cls-4{stroke:#040000;}.cls-4{stroke-linejoin:round;}.cls-5{fill:#040000;}.cls-6{font-size:20px;fill:#231815;font-family:NanumSquareRoundR, NanumSquareRound;}.cls-7,.cls-8,.cls-9{stroke:#e60012;}.cls-8{stroke-dasharray:0.98 0.98;}.cls-9{stroke-dasharray:0.99 0.99;}.cls-10{fill:#0768ac;}.cls-11{fill:#e71f19;}</style></defs><title>자산 1</title><g id="레이어_2" data-name="레이어 2"><g id="레이어_1-2" data-name="레이어 1"><path class="cls-1" d="M11.74,101.69h109c-10-14.82-10.73-32.3-10.73-32.3.6-11.26,9.78-35.56,9.78-35.56C124.27,21.39,111.67.5,111.67.5H1s15.84,20.85,10.59,35c0,0-11.47,27.83-9.17,39.52C2.43,75,3.3,86.63,11.74,101.69Z"/><path class="cls-2" d="M111.82.75s12.61,20.75,7.89,33.68c0,0-9,23.06-9.63,35.56a68.25,68.25,0,0,0,10.77,31.86"/><line class="cls-3" x1="110.43" y1="73.81" x2="2.13" y2="73.81"/><line class="cls-3" x1="120.66" y1="29.96" x2="12.63" y2="29.96"/><path class="cls-2" d="M12.17,101.69A63,63,0,0,1,2,70c.6-11.26,9.78-35.55,9.78-35.55C16.27,22,1.34.5,1.34.5"/><line class="cls-4" x1="58.22" y1="32.79" x2="67.22" y2="32.79"/><polygon class="cls-5" points="58.66 34.29 56.07 32.79 58.66 31.3 58.66 34.29"/><polygon class="cls-5" points="66.78 34.29 69.37 32.79 66.78 31.3 66.78 34.29"/><line class="cls-4" x1="54.61" y1="35.09" x2="54.61" y2="27.3"/><line class="cls-4" x1="70.58" y1="35.09" x2="70.58" y2="27.3"/><text class="cls-6" transform="translate(56.12 49.61)">A</text><line class="cls-7" x1="54.96" y1="10.19" x2="55.46" y2="10.19"/><line class="cls-8" x1="56.44" y1="10.19" x2="69.67" y2="10.19"/><polyline class="cls-7" points="70.16 10.19 70.66 10.19 70.66 10.69"/><line class="cls-9" x1="70.66" y1="11.68" x2="70.66" y2="25.04"/><line class="cls-7" x1="70.66" y1="25.53" x2="70.66" y2="26.03"/><rect class="cls-10" x="51.85" y="17.25" width="21.92" height="1.19" transform="translate(94.6 74.87) rotate(-135)"/><line class="cls-4" x1="74.22" y1="9.91" x2="80.01" y2="9.91"/><line class="cls-4" x1="78.24" y1="3.79" x2="78.24" y2="6.42"/><polygon class="cls-5" points="76.74 4.23 78.24 1.64 79.73 4.23 76.74 4.23"/><polygon class="cls-5" points="76.74 5.99 78.24 8.57 79.73 5.99 76.74 5.99"/><text class="cls-6" transform="translate(80.72 16.24)">B</text><line class="cls-4" x1="51.54" y1="24.63" x2="45.75" y2="24.63"/><line class="cls-4" x1="51.54" y1="10" x2="45.75" y2="10"/><line class="cls-4" x1="47.52" y1="21.14" x2="47.52" y2="13.48"/><polygon class="cls-5" points="49.02 20.7 47.52 23.3 46.03 20.7 49.02 20.7"/><polygon class="cls-5" points="49.02 13.92 47.52 11.33 46.03 13.92 49.02 13.92"/><text class="cls-6" transform="translate(30.86 23.97)">C</text><circle class="cls-11" cx="54.96" cy="10" r="1.42"/></g></g></svg>