<svg xmlns="http://www.w3.org/2000/svg" viewBox="0 0 121.71 102.19"><defs><style>.cls-1{fill:#f8f9f9;stroke:#231815;}.cls-1,.cls-2,.cls-3{stroke-miterlimit:10;}.cls-2,.cls-3,.cls-5{fill:none;}.cls-2{stroke:#00a0e9;}.cls-3,.cls-5{stroke:#040000;}.cls-4{fill:#0768ac;}.cls-5{stroke-linejoin:round;}.cls-6{fill:#040000;}.cls-7{font-size:20px;fill:#231815;font-family:NanumSquareRoundR, NanumSquareRound;}</style></defs><title>자산 18</title><g id="레이어_2" data-name="레이어 2"><g id="레이어_1-2" data-name="레이어 1"><path class="cls-1" d="M11.74,101.69h109c-10-14.82-10.73-32.3-10.73-32.3.6-11.26,9.78-35.56,9.78-35.56C124.27,21.39,111.67.5,111.67.5H1s15.84,20.85,10.59,35c0,0-11.47,27.83-9.17,39.52C2.43,75,3.3,86.63,11.74,101.69Z"/><path class="cls-2" d="M111.82.75s12.61,20.75,7.89,33.68c0,0-9,23.06-9.63,35.56a68.25,68.25,0,0,0,10.77,31.86"/><line class="cls-3" x1="110.43" y1="73.81" x2="2.13" y2="73.81"/><line class="cls-3" x1="120.66" y1="29.96" x2="12.63" y2="29.96"/><path class="cls-2" d="M12.17,101.69A63,63,0,0,1,2,70c.6-11.26,9.78-35.55,9.78-35.55C16.27,22,1.34.5,1.34.5"/><rect class="cls-4" x="50.8" y="19.37" width="32.15" height="1.19"/><line class="cls-5" x1="50.8" y1="22.72" x2="50.8" y2="28.51"/><line class="cls-5" x1="82.95" y1="22.72" x2="82.95" y2="28.51"/><line class="cls-5" x1="54.29" y1="26.73" x2="79.46" y2="26.73"/><polygon class="cls-6" points="54.72 28.23 52.13 26.73 54.72 25.24 54.72 28.23"/><polygon class="cls-6" points="79.03 28.23 81.62 26.73 79.03 25.24 79.03 28.23"/><text class="cls-7" transform="translate(60.47 46.3)">A</text><line class="cls-5" x1="41.72" y1="19.97" x2="48.25" y2="19.97"/><line class="cls-5" x1="43.72" y1="16.25" x2="43.72" y2="4.12"/><polygon class="cls-6" points="45.22 15.81 43.72 18.4 42.23 15.81 45.22 15.81"/><polygon class="cls-6" points="45.22 4.56 43.72 1.97 42.23 4.56 45.22 4.56"/><text class="cls-7" transform="translate(28.4 17.51)">B</text></g></g></svg>