<svg xmlns="http://www.w3.org/2000/svg" viewBox="0 0 121.71 102.19"><defs><style>.cls-1{fill:#f8f9f9;stroke:#231815;}.cls-1,.cls-2,.cls-3,.cls-4{stroke-miterlimit:10;}.cls-2,.cls-3,.cls-4,.cls-5{fill:none;}.cls-2{stroke:#00a0e9;}.cls-3,.cls-5{stroke:#040000;}.cls-4{stroke:#0768ac;stroke-dasharray:1;}.cls-5{stroke-linejoin:round;}.cls-6{fill:#040000;}.cls-7{font-size:20px;fill:#231815;font-family:NanumSquareRoundR, NanumSquareRound;}.cls-8{fill:#e71f19;}</style></defs><title>자산 11</title><g id="레이어_2" data-name="레이어 2"><g id="레이어_1-2" data-name="레이어 1"><path class="cls-1" d="M11.74,101.69h109c-10-14.82-10.73-32.3-10.73-32.3.6-11.26,9.78-35.56,9.78-35.56C124.27,21.39,111.67.5,111.67.5H1s15.84,20.85,10.59,35c0,0-11.47,27.83-9.17,39.52C2.43,75,3.3,86.63,11.74,101.69Z"/><path class="cls-2" d="M111.82.75s12.61,20.75,7.89,33.68c0,0-9,23.06-9.63,35.56a68.25,68.25,0,0,0,10.77,31.86"/><line class="cls-3" x1="110.43" y1="73.81" x2="2.13" y2="73.81"/><line class="cls-3" x1="120.66" y1="29.96" x2="12.63" y2="29.96"/><path class="cls-2" d="M12.17,101.69A63,63,0,0,1,2,70c.6-11.26,9.78-35.55,9.78-35.55C16.27,22,1.34.5,1.34.5"/><rect class="cls-4" x="54.25" y="48.37" width="23.56" height="8.78" rx="4.39"/><line class="cls-5" x1="43.84" y1="53.43" x2="50.37" y2="53.43"/><line class="cls-5" x1="45.84" y1="49.71" x2="45.84" y2="33.58"/><polygon class="cls-6" points="47.33 49.27 45.84 51.86 44.34 49.27 47.33 49.27"/><polygon class="cls-6" points="47.33 34.02 45.84 31.43 44.34 34.02 47.33 34.02"/><text class="cls-7" transform="translate(30.07 48.63)">B</text><circle class="cls-8" cx="66.03" cy="52.76" r="0.8"/><polyline class="cls-3" points="81.59 46.34 85.44 42.49 90.08 42.49"/><polygon class="cls-6" points="83.42 47.34 79.56 48.37 80.59 44.52 83.42 47.34"/><text class="cls-7" transform="translate(90.1 48.37)">A</text><line class="cls-5" x1="61.08" y1="41.8" x2="71.08" y2="41.8"/><polygon class="cls-6" points="61.51 43.29 58.92 41.8 61.51 40.3 61.51 43.29"/><polygon class="cls-6" points="70.64 43.29 73.23 41.8 70.64 40.3 70.64 43.29"/><line class="cls-5" x1="57.59" y1="45.81" x2="57.59" y2="40.02"/><line class="cls-5" x1="74.56" y1="45.81" x2="74.56" y2="40.02"/><text class="cls-7" transform="translate(59.63 38.54)">C</text></g></g></svg>