<svg xmlns="http://www.w3.org/2000/svg" viewBox="0 0 121.71 102.19"><defs><style>.cls-1{fill:#f8f9f9;stroke:#231815;}.cls-1,.cls-2,.cls-3,.cls-7{stroke-miterlimit:10;}.cls-2,.cls-3,.cls-4,.cls-7{fill:none;}.cls-2{stroke:#00a0e9;}.cls-3,.cls-4{stroke:#040000;}.cls-4{stroke-linejoin:round;}.cls-5{fill:#040000;}.cls-6{font-size:20px;fill:#231815;font-family:NanumSquareRoundR, NanumSquareRound;}.cls-7{stroke:#0768ac;stroke-dasharray:1;}.cls-8{fill:#e71f19;}</style></defs><title>자산 7</title><g id="레이어_2" data-name="레이어 2"><g id="레이어_1-2" data-name="레이어 1"><path class="cls-1" d="M11.74,101.69h109c-10-14.82-10.73-32.3-10.73-32.3.6-11.26,9.78-35.56,9.78-35.56C124.27,21.39,111.67.5,111.67.5H1s15.84,20.85,10.59,35c0,0-11.47,27.83-9.17,39.52C2.43,75,3.3,86.63,11.74,101.69Z"/><path class="cls-2" d="M111.82.75s12.61,20.75,7.89,33.68c0,0-9,23.06-9.63,35.56a68.25,68.25,0,0,0,10.77,31.86"/><line class="cls-3" x1="110.43" y1="73.81" x2="2.13" y2="73.81"/><line class="cls-3" x1="120.66" y1="29.96" x2="12.63" y2="29.96"/><path class="cls-2" d="M12.17,101.69A63,63,0,0,1,2,70c.6-11.26,9.78-35.55,9.78-35.55C16.27,22,1.34.5,1.34.5"/><line class="cls-4" x1="69.52" y1="46" x2="75.31" y2="46"/><line class="cls-4" x1="69.52" y1="63.71" x2="75.31" y2="63.71"/><line class="cls-4" x1="73.54" y1="49.48" x2="73.54" y2="60.23"/><polygon class="cls-5" points="72.04 49.92 73.53 47.33 75.03 49.92 72.04 49.92"/><polygon class="cls-5" points="72.04 59.79 73.53 62.38 75.03 59.79 72.04 59.79"/><text class="cls-6" transform="translate(76.23 60.96)">C</text><line class="cls-4" x1="47.52" y1="54.73" x2="54.05" y2="54.73"/><line class="cls-4" x1="49.52" y1="51.01" x2="49.52" y2="33.88"/><polygon class="cls-5" points="51.02 50.57 49.52 53.16 48.03 50.57 51.02 50.57"/><polygon class="cls-5" points="51.02 34.32 49.52 31.73 48.03 34.32 51.02 34.32"/><text class="cls-6" transform="translate(34.13 49.25)">B</text><rect class="cls-7" x="49.74" y="50.47" width="23.56" height="8.78" rx="4.39" transform="translate(116.38 -6.67) rotate(90)"/><circle class="cls-8" cx="61.52" cy="54.86" r="0.8"/><polyline class="cls-3" points="66.22 38.85 70.07 35 74.71 35"/><polygon class="cls-5" points="68.05 39.85 64.19 40.88 65.22 37.03 68.05 39.85"/><text class="cls-6" transform="translate(76.08 38.54)">A</text></g></g></svg>