<svg xmlns="http://www.w3.org/2000/svg" viewBox="0 0 121.71 102.19"><defs><style>.cls-1{fill:#f8f9f9;stroke:#231815;}.cls-1,.cls-2,.cls-3,.cls-4{stroke-miterlimit:10;}.cls-2,.cls-3,.cls-4,.cls-5{fill:none;}.cls-2{stroke:#00a0e9;}.cls-3,.cls-5{stroke:#040000;}.cls-4{stroke:#0768ac;stroke-dasharray:1;}.cls-5{stroke-linejoin:round;}.cls-6{fill:#040000;}.cls-7{font-size:20px;fill:#231815;font-family:NanumSquareRoundR, NanumSquareRound;}.cls-8{fill:#e71f19;}</style></defs><title>자산 20</title><g id="레이어_2" data-name="레이어 2"><g id="레이어_1-2" data-name="레이어 1"><path class="cls-1" d="M11.74,101.69h109c-10-14.82-10.73-32.3-10.73-32.3.6-11.26,9.78-35.56,9.78-35.56C124.27,21.39,111.67.5,111.67.5H1s15.84,20.85,10.59,35c0,0-11.47,27.83-9.17,39.52C2.43,75,3.3,86.63,11.74,101.69Z"/><path class="cls-2" d="M111.82.75s12.61,20.75,7.89,33.68c0,0-9,23.06-9.63,35.56a68.25,68.25,0,0,0,10.77,31.86"/><line class="cls-3" x1="110.43" y1="73.81" x2="2.13" y2="73.81"/><line class="cls-3" x1="120.66" y1="29.96" x2="12.63" y2="29.96"/><path class="cls-2" d="M12.17,101.69A63,63,0,0,1,2,70c.6-11.26,9.78-35.55,9.78-35.55C16.27,22,1.34.5,1.34.5"/><circle class="cls-4" cx="61.23" cy="52.59" r="4.91"/><line class="cls-5" x1="46.68" y1="52.74" x2="53.21" y2="52.74"/><line class="cls-5" x1="48.68" y1="49.02" x2="48.68" y2="33.89"/><polygon class="cls-6" points="50.18 48.59 48.68 51.18 47.19 48.59 50.18 48.59"/><polygon class="cls-6" points="50.18 34.33 48.68 31.74 47.19 34.33 50.18 34.33"/><text class="cls-7" transform="translate(32.8 48.63)">B</text><circle class="cls-8" cx="61.23" cy="52.59" r="0.8"/><polyline class="cls-3" points="69.38 45.66 73.23 41.8 77.87 41.8"/><polygon class="cls-6" points="71.2 46.65 67.35 47.69 68.38 43.83 71.2 46.65"/><text class="cls-7" transform="translate(77.49 48.63)">A</text></g></g></svg>