<svg xmlns="http://www.w3.org/2000/svg" viewBox="0 0 121.71 102.19"><defs><style>.cls-1{fill:#f8f9f9;stroke:#231815;}.cls-1,.cls-2,.cls-3{stroke-miterlimit:10;}.cls-2,.cls-3,.cls-5{fill:none;}.cls-2{stroke:#00a0e9;}.cls-3,.cls-5{stroke:#040000;}.cls-4{fill:#0768ac;}.cls-5{stroke-linejoin:round;}.cls-6{fill:#040000;}.cls-7{font-size:20px;fill:#231815;font-family:NanumSquareRoundR, NanumSquareRound;}</style></defs><title>자산 14</title><g id="레이어_2" data-name="레이어 2"><g id="레이어_1-2" data-name="레이어 1"><path class="cls-1" d="M11.74,101.69h109c-10-14.82-10.73-32.3-10.73-32.3.6-11.26,9.78-35.56,9.78-35.56C124.27,21.39,111.67.5,111.67.5H1s15.84,20.85,10.59,35c0,0-11.47,27.83-9.17,39.52C2.43,75,3.3,86.63,11.74,101.69Z"/><path class="cls-2" d="M111.82.75s12.61,20.75,7.89,33.68c0,0-9,23.06-9.63,35.56a68.25,68.25,0,0,0,10.77,31.86"/><line class="cls-3" x1="110.43" y1="73.81" x2="2.13" y2="73.81"/><line class="cls-3" x1="120.66" y1="29.96" x2="12.63" y2="29.96"/><path class="cls-2" d="M12.17,101.69A63,63,0,0,1,2,70c.6-11.26,9.78-35.55,9.78-35.55C16.27,22,1.34.5,1.34.5"/><rect class="cls-4" x="52.07" y="52.13" width="17.77" height="1" transform="translate(8.32 113.6) rotate(-90)"/><line class="cls-5" x1="63.6" y1="43.81" x2="69.39" y2="43.81"/><line class="cls-5" x1="63.6" y1="61.52" x2="69.39" y2="61.52"/><line class="cls-5" x1="67.61" y1="47.29" x2="67.61" y2="58.04"/><polygon class="cls-6" points="66.12 47.73 67.61 45.14 69.11 47.73 66.12 47.73"/><polygon class="cls-6" points="66.12 57.6 67.61 60.19 69.11 57.6 66.12 57.6"/><text class="cls-7" transform="translate(70.78 60.19)">A</text><line class="cls-5" x1="52.11" y1="43.75" x2="58.64" y2="43.75"/><line class="cls-5" x1="54.11" y1="40.04" x2="54.11" y2="33.18"/><polygon class="cls-6" points="55.61 39.6 54.11 42.19 52.62 39.6 55.61 39.6"/><polygon class="cls-6" points="55.61 33.61 54.11 31.02 52.62 33.61 55.61 33.61"/><text class="cls-7" transform="translate(37.23 45.68)">B</text></g></g></svg>