<svg xmlns="http://www.w3.org/2000/svg" viewBox="0 0 121.71 102.19"><defs><style>.cls-1{fill:#f8f9f9;stroke:#231815;}.cls-1,.cls-2,.cls-3,.cls-7,.cls-8,.cls-9{stroke-miterlimit:10;}.cls-2,.cls-3,.cls-4,.cls-7,.cls-8,.cls-9{fill:none;}.cls-2{stroke:#00a0e9;}.cls-3,.cls-4{stroke:#040000;}.cls-4{stroke-linejoin:round;}.cls-5{fill:#040000;}.cls-6{font-size:20px;fill:#231815;font-family:NanumSquareRoundR, NanumSquareRound;}.cls-7,.cls-8,.cls-9{stroke:#e60012;}.cls-8{stroke-dasharray:0.98 0.98;}.cls-9{stroke-dasharray:0.99 0.99;}.cls-10{fill:#0768ac;}.cls-11{fill:#e71f19;}</style></defs><title>자산 4</title><g id="레이어_2" data-name="레이어 2"><g id="레이어_1-2" data-name="레이어 1"><path class="cls-1" d="M11.74,101.69h109c-10-14.82-10.73-32.3-10.73-32.3.6-11.26,9.78-35.56,9.78-35.56C124.27,21.39,111.67.5,111.67.5H1s15.84,20.85,10.59,35c0,0-11.47,27.83-9.17,39.52C2.43,75,3.3,86.63,11.74,101.69Z"/><path class="cls-2" d="M111.82.75s12.61,20.75,7.89,33.68c0,0-9,23.06-9.63,35.56a68.25,68.25,0,0,0,10.77,31.86"/><line class="cls-3" x1="110.43" y1="73.81" x2="2.13" y2="73.81"/><line class="cls-3" x1="120.66" y1="29.96" x2="12.63" y2="29.96"/><path class="cls-2" d="M12.17,101.69A63,63,0,0,1,2,70c.6-11.26,9.78-35.55,9.78-35.55C16.27,22,1.34.5,1.34.5"/><line class="cls-4" x1="51.76" y1="56.69" x2="45.97" y2="56.69"/><line class="cls-4" x1="51.76" y1="40.98" x2="45.97" y2="40.98"/><line class="cls-4" x1="47.74" y1="53.21" x2="47.74" y2="44.46"/><polygon class="cls-5" points="49.24 52.77 47.74 55.36 46.25 52.77 49.24 52.77"/><polygon class="cls-5" points="49.24 44.9 47.74 42.31 46.25 44.9 49.24 44.9"/><text class="cls-6" transform="translate(30.91 55.81)">C</text><line class="cls-7" x1="69.41" y1="41.9" x2="69.41" y2="42.4"/><line class="cls-8" x1="69.41" y1="43.38" x2="69.41" y2="56.6"/><polyline class="cls-7" points="69.41 57.09 69.41 57.59 68.91 57.59"/><line class="cls-9" x1="67.92" y1="57.59" x2="54.56" y2="57.59"/><line class="cls-7" x1="54.07" y1="57.59" x2="53.57" y2="57.59"/><rect class="cls-10" x="50.8" y="49.15" width="21.92" height="1.19" transform="translate(-17.08 58.24) rotate(-45)"/><circle class="cls-11" cx="69.6" cy="42.09" r="1.42"/><line class="cls-4" x1="57.18" y1="62.71" x2="66.18" y2="62.71"/><polygon class="cls-5" points="57.62 64.21 55.02 62.71 57.62 61.22 57.62 64.21"/><polygon class="cls-5" points="65.74 64.21 68.33 62.71 65.74 61.22 65.74 64.21"/><line class="cls-4" x1="53.57" y1="65.01" x2="53.57" y2="59.22"/><line class="cls-4" x1="69.54" y1="65.01" x2="69.54" y2="59.22"/><text class="cls-6" transform="translate(55.08 81.25)">A</text><line class="cls-4" x1="78.68" y1="41.34" x2="73.39" y2="41.34"/><line class="cls-4" x1="76.52" y1="37.62" x2="76.52" y2="33.62"/><polygon class="cls-5" points="78.01 37.18 76.52 39.77 75.02 37.18 78.01 37.18"/><polygon class="cls-5" points="78.01 34.06 76.52 31.47 75.02 34.06 78.01 34.06"/><text class="cls-6" transform="translate(79.23 45.64)">B</text></g></g></svg>