<svg xmlns="http://www.w3.org/2000/svg" viewBox="0 0 121.71 102.19"><defs><style>.cls-1{fill:#f8f9f9;stroke:#231815;}.cls-1,.cls-2,.cls-3,.cls-4,.cls-5,.cls-6{stroke-miterlimit:10;}.cls-2,.cls-3,.cls-4,.cls-5,.cls-6,.cls-8{fill:none;}.cls-2{stroke:#00a0e9;}.cls-3,.cls-8{stroke:#040000;}.cls-4,.cls-5,.cls-6{stroke:#e60012;}.cls-5{stroke-dasharray:0.98 0.98;}.cls-6{stroke-dasharray:0.99 0.99;}.cls-7{fill:#0768ac;}.cls-8{stroke-linejoin:round;}.cls-9{fill:#040000;}.cls-10{font-size:20px;fill:#231815;font-family:NanumSquareRoundR, NanumSquareRound;}.cls-11{fill:#e71f19;}</style></defs><title>자산 2</title><g id="레이어_2" data-name="레이어 2"><g id="레이어_1-2" data-name="레이어 1"><path class="cls-1" d="M11.74,101.69h109c-10-14.82-10.73-32.3-10.73-32.3.6-11.26,9.78-35.56,9.78-35.56C124.27,21.39,111.67.5,111.67.5H1s15.84,20.85,10.59,35c0,0-11.47,27.83-9.17,39.52C2.43,75,3.3,86.63,11.74,101.69Z"/><path class="cls-2" d="M111.82.75s12.61,20.75,7.89,33.68c0,0-9,23.06-9.63,35.56a68.25,68.25,0,0,0,10.77,31.86"/><line class="cls-3" x1="110.43" y1="73.81" x2="2.13" y2="73.81"/><line class="cls-3" x1="120.66" y1="29.96" x2="12.63" y2="29.96"/><path class="cls-2" d="M12.17,101.69A63,63,0,0,1,2,70c.6-11.26,9.78-35.55,9.78-35.55C16.27,22,1.34.5,1.34.5"/><line class="cls-4" x1="54.96" y1="49.79" x2="55.46" y2="49.79"/><line class="cls-5" x1="56.44" y1="49.79" x2="69.67" y2="49.79"/><polyline class="cls-4" points="70.16 49.79 70.66 49.79 70.66 50.29"/><line class="cls-6" x1="70.66" y1="51.28" x2="70.66" y2="64.64"/><line class="cls-4" x1="70.66" y1="65.14" x2="70.66" y2="65.64"/><rect class="cls-7" x="51.85" y="56.85" width="21.92" height="1.19" transform="translate(66.6 142.48) rotate(-135)"/><line class="cls-8" x1="55.14" y1="46.02" x2="55.14" y2="40.23"/><line class="cls-8" x1="70.86" y1="46.02" x2="70.86" y2="40.23"/><line class="cls-8" x1="58.63" y1="42" x2="67.37" y2="42"/><polygon class="cls-9" points="59.06 43.5 56.48 42 59.06 40.51 59.06 43.5"/><polygon class="cls-9" points="66.93 43.5 69.52 42 66.93 40.51 66.93 43.5"/><text class="cls-10" transform="translate(56.47 38.75)">A</text><line class="cls-8" x1="74.22" y1="49.51" x2="80.01" y2="49.51"/><line class="cls-8" x1="78.24" y1="33.23" x2="78.24" y2="46.03"/><polygon class="cls-9" points="76.74 33.67 78.24 31.08 79.73 33.67 76.74 33.67"/><polygon class="cls-9" points="76.74 45.59 78.24 48.18 79.73 45.59 76.74 45.59"/><text class="cls-10" transform="translate(80.72 46.89)">B</text><line class="cls-8" x1="51.54" y1="64.23" x2="45.75" y2="64.23"/><line class="cls-8" x1="51.54" y1="49.6" x2="45.75" y2="49.6"/><line class="cls-8" x1="47.52" y1="60.75" x2="47.52" y2="53.09"/><polygon class="cls-9" points="49.02 60.31 47.52 62.9 46.03 60.31 49.02 60.31"/><polygon class="cls-9" points="49.02 53.52 47.52 50.93 46.03 53.52 49.02 53.52"/><text class="cls-10" transform="translate(31.86 63.52)">C</text><circle class="cls-11" cx="54.96" cy="49.6" r="1.42"/></g></g></svg>