<svg xmlns="http://www.w3.org/2000/svg" viewBox="0 0 142.72 110.48"><defs><style>.cls-1{fill:#f8f9f9;}.cls-1,.cls-4{stroke:#231815;}.cls-1,.cls-2,.cls-3,.cls-4,.cls-5{stroke-miterlimit:10;}.cls-2,.cls-3,.cls-4,.cls-5,.cls-6{fill:none;}.cls-2,.cls-6{stroke:#040000;}.cls-3{stroke:#00a0e9;}.cls-4,.cls-5{stroke-dasharray:1;}.cls-5{stroke:#1d2088;}.cls-6{stroke-linejoin:round;}.cls-7{fill:#040000;}.cls-8{font-size:20px;fill:#231815;font-family:NanumSquareRoundR, NanumSquareRound;}</style></defs><title>자산 32</title><g id="레이어_2" data-name="레이어 2"><g id="레이어_1-2" data-name="레이어 1"><path class="cls-1" d="M22,57.46V.5H132.68s12.59,20.89,8.15,33.33c0,0-9.19,24.3-9.78,35.56,0,0,.72,17.48,10.73,32.3H76.45V65.54l-45.63,0Z"/><line class="cls-2" x1="76.45" y1="72.58" x2="130.89" y2="72.58"/><line class="cls-2" x1="22.01" y1="28.63" x2="141.75" y2="28.63"/><path class="cls-3" d="M132.68.5s12.59,20.89,8.15,33.33c0,0-9.19,24.3-9.78,35.56a68.78,68.78,0,0,0,10.73,32.3"/><polygon class="cls-4" points="76.45 101.69 76.45 65.58 30.82 65.58 22.01 57.46 22.01 101.69 76.45 101.69"/><path class="cls-5" d="M58.11,101.69,76,65.54a.18.18,0,0,1,.34,0l17.17,36.15"/><line class="cls-4" x1="22.01" y1="72.58" x2="76.45" y2="72.58"/><line class="cls-6" x1="25.84" y1="108.18" x2="72.85" y2="108.18"/><polygon class="cls-7" points="26.28 109.68 23.69 108.18 26.28 106.69 26.28 109.68"/><polygon class="cls-7" points="72.41 109.68 75 108.18 72.41 106.69 72.41 109.68"/><line class="cls-6" x1="22.23" y1="110.48" x2="22.23" y2="104.69"/><line class="cls-6" x1="76.2" y1="110.48" x2="76.2" y2="104.69"/><text class="cls-8" transform="translate(42.83 104.69)">B</text><line class="cls-6" x1="72.97" y1="52.15" x2="25.48" y2="52.15"/><polygon class="cls-7" points="72.53 50.66 75.12 52.15 72.53 53.65 72.53 50.66"/><polygon class="cls-7" points="25.91 50.66 23.32 52.15 25.91 53.65 25.91 50.66"/><line class="cls-6" x1="76.45" y1="61.56" x2="76.45" y2="50.38"/><text class="cls-8" transform="translate(44.27 48.9)">A</text><text class="cls-8" transform="translate(86.32 76.73)">C</text><line class="cls-6" x1="79.93" y1="65.43" x2="84.96" y2="65.43"/><line class="cls-6" x1="83.19" y1="69.47" x2="83.19" y2="67.88"/><polygon class="cls-7" points="84.18 69.18 83.19 70.9 82.19 69.18 84.18 69.18"/><polygon class="cls-7" points="84.18 68.17 83.19 66.45 82.19 68.17 84.18 68.17"/><line class="cls-6" x1="28.48" y1="66.4" x2="14.78" y2="66.4"/><line class="cls-6" x1="19.57" y1="58.06" x2="14.78" y2="58.06"/><line class="cls-6" x1="16.55" y1="63.74" x2="16.55" y2="60.56"/><polygon class="cls-7" points="17.55 63.45 16.55 65.18 15.56 63.45 17.55 63.45"/><polygon class="cls-7" points="17.55 60.85 16.55 59.12 15.56 60.85 17.55 60.85"/><text class="cls-8" transform="translate(0 69.47)">D</text></g></g></svg>