<svg xmlns="http://www.w3.org/2000/svg" viewBox="0 0 121.21 110.48"><defs><style>.cls-1{fill:#f8f9f9;}.cls-1,.cls-4{stroke:#231815;}.cls-1,.cls-2,.cls-3,.cls-4{stroke-miterlimit:10;}.cls-2,.cls-3,.cls-4,.cls-5{fill:none;}.cls-2,.cls-5{stroke:#040000;}.cls-3{stroke:#00a0e9;}.cls-4{stroke-dasharray:1;}.cls-5{stroke-linejoin:round;}.cls-6{fill:#040000;}.cls-7{font-size:20px;fill:#231815;font-family:NanumSquareRoundR, NanumSquareRound;}</style></defs><title>자산 36</title><g id="레이어_2" data-name="레이어 2"><g id="레이어_1-2" data-name="레이어 1"><path class="cls-1" d="M.5.5H111.17s12.59,20.89,8.14,33.33c0,0-9.18,24.3-9.77,35.56,0,0,.71,17.48,10.72,32.3H20.94L.5,84.73Z"/><line class="cls-2" x1="0.5" y1="72.58" x2="109.38" y2="72.58"/><line class="cls-2" x1="0.5" y1="28.63" x2="120.24" y2="28.63"/><path class="cls-3" d="M111.17.5s12.59,20.89,8.14,33.33c0,0-9.18,24.3-9.77,35.56a68.84,68.84,0,0,0,10.72,32.3"/><polygon class="cls-4" points="0.5 84.73 20.94 101.69 0.5 101.69 0.5 84.73"/><line class="cls-5" x1="4.11" y1="108.18" x2="17.11" y2="108.18"/><polygon class="cls-6" points="4.55 109.68 1.96 108.18 4.55 106.69 4.55 109.68"/><polygon class="cls-6" points="16.68 109.68 19.27 108.18 16.68 106.69 16.68 109.68"/><line class="cls-5" x1="0.5" y1="110.48" x2="0.5" y2="104.69"/><line class="cls-5" x1="20.47" y1="110.48" x2="20.47" y2="104.69"/><text class="cls-7" transform="translate(4.01 105.16)">A</text><line class="cls-5" x1="30.43" y1="83.77" x2="2.85" y2="83.77"/><line class="cls-5" x1="28.27" y1="87.48" x2="28.27" y2="98.48"/><polygon class="cls-6" points="26.77 87.92 28.27 85.33 29.76 87.92 26.77 87.92"/><polygon class="cls-6" points="26.77 98.05 28.27 100.64 29.76 98.05 26.77 98.05"/><text class="cls-7" transform="translate(30.33 99.11)">B</text></g></g></svg>