<svg xmlns="http://www.w3.org/2000/svg" viewBox="0 0 121.71 105.17"><defs><style>.cls-1{fill:#f8f9f9;stroke:#231815;}.cls-1,.cls-2,.cls-3,.cls-7{stroke-miterlimit:10;}.cls-2,.cls-3,.cls-4,.cls-7{fill:none;}.cls-2{stroke:#00a0e9;}.cls-3,.cls-4{stroke:#040000;}.cls-4{stroke-linejoin:round;}.cls-5{fill:#040000;}.cls-6{font-size:20px;fill:#231815;font-family:NanumSquareRoundR, NanumSquareRound;}.cls-7{stroke:#0768ac;stroke-dasharray:1;}.cls-8{fill:#e71f19;}</style></defs><title>자산 9</title><g id="레이어_2" data-name="레이어 2"><g id="레이어_1-2" data-name="레이어 1"><path class="cls-1" d="M11.74,101.69h109c-10-14.82-10.73-32.3-10.73-32.3.6-11.26,9.78-35.56,9.78-35.56C124.27,21.39,111.67.5,111.67.5H1s15.84,20.85,10.59,35c0,0-11.47,27.83-9.17,39.52C2.43,75,3.3,86.63,11.74,101.69Z"/><path class="cls-2" d="M111.82.75s12.61,20.75,7.89,33.68c0,0-9,23.06-9.63,35.56a68.25,68.25,0,0,0,10.77,31.86"/><line class="cls-3" x1="110.43" y1="73.81" x2="2.13" y2="73.81"/><line class="cls-3" x1="120.66" y1="29.96" x2="12.63" y2="29.96"/><path class="cls-2" d="M12.17,101.69A63,63,0,0,1,2,70c.6-11.26,9.78-35.55,9.78-35.55C16.27,22,1.34.5,1.34.5"/><line class="cls-4" x1="71.12" y1="82.36" x2="76.91" y2="82.36"/><line class="cls-4" x1="71.12" y1="93.07" x2="76.91" y2="93.07"/><line class="cls-4" x1="75.13" y1="85.84" x2="75.13" y2="89.59"/><polygon class="cls-5" points="73.64 86.28 75.13 83.69 76.63 86.28 73.64 86.28"/><polygon class="cls-5" points="73.64 89.15 75.13 91.74 76.63 89.15 73.64 89.15"/><text class="cls-6" transform="translate(77.89 94.59)">C</text><line class="cls-4" x1="48.23" y1="87.71" x2="56.51" y2="87.71"/><line class="cls-4" x1="50.39" y1="97.91" x2="50.39" y2="91.27"/><polygon class="cls-5" points="51.89 97.48 50.39 100.07 48.89 97.48 51.89 97.48"/><polygon class="cls-5" points="51.89 91.7 50.39 89.11 48.89 91.7 51.89 91.7"/><text class="cls-6" transform="translate(34.13 100.07)">B</text><rect class="cls-7" x="56.37" y="83.33" width="14.71" height="8.78" rx="4.39" transform="translate(151.44 23.99) rotate(90)"/><circle class="cls-8" cx="63.73" cy="87.71" r="0.8"/><polyline class="cls-3" points="67.29 76.8 71.14 66.8 75.78 66.8"/><polygon class="cls-5" points="69.36 76.97 66.26 79.47 65.64 75.53 69.36 76.97"/><text class="cls-6" transform="translate(77.19 71.52)">A</text></g></g></svg>