<svg xmlns="http://www.w3.org/2000/svg" viewBox="0 0 121.71 105.17"><defs><style>.cls-1{fill:#f8f9f9;stroke:#231815;}.cls-1,.cls-2,.cls-3,.cls-7{stroke-miterlimit:10;}.cls-2,.cls-3,.cls-4,.cls-7{fill:none;}.cls-2{stroke:#00a0e9;}.cls-3,.cls-4{stroke:#040000;}.cls-4{stroke-linejoin:round;}.cls-5{fill:#040000;}.cls-6{font-size:20px;fill:#231815;font-family:NanumSquareRoundR, NanumSquareRound;}.cls-7{stroke:#0768ac;stroke-dasharray:1;}.cls-8{fill:#e71f19;}</style></defs><title>자산 12</title><g id="레이어_2" data-name="레이어 2"><g id="레이어_1-2" data-name="레이어 1"><path class="cls-1" d="M11.74,101.69h109c-10-14.82-10.73-32.3-10.73-32.3.6-11.26,9.78-35.56,9.78-35.56C124.27,21.39,111.67.5,111.67.5H1s15.84,20.85,10.59,35c0,0-11.47,27.83-9.17,39.52C2.43,75,3.3,86.63,11.74,101.69Z"/><path class="cls-2" d="M111.82.75s12.61,20.75,7.89,33.68c0,0-9,23.06-9.63,35.56a68.25,68.25,0,0,0,10.77,31.86"/><line class="cls-3" x1="110.43" y1="73.81" x2="2.13" y2="73.81"/><line class="cls-3" x1="120.66" y1="29.96" x2="12.63" y2="29.96"/><path class="cls-2" d="M12.17,101.69A63,63,0,0,1,2,70c.6-11.26,9.78-35.55,9.78-35.55C16.27,22,1.34.5,1.34.5"/><line class="cls-4" x1="33.37" y1="88.48" x2="41.65" y2="88.48"/><line class="cls-4" x1="35.53" y1="98.38" x2="35.53" y2="92.03"/><polygon class="cls-5" points="37.02 97.95 35.53 100.54 34.03 97.95 37.02 97.95"/><polygon class="cls-5" points="37.02 92.47 35.53 89.88 34.03 92.47 37.02 92.47"/><text class="cls-6" transform="translate(19.42 100.07)">B</text><rect class="cls-7" x="44.83" y="84.09" width="23.56" height="8.78" rx="4.39"/><circle class="cls-8" cx="56.61" cy="88.48" r="0.8"/><polyline class="cls-3" points="72.17 83.3 76.02 79.45 80.66 79.45"/><polygon class="cls-5" points="74 84.3 70.14 85.33 71.17 81.47 74 84.3"/><text class="cls-6" transform="translate(80.24 85.33)">A</text><line class="cls-4" x1="51.66" y1="70.07" x2="61.66" y2="70.07"/><polygon class="cls-5" points="52.09 71.56 49.5 70.07 52.09 68.57 52.09 71.56"/><polygon class="cls-5" points="61.22 71.56 63.81 70.07 61.22 68.57 61.22 71.56"/><line class="cls-4" x1="48.17" y1="81.08" x2="48.17" y2="68.29"/><line class="cls-4" x1="65.14" y1="81.08" x2="65.14" y2="68.29"/><text class="cls-6" transform="translate(50.21 66.81)">C</text></g></g></svg>