<svg xmlns="http://www.w3.org/2000/svg" viewBox="0 0 121.71 110.48"><defs><style>.cls-1{fill:#f8f9f9;}.cls-1,.cls-4{stroke:#231815;}.cls-1,.cls-2,.cls-3,.cls-4{stroke-miterlimit:10;}.cls-2,.cls-3,.cls-4,.cls-5{fill:none;}.cls-2{stroke:#00a0e9;}.cls-3,.cls-5{stroke:#040000;}.cls-4{stroke-dasharray:1;}.cls-5{stroke-linejoin:round;}.cls-6{fill:#040000;}.cls-7{font-size:20px;fill:#231815;font-family:NanumSquareRoundR, NanumSquareRound;}</style></defs><title>자산 23</title><g id="레이어_2" data-name="레이어 2"><g id="레이어_1-2" data-name="레이어 1"><path class="cls-1" d="M83.85,101.69h36.92c-10-14.82-10.73-32.3-10.73-32.3.6-11.26,9.78-35.56,9.78-35.56C124.27,21.39,111.67.5,111.67.5H1s15.84,20.85,10.59,35c0,0-11.47,27.83-9.17,39.52,0,0,.87,11.59,9.31,26.65H37.69V86.33H83.85Z"/><path class="cls-2" d="M111.73.65s12.61,20.76,7.88,33.68c0,0-9,23.07-9.62,35.57a68.11,68.11,0,0,0,10.77,31.86"/><line class="cls-3" x1="110.33" y1="73.72" x2="2.04" y2="73.72"/><line class="cls-3" x1="120.56" y1="29.86" x2="12.54" y2="29.86"/><path class="cls-2" d="M12.08,101.59A62.81,62.81,0,0,1,2,69.89c.59-11.26,9.78-35.56,9.78-35.56C16.17,21.89,1.24.41,1.24.41"/><rect class="cls-4" x="37.69" y="86.28" width="46.07" height="15.31"/><line class="cls-5" x1="41.3" y1="108.18" x2="80.4" y2="108.18"/><polygon class="cls-6" points="41.73 109.68 39.14 108.18 41.73 106.69 41.73 109.68"/><polygon class="cls-6" points="79.96 109.68 82.55 108.18 79.96 106.69 79.96 109.68"/><line class="cls-5" x1="37.69" y1="110.48" x2="37.69" y2="104.69"/><line class="cls-5" x1="83.76" y1="110.48" x2="83.76" y2="104.69"/><text class="cls-7" transform="translate(54.12 104.69)">A</text><line class="cls-5" x1="28.61" y1="86.28" x2="34.89" y2="86.28"/><line class="cls-5" x1="30.76" y1="98.32" x2="30.76" y2="89.83"/><polygon class="cls-6" points="32.26 97.88 30.76 100.47 29.27 97.88 32.26 97.88"/><polygon class="cls-6" points="32.26 90.27 30.76 87.68 29.27 90.27 32.26 90.27"/><text class="cls-7" transform="translate(14.62 99.88)">B</text></g></g></svg>