<svg xmlns="http://www.w3.org/2000/svg" viewBox="0 0 121.71 105.13"><defs><style>.cls-1{fill:#f8f9f9;stroke:#231815;}.cls-1,.cls-2,.cls-3,.cls-7{stroke-miterlimit:10;}.cls-2,.cls-3,.cls-4,.cls-7{fill:none;}.cls-2{stroke:#00a0e9;}.cls-3,.cls-4{stroke:#040000;}.cls-4{stroke-linejoin:round;}.cls-5{fill:#040000;}.cls-6{font-size:20px;fill:#231815;font-family:NanumSquareRoundR, NanumSquareRound;}.cls-7{stroke:#0768ac;stroke-dasharray:1;}.cls-8{fill:#e71f19;}</style></defs><title>자산 19</title><g id="레이어_2" data-name="레이어 2"><g id="레이어_1-2" data-name="레이어 1"><path class="cls-1" d="M11.74,101.69h109c-10-14.82-10.73-32.3-10.73-32.3.6-11.26,9.78-35.56,9.78-35.56C124.27,21.39,111.67.5,111.67.5H1s15.84,20.85,10.59,35c0,0-11.47,27.83-9.17,39.52C2.43,75,3.3,86.63,11.74,101.69Z"/><path class="cls-2" d="M111.82.75s12.61,20.75,7.89,33.68c0,0-9,23.06-9.63,35.56a68.25,68.25,0,0,0,10.77,31.86"/><line class="cls-3" x1="110.43" y1="73.81" x2="2.13" y2="73.81"/><line class="cls-3" x1="120.66" y1="29.96" x2="12.63" y2="29.96"/><path class="cls-2" d="M12.17,101.69A63,63,0,0,1,2,70c.6-11.26,9.78-35.55,9.78-35.55C16.27,22,1.34.5,1.34.5"/><line class="cls-4" x1="44.69" y1="87.98" x2="52.97" y2="87.98"/><line class="cls-4" x1="46.85" y1="97.88" x2="46.85" y2="91.53"/><polygon class="cls-5" points="48.34 97.44 46.85 100.03 45.35 97.44 48.34 97.44"/><polygon class="cls-5" points="48.34 91.97 46.85 89.38 45.35 91.97 48.34 91.97"/><text class="cls-6" transform="translate(30.51 100.03)">B</text><circle class="cls-7" cx="59.67" cy="87.98" r="4.91"/><circle class="cls-8" cx="59.67" cy="87.98" r="0.8"/><polyline class="cls-3" points="67.98 82.79 71.83 78.94 76.47 78.94"/><polygon class="cls-5" points="69.8 83.79 65.95 84.82 66.98 80.97 69.8 83.79"/><text class="cls-6" transform="translate(76.19 84.14)">A</text></g></g></svg>