<svg xmlns="http://www.w3.org/2000/svg" viewBox="0 0 140.16 110.48"><defs><style>.cls-1{fill:#f8f9f9;}.cls-1,.cls-4{stroke:#231815;}.cls-1,.cls-2,.cls-3,.cls-4,.cls-5{stroke-miterlimit:10;}.cls-2,.cls-3,.cls-4,.cls-5,.cls-6{fill:none;}.cls-2,.cls-6{stroke:#040000;}.cls-3{stroke:#00a0e9;}.cls-4,.cls-5{stroke-dasharray:1;}.cls-5{stroke:#1d2088;}.cls-6{stroke-linejoin:round;}.cls-7{fill:#040000;}.cls-8{font-size:20px;fill:#231815;font-family:NanumSquareRoundR, NanumSquareRound;}</style></defs><title>자산 22</title><g id="레이어_2" data-name="레이어 2"><g id="레이어_1-2" data-name="레이어 1"><path class="cls-1" d="M120.06,57.46V.5H2.13s12.59,20.89,8.15,33.33c0,0-9.19,24.3-9.78,35.56,0,0,.72,17.48,10.73,32.3H65.62V65.43h45.69Z"/><line class="cls-2" x1="65.62" y1="72.54" x2="0.73" y2="72.54"/><line class="cls-2" x1="120.06" y1="28.66" x2="11.22" y2="28.66"/><path class="cls-3" d="M2.13.5s12.59,20.89,8.15,33.33c0,0-9.19,24.3-9.78,35.56a68.78,68.78,0,0,0,10.73,32.3"/><polygon class="cls-4" points="65.72 101.69 65.72 65.57 111.36 65.57 120.16 57.46 120.16 101.69 65.72 101.69"/><path class="cls-5" d="M84.07,101.69,66.17,65.54a.18.18,0,0,0-.33,0L48.67,101.69"/><path class="cls-4" d="M120.16,72.54c0-.1-54.54,0-54.54,0"/><line class="cls-6" x1="69.33" y1="108.18" x2="116.8" y2="108.18"/><polygon class="cls-7" points="69.77 109.68 67.18 108.18 69.77 106.69 69.77 109.68"/><polygon class="cls-7" points="116.37 109.68 118.96 108.18 116.37 106.69 116.37 109.68"/><line class="cls-6" x1="65.72" y1="110.48" x2="65.72" y2="104.69"/><line class="cls-6" x1="120.16" y1="110.48" x2="120.16" y2="104.69"/><text class="cls-8" transform="translate(86.38 104.69)">B</text><line class="cls-6" x1="114.79" y1="65.8" x2="126.49" y2="65.8"/><line class="cls-6" x1="121.7" y1="57.46" x2="126.49" y2="57.46"/><line class="cls-6" x1="124.71" y1="63.14" x2="124.71" y2="59.96"/><polygon class="cls-7" points="125.71 62.85 124.71 64.58 123.72 62.85 125.71 62.85"/><polygon class="cls-7" points="125.71 60.25 124.71 58.52 123.72 60.25 125.71 60.25"/><text class="cls-8" transform="translate(126.5 68.67)">D</text><text class="cls-8" transform="translate(43.69 77.32)">C</text><line class="cls-6" x1="63.16" y1="65.43" x2="58.13" y2="65.43"/><line class="cls-6" x1="59.9" y1="69.47" x2="59.9" y2="67.88"/><polygon class="cls-7" points="60.9 69.18 59.9 70.9 58.9 69.18 60.9 69.18"/><polygon class="cls-7" points="60.9 68.17 59.9 66.44 58.9 68.17 60.9 68.17"/><line class="cls-6" x1="69.21" y1="53.12" x2="116.7" y2="53.12"/><polygon class="cls-7" points="69.64 54.62 67.05 53.12 69.64 51.63 69.64 54.62"/><polygon class="cls-7" points="116.26 54.62 118.85 53.12 116.26 51.63 116.26 54.62"/><line class="cls-6" x1="65.72" y1="62.53" x2="65.72" y2="51.35"/><text class="cls-8" transform="translate(86.67 49.87)">A</text></g></g></svg>