<svg xmlns="http://www.w3.org/2000/svg" viewBox="0 0 120.56 110.48"><defs><style>.cls-1{fill:#f8f9f9;}.cls-1,.cls-4{stroke:#231815;}.cls-1,.cls-2,.cls-3,.cls-4{stroke-miterlimit:10;}.cls-2,.cls-3,.cls-4,.cls-5{fill:none;}.cls-2,.cls-5{stroke:#040000;}.cls-3{stroke:#00a0e9;}.cls-4{stroke-dasharray:1;}.cls-5{stroke-linejoin:round;}.cls-6{fill:#040000;}.cls-7{font-size:20px;fill:#231815;font-family:NanumSquareRoundR, NanumSquareRound;}</style></defs><title>자산 25</title><g id="레이어_2" data-name="레이어 2"><g id="레이어_1-2" data-name="레이어 1"><path class="cls-1" d="M120.06.5H2.13s12.59,20.89,8.15,33.33c0,0-9.19,24.3-9.78,35.56,0,0,.72,17.48,10.73,32.3H99.62l20.44-17Z"/><line class="cls-2" x1="120.06" y1="72.54" x2="0.73" y2="72.54"/><line class="cls-2" x1="120.06" y1="28.66" x2="11.22" y2="28.66"/><path class="cls-3" d="M2.13.5s12.59,20.89,8.15,33.33c0,0-9.19,24.3-9.78,35.56a68.78,68.78,0,0,0,10.73,32.3"/><polygon class="cls-4" points="99.62 101.69 120.06 84.73 120.06 101.69 99.62 101.69"/><line class="cls-5" x1="103.23" y1="108.18" x2="116.23" y2="108.18"/><polygon class="cls-6" points="103.67 109.68 101.08 108.18 103.67 106.69 103.67 109.68"/><polygon class="cls-6" points="115.79 109.68 118.38 108.18 115.79 106.69 115.79 109.68"/><line class="cls-5" x1="99.62" y1="110.48" x2="99.62" y2="104.69"/><line class="cls-5" x1="119.59" y1="110.48" x2="119.59" y2="104.69"/><text class="cls-7" transform="translate(103.13 104.69)">A</text><line class="cls-5" x1="96.02" y1="84.63" x2="116.23" y2="84.63"/><line class="cls-5" x1="98.18" y1="98.18" x2="98.18" y2="88.18"/><polygon class="cls-6" points="99.67 97.75 98.18 100.34 96.68 97.75 99.67 97.75"/><polygon class="cls-6" points="99.67 88.62 98.18 86.03 96.68 88.62 99.67 88.62"/><text class="cls-7" transform="translate(82.4 99.34)">B</text></g></g></svg>