<svg xmlns="http://www.w3.org/2000/svg" viewBox="0 0 121.71 105.14"><defs><style>.cls-1{fill:#f8f9f9;stroke:#231815;}.cls-1,.cls-2,.cls-3,.cls-7,.cls-8,.cls-9{stroke-miterlimit:10;}.cls-2,.cls-3,.cls-4,.cls-7,.cls-8,.cls-9{fill:none;}.cls-2{stroke:#00a0e9;}.cls-3,.cls-4{stroke:#040000;}.cls-4{stroke-linejoin:round;}.cls-5{fill:#040000;}.cls-6{font-size:20px;fill:#231815;font-family:NanumSquareRoundR, NanumSquareRound;}.cls-7,.cls-8,.cls-9{stroke:#e60012;}.cls-8{stroke-dasharray:0.98 0.98;}.cls-9{stroke-dasharray:0.99 0.99;}.cls-10{fill:#0768ac;}.cls-11{fill:#e71f19;}</style></defs><title>자산 3</title><g id="레이어_2" data-name="레이어 2"><g id="레이어_1-2" data-name="레이어 1"><path class="cls-1" d="M11.74,101.69h109c-10-14.82-10.73-32.3-10.73-32.3.6-11.26,9.78-35.56,9.78-35.56C124.27,21.39,111.67.5,111.67.5H1s15.84,20.85,10.59,35c0,0-11.47,27.83-9.17,39.52C2.43,75,3.3,86.63,11.74,101.69Z"/><path class="cls-2" d="M111.82.75s12.61,20.75,7.89,33.68c0,0-9,23.06-9.63,35.56a68.25,68.25,0,0,0,10.77,31.86"/><line class="cls-3" x1="110.43" y1="73.81" x2="2.13" y2="73.81"/><line class="cls-3" x1="120.66" y1="29.96" x2="12.63" y2="29.96"/><path class="cls-2" d="M12.17,101.69A63,63,0,0,1,2,70c.6-11.26,9.78-35.55,9.78-35.55C16.27,22,1.34.5,1.34.5"/><line class="cls-4" x1="55.01" y1="74.43" x2="55.01" y2="66.64"/><line class="cls-4" x1="70.72" y1="89.34" x2="70.72" y2="66.64"/><line class="cls-4" x1="58.5" y1="68.41" x2="67.24" y2="68.41"/><polygon class="cls-5" points="58.93 69.91 56.34 68.42 58.93 66.92 58.93 69.91"/><polygon class="cls-5" points="66.8 69.91 69.39 68.42 66.8 66.92 66.8 69.91"/><text class="cls-6" transform="translate(56.33 65.16)">A</text><line class="cls-4" x1="51.92" y1="93.15" x2="46.13" y2="93.15"/><line class="cls-4" x1="51.92" y1="77.44" x2="46.13" y2="77.44"/><line class="cls-4" x1="47.9" y1="89.67" x2="47.9" y2="80.93"/><polygon class="cls-5" points="49.4 89.23 47.9 91.82 46.41 89.23 49.4 89.23"/><polygon class="cls-5" points="49.4 81.36 47.9 78.77 46.41 81.36 49.4 81.36"/><text class="cls-6" transform="translate(31.86 91.82)">C</text><line class="cls-4" x1="81.13" y1="93.2" x2="72.85" y2="93.2"/><line class="cls-4" x1="78.97" y1="98.79" x2="78.97" y2="96.75"/><polygon class="cls-5" points="80.47 98.35 78.97 100.94 77.48 98.35 80.47 98.35"/><polygon class="cls-5" points="80.47 97.19 78.97 94.6 77.48 97.19 80.47 97.19"/><text class="cls-6" transform="translate(81.25 100.04)">B</text><line class="cls-7" x1="54.94" y1="77.55" x2="54.94" y2="78.05"/><line class="cls-8" x1="54.94" y1="79.03" x2="54.94" y2="92.26"/><polyline class="cls-7" points="54.95 92.75 54.95 93.25 55.45 93.25"/><line class="cls-9" x1="56.43" y1="93.25" x2="69.8" y2="93.25"/><line class="cls-7" x1="70.29" y1="93.25" x2="70.79" y2="93.25"/><rect class="cls-10" x="51.64" y="84.81" width="21.92" height="1.19" transform="translate(46.48 190.05) rotate(-135)"/><circle class="cls-11" cx="54.75" cy="77.55" r="1.42"/></g></g></svg>