<svg xmlns="http://www.w3.org/2000/svg" viewBox="0 0 121.71 104.63"><defs><style>.cls-1{fill:#f8f9f9;stroke:#231815;}.cls-1,.cls-2,.cls-3{stroke-miterlimit:10;}.cls-2,.cls-3,.cls-5{fill:none;}.cls-2{stroke:#00a0e9;}.cls-3,.cls-5{stroke:#040000;}.cls-4{fill:#0768ac;}.cls-5{stroke-linejoin:round;}.cls-6{fill:#040000;}.cls-7{font-size:20px;fill:#231815;font-family:NanumSquareRoundR, NanumSquareRound;}</style></defs><title>자산 15</title><g id="레이어_2" data-name="레이어 2"><g id="레이어_1-2" data-name="레이어 1"><path class="cls-1" d="M11.74,101.69h109c-10-14.82-10.73-32.3-10.73-32.3.6-11.26,9.78-35.56,9.78-35.56C124.27,21.39,111.67.5,111.67.5H1s15.84,20.85,10.59,35c0,0-11.47,27.83-9.17,39.52C2.43,75,3.3,86.63,11.74,101.69Z"/><path class="cls-2" d="M111.82.75s12.61,20.75,7.89,33.68c0,0-9,23.06-9.63,35.56a68.25,68.25,0,0,0,10.77,31.86"/><line class="cls-3" x1="110.43" y1="73.81" x2="2.13" y2="73.81"/><line class="cls-3" x1="120.66" y1="29.96" x2="12.63" y2="29.96"/><path class="cls-2" d="M12.17,101.69A63,63,0,0,1,2,70c.6-11.26,9.78-35.55,9.78-35.55C16.27,22,1.34.5,1.34.5"/><rect class="cls-4" x="55.2" y="83.05" width="13.77" height="1" transform="translate(-21.47 145.63) rotate(-90)"/><line class="cls-5" x1="65.72" y1="76.72" x2="71.51" y2="76.72"/><line class="cls-5" x1="65.72" y1="90.43" x2="71.51" y2="90.43"/><line class="cls-5" x1="69.73" y1="80.2" x2="69.73" y2="86.95"/><polygon class="cls-6" points="68.24 80.64 69.73 78.05 71.23 80.64 68.24 80.64"/><polygon class="cls-6" points="68.24 86.51 69.73 89.1 71.23 86.51 68.24 86.51"/><text class="cls-7" transform="translate(73.55 91.21)">A</text><line class="cls-5" x1="50.05" y1="90.43" x2="58.34" y2="90.43"/><line class="cls-5" x1="52.21" y1="98.67" x2="52.21" y2="93.98"/><polygon class="cls-6" points="53.71 98.23 52.21 100.82 50.72 98.23 53.71 98.23"/><polygon class="cls-6" points="53.71 94.42 52.21 91.83 50.72 94.42 53.71 94.42"/><text class="cls-7" transform="translate(34.85 99.53)">B</text></g></g></svg>