<svg xmlns="http://www.w3.org/2000/svg" viewBox="0 0 121.71 105.59"><defs><style>.cls-1{fill:#f8f9f9;stroke:#231815;}.cls-1,.cls-2,.cls-3,.cls-7,.cls-8,.cls-9{stroke-miterlimit:10;}.cls-2,.cls-3,.cls-4,.cls-7,.cls-8,.cls-9{fill:none;}.cls-2{stroke:#00a0e9;}.cls-3,.cls-4{stroke:#040000;}.cls-4{stroke-linejoin:round;}.cls-5{fill:#040000;}.cls-6{font-size:20px;fill:#231815;font-family:NanumSquareRoundR, NanumSquareRound;}.cls-7,.cls-8,.cls-9{stroke:#e60012;}.cls-8{stroke-dasharray:0.98 0.98;}.cls-9{stroke-dasharray:0.99 0.99;}.cls-10{fill:#0768ac;}.cls-11{fill:#e71f19;}</style></defs><title>자산 6</title><g id="레이어_2" data-name="레이어 2"><g id="레이어_1-2" data-name="레이어 1"><path class="cls-1" d="M11.74,101.69h109c-10-14.82-10.73-32.3-10.73-32.3.6-11.26,9.78-35.56,9.78-35.56C124.27,21.39,111.67.5,111.67.5H1s15.84,20.85,10.59,35c0,0-11.47,27.83-9.17,39.52C2.43,75,3.3,86.63,11.74,101.69Z"/><path class="cls-2" d="M111.82.75s12.61,20.75,7.89,33.68c0,0-9,23.06-9.63,35.56a68.25,68.25,0,0,0,10.77,31.86"/><line class="cls-3" x1="110.43" y1="73.81" x2="2.13" y2="73.81"/><line class="cls-3" x1="120.66" y1="29.96" x2="12.63" y2="29.96"/><path class="cls-2" d="M12.17,101.69A63,63,0,0,1,2,70c.6-11.26,9.78-35.55,9.78-35.55C16.27,22,1.34.5,1.34.5"/><line class="cls-4" x1="55.18" y1="75.32" x2="55.18" y2="67.53"/><line class="cls-4" x1="70.89" y1="75.32" x2="70.89" y2="67.53"/><line class="cls-4" x1="58.66" y1="69.3" x2="67.4" y2="69.3"/><polygon class="cls-5" points="59.1 70.8 56.51 69.3 59.1 67.81 59.1 70.8"/><polygon class="cls-5" points="66.97 70.8 69.56 69.3 66.97 67.81 66.97 70.8"/><text class="cls-6" transform="translate(56.5 66.05)">A</text><line class="cls-4" x1="51.76" y1="94.29" x2="45.97" y2="94.29"/><line class="cls-4" x1="51.76" y1="78.58" x2="45.97" y2="78.58"/><line class="cls-4" x1="47.74" y1="90.8" x2="47.74" y2="82.06"/><polygon class="cls-5" points="49.24 90.37 47.74 92.96 46.25 90.37 49.24 90.37"/><polygon class="cls-5" points="49.24 82.5 47.74 79.91 46.25 82.5 49.24 82.5"/><text class="cls-6" transform="translate(31.93 92.96)">C</text><line class="cls-4" x1="67.82" y1="94.09" x2="59.54" y2="94.09"/><line class="cls-4" x1="65.66" y1="98.97" x2="65.66" y2="97.64"/><polygon class="cls-5" points="67.16 98.53 65.66 101.12 64.17 98.53 67.16 98.53"/><polygon class="cls-5" points="67.16 98.08 65.66 95.49 64.17 98.08 67.16 98.08"/><text class="cls-6" transform="translate(68.16 100.49)">B</text><line class="cls-7" x1="55.18" y1="94.28" x2="55.18" y2="93.78"/><line class="cls-8" x1="55.18" y1="92.8" x2="55.18" y2="79.57"/><polyline class="cls-7" points="55.17 79.08 55.17 78.58 55.67 78.58"/><line class="cls-9" x1="56.66" y1="78.58" x2="70.03" y2="78.58"/><line class="cls-7" x1="70.52" y1="78.58" x2="71.02" y2="78.58"/><rect class="cls-10" x="51.87" y="85.84" width="21.92" height="1.19" transform="translate(168.38 103.13) rotate(135)"/><circle class="cls-11" cx="54.98" cy="94.09" r="1.42"/></g></g></svg>