<svg xmlns="http://www.w3.org/2000/svg" viewBox="0 0 121.71 104.63"><defs><style>.cls-1{fill:#f8f9f9;stroke:#231815;}.cls-1,.cls-2,.cls-3{stroke-miterlimit:10;}.cls-2,.cls-3,.cls-5{fill:none;}.cls-2{stroke:#00a0e9;}.cls-3,.cls-5{stroke:#040000;}.cls-4{fill:#0768ac;}.cls-5{stroke-linejoin:round;}.cls-6{fill:#040000;}.cls-7{font-size:20px;fill:#231815;font-family:NanumSquareRoundR, NanumSquareRound;}</style></defs><title>자산 16</title><g id="레이어_2" data-name="레이어 2"><g id="레이어_1-2" data-name="레이어 1"><path class="cls-1" d="M11.74,101.69h109c-10-14.82-10.73-32.3-10.73-32.3.6-11.26,9.78-35.56,9.78-35.56C124.27,21.39,111.67.5,111.67.5H1s15.84,20.85,10.59,35c0,0-11.47,27.83-9.17,39.52C2.43,75,3.3,86.63,11.74,101.69Z"/><path class="cls-2" d="M111.82.75s12.61,20.75,7.89,33.68c0,0-9,23.06-9.63,35.56a68.25,68.25,0,0,0,10.77,31.86"/><line class="cls-3" x1="110.43" y1="73.81" x2="2.13" y2="73.81"/><line class="cls-3" x1="120.66" y1="29.96" x2="12.63" y2="29.96"/><path class="cls-2" d="M12.17,101.69A63,63,0,0,1,2,70c.6-11.26,9.78-35.55,9.78-35.55C16.27,22,1.34.5,1.34.5"/><rect class="cls-4" x="43.94" y="91.15" width="32.15" height="1.19"/><line class="cls-5" x1="43.94" y1="88.7" x2="43.94" y2="82.91"/><line class="cls-5" x1="76.09" y1="88.7" x2="76.09" y2="82.91"/><line class="cls-5" x1="47.43" y1="84.69" x2="72.61" y2="84.69"/><polygon class="cls-6" points="47.87 86.19 45.28 84.69 47.87 83.19 47.87 86.19"/><polygon class="cls-6" points="72.17 86.19 74.76 84.69 72.17 83.19 72.17 86.19"/><text class="cls-7" transform="translate(53.62 81.43)">A</text><line class="cls-5" x1="33.03" y1="91.74" x2="41.31" y2="91.74"/><line class="cls-5" x1="35.19" y1="98.64" x2="35.19" y2="95.29"/><polygon class="cls-6" points="36.68 98.2 35.19 100.79 33.69 98.2 36.68 98.2"/><polygon class="cls-6" points="36.68 95.72 35.19 93.14 33.69 95.72 36.68 95.72"/><text class="cls-7" transform="translate(19.11 99.53)">B</text></g></g></svg>