<svg xmlns="http://www.w3.org/2000/svg" viewBox="0 0 157.04 133.89"><defs><style>.cls-1{fill:#f7f8f8;stroke-width:0.76px;}.cls-1,.cls-2,.cls-3{stroke:#040000;stroke-linejoin:round;}.cls-2,.cls-3{fill:none;}.cls-3{stroke-dasharray:1.77 1.77;}.cls-4{fill:#040000;}.cls-5{font-size:20px;fill:#231815;font-family:NanumSquareRoundR, NanumSquareRound;}</style></defs><title>자산 221</title><g id="레이어_2" data-name="레이어 2"><g id="레이어_1-2" data-name="레이어 1"><path class="cls-1" d="M29.74,50.24l18-18H147.84s17.46,16.82,3.26,46.08a44.88,44.88,0,0,0-4.28,15.29,61.38,61.38,0,0,0,9.84,39.86H29.74Z"/><line class="cls-1" x1="29.74" y1="82.89" x2="149.21" y2="82.89"/><line class="cls-2" x1="29.74" y1="50.24" x2="29.74" y2="49.24"/><line class="cls-3" x1="29.74" y1="47.47" x2="29.74" y2="34.16"/><polyline class="cls-2" points="29.74 33.27 29.74 32.27 30.74 32.27"/><line class="cls-3" x1="32.51" y1="32.27" x2="45.82" y2="32.27"/><line class="cls-2" x1="46.71" y1="32.27" x2="47.71" y2="32.27"/><line class="cls-2" x1="29.74" y1="27.27" x2="29.74" y2="17.48"/><line class="cls-2" x1="47.71" y1="27.27" x2="47.71" y2="17.48"/><line class="cls-2" x1="33.22" y1="19.26" x2="44.23" y2="19.26"/><polygon class="cls-4" points="33.66 20.75 31.07 19.25 33.66 17.76 33.66 20.75"/><polygon class="cls-4" points="43.79 20.75 46.38 19.25 43.79 17.76 43.79 20.75"/><text class="cls-5" transform="translate(32.13 16)">A</text><line class="cls-2" x1="24.74" y1="50.24" x2="14.95" y2="50.24"/><line class="cls-2" x1="24.74" y1="32.27" x2="14.95" y2="32.27"/><line class="cls-2" x1="16.72" y1="46.76" x2="16.72" y2="35.76"/><polygon class="cls-4" points="18.22 46.32 16.72 48.91 15.23 46.32 18.22 46.32"/><polygon class="cls-4" points="18.22 36.19 16.72 33.6 15.23 36.19 18.22 36.19"/><text class="cls-5" transform="translate(0 48.91)">B</text></g></g></svg>