<svg xmlns="http://www.w3.org/2000/svg" viewBox="0 0 157.99 133.4"><defs><style>.cls-1,.cls-8{fill:#f7f8f8;}.cls-1,.cls-2,.cls-7,.cls-8{stroke:#040000;stroke-linejoin:round;}.cls-1{stroke-width:0.76px;}.cls-2,.cls-6,.cls-7{fill:none;}.cls-3{fill:#040000;}.cls-4,.cls-5{font-size:20px;font-family:NanumSquareRoundR, NanumSquareRound;}.cls-5{fill:#231815;}.cls-6{stroke:#036eb8;stroke-miterlimit:10;}.cls-6,.cls-7,.cls-8{stroke-dasharray:2;}.cls-7,.cls-8{stroke-width:0.76px;}</style></defs><title>자산 211</title><g id="레이어_2" data-name="레이어 2"><g id="레이어_1-2" data-name="레이어 1"><path class="cls-1" d="M87.33,91.21l.13-59.28,18.05-.14h43.28s17.46,16.82,3.26,46.08a44.59,44.59,0,0,0-4.28,15.29A61.32,61.32,0,0,0,157.61,133l-70.15-.24-8.75.13-48.1-.15.08-33.48,8.55-8.07Z"/><line class="cls-1" x1="87.35" y1="82.41" x2="150.16" y2="82.41"/><line class="cls-2" x1="87.09" y1="96.21" x2="87.09" y2="116"/><line class="cls-2" x1="34.17" y1="114.22" x2="83.6" y2="114.22"/><polygon class="cls-3" points="34.61 115.72 32.02 114.22 34.61 112.73 34.61 115.72"/><polygon class="cls-3" points="83.17 115.72 85.75 114.22 83.17 112.73 83.17 115.72"/><text class="cls-4" transform="translate(52.44 121.48)">A</text><line class="cls-2" x1="25.61" y1="99.31" x2="15.82" y2="99.31"/><line class="cls-2" x1="25.61" y1="91.21" x2="15.82" y2="91.21"/><line class="cls-2" x1="17.6" y1="96.55" x2="17.6" y2="93.98"/><polygon class="cls-3" points="18.6 96.25 17.6 97.98 16.6 96.25 18.6 96.25"/><polygon class="cls-3" points="18.6 94.27 17.6 92.54 16.6 94.27 18.6 94.27"/><text class="cls-5" transform="translate(0 102.6)">D</text><line class="cls-2" x1="92.35" y1="91.21" x2="112.14" y2="91.21"/><line class="cls-2" x1="110.36" y1="85.17" x2="110.36" y2="88.75"/><polygon class="cls-3" points="109.37 85.46 110.36 83.73 111.36 85.46 109.37 85.46"/><polygon class="cls-3" points="109.37 88.46 110.36 90.19 111.36 88.46 109.37 88.46"/><text class="cls-5" transform="translate(113.91 92.54)">C</text><polyline class="cls-6" points="59.03 31.6 87.33 91.21 115.15 31.6"/><polyline class="cls-7" points="87.54 31.95 30.7 31.99 30.7 99.32"/><line class="cls-2" x1="87.44" y1="26.79" x2="87.44" y2="17"/><line class="cls-2" x1="30.8" y1="26.79" x2="30.8" y2="17"/><line class="cls-2" x1="83.95" y1="18.77" x2="34.28" y2="18.77"/><polygon class="cls-3" points="83.51 17.28 86.11 18.77 83.51 20.27 83.51 17.28"/><polygon class="cls-3" points="34.72 17.28 32.13 18.77 34.72 20.27 34.72 17.28"/><text class="cls-5" transform="translate(52.72 16)">B</text><line class="cls-8" x1="30.61" y1="82.37" x2="87.46" y2="82.37"/></g></g></svg>