<svg xmlns="http://www.w3.org/2000/svg" viewBox="0 0 127.9 170.58"><defs><style>.cls-1{fill:#f7f8f8;stroke-width:0.76px;}.cls-1,.cls-2,.cls-3,.cls-4,.cls-5,.cls-8,.cls-9{stroke:#040000;stroke-linejoin:round;}.cls-2,.cls-3,.cls-4,.cls-5,.cls-8,.cls-9{fill:none;}.cls-3{stroke-dasharray:2.03 2.03;}.cls-4{stroke-dasharray:1.76 1.76;}.cls-5{stroke-dasharray:0.91 0.91;}.cls-6{fill:#040000;}.cls-7{font-size:20px;fill:#231815;font-family:NanumSquareRoundR, NanumSquareRound;}.cls-8,.cls-9{stroke-width:0.76px;}.cls-9{stroke-dasharray:1.77 1.77;}</style></defs><title>자산 204</title><g id="레이어_2" data-name="레이어 2"><g id="레이어_1-2" data-name="레이어 1"><path class="cls-1" d="M18.66,82.89l-.09,25.37-.1,25.24H127.52a61.32,61.32,0,0,1-9.84-39.86A44.86,44.86,0,0,1,122,78.35c14.2-29.26-3.25-46.08-3.25-46.08H.5Z"/><line class="cls-1" x1="119.85" y1="82.89" x2="18.47" y2="82.89"/><line class="cls-2" x1="0.5" y1="32.27" x2="0.5" y2="33.27"/><line class="cls-3" x1="0.5" y1="35.3" x2="0.5" y2="131.49"/><polyline class="cls-2" points="0.5 132.5 0.5 133.5 1.5 133.5"/><line class="cls-4" x1="3.26" y1="133.5" x2="16.49" y2="133.5"/><line class="cls-2" x1="17.38" y1="133.5" x2="18.38" y2="133.5"/><line class="cls-2" x1="0.5" y1="27.27" x2="0.5" y2="17.48"/><line class="cls-2" x1="18.47" y1="27.27" x2="18.47" y2="17.48"/><line class="cls-2" x1="3.99" y1="19.26" x2="4.49" y2="19.26"/><line class="cls-5" x1="5.39" y1="19.26" x2="14.03" y2="19.26"/><line class="cls-2" x1="14.49" y1="19.26" x2="14.99" y2="19.26"/><polygon class="cls-6" points="4.42 20.75 1.83 19.25 4.42 17.76 4.42 20.75"/><polygon class="cls-6" points="14.55 20.75 17.14 19.25 14.55 17.76 14.55 20.75"/><text class="cls-7" transform="translate(2.89 16)">A</text><line class="cls-2" x1="0.5" y1="138.5" x2="0.5" y2="148.29"/><line class="cls-2" x1="18.47" y1="138.5" x2="18.47" y2="148.29"/><line class="cls-2" x1="3.99" y1="146.52" x2="14.99" y2="146.52"/><polygon class="cls-6" points="4.42 148.01 1.83 146.52 4.42 145.02 4.42 148.01"/><polygon class="cls-6" points="14.55 148.01 17.14 146.52 14.55 145.02 14.55 148.01"/><text class="cls-7" transform="translate(3.04 165.48)">C</text><line class="cls-2" x1="0.5" y1="79.52" x2="0.5" y2="85.31"/><line class="cls-2" x1="3.99" y1="82.89" x2="14.99" y2="82.89"/><polygon class="cls-6" points="4.42 84.38 1.83 82.89 4.42 81.39 4.42 84.38"/><polygon class="cls-6" points="14.55 84.38 17.14 82.89 14.55 81.39 14.55 84.38"/><text class="cls-7" transform="translate(3.09 101.79)">B</text><line class="cls-8" x1="0.5" y1="82.89" x2="1.5" y2="82.89"/><line class="cls-9" x1="3.27" y1="82.89" x2="16.58" y2="82.89"/><line class="cls-8" x1="17.47" y1="82.89" x2="18.47" y2="82.89"/></g></g></svg>