<svg xmlns="http://www.w3.org/2000/svg" viewBox="0 0 112.84 101.99"><defs><style>.cls-1,.cls-3{fill:none;stroke-width:0.76px;stroke-dasharray:1;}.cls-1,.cls-2{stroke:#040000;}.cls-1,.cls-2,.cls-3{stroke-linejoin:round;}.cls-2{fill:#f7f8f8;stroke-width:0.76px;}.cls-3{stroke:#e60012;}.cls-4{font-size:20px;fill:#231815;font-family:NanumSquareRoundR, NanumSquareRound;}</style></defs><title>자산 192</title><g id="레이어_2" data-name="레이어 2"><g id="레이어_1-2" data-name="레이어 1"><line class="cls-1" x1="32.47" y1="0.38" x2="78.05" y2="0.38"/><path class="cls-2" d="M102.23.38H78.68L55.83,46.19,32.6.38H.38a61.3,61.3,0,0,1,9.84,39.85A44.8,44.8,0,0,1,6,55.52C-8.25,84.79,9.2,101.61,9.2,101.61H111.29c-15-18-8.52-36.52-2-50.62C117.7,30,107.17,4.87,102.23.38Z"/><line class="cls-2" x1="109.33" y1="50.99" x2="7.83" y2="50.99"/><path class="cls-3" d="M49.08,32.06a10.39,10.39,0,0,1,13.2,0"/><text class="cls-4" transform="translate(49.08 26.36)">A</text></g></g></svg>