<svg xmlns="http://www.w3.org/2000/svg" viewBox="0 0 112.84 102"><defs><style>.cls-1{fill:#f7f8f8;stroke-width:0.76px;}.cls-1,.cls-3,.cls-5,.cls-8{stroke:#040000;}.cls-1,.cls-3,.cls-8{stroke-linejoin:round;}.cls-2{fill:#fff;}.cls-3,.cls-5,.cls-8{fill:none;}.cls-3{stroke-width:0.76px;stroke-dasharray:0.98 0.98;}.cls-4{fill:#e60012;}.cls-5{stroke-miterlimit:10;}.cls-6{fill:#040000;}.cls-7{font-size:20px;fill:#231815;font-family:NanumSquareRoundR, NanumSquareRound;}</style></defs><title>자산 186</title><g id="레이어_2" data-name="레이어 2"><g id="레이어_1-2" data-name="레이어 1"><path class="cls-1" d="M102.23.38H.38a61.32,61.32,0,0,1,9.84,39.86A44.8,44.8,0,0,1,6,55.53C-8.25,84.8,9.2,101.61,9.2,101.61H111.29c-15-18-8.52-36.51-2-50.61C117.7,30,107.17,4.87,102.23.38Z"/><line class="cls-1" x1="109.33" y1="51" x2="7.83" y2="51"/><circle class="cls-2" cx="53.87" cy="25.82" r="5.62"/><path class="cls-3" d="M59.48,25.82a5.62,5.62,0,1,1-5.61-5.61A5.61,5.61,0,0,1,59.48,25.82Z"/><circle class="cls-4" cx="53.87" cy="25.82" r="0.41"/><polyline class="cls-5" points="62.51 18.5 69.34 12.24 79.53 12.24"/><polygon class="cls-6" points="64.73 19.85 59.87 20.93 61.37 16.17 64.73 19.85"/><text class="cls-7" transform="translate(80.12 20.21)">A</text><line class="cls-8" x1="44.73" y1="26.47" x2="34.94" y2="26.47"/><line class="cls-8" x1="36.72" y1="22.98" x2="36.72" y2="3.65"/><polygon class="cls-6" points="38.21 22.54 36.72 25.13 35.22 22.54 38.21 22.54"/><polygon class="cls-6" points="38.21 4.09 36.72 1.5 35.22 4.09 38.21 4.09"/><text class="cls-7" transform="translate(19.88 20.93)">B</text></g></g></svg>