<svg xmlns="http://www.w3.org/2000/svg" viewBox="0 0 134.58 138"><defs><style>.cls-1{fill:#f7f8f8;stroke-width:0.76px;}.cls-1,.cls-2,.cls-3,.cls-4{stroke:#040000;stroke-linejoin:round;}.cls-2,.cls-3,.cls-4{fill:none;}.cls-2,.cls-3{stroke-width:0.76px;}.cls-3{stroke-dasharray:0.99 0.99;}.cls-5{fill:#040000;}.cls-6{font-size:20px;fill:#231815;font-family:NanumSquareRoundR, NanumSquareRound;}</style></defs><title>자산 203</title><g id="레이어_2" data-name="레이어 2"><g id="레이어_1-2" data-name="레이어 1"><path class="cls-1" d="M33.6,137.62H9.2S-8.25,120.8,6,91.53a44.8,44.8,0,0,0,4.27-15.29A61.32,61.32,0,0,0,.38,36.38H40.72v15H78.25v-15h24C107.17,40.87,117.7,66,109.33,87c-6.56,14.1-13,32.58,2,50.62H33.6Z"/><line class="cls-1" x1="109.33" y1="87" x2="7.83" y2="87"/><line class="cls-2" x1="40.72" y1="36.38" x2="41.22" y2="36.38"/><line class="cls-3" x1="42.21" y1="36.38" x2="77.25" y2="36.38"/><line class="cls-2" x1="77.75" y1="36.38" x2="78.25" y2="36.38"/><line class="cls-4" x1="78.16" y1="31.38" x2="78.16" y2="18.59"/><line class="cls-4" x1="40.19" y1="31.38" x2="40.19" y2="18.59"/><line class="cls-4" x1="74.67" y1="20.37" x2="43.67" y2="20.37"/><polygon class="cls-5" points="74.23 18.87 76.83 20.37 74.23 21.86 74.23 18.87"/><polygon class="cls-5" points="44.11 18.87 41.52 20.37 44.11 21.86 44.11 18.87"/><text class="cls-6" transform="translate(52.57 16)">A</text><line class="cls-4" x1="81.25" y1="51.41" x2="119.04" y2="51.41"/><line class="cls-4" x1="117.26" y1="47.93" x2="117.26" y2="39.87"/><polygon class="cls-5" points="118.76 47.49 117.26 50.08 115.77 47.49 118.76 47.49"/><polygon class="cls-5" points="118.76 40.3 117.26 37.71 115.77 40.3 118.76 40.3"/><text class="cls-6" transform="translate(121.78 51.41)">B</text><line class="cls-4" x1="105.25" y1="36.38" x2="119.04" y2="36.38"/></g></g></svg>