<svg xmlns="http://www.w3.org/2000/svg" viewBox="0 0 112.84 107.26"><defs><style>.cls-1{fill:#f7f8f8;stroke-width:0.76px;}.cls-1,.cls-2,.cls-4,.cls-7{stroke:#040000;}.cls-1,.cls-2,.cls-4{stroke-linejoin:round;}.cls-2{fill:#fff;stroke-width:0.76px;stroke-dasharray:1;}.cls-3{fill:#e60012;}.cls-4,.cls-7{fill:none;}.cls-5{fill:#040000;}.cls-6{font-size:20px;fill:#231815;font-family:NanumSquareRoundR, NanumSquareRound;}.cls-7{stroke-miterlimit:10;}</style></defs><title>자산 188</title><g id="레이어_2" data-name="레이어 2"><g id="레이어_1-2" data-name="레이어 1"><path class="cls-1" d="M102.23,5.64H.38A61.32,61.32,0,0,1,10.22,45.5,44.8,44.8,0,0,1,6,60.79C-8.25,90.06,9.2,106.87,9.2,106.87H111.29c-15-18-8.52-36.51-2-50.61C117.7,35.22,107.17,10.13,102.23,5.64Z"/><line class="cls-1" x1="109.33" y1="56.26" x2="7.83" y2="56.26"/><rect class="cls-2" x="44.1" y="29.49" width="31.54" height="9.2" rx="4.6"/><ellipse class="cls-3" cx="59.87" cy="34.08" rx="0.32" ry="0.41"/><line class="cls-4" x1="47.81" y1="16" x2="47.81" y2="26.79"/><line class="cls-4" x1="72.78" y1="16" x2="72.78" y2="26.79"/><line class="cls-4" x1="51.3" y1="19.02" x2="69.97" y2="19.02"/><polygon class="cls-5" points="51.73 20.51 49.15 19.02 51.73 17.52 51.73 20.51"/><polygon class="cls-5" points="69.53 20.51 72.12 19.02 69.53 17.52 69.53 20.51"/><text class="cls-6" transform="translate(53.42 16)">C</text><line class="cls-4" x1="39.97" y1="34.08" x2="28.18" y2="34.08"/><line class="cls-4" x1="29.95" y1="30.6" x2="29.95" y2="10.27"/><polygon class="cls-5" points="31.45 30.16 29.95 32.75 28.46 30.16 31.45 30.16"/><polygon class="cls-5" points="31.45 10.71 29.95 8.12 28.46 10.71 31.45 10.71"/><text class="cls-6" transform="translate(14.34 26.79)">B</text><polyline class="cls-7" points="78.99 40.17 81.97 43.27 94.16 43.27"/><polygon class="cls-5" points="77.7 42.42 76.5 37.58 81.29 38.97 77.7 42.42"/><text class="cls-6" transform="translate(93.72 50.8)">A</text></g></g></svg>