<svg xmlns="http://www.w3.org/2000/svg" viewBox="0 0 112.84 102"><defs><style>.cls-1{fill:#f7f8f8;stroke-width:0.76px;}.cls-1,.cls-2,.cls-4,.cls-7{stroke:#040000;}.cls-1,.cls-2,.cls-4{stroke-linejoin:round;}.cls-2{fill:#fff;stroke-width:0.76px;stroke-dasharray:1;}.cls-3{fill:#e60012;}.cls-4,.cls-7{fill:none;}.cls-5{fill:#040000;}.cls-6{font-size:20px;fill:#231815;font-family:NanumSquareRoundR, NanumSquareRound;}.cls-7{stroke-miterlimit:10;}</style></defs><title>자산 190</title><g id="레이어_2" data-name="레이어 2"><g id="레이어_1-2" data-name="레이어 1"><path class="cls-1" d="M102.23.38H.38a61.32,61.32,0,0,1,9.84,39.86A44.8,44.8,0,0,1,6,55.53C-8.25,84.8,9.2,101.61,9.2,101.61H111.29c-15-18-8.52-36.51-2-50.61C117.7,30,107.17,4.87,102.23.38Z"/><line class="cls-1" x1="109.33" y1="51" x2="7.83" y2="51"/><rect class="cls-2" x="41.18" y="21.23" width="25.38" height="9.2" rx="4.6" transform="translate(79.69 -28.04) rotate(90)"/><ellipse class="cls-3" cx="53.87" cy="25.82" rx="0.32" ry="0.33"/><line class="cls-4" x1="76.5" y1="16.17" x2="60.71" y2="16.17"/><line class="cls-4" x1="76.5" y1="35.48" x2="60.71" y2="35.48"/><line class="cls-4" x1="73.48" y1="19.66" x2="73.48" y2="32.66"/><polygon class="cls-5" points="71.99 20.09 73.48 17.5 74.98 20.09 71.99 20.09"/><polygon class="cls-5" points="71.99 32.22 73.48 34.81 74.98 32.22 71.99 32.22"/><text class="cls-6" transform="translate(78.37 32.67)">C</text><polyline class="cls-7" points="55.41 46.05 59.63 57.37 71.82 57.37"/><polygon class="cls-5" points="53.33 47.6 54.15 42.68 58 45.86 53.33 47.6"/><text class="cls-6" transform="translate(73.55 64.94)">A</text><line class="cls-4" x1="42.81" y1="26.85" x2="31.02" y2="26.85"/><line class="cls-4" x1="32.79" y1="23.36" x2="32.79" y2="4.04"/><polygon class="cls-5" points="34.29 22.93 32.79 25.52 31.3 22.93 34.29 22.93"/><polygon class="cls-5" points="34.29 4.47 32.79 1.88 31.3 4.47 34.29 4.47"/><text class="cls-6" transform="translate(14.72 21.28)">B</text></g></g></svg>