<svg xmlns="http://www.w3.org/2000/svg" viewBox="0 0 127.88 168.65"><defs><style>.cls-1{fill:#f7f8f8;stroke-width:0.76px;}.cls-1,.cls-2,.cls-3,.cls-4,.cls-5,.cls-8{stroke:#040000;stroke-linejoin:round;}.cls-2,.cls-3,.cls-4,.cls-5,.cls-8{fill:none;}.cls-3{stroke-dasharray:2.03 2.03;}.cls-4{stroke-dasharray:1.77 1.77;}.cls-5{stroke-dasharray:0.91 0.91;}.cls-6{fill:#040000;}.cls-7{font-size:20px;fill:#231815;font-family:NanumSquareRoundR, NanumSquareRound;}.cls-8{stroke-width:0.76px;stroke-dasharray:2;}</style></defs><title>자산 205</title><g id="레이어_2" data-name="레이어 2"><g id="레이어_1-2" data-name="레이어 1"><path class="cls-1" d="M109.33,82.89V133.5l-45.49.13L9.2,133.5S-8.25,116.69,6,87.42a44.8,44.8,0,0,0,4.27-15.29A61.32,61.32,0,0,0,.38,32.27H127.3c-.18,2.87-18,50.62-18,50.62H7.83"/><line class="cls-2" x1="127.3" y1="32.27" x2="127.3" y2="33.27"/><line class="cls-3" x1="127.3" y1="35.3" x2="127.3" y2="131.49"/><polyline class="cls-2" points="127.3 132.5 127.3 133.5 126.3 133.5"/><line class="cls-4" x1="124.53" y1="133.5" x2="111.22" y2="133.5"/><line class="cls-2" x1="110.33" y1="133.5" x2="109.33" y2="133.5"/><line class="cls-2" x1="127.3" y1="27.27" x2="127.3" y2="17.48"/><line class="cls-2" x1="109.33" y1="27.27" x2="109.33" y2="17.48"/><line class="cls-2" x1="123.82" y1="19.26" x2="123.32" y2="19.26"/><line class="cls-5" x1="122.41" y1="19.26" x2="113.77" y2="19.26"/><line class="cls-2" x1="113.32" y1="19.26" x2="112.82" y2="19.26"/><polygon class="cls-6" points="123.38 17.76 125.97 19.25 123.38 20.75 123.38 17.76"/><polygon class="cls-6" points="113.25 17.76 110.66 19.25 113.25 20.75 113.25 17.76"/><text class="cls-7" transform="translate(111.72 16)">A</text><line class="cls-2" x1="109.33" y1="138.5" x2="109.33" y2="148.29"/><line class="cls-2" x1="127.3" y1="138.5" x2="127.3" y2="148.29"/><line class="cls-2" x1="112.82" y1="146.52" x2="123.82" y2="146.52"/><polygon class="cls-6" points="113.25 148.01 110.66 146.52 113.25 145.02 113.25 148.01"/><polygon class="cls-6" points="123.38 148.01 125.97 146.52 123.38 145.02 123.38 148.01"/><text class="cls-7" transform="translate(113.14 163.55)">c</text><line class="cls-2" x1="127.3" y1="79.51" x2="127.3" y2="85.3"/><line class="cls-2" x1="123.82" y1="82.87" x2="112.82" y2="82.87"/><polygon class="cls-6" points="123.38 81.37 125.97 82.87 123.38 84.36 123.38 81.37"/><polygon class="cls-6" points="113.25 81.37 110.66 82.87 113.25 84.36 113.25 81.37"/><text class="cls-7" transform="translate(111.92 101.79)">B</text><line class="cls-8" x1="127.88" y1="82.89" x2="109.91" y2="82.89"/></g></g></svg>