<svg xmlns="http://www.w3.org/2000/svg" viewBox="0 0 156.72 133.89"><defs><style>.cls-1{fill:#f7f8f8;stroke-width:0.76px;}.cls-1,.cls-2,.cls-3{stroke:#040000;stroke-linejoin:round;}.cls-2,.cls-3{fill:none;}.cls-3{stroke-dasharray:1.77 1.77;}.cls-4{fill:#040000;}.cls-5{font-size:20px;fill:#231815;font-family:NanumSquareRoundR, NanumSquareRound;}</style></defs><title>자산 217</title><g id="레이어_2" data-name="레이어 2"><g id="레이어_1-2" data-name="레이어 1"><path class="cls-1" d="M127.3,133.5H9.2S-8.25,116.69,6,87.42a44.8,44.8,0,0,0,4.27-15.29A61.32,61.32,0,0,0,.38,32.27h109l18,18Z"/><line class="cls-1" x1="127.3" y1="82.89" x2="7.83" y2="82.89"/><line class="cls-2" x1="127.3" y1="50.24" x2="127.3" y2="49.24"/><line class="cls-3" x1="127.3" y1="47.47" x2="127.3" y2="34.16"/><polyline class="cls-2" points="127.3 33.27 127.3 32.27 126.3 32.27"/><line class="cls-3" x1="124.53" y1="32.27" x2="111.22" y2="32.27"/><line class="cls-2" x1="110.33" y1="32.27" x2="109.33" y2="32.27"/><line class="cls-2" x1="127.3" y1="27.27" x2="127.3" y2="17.48"/><line class="cls-2" x1="109.33" y1="27.27" x2="109.33" y2="17.48"/><line class="cls-2" x1="123.82" y1="19.26" x2="112.82" y2="19.26"/><polygon class="cls-4" points="123.38 17.76 125.97 19.25 123.38 20.75 123.38 17.76"/><polygon class="cls-4" points="113.25 17.76 110.66 19.25 113.25 20.75 113.25 17.76"/><text class="cls-5" transform="translate(111.72 16)">A</text><line class="cls-2" x1="132.3" y1="50.24" x2="142.09" y2="50.24"/><line class="cls-2" x1="132.3" y1="32.27" x2="142.09" y2="32.27"/><line class="cls-2" x1="140.32" y1="46.76" x2="140.32" y2="35.76"/><polygon class="cls-4" points="141.81 46.32 140.32 48.91 138.82 46.32 141.81 46.32"/><polygon class="cls-4" points="141.81 36.19 140.32 33.6 138.82 36.19 141.81 36.19"/><text class="cls-5" transform="translate(143.92 48.91)">B</text></g></g></svg>