<svg xmlns="http://www.w3.org/2000/svg" viewBox="0 0 156.31 133.52"><defs><style>.cls-1,.cls-3{fill:#f7f8f8;}.cls-1,.cls-3,.cls-4,.cls-8{stroke:#040000;stroke-linejoin:round;}.cls-1{stroke-width:0.76px;}.cls-2,.cls-4,.cls-8{fill:none;}.cls-2{stroke:#036eb8;stroke-miterlimit:10;}.cls-2,.cls-3,.cls-8{stroke-dasharray:2;}.cls-3,.cls-8{stroke-width:0.76px;}.cls-5{fill:#040000;}.cls-6,.cls-7{font-size:20px;font-family:NanumSquareRoundR, NanumSquareRound;}.cls-7{fill:#231815;}</style></defs><title>자산 209</title><g id="레이어_2" data-name="레이어 2"><g id="레이어_1-2" data-name="레이어 1"><path class="cls-1" d="M73.59,32.05h-.08l-23.92-.14H1.69S19.15,48.72,5,78A44.59,44.59,0,0,0,.67,93.28a61.32,61.32,0,0,0,9.84,39.86H130.25V99.24l-8-7.73-49-.14Z"/><polyline class="cls-2" points="44.89 31.91 73.19 91.51 101.01 31.91"/><line class="cls-1" x1="74.68" y1="82.52" x2="3.06" y2="82.52"/><line class="cls-3" x1="73.51" y1="82.49" x2="130.36" y2="82.49"/><line class="cls-4" x1="73.48" y1="96.51" x2="73.48" y2="109.3"/><line class="cls-4" x1="126.39" y1="105.52" x2="76.96" y2="105.52"/><polygon class="cls-5" points="125.96 104.03 128.55 105.53 125.96 107.02 125.96 104.03"/><polygon class="cls-5" points="77.4 104.03 74.81 105.53 77.4 107.02 77.4 104.03"/><text class="cls-6" transform="translate(93.9 124.44)">A</text><line class="cls-4" x1="132.77" y1="99.24" x2="142.56" y2="99.24"/><line class="cls-4" x1="132.77" y1="91.51" x2="142.56" y2="91.51"/><line class="cls-4" x1="140.78" y1="96.58" x2="140.78" y2="94.01"/><polygon class="cls-5" points="141.78 96.28 140.78 98.01 139.78 96.28 141.78 96.28"/><polygon class="cls-5" points="141.78 94.3 140.78 92.57 139.78 94.3 141.78 94.3"/><text class="cls-7" transform="translate(142.65 102.2)">D</text><line class="cls-4" x1="130.34" y1="26.91" x2="130.34" y2="17.12"/><line class="cls-4" x1="73.7" y1="26.91" x2="73.7" y2="17.12"/><line class="cls-4" x1="126.86" y1="18.89" x2="77.19" y2="18.89"/><polygon class="cls-5" points="126.42 17.39 129.01 18.89 126.42 20.39 126.42 17.39"/><polygon class="cls-5" points="77.63 17.39 75.04 18.89 77.63 20.39 77.63 17.39"/><text class="cls-7" transform="translate(95.62 16)">B</text><polyline class="cls-8" points="73.4 31.91 130.25 31.91 130.25 99.24"/><line class="cls-4" x1="67.95" y1="91.51" x2="48.16" y2="91.51"/><line class="cls-4" x1="49.94" y1="85.47" x2="49.94" y2="89.06"/><polygon class="cls-5" points="48.94 85.76 49.94 84.03 50.93 85.76 48.94 85.76"/><polygon class="cls-5" points="48.94 88.76 49.94 90.49 50.93 88.76 48.94 88.76"/><text class="cls-7" transform="translate(32.42 92.84)">C</text></g></g></svg>