<svg xmlns="http://www.w3.org/2000/svg" viewBox="0 0 156.72 169.88"><defs><style>.cls-1{fill:#f7f8f8;stroke-width:0.76px;}.cls-1,.cls-2,.cls-3,.cls-4,.cls-7{stroke:#040000;stroke-linejoin:round;}.cls-2,.cls-3,.cls-4,.cls-7{fill:none;}.cls-3{stroke-dasharray:1.77 1.77;}.cls-4{stroke-dasharray:2.03 2.03;}.cls-5{fill:#040000;}.cls-6{font-size:20px;fill:#231815;font-family:NanumSquareRoundR, NanumSquareRound;}.cls-7{stroke-width:0.76px;stroke-dasharray:2;}</style></defs><title>자산 208</title><g id="레이어_2" data-name="레이어 2"><g id="레이어_1-2" data-name="레이어 1"><path class="cls-1" d="M109.33,133.5H9.2S-8.25,116.69,6,87.42a44.8,44.8,0,0,0,4.27-15.29A61.32,61.32,0,0,0,.38,32.27h109l18,24.21-18,26.41Z"/><line class="cls-1" x1="109.33" y1="82.89" x2="7.83" y2="82.89"/><line class="cls-2" x1="109.33" y1="32.27" x2="110.33" y2="32.27"/><line class="cls-3" x1="112.11" y1="32.27" x2="125.42" y2="32.27"/><polyline class="cls-2" points="126.3 32.27 127.3 32.27 127.3 33.27"/><line class="cls-4" x1="127.3" y1="35.3" x2="127.3" y2="131.49"/><polyline class="cls-2" points="127.3 132.5 127.3 133.5 126.3 133.5"/><line class="cls-3" x1="124.53" y1="133.5" x2="111.22" y2="133.5"/><line class="cls-2" x1="110.33" y1="133.5" x2="109.33" y2="133.5"/><line class="cls-2" x1="127.3" y1="27.27" x2="127.3" y2="17.48"/><line class="cls-2" x1="109.33" y1="27.27" x2="109.33" y2="17.48"/><line class="cls-2" x1="123.82" y1="19.26" x2="112.82" y2="19.26"/><polygon class="cls-5" points="123.38 17.76 125.97 19.25 123.38 20.75 123.38 17.76"/><polygon class="cls-5" points="113.25 17.76 110.66 19.25 113.25 20.75 113.25 17.76"/><text class="cls-6" transform="translate(111.72 16)">A</text><line class="cls-2" x1="132.3" y1="56.48" x2="142.09" y2="56.48"/><line class="cls-2" x1="132.3" y1="32.27" x2="142.09" y2="32.27"/><line class="cls-2" x1="140.32" y1="53" x2="140.32" y2="35.76"/><polygon class="cls-5" points="141.81 52.56 140.32 55.15 138.82 52.56 141.81 52.56"/><polygon class="cls-5" points="141.81 36.19 140.32 33.6 138.82 36.19 141.81 36.19"/><text class="cls-6" transform="translate(143.92 51.33)">B</text><line class="cls-2" x1="109.33" y1="138.5" x2="109.33" y2="148.29"/><line class="cls-2" x1="127.3" y1="138.5" x2="127.3" y2="148.29"/><line class="cls-2" x1="112.82" y1="146.52" x2="123.82" y2="146.52"/><polygon class="cls-5" points="113.25 148.02 110.66 146.52 113.25 145.02 113.25 148.02"/><polygon class="cls-5" points="123.38 148.02 125.97 146.52 123.38 145.02 123.38 148.02"/><text class="cls-6" transform="translate(111.87 164.77)">C</text><line class="cls-7" x1="127.3" y1="82.89" x2="109.33" y2="82.89"/></g></g></svg>