<svg xmlns="http://www.w3.org/2000/svg" viewBox="0 0 112.84 102"><defs><style>.cls-1{fill:#f7f8f8;stroke-width:0.76px;}.cls-1,.cls-3{stroke:#040000;}.cls-1,.cls-2,.cls-3{stroke-linejoin:round;}.cls-2,.cls-3{fill:none;}.cls-2{stroke:#036eb8;stroke-width:0.76px;}.cls-4{fill:#040000;}.cls-5{font-size:20px;fill:#231815;font-family:NanumSquareRoundR, NanumSquareRound;}</style></defs><title>자산 199</title><g id="레이어_2" data-name="레이어 2"><g id="레이어_1-2" data-name="레이어 1"><path class="cls-1" d="M33.6,101.61H9.2S-8.25,84.8,6,55.53a44.8,44.8,0,0,0,4.27-15.29A61.32,61.32,0,0,0,.38.38H102.23C107.17,4.87,117.7,30,109.33,51c-6.56,14.1-13,32.58,2,50.61H33.6Z"/><line class="cls-1" x1="109.33" y1="51" x2="7.83" y2="51"/><line class="cls-2" x1="49.86" y1="11.04" x2="49.86" y2="34.72"/><line class="cls-3" x1="44.89" y1="11.68" x2="33.1" y2="11.68"/><line class="cls-3" x1="34.87" y1="8.19" x2="34.87" y2="3.87"/><polygon class="cls-4" points="36.37 7.76 34.87 10.35 33.38 7.76 36.37 7.76"/><polygon class="cls-4" points="36.37 4.3 34.87 1.71 33.38 4.3 36.37 4.3"/><text class="cls-5" transform="translate(17.22 17.52)">B</text><line class="cls-3" x1="70.05" y1="11.04" x2="54.26" y2="11.04"/><line class="cls-3" x1="70.05" y1="34.35" x2="54.26" y2="34.35"/><line class="cls-3" x1="67.04" y1="14.53" x2="67.04" y2="31.53"/><polygon class="cls-4" points="65.54 14.96 67.04 12.37 68.53 14.96 65.54 14.96"/><polygon class="cls-4" points="65.54 31.09 67.04 33.68 68.53 31.09 65.54 31.09"/><text class="cls-5" transform="translate(71.44 28.17)">A</text></g></g></svg>