<svg xmlns="http://www.w3.org/2000/svg" viewBox="0 0 113.27 102"><defs><style>.cls-1{fill:#f7f8f8;stroke-width:0.76px;}.cls-1,.cls-3{stroke:#040000;}.cls-1,.cls-2,.cls-3{stroke-linejoin:round;}.cls-2,.cls-3{fill:none;}.cls-2{stroke:#036eb8;stroke-width:0.76px;}.cls-4{fill:#040000;}.cls-5{font-size:20px;fill:#231815;font-family:NanumSquareRoundR, NanumSquareRound;}</style></defs><title>자산 201</title><g id="레이어_2" data-name="레이어 2"><g id="레이어_1-2" data-name="레이어 1"><path class="cls-1" d="M33.6,101.61H9.2S-8.25,84.8,6,55.53a44.8,44.8,0,0,0,4.27-15.29A61.32,61.32,0,0,0,.38.38H102.23C107.17,4.87,117.7,30,109.33,51c-6.56,14.1-13,32.58,2,50.61H33.6Z"/><line class="cls-1" x1="113.27" y1="45.97" x2="11.77" y2="45.97"/><line class="cls-2" x1="36" y1="12.61" x2="71.6" y2="12.61"/><line class="cls-3" x1="71.31" y1="28.61" x2="71.31" y2="15.82"/><line class="cls-3" x1="36.33" y1="28.61" x2="36.33" y2="15.82"/><line class="cls-3" x1="67.82" y1="25.59" x2="39.15" y2="25.59"/><polygon class="cls-4" points="67.38 24.1 69.97 25.59 67.38 27.09 67.38 24.1"/><polygon class="cls-4" points="39.59 24.1 37 25.59 39.59 27.09 39.59 24.1"/><text class="cls-5" transform="translate(47.55 42.7)">A</text><line class="cls-3" x1="31.53" y1="12.65" x2="21.74" y2="12.65"/><line class="cls-3" x1="23.51" y1="9.17" x2="23.51" y2="3.84"/><polygon class="cls-4" points="25.01 8.73 23.51 11.32 22.02 8.73 25.01 8.73"/><polygon class="cls-4" points="25.01 4.28 23.51 1.69 22.02 4.28 25.01 4.28"/><text class="cls-5" transform="translate(8.19 16.82)">B</text></g></g></svg>