<svg xmlns="http://www.w3.org/2000/svg" viewBox="0 0 112.84 127.25"><defs><style>.cls-1{fill:#f7f8f8;stroke-width:0.76px;}.cls-1,.cls-2{stroke:#040000;}.cls-1,.cls-2,.cls-5,.cls-6{stroke-linejoin:round;}.cls-2,.cls-5,.cls-6{fill:none;}.cls-3{fill:#040000;}.cls-4{font-size:20px;fill:#231815;font-family:NanumSquareRoundR, NanumSquareRound;}.cls-5{stroke:#231815;stroke-width:0.1px;stroke-dasharray:1;}.cls-6{stroke:#036eb8;stroke-width:0.76px;}.cls-7{fill:#e60012;}</style></defs><title>자산 195</title><g id="레이어_2" data-name="레이어 2"><g id="레이어_1-2" data-name="레이어 1"><path class="cls-1" d="M33.6,126.87H9.2S-8.25,110.05,6,80.79A44.86,44.86,0,0,0,10.22,65.5,61.31,61.31,0,0,0,.38,25.64H102.23c4.94,4.49,15.47,29.57,7.1,50.61-6.56,14.1-13,32.59,2,50.62H33.6Z"/><line class="cls-1" x1="109.33" y1="76.25" x2="7.83" y2="76.25"/><line class="cls-2" x1="19.79" y1="27.79" x2="19.79" y2="35.85"/><polygon class="cls-3" points="18.3 28.23 19.79 25.64 21.29 28.23 18.3 28.23"/><polygon class="cls-3" points="18.3 35.41 19.79 38 21.29 35.41 18.3 35.41"/><text class="cls-4" transform="translate(4.26 36.9)">B</text><line class="cls-2" x1="32.81" y1="39.33" x2="18.02" y2="39.33"/><line class="cls-2" x1="32.81" y1="65.25" x2="18.01" y2="65.25"/><line class="cls-2" x1="19.78" y1="61.76" x2="19.78" y2="42.76"/><polygon class="cls-3" points="21.28 61.33 19.78 63.92 18.29 61.33 21.28 61.33"/><polygon class="cls-3" points="21.28 43.2 19.78 40.61 18.29 43.2 21.28 43.2"/><text class="cls-4" transform="translate(3.6 59.61)">C</text><polyline class="cls-5" points="37.38 39.73 37.38 65.13 62.75 65.13"/><line class="cls-6" x1="37.28" y1="39.72" x2="62.45" y2="64.89"/><circle class="cls-7" cx="37.38" cy="39.82" r="1.63"/><line class="cls-2" x1="63.04" y1="60.38" x2="63.04" y2="17.48"/><line class="cls-2" x1="37.07" y1="35.27" x2="37.07" y2="17.48"/><line class="cls-2" x1="59.55" y1="19.26" x2="40.55" y2="19.26"/><polygon class="cls-3" points="59.12 17.76 61.7 19.25 59.12 20.75 59.12 17.76"/><polygon class="cls-3" points="40.99 17.76 38.4 19.25 40.99 20.75 40.99 17.76"/><text class="cls-4" transform="translate(43.45 16)">A</text></g></g></svg>