<svg xmlns="http://www.w3.org/2000/svg" viewBox="0 0 144.72 128.16"><defs><style>.cls-1{fill:#f7f8f8;stroke-width:0.76px;}.cls-1,.cls-2,.cls-4{stroke:#040000;}.cls-1,.cls-2,.cls-3,.cls-4{stroke-linejoin:round;}.cls-2,.cls-3,.cls-4{fill:none;}.cls-2{stroke-width:0.1px;stroke-dasharray:1;}.cls-3{stroke:#036eb8;stroke-width:0.76px;}.cls-5{fill:#040000;}.cls-6{font-size:20px;fill:#231815;font-family:NanumSquareRoundR, NanumSquareRound;}.cls-7{fill:#e60012;}</style></defs><title>자산 197</title><g id="레이어_2" data-name="레이어 2"><g id="레이어_1-2" data-name="레이어 1"><path class="cls-1" d="M33.6,127.78H9.2S-8.25,111,6,81.7a44.8,44.8,0,0,0,4.27-15.29A61.32,61.32,0,0,0,.38,26.55H102.23c4.94,4.49,15.47,29.57,7.1,50.61-6.56,14.1-13,32.59,2,50.62H33.6Z"/><line class="cls-1" x1="109.33" y1="77.16" x2="7.83" y2="77.16"/><line class="cls-2" x1="42.07" y1="66.44" x2="42.07" y2="41.27"/><line class="cls-2" x1="67.03" y1="41.27" x2="42.07" y2="41.27"/><line class="cls-3" x1="42.07" y1="66.44" x2="67.24" y2="41.27"/><line class="cls-4" x1="67.03" y1="37.27" x2="67.03" y2="17.48"/><line class="cls-4" x1="42.06" y1="37.27" x2="42.06" y2="17.48"/><line class="cls-4" x1="63.55" y1="19.26" x2="45.54" y2="19.26"/><polygon class="cls-5" points="63.11 17.76 65.7 19.25 63.11 20.75 63.11 17.76"/><polygon class="cls-5" points="45.98 17.76 43.39 19.25 45.98 20.75 45.98 17.76"/><text class="cls-6" transform="translate(48.45 16)">A</text><line class="cls-4" x1="72.05" y1="41.58" x2="127.84" y2="41.58"/><line class="cls-4" x1="126.07" y1="38.09" x2="126.07" y2="30.03"/><polygon class="cls-5" points="127.56 37.66 126.07 40.25 124.57 37.66 127.56 37.66"/><polygon class="cls-5" points="127.56 30.47 126.07 27.88 124.57 30.47 127.56 30.47"/><text class="cls-6" transform="translate(131.92 41.58)">B</text><line class="cls-4" x1="106.05" y1="26.55" x2="127.84" y2="26.55"/><line class="cls-4" x1="38.27" y1="66.55" x2="18.48" y2="66.55"/><line class="cls-4" x1="38.27" y1="41.58" x2="18.48" y2="41.58"/><line class="cls-4" x1="20.25" y1="63.07" x2="20.25" y2="45.06"/><polygon class="cls-5" points="21.75 62.63 20.25 65.22 18.76 62.63 21.75 62.63"/><polygon class="cls-5" points="21.75 45.5 20.25 42.91 18.76 45.5 21.75 45.5"/><text class="cls-6" transform="translate(4.21 63.26)">C</text><circle class="cls-7" cx="42.04" cy="66.47" r="1.63"/></g></g></svg>