<svg xmlns="http://www.w3.org/2000/svg" viewBox="0 0 156.72 168.88"><defs><style>.cls-1,.cls-8{fill:#f7f8f8;}.cls-1,.cls-10,.cls-2,.cls-3,.cls-4,.cls-5,.cls-9{stroke:#040000;stroke-linejoin:round;}.cls-1{stroke-width:0.76px;}.cls-10,.cls-2,.cls-3,.cls-4,.cls-5,.cls-9{fill:none;}.cls-10,.cls-3{stroke-dasharray:1.77 1.77;}.cls-4{stroke-dasharray:2.03 2.03;}.cls-5{stroke-dasharray:1.76 1.76;}.cls-6{fill:#040000;}.cls-7{font-size:20px;fill:#231815;font-family:NanumSquareRoundR, NanumSquareRound;}.cls-10,.cls-9{stroke-width:0.76px;}</style></defs><title>자산 206</title><g id="레이어_2" data-name="레이어 2"><g id="레이어_1-2" data-name="레이어 1"><path class="cls-1" d="M47.48,82.89l-.09-26.41V32.27H147.52S165,49.09,150.77,78.35a45.1,45.1,0,0,0-4.28,15.29,61.4,61.4,0,0,0,9.85,39.86h-109L29.41,108.26Z"/><line class="cls-1" x1="148.77" y1="82.89" x2="47.39" y2="82.89"/><line class="cls-2" x1="47.39" y1="32.27" x2="46.39" y2="32.27"/><line class="cls-3" x1="44.61" y1="32.27" x2="31.3" y2="32.27"/><polyline class="cls-2" points="30.41 32.27 29.41 32.27 29.41 33.27"/><line class="cls-4" x1="29.41" y1="35.3" x2="29.41" y2="131.49"/><polyline class="cls-2" points="29.41 132.5 29.41 133.5 30.41 133.5"/><line class="cls-5" x1="32.18" y1="133.5" x2="45.41" y2="133.5"/><line class="cls-2" x1="46.29" y1="133.5" x2="47.29" y2="133.5"/><line class="cls-2" x1="29.41" y1="27.27" x2="29.41" y2="17.48"/><line class="cls-2" x1="47.39" y1="27.27" x2="47.39" y2="17.48"/><line class="cls-2" x1="32.9" y1="19.26" x2="43.9" y2="19.26"/><polygon class="cls-6" points="33.34 20.75 30.75 19.25 33.34 17.76 33.34 20.75"/><polygon class="cls-6" points="43.46 20.75 46.05 19.25 43.46 17.76 43.46 20.75"/><text class="cls-7" transform="translate(31.95 16)">C</text><line class="cls-2" x1="29.41" y1="138.5" x2="29.41" y2="148.29"/><line class="cls-2" x1="47.39" y1="138.5" x2="47.39" y2="148.29"/><line class="cls-2" x1="32.9" y1="146.52" x2="43.9" y2="146.52"/><polygon class="cls-6" points="33.34 148.01 30.75 146.52 33.34 145.02 33.34 148.01"/><polygon class="cls-6" points="43.46 148.01 46.05 146.52 43.46 145.02 43.46 148.01"/><text class="cls-7" transform="translate(31.8 163.77)">A</text><line class="cls-2" x1="24.41" y1="133.5" x2="14.62" y2="133.5"/><line class="cls-2" x1="24.41" y1="108.29" x2="14.62" y2="108.29"/><line class="cls-2" x1="16.4" y1="130.02" x2="16.4" y2="111.78"/><polygon class="cls-6" points="17.9 129.58 16.4 132.17 14.9 129.58 17.9 129.58"/><polygon class="cls-6" points="17.9 112.22 16.4 109.63 14.9 112.22 17.9 112.22"/><text class="cls-7" transform="translate(0 126.13)">B</text><line class="cls-8" x1="29.41" y1="82.89" x2="47.39" y2="82.89"/><line class="cls-9" x1="29.41" y1="82.89" x2="30.41" y2="82.89"/><line class="cls-10" x1="32.19" y1="82.89" x2="45.5" y2="82.89"/><line class="cls-9" x1="46.39" y1="82.89" x2="47.39" y2="82.89"/></g></g></svg>