<svg xmlns="http://www.w3.org/2000/svg" viewBox="0 0 160.29 139.55"><defs><style>.cls-1{fill:#f7f8f8;stroke-width:0.76px;}.cls-1,.cls-2,.cls-7{stroke:#040000;stroke-linejoin:round;}.cls-2,.cls-6,.cls-7{fill:none;}.cls-3{fill:#040000;}.cls-4,.cls-5{font-size:20px;font-family:NanumSquareRoundR, NanumSquareRound;}.cls-5{fill:#231815;}.cls-6{stroke:#036eb8;stroke-miterlimit:10;}.cls-6,.cls-7{stroke-dasharray:2;}.cls-7{stroke-width:0.76px;}</style></defs><title>자산 212</title><g id="레이어_2" data-name="레이어 2"><g id="레이어_1-2" data-name="레이어 1"><path class="cls-1" d="M33,18.35,32.91.52,51,.38H151.08s17.46,16.82,3.26,46.08a44.88,44.88,0,0,0-4.28,15.29,61.39,61.39,0,0,0,9.85,39.86l-70.15-.23-.14-59.23L41.52,42l-8.54-8Z"/><line class="cls-1" x1="89.65" y1="51" x2="152.45" y2="51"/><line class="cls-2" x1="89.38" y1="37.15" x2="89.38" y2="19.36"/><line class="cls-2" x1="36.47" y1="24.14" x2="85.9" y2="24.14"/><polygon class="cls-3" points="36.91 25.63 34.32 24.14 36.91 22.64 36.91 25.63"/><polygon class="cls-3" points="85.46 25.63 88.05 24.14 85.46 22.64 85.46 25.63"/><text class="cls-4" transform="translate(54.46 20.62)">A</text><line class="cls-2" x1="27.91" y1="42.15" x2="16.12" y2="42.15"/><line class="cls-2" x1="27.91" y1="34.05" x2="16.12" y2="34.05"/><line class="cls-2" x1="17.89" y1="39.38" x2="17.89" y2="36.81"/><polygon class="cls-3" points="18.89 39.09 17.89 40.82 16.9 39.09 18.89 39.09"/><polygon class="cls-3" points="18.89 37.11 17.89 35.38 16.9 37.11 18.89 37.11"/><text class="cls-5" transform="translate(0 44.6)">D</text><line class="cls-2" x1="94.76" y1="42.15" x2="114.55" y2="42.15"/><line class="cls-2" x1="112.77" y1="48.19" x2="112.77" y2="44.61"/><polygon class="cls-3" points="113.77 47.9 112.77 49.63 111.78 47.9 113.77 47.9"/><polygon class="cls-3" points="113.77 44.9 112.77 43.17 111.78 44.9 113.77 44.9"/><text class="cls-5" transform="translate(116.2 55.18)">C</text><polyline class="cls-6" points="61.32 101.76 89.62 42.15 117.45 101.76"/><polyline class="cls-7" points="89.76 101.38 32.91 101.38 32.91 34.05"/><line class="cls-2" x1="89.38" y1="106.38" x2="89.38" y2="118.17"/><line class="cls-2" x1="32.74" y1="106.38" x2="32.74" y2="118.17"/><line class="cls-2" x1="85.9" y1="116.39" x2="36.23" y2="116.39"/><polygon class="cls-3" points="85.46 114.89 88.05 116.39 85.46 117.89 85.46 114.89"/><polygon class="cls-3" points="36.67 114.89 34.08 116.39 36.67 117.89 36.67 114.89"/><text class="cls-5" transform="translate(54.66 134.45)">B</text><line class="cls-7" x1="32.91" y1="50.96" x2="89.76" y2="50.96"/></g></g></svg>