<svg xmlns="http://www.w3.org/2000/svg" viewBox="0 0 156.72 137.34"><defs><style>.cls-1{fill:#f7f8f8;stroke-width:0.76px;}.cls-1,.cls-2,.cls-3{stroke:#040000;stroke-linejoin:round;}.cls-2,.cls-3{fill:none;}.cls-3{stroke-dasharray:1.77 1.77;}.cls-4{fill:#040000;}.cls-5{font-size:20px;fill:#231815;font-family:NanumSquareRoundR, NanumSquareRound;}</style></defs><title>자산 218</title><g id="레이어_2" data-name="레이어 2"><g id="레이어_1-2" data-name="레이어 1"><path class="cls-1" d="M29.42.38h118.1S165,17.2,150.77,46.46a44.86,44.86,0,0,0-4.27,15.29,61.31,61.31,0,0,0,9.84,39.86H47.39l-18-18Z"/><line class="cls-1" x1="29.42" y1="51" x2="148.89" y2="51"/><line class="cls-2" x1="47.39" y1="101.61" x2="46.39" y2="101.61"/><line class="cls-3" x1="44.61" y1="101.61" x2="31.3" y2="101.61"/><polyline class="cls-2" points="30.42 101.61 29.42 101.61 29.42 100.61"/><line class="cls-3" x1="29.42" y1="98.84" x2="29.42" y2="85.53"/><line class="cls-2" x1="29.42" y1="84.64" x2="29.42" y2="83.64"/><line class="cls-2" x1="47.39" y1="106.61" x2="47.39" y2="116.4"/><line class="cls-2" x1="29.42" y1="106.61" x2="29.42" y2="116.4"/><line class="cls-2" x1="43.9" y1="114.63" x2="32.9" y2="114.63"/><polygon class="cls-4" points="43.47 113.13 46.06 114.63 43.47 116.13 43.47 113.13"/><polygon class="cls-4" points="33.34 113.13 30.75 114.63 33.34 116.13 33.34 113.13"/><text class="cls-5" transform="translate(31.8 132.24)">A</text><line class="cls-2" x1="24.42" y1="101.61" x2="14.63" y2="101.61"/><line class="cls-2" x1="24.42" y1="83.64" x2="14.63" y2="83.64"/><line class="cls-2" x1="16.4" y1="98.13" x2="16.4" y2="87.13"/><polygon class="cls-4" points="17.9 97.69 16.4 100.28 14.9 97.69 17.9 97.69"/><polygon class="cls-4" points="17.9 87.57 16.4 84.97 14.9 87.57 17.9 87.57"/><text class="cls-5" transform="translate(0 99.28)">B</text></g></g></svg>