<?xml version="1.0" encoding="UTF-8" standalone="no"?>
<svg
   width="153.12863"
   height="130.24001"
   version="1.1"
   viewBox="0 0 153.12864 130.24"
   id="svg90"
   sodipodi:docname="EA102.svg"
   inkscape:version="1.1 (c68e22c387, 2021-05-23)"
   xmlns:inkscape="http://www.inkscape.org/namespaces/inkscape"
   xmlns:sodipodi="http://sodipodi.sourceforge.net/DTD/sodipodi-0.dtd"
   xmlns="http://www.w3.org/2000/svg"
   xmlns:svg="http://www.w3.org/2000/svg"
   xmlns:rdf="http://www.w3.org/1999/02/22-rdf-syntax-ns#"
   xmlns:cc="http://creativecommons.org/ns#"
   xmlns:dc="http://purl.org/dc/elements/1.1/">
  <sodipodi:namedview
     id="namedview92"
     pagecolor="#ffffff"
     bordercolor="#666666"
     borderopacity="1.0"
     inkscape:pageshadow="2"
     inkscape:pageopacity="0.0"
     inkscape:pagecheckerboard="0"
     showgrid="false"
     inkscape:zoom="6.3882061"
     inkscape:cx="75.764619"
     inkscape:cy="65.120003"
     inkscape:window-width="1920"
     inkscape:window-height="1058"
     inkscape:window-x="-8"
     inkscape:window-y="636"
     inkscape:window-maximized="1"
     inkscape:current-layer="svg90" />
  <title
     id="title2">EA102</title>
  <defs
     id="defs6">
    <style
       id="style4">.cls-1{fill:#f7f8f8;stroke-width:0.76px;}.cls-1,.cls-2,.cls-3{stroke:#040000;stroke-linejoin:round;}.cls-2,.cls-3{fill:none;}.cls-3{stroke-dasharray:1.77 1.77;}.cls-4{fill:#040000;}.cls-5{font-size:20px;fill:#231815;font-family:NanumSquareRoundR, NanumSquareRound;}</style>
  </defs>
  <g
     id="g1029"
     transform="translate(-1.6315469)">
    <path
       class="cls-1"
       d="m 27.4588,0.38 h 118.1 c 0,0 17.46,16.82 3.26,46.08 a 44.88,44.88 0 0 0 -4.28,15.29 61.37,61.37 0 0 0 9.84,39.86 h -108.95 v -18 h -18 z"
       id="path8" />
    <line
       class="cls-1"
       x1="27.458799"
       x2="146.9288"
       y1="51"
       y2="51"
       id="line10" />
    <line
       class="cls-2"
       x1="45.428799"
       x2="44.428799"
       y1="101.61"
       y2="101.61"
       id="line12" />
    <line
       class="cls-3"
       x1="42.658798"
       x2="29.348799"
       y1="101.61"
       y2="101.61"
       id="line14" />
    <polyline
       class="cls-2"
       points="30.74 101.61 29.74 101.61 29.74 100.61"
       id="polyline16"
       transform="translate(-2.2812)" />
    <line
       class="cls-3"
       x1="27.458799"
       x2="27.458799"
       y1="98.839996"
       y2="85.529999"
       id="line18" />
    <line
       class="cls-2"
       x1="27.458799"
       x2="27.458799"
       y1="84.639999"
       y2="83.639999"
       id="line20" />
    <line
       class="cls-2"
       x1="45.428799"
       x2="45.428799"
       y1="106.61"
       y2="116.4"
       id="line22" />
    <line
       class="cls-2"
       x1="27.458799"
       x2="27.458799"
       y1="106.61"
       y2="116.4"
       id="line24" />
    <line
       class="cls-2"
       x1="41.948799"
       x2="30.948799"
       y1="114.63"
       y2="114.63"
       id="line26" />
    <polygon
       class="cls-4"
       points="46.38,114.63 43.79,116.13 43.79,113.13 "
       id="polygon28"
       transform="translate(-2.2812)" />
    <polygon
       class="cls-4"
       points="31.07,114.63 33.66,116.13 33.66,113.13 "
       id="polygon30"
       transform="translate(-2.2812)" />
    <text
       class="cls-5"
       x="30.178947"
       y="130.24001"
       fill="#231815"
       font-family="Aparajita"
       font-size="21.333px"
       style="font-variant-ligatures:normal;font-variant-caps:normal;font-variant-numeric:normal;font-variant-east-asian:normal"
       id="text32">A</text>
    <line
       class="cls-2"
       x1="22.458799"
       x2="12.668799"
       y1="101.61"
       y2="101.61"
       id="line34" />
    <line
       class="cls-2"
       x1="22.458799"
       x2="12.668799"
       y1="83.639999"
       y2="83.639999"
       id="line36" />
    <line
       class="cls-2"
       x1="14.448799"
       x2="14.448799"
       y1="98.129997"
       y2="87.129997"
       id="line38" />
    <polygon
       class="cls-4"
       points="16.73,100.28 15.23,97.69 18.22,97.69 "
       id="polygon40"
       transform="translate(-2.2812)" />
    <polygon
       class="cls-4"
       points="16.73,84.97 15.23,87.57 18.22,87.57 "
       id="polygon42"
       transform="translate(-2.2812)" />
    <text
       class="cls-5"
       x="-0.28119999"
       y="98.445068"
       fill="#231815"
       font-family="Aparajita"
       font-size="21.333px"
       style="font-variant-ligatures:normal;font-variant-caps:normal;font-variant-numeric:normal;font-variant-east-asian:normal"
       id="text44">B</text>
    <line
       class="cls-2"
       x1="50.089001"
       x2="59.879002"
       y1="83.940002"
       y2="83.940002"
       fill="none"
       stroke="#040000"
       stroke-linejoin="round"
       id="line48" />
    <line
       class="cls-2"
       x1="58.109001"
       x2="58.109001"
       y1="87.419998"
       y2="98.419998"
       fill="none"
       stroke="#040000"
       stroke-linejoin="round"
       id="line50" />
    <polygon
       class="cls-4"
       transform="matrix(1,0,0,-1,-82.211,134.18)"
       points="138.82,46.32 141.81,46.32 140.32,48.91 "
       fill="#040000"
       id="polygon52" />
    <polygon
       class="cls-4"
       transform="matrix(1,0,0,-1,-82.211,134.18)"
       points="138.82,36.19 141.81,36.19 140.32,33.6 "
       fill="#040000"
       id="polygon54" />
    <text
       x="61.717075"
       y="98.259186"
       font-family="Aparajita"
       font-size="21.333px"
       style="font-style:normal;font-variant:normal;font-weight:normal;font-stretch:normal;font-size:20px;line-height:1.25;font-family:NanumSquareRoundR, NanumSquareRound;-inkscape-font-specification:'NanumSquareRoundR, NanumSquareRound, Normal';font-variant-ligatures:normal;font-variant-caps:normal;font-variant-numeric:normal;font-variant-east-asian:normal"
       xml:space="preserve"
       id="text58"><tspan
         x="61.717075"
         y="98.259186"
         id="tspan56"
         style="font-style:normal;font-variant:normal;font-weight:normal;font-stretch:normal;font-size:20px;font-family:NanumSquareRoundR, NanumSquareRound;-inkscape-font-specification:'NanumSquareRoundR, NanumSquareRound, Normal';font-variant-ligatures:normal;font-variant-caps:normal;font-variant-numeric:normal;font-variant-east-asian:normal">C</tspan></text>
    <line
       class="cls-2"
       x1="14.625"
       x2="14.625"
       y1="76.009003"
       y2="81.059998"
       fill="none"
       stroke="#040000"
       stroke-linejoin="round"
       stroke-width="0.67762"
       id="line60" />
    <line
       class="cls-2"
       x1="22.638"
       x2="12.848"
       y1="73.591003"
       y2="73.591003"
       fill="none"
       stroke="#040000"
       stroke-linejoin="round"
       id="line62" />
    <polygon
       class="cls-4"
       transform="rotate(180,77.469,61.916)"
       points="141.81,46.32 140.32,48.91 138.82,46.32 "
       fill="#040000"
       id="polygon64" />
    <polygon
       class="cls-4"
       transform="rotate(180,77.469,57.916)"
       points="138.82,36.19 141.81,36.19 140.32,33.6 "
       fill="#040000"
       id="polygon66" />
    <text
       transform="scale(1,-1)"
       x="-0.28845307"
       y="-69.248779"
       font-family="Aparajita"
       font-size="21.333px"
       style="font-style:normal;font-variant:normal;font-weight:normal;font-stretch:normal;font-size:20px;line-height:1.25;font-family:NanumSquareRoundR, NanumSquareRound;-inkscape-font-specification:'NanumSquareRoundR, NanumSquareRound, Normal';font-variant-ligatures:normal;font-variant-caps:normal;font-variant-numeric:normal;font-variant-east-asian:normal;fill:#000000"
       xml:space="preserve"
       id="text70"><tspan
         x="-0.28845307"
         y="-69.248779"
         id="tspan68"
         style="font-style:normal;font-variant:normal;font-weight:normal;font-stretch:normal;font-size:20px;font-family:NanumSquareRoundR, NanumSquareRound;-inkscape-font-specification:'NanumSquareRoundR, NanumSquareRound, Normal';font-variant-ligatures:normal;font-variant-caps:normal;font-variant-numeric:normal;font-variant-east-asian:normal;fill:#000000">D</tspan></text>
    <g
       stroke-dasharray="0.0455166, 0.0227583"
       stroke-width="0.022758"
       id="g84"
       style="fill:#000080">
      <path
         d="m 36.98,82.556 0.54765,0.53452 -0.26317,0.27778 -0.26316,0.27779 -0.56389,-0.54802 -0.56388,-0.54802 0.26462,-0.26572 c 0.14554,-0.14615 0.27127,-0.26508 0.2794,-0.2643 0.008,7.9e-4 0.26123,0.24198 0.56243,0.53597 z"
         id="path72" />
      <path
         d="m 35.272,80.877 0.54616,0.53404 -0.53708,0.53485 -0.14961,-0.14106 c -0.0823,-0.0776 -0.33199,-0.32023 -0.5549,-0.53924 l -0.4053,-0.39819 0.2625,-0.26359 c 0.14437,-0.14498 0.26915,-0.26297 0.27728,-0.26222 0.008,7.6e-4 0.26056,0.24169 0.56095,0.53541 z"
         id="path74" />
      <path
         d="m 33.567,79.181 0.54749,0.54804 -0.54109,0.53884 -1.1089,-1.1078 0.26245,-0.26355 c 0.14435,-0.14495 0.26923,-0.26355 0.27751,-0.26355 0.008,0 0.26143,0.24662 0.56256,0.54804 z"
         id="path76" />
      <path
         d="m 31.866,77.481 0.55428,0.55482 -0.27025,0.27026 -0.27026,0.27025 -0.55428,-0.55482 -0.55427,-0.55483 0.54051,-0.54051 z"
         id="path78" />
      <path
         d="m 30.174,75.788 0.53981,0.54036 -0.53883,0.54109 -0.54791,-0.54736 -0.54791,-0.54737 0.26245,-0.26355 c 0.14435,-0.14495 0.26923,-0.26354 0.27752,-0.26354 0.008,0 0.25798,0.24316 0.55487,0.54037 z"
         id="path80" />
      <path
         d="m 28.461,74.09 0.56339,0.54617 -0.53983,0.53563 -0.55662,-0.53491 c -0.30614,-0.2942 -0.55662,-0.54298 -0.55662,-0.55286 0,-0.01 0.11841,-0.13545 0.26314,-0.27907 l 0.26315,-0.26112 z"
         id="path82" />
    </g>
  </g>
  <metadata
     id="metadata88">
    <rdf:RDF>
      <cc:Work
         rdf:about="">
        <dc:title>EA102</dc:title>
      </cc:Work>
    </rdf:RDF>
  </metadata>
</svg>
