<svg xmlns="http://www.w3.org/2000/svg" viewBox="0 0 112.84 102"><defs><style>.cls-1{fill:#f7f8f8;stroke-width:0.76px;}.cls-1,.cls-2,.cls-4,.cls-7{stroke:#040000;}.cls-1,.cls-2,.cls-4{stroke-linejoin:round;}.cls-2{fill:#fff;stroke-width:0.76px;stroke-dasharray:1;}.cls-3{fill:#e60012;}.cls-4,.cls-7{fill:none;}.cls-5{fill:#040000;}.cls-6{font-size:20px;fill:#231815;font-family:NanumSquareRoundR, NanumSquareRound;}.cls-7{stroke-miterlimit:10;}</style></defs><title>자산 191</title><g id="레이어_2" data-name="레이어 2"><g id="레이어_1-2" data-name="레이어 1"><path class="cls-1" d="M102.23.38H.38a61.32,61.32,0,0,1,9.84,39.86A44.8,44.8,0,0,1,6,55.53C-8.25,84.8,9.2,101.61,9.2,101.61H111.29c-15-18-8.52-36.51-2-50.61C117.7,30,107.17,4.87,102.23.38Z"/><line class="cls-1" x1="109.33" y1="51" x2="7.83" y2="51"/><rect class="cls-2" x="41.18" y="71.57" width="25.38" height="9.2" rx="4.6" transform="translate(130.04 22.3) rotate(90)"/><ellipse class="cls-3" cx="53.87" cy="76.17" rx="0.32" ry="0.33"/><line class="cls-4" x1="76.5" y1="66.56" x2="60.71" y2="66.56"/><line class="cls-4" x1="76.5" y1="85.87" x2="60.71" y2="85.87"/><line class="cls-4" x1="73.48" y1="70.05" x2="73.48" y2="83.05"/><polygon class="cls-5" points="71.99 70.48 73.48 67.89 74.98 70.48 71.99 70.48"/><polygon class="cls-5" points="71.99 82.61 73.48 85.2 74.98 82.61 71.99 82.61"/><text class="cls-6" transform="translate(79.63 83.88)">C</text><line class="cls-4" x1="44.88" y1="76.53" x2="32.09" y2="76.53"/><line class="cls-4" x1="33.87" y1="80.02" x2="33.87" y2="98.35"/><polygon class="cls-5" points="32.37 80.46 33.87 77.86 35.36 80.46 32.37 80.46"/><polygon class="cls-5" points="32.37 97.91 33.87 100.5 35.36 97.91 32.37 97.91"/><text class="cls-6" transform="translate(17.07 95.15)">B</text><polyline class="cls-7" points="55.33 57.73 60.63 42.44 67.82 42.44"/><polygon class="cls-5" points="57.92 57.86 54.15 61.12 53.21 56.23 57.92 57.86"/><text class="cls-6" transform="translate(69.9 46.28)">A</text></g></g></svg>