<svg xmlns="http://www.w3.org/2000/svg" viewBox="0 0 112.84 102"><defs><style>.cls-1{fill:#f7f8f8;stroke-width:0.76px;}.cls-1,.cls-3,.cls-5,.cls-8{stroke:#040000;}.cls-1,.cls-3,.cls-8{stroke-linejoin:round;}.cls-2{fill:#fff;}.cls-3,.cls-5,.cls-8{fill:none;}.cls-3{stroke-width:0.76px;stroke-dasharray:0.98 0.98;}.cls-4{fill:#e60012;}.cls-5{stroke-miterlimit:10;}.cls-6{fill:#040000;}.cls-7{font-size:20px;fill:#231815;font-family:NanumSquareRoundR, NanumSquareRound;}</style></defs><title>자산 187</title><g id="레이어_2" data-name="레이어 2"><g id="레이어_1-2" data-name="레이어 1"><path class="cls-1" d="M102.23.38H.38a61.32,61.32,0,0,1,9.84,39.86A44.8,44.8,0,0,1,6,55.53C-8.25,84.8,9.2,101.61,9.2,101.61H111.29c-15-18-8.52-36.51-2-50.61C117.7,30,107.17,4.87,102.23.38Z"/><line class="cls-1" x1="109.33" y1="51" x2="7.83" y2="51"/><circle class="cls-2" cx="53.87" cy="78.04" r="5.62"/><circle class="cls-3" cx="53.87" cy="78.04" r="5.62" transform="translate(-29.1 123.95) rotate(-84.35)"/><circle class="cls-4" cx="53.87" cy="78.04" r="0.41"/><polyline class="cls-5" points="58.49 67.72 60.63 62.37 67.82 62.37"/><polygon class="cls-6" points="61.08 67.97 57.16 71.05 56.45 66.12 61.08 67.97"/><text class="cls-7" transform="translate(67.97 69.93)">A</text><line class="cls-8" x1="45.02" y1="78.34" x2="32.23" y2="78.34"/><line class="cls-8" x1="34" y1="81.82" x2="34" y2="97.15"/><polygon class="cls-6" points="32.5 82.26 34 79.67 35.5 82.26 32.5 82.26"/><polygon class="cls-6" points="32.5 96.71 34 99.3 35.5 96.71 32.5 96.71"/><text class="cls-7" transform="translate(18.38 95.99)">B</text></g></g></svg>