<svg xmlns="http://www.w3.org/2000/svg" viewBox="0 0 136.74 142.06"><defs><style>.cls-1{fill:#f7f8f8;stroke-width:0.76px;}.cls-1,.cls-2,.cls-3,.cls-4{stroke:#040000;stroke-linejoin:round;}.cls-2,.cls-3,.cls-4{fill:none;}.cls-2,.cls-3{stroke-width:0.76px;}.cls-3{stroke-dasharray:0.99 0.99;}.cls-5{fill:#040000;}.cls-6{font-size:20px;fill:#231815;font-family:NanumSquareRoundR, NanumSquareRound;}</style></defs><title>자산 202</title><g id="레이어_2" data-name="레이어 2"><g id="레이어_1-2" data-name="레이어 1"><path class="cls-1" d="M57.49,101.61H33.1S15.64,84.8,29.84,55.53a44.81,44.81,0,0,0,4.28-15.29A61.38,61.38,0,0,0,24.28.38H126.13C131.07,4.87,141.6,30,133.23,51c-6.57,14.1-13,32.58,2,50.61H95.12V88H57.31Z"/><line class="cls-1" x1="133.23" y1="51" x2="31.73" y2="51"/><line class="cls-2" x1="57.62" y1="101.55" x2="58.12" y2="101.55"/><line class="cls-3" x1="59.11" y1="101.55" x2="94.15" y2="101.55"/><line class="cls-2" x1="94.64" y1="101.55" x2="95.14" y2="101.55"/><line class="cls-4" x1="57.62" y1="106.55" x2="57.62" y2="119.34"/><line class="cls-4" x1="95.14" y1="106.55" x2="95.14" y2="119.34"/><line class="cls-4" x1="61.1" y1="117.56" x2="91.66" y2="117.56"/><polygon class="cls-5" points="61.54 119.06 58.95 117.56 61.54 116.06 61.54 119.06"/><polygon class="cls-5" points="91.22 119.06 93.81 117.56 91.22 116.06 91.22 119.06"/><text class="cls-6" transform="translate(69.78 136.96)">A</text><line class="cls-4" x1="30.48" y1="101.61" x2="15.69" y2="101.61"/><line class="cls-4" x1="54.36" y1="87.8" x2="15.69" y2="87.8"/><line class="cls-4" x1="17.47" y1="98.13" x2="17.47" y2="91.28"/><polygon class="cls-5" points="18.96 97.69 17.47 100.28 15.97 97.69 18.96 97.69"/><polygon class="cls-5" points="18.96 91.72 17.47 89.13 15.97 91.72 18.96 91.72"/><text class="cls-6" transform="translate(0 102.43)">B</text></g></g></svg>