<svg xmlns="http://www.w3.org/2000/svg" viewBox="0 0 112.84 110.09"><defs><style>.cls-1{fill:#f7f8f8;stroke-width:0.76px;}.cls-1,.cls-2,.cls-4,.cls-7{stroke:#040000;}.cls-1,.cls-2,.cls-4{stroke-linejoin:round;}.cls-2{fill:#fff;stroke-width:0.76px;stroke-dasharray:1;}.cls-3{fill:#e60012;}.cls-4,.cls-7{fill:none;}.cls-5{fill:#040000;}.cls-6{font-size:20px;fill:#231815;font-family:NanumSquareRoundR, NanumSquareRound;}.cls-7{stroke-miterlimit:10;}</style></defs><title>자산 189</title><g id="레이어_2" data-name="레이어 2"><g id="레이어_1-2" data-name="레이어 1"><path class="cls-1" d="M102.23.38H.38a61.32,61.32,0,0,1,9.84,39.86A44.8,44.8,0,0,1,6,55.53C-8.25,84.8,9.2,101.61,9.2,101.61H111.29c-15-18-8.52-36.51-2-50.61C117.7,30,107.17,4.87,102.23.38Z"/><line class="cls-1" x1="109.33" y1="51" x2="7.83" y2="51"/><rect class="cls-2" x="38.1" y="65.82" width="31.54" height="9.2" rx="4.6"/><ellipse class="cls-3" cx="53.87" cy="70.42" rx="0.32" ry="0.41"/><line class="cls-4" x1="67.45" y1="89.37" x2="67.45" y2="78.58"/><line class="cls-4" x1="40.48" y1="89.37" x2="40.48" y2="78.58"/><line class="cls-4" x1="63.97" y1="86.36" x2="43.3" y2="86.36"/><polygon class="cls-5" points="63.53 84.86 66.12 86.36 63.53 87.86 63.53 84.86"/><polygon class="cls-5" points="43.74 84.86 41.15 86.36 43.74 87.86 43.74 84.86"/><text class="cls-6" transform="translate(47.85 104.99)">C</text><line class="cls-4" x1="33.91" y1="70.01" x2="21.12" y2="70.01"/><line class="cls-4" x1="22.89" y1="73.5" x2="22.89" y2="97.83"/><polygon class="cls-5" points="21.39 73.94 22.89 71.35 24.39 73.94 21.39 73.94"/><polygon class="cls-5" points="21.39 97.39 22.89 99.98 24.39 97.39 21.39 97.39"/><text class="cls-6" transform="translate(6.01 91.67)">B</text><polyline class="cls-7" points="74.23 67.74 91.56 57.8 84.78 43.84"/><polygon class="cls-5" points="76.1 69.54 71.12 69.52 73.62 65.21 76.1 69.54"/><text class="cls-6" transform="translate(74.74 41.83)">A</text></g></g></svg>