<svg xmlns="http://www.w3.org/2000/svg" viewBox="0 0 157.29 168.87"><defs><style>.cls-1,.cls-7{fill:#f7f8f8;}.cls-1,.cls-2,.cls-3,.cls-4,.cls-7{stroke:#040000;stroke-linejoin:round;}.cls-1{stroke-width:0.76px;}.cls-2,.cls-3,.cls-4{fill:none;}.cls-3{stroke-dasharray:1.77 1.77;}.cls-4{stroke-dasharray:2.03 2.03;}.cls-5{fill:#040000;}.cls-6{font-size:20px;fill:#231815;font-family:NanumSquareRoundR, NanumSquareRound;}.cls-7{stroke-width:0.76px;stroke-dasharray:2;}</style></defs><title>자산 207</title><g id="레이어_2" data-name="레이어 2"><g id="레이어_1-2" data-name="레이어 1"><path class="cls-1" d="M109.33,133.5l-45.49.13L9.2,133.5S-8.25,116.69,6,87.42a44.8,44.8,0,0,0,4.27-15.29A61.32,61.32,0,0,0,.38,32.27h109V82.89l18,25.37Z"/><line class="cls-1" x1="109.33" y1="82.89" x2="7.83" y2="82.89"/><line class="cls-2" x1="109.33" y1="32.27" x2="110.33" y2="32.27"/><line class="cls-3" x1="112.11" y1="32.27" x2="125.42" y2="32.27"/><polyline class="cls-2" points="126.3 32.27 127.3 32.27 127.3 33.27"/><line class="cls-4" x1="127.3" y1="35.3" x2="127.3" y2="131.49"/><polyline class="cls-2" points="127.3 132.5 127.3 133.5 126.3 133.5"/><line class="cls-3" x1="124.53" y1="133.5" x2="111.22" y2="133.5"/><line class="cls-2" x1="110.33" y1="133.5" x2="109.33" y2="133.5"/><line class="cls-2" x1="127.3" y1="27.27" x2="127.3" y2="17.48"/><line class="cls-2" x1="109.33" y1="27.27" x2="109.33" y2="17.48"/><line class="cls-2" x1="123.82" y1="19.26" x2="112.82" y2="19.26"/><polygon class="cls-5" points="123.38 17.76 125.97 19.25 123.38 20.75 123.38 17.76"/><polygon class="cls-5" points="113.25 17.76 110.66 19.25 113.25 20.75 113.25 17.76"/><text class="cls-6" transform="translate(111.87 16)">C</text><line class="cls-2" x1="132.3" y1="133.5" x2="142.09" y2="133.5"/><line class="cls-2" x1="132.3" y1="108.29" x2="142.09" y2="108.29"/><line class="cls-2" x1="140.32" y1="130.02" x2="140.32" y2="111.78"/><polygon class="cls-5" points="141.81 129.58 140.32 132.17 138.82 129.58 141.81 129.58"/><polygon class="cls-5" points="141.81 112.22 140.32 109.63 138.82 112.22 141.81 112.22"/><text class="cls-6" transform="translate(144.49 126.13)">B</text><line class="cls-2" x1="109.33" y1="138.5" x2="109.33" y2="148.29"/><line class="cls-2" x1="127.3" y1="138.5" x2="127.3" y2="148.29"/><line class="cls-2" x1="112.82" y1="146.52" x2="123.82" y2="146.52"/><polygon class="cls-5" points="113.25 148.01 110.66 146.52 113.25 145.02 113.25 148.01"/><polygon class="cls-5" points="123.38 148.01 125.97 146.52 123.38 145.02 123.38 148.01"/><text class="cls-6" transform="translate(111.72 163.77)">A</text><line class="cls-7" x1="127.88" y1="82.89" x2="109.91" y2="82.89"/></g></g></svg>