<svg xmlns="http://www.w3.org/2000/svg" viewBox="0 0 157.71 139.55"><defs><style>.cls-1{fill:#f7f8f8;stroke-width:0.76px;}.cls-1,.cls-2,.cls-7{stroke:#040000;stroke-linejoin:round;}.cls-2,.cls-6,.cls-7{fill:none;}.cls-3{fill:#040000;}.cls-4,.cls-5{font-size:20px;font-family:NanumSquareRoundR, NanumSquareRound;}.cls-5{fill:#231815;}.cls-6{stroke:#036eb8;stroke-miterlimit:10;}.cls-6,.cls-7{stroke-dasharray:2;}.cls-7{stroke-width:0.76px;}</style></defs><title>자산 210</title><g id="레이어_2" data-name="레이어 2"><g id="레이어_1-2" data-name="레이어 1"><path class="cls-1" d="M73.59.52h-.08L49.59.38H1.69S19.15,17.2,5,46.46A44.65,44.65,0,0,0,.67,61.75a61.31,61.31,0,0,0,9.84,39.86h63V42.15H122.2l8-7.86V.38Z"/><line class="cls-1" x1="74.68" y1="51" x2="3.06" y2="51"/><line class="cls-2" x1="73.48" y1="40.41" x2="73.48" y2="20.62"/><line class="cls-2" x1="126.39" y1="22.39" x2="76.96" y2="22.39"/><polygon class="cls-3" points="125.96 20.9 128.55 22.39 125.96 23.89 125.96 20.9"/><polygon class="cls-3" points="77.4 20.9 74.81 22.39 77.4 23.89 77.4 20.9"/><text class="cls-4" transform="translate(93.9 19.14)">A</text><line class="cls-2" x1="132.77" y1="42.15" x2="143.56" y2="42.15"/><line class="cls-2" x1="132.77" y1="34.05" x2="143.56" y2="34.05"/><line class="cls-2" x1="141.78" y1="39.38" x2="141.78" y2="36.81"/><polygon class="cls-3" points="142.78 39.09 141.78 40.82 140.78 39.09 142.78 39.09"/><polygon class="cls-3" points="142.78 37.11 141.78 35.38 140.78 37.11 142.78 37.11"/><text class="cls-5" transform="translate(144.05 44.6)">D</text><polyline class="cls-6" points="44.89 101.76 73.19 42.15 101.01 101.76"/><line class="cls-2" x1="129.99" y1="106.38" x2="129.99" y2="118.17"/><line class="cls-2" x1="73.35" y1="106.38" x2="73.35" y2="118.17"/><line class="cls-2" x1="126.5" y1="116.39" x2="76.83" y2="116.39"/><polygon class="cls-3" points="126.07 114.89 128.66 116.39 126.07 117.89 126.07 114.89"/><polygon class="cls-3" points="77.27 114.89 74.68 116.39 77.27 117.89 77.27 114.89"/><text class="cls-5" transform="translate(95.27 134.45)">B</text><line class="cls-7" x1="73.51" y1="50.96" x2="130.36" y2="50.96"/><polyline class="cls-7" points="73.4 101.61 130.25 101.61 130.25 34.29"/><line class="cls-2" x1="68.51" y1="42.15" x2="48.72" y2="42.15"/><line class="cls-2" x1="50.5" y1="48.19" x2="50.5" y2="44.61"/><polygon class="cls-3" points="51.5 47.9 50.5 49.63 49.5 47.9 51.5 47.9"/><polygon class="cls-3" points="51.5 44.9 50.5 43.17 49.5 44.9 51.5 44.9"/><text class="cls-5" transform="translate(34.24 55.18)">C</text></g></g></svg>