<?xml version="1.0" encoding="UTF-8" standalone="no"?>
<svg
   width="156.59801"
   height="130.79291"
   version="1.1"
   viewBox="0 0 156.598 130.79291"
   id="svg90"
   sodipodi:docname="EA122.svg"
   inkscape:version="1.1 (c68e22c387, 2021-05-23)"
   xmlns:inkscape="http://www.inkscape.org/namespaces/inkscape"
   xmlns:sodipodi="http://sodipodi.sourceforge.net/DTD/sodipodi-0.dtd"
   xmlns="http://www.w3.org/2000/svg"
   xmlns:svg="http://www.w3.org/2000/svg"
   xmlns:rdf="http://www.w3.org/1999/02/22-rdf-syntax-ns#"
   xmlns:cc="http://creativecommons.org/ns#"
   xmlns:dc="http://purl.org/dc/elements/1.1/">
  <sodipodi:namedview
     id="namedview92"
     pagecolor="#ffffff"
     bordercolor="#666666"
     borderopacity="1.0"
     inkscape:pageshadow="2"
     inkscape:pageopacity="0.0"
     inkscape:pagecheckerboard="0"
     showgrid="false"
     inkscape:zoom="6.3613429"
     inkscape:cx="77.813758"
     inkscape:cy="65.394997"
     inkscape:window-width="1920"
     inkscape:window-height="1058"
     inkscape:window-x="-8"
     inkscape:window-y="636"
     inkscape:window-maximized="1"
     inkscape:current-layer="svg90" />
  <title
     id="title2">EA122</title>
  <defs
     id="defs6">
    <style
       id="style4">.cls-1{fill:#f7f8f8;stroke-width:0.76px;}.cls-1,.cls-2,.cls-3{stroke:#040000;stroke-linejoin:round;}.cls-2,.cls-3{fill:none;}.cls-3{stroke-dasharray:1.77 1.77;}.cls-4{fill:#040000;}.cls-5{font-size:20px;fill:#231815;font-family:NanumSquareRoundR, NanumSquareRound;}</style>
  </defs>
  <g
     id="g1109">
    <g
       id="g1011">
      <path
         class="cls-1"
         d="m 127.29997,83.64 h -18 v 18 H 9.1999673 c 0,0 -17.45,-16.84 -3.2,-46.11 A 44.8,44.8 0 0 0 10.269967,40.24 61.32,61.32 0 0 0 0.37996729,0.38 H 127.29997 Z"
         id="path8" />
      <line
         class="cls-1"
         x1="127.29997"
         x2="7.829967"
         y1="51"
         y2="51"
         id="line10" />
      <line
         class="cls-2"
         x1="109.32997"
         x2="110.32997"
         y1="101.61"
         y2="101.61"
         id="line12" />
      <line
         class="cls-3"
         x1="112.10997"
         x2="125.41997"
         y1="101.61"
         y2="101.61"
         id="line14" />
      <polyline
         class="cls-2"
         points="126.3 101.61 127.3 101.61 127.3 100.61"
         id="polyline16"
         transform="translate(-3.2713e-5)" />
      <line
         class="cls-3"
         x1="127.29997"
         x2="127.29997"
         y1="98.839996"
         y2="85.529999"
         id="line18" />
      <line
         class="cls-2"
         x1="127.29997"
         x2="127.29997"
         y1="84.639999"
         y2="83.639999"
         id="line20" />
      <line
         class="cls-2"
         x1="127.29997"
         x2="127.29997"
         y1="106.61"
         y2="116.4"
         id="line22" />
      <line
         class="cls-2"
         x1="109.32997"
         x2="109.32997"
         y1="106.61"
         y2="116.4"
         id="line24" />
      <line
         class="cls-2"
         x1="123.81997"
         x2="112.81997"
         y1="114.63"
         y2="114.63"
         id="line26" />
      <polygon
         class="cls-4"
         points="123.38,113.13 125.97,114.63 123.38,116.13 "
         id="polygon28"
         transform="translate(-3.2713e-5)" />
      <polygon
         class="cls-4"
         points="113.25,113.13 110.66,114.63 113.25,116.13 "
         id="polygon30"
         transform="translate(-3.2713e-5)" />
      <text
         class="cls-5"
         x="112.39417"
         y="130.79291"
         fill="#231815"
         font-family="Aparajita"
         font-size="21.333px"
         style="font-variant-ligatures:normal;font-variant-caps:normal;font-variant-numeric:normal;font-variant-east-asian:normal"
         id="text32">A</text>
      <line
         class="cls-2"
         x1="132.29997"
         x2="142.08997"
         y1="101.61"
         y2="101.61"
         id="line34" />
      <line
         class="cls-2"
         x1="132.29997"
         x2="142.08997"
         y1="83.639999"
         y2="83.639999"
         id="line36" />
      <line
         class="cls-2"
         x1="140.31998"
         x2="140.31998"
         y1="98.129997"
         y2="87.129997"
         id="line38" />
      <polygon
         class="cls-4"
         points="141.81,97.69 140.32,100.28 138.82,97.69 "
         id="polygon40"
         transform="translate(-3.2713e-5)" />
      <polygon
         class="cls-4"
         points="141.81,87.57 140.32,84.97 138.82,87.57 "
         id="polygon42"
         transform="translate(-3.2713e-5)" />
      <text
         class="cls-5"
         x="143.85562"
         y="98.448547"
         fill="#231815"
         font-family="Aparajita"
         font-size="21.333px"
         style="font-variant-ligatures:normal;font-variant-caps:normal;font-variant-numeric:normal;font-variant-east-asian:normal"
         id="text44">B</text>
      <line
         class="cls-2"
         x1="140.48"
         x2="140.48"
         y1="76.120003"
         y2="81.170998"
         fill="none"
         stroke="#040000"
         stroke-linejoin="round"
         stroke-width="0.67762"
         id="line48" />
      <line
         class="cls-2"
         x1="132.47"
         x2="142.25999"
         y1="73.702003"
         y2="73.702003"
         fill="none"
         stroke="#040000"
         stroke-linejoin="round"
         id="line50" />
      <polygon
         class="cls-4"
         transform="matrix(1,0,0,-1,0.16944,123.94)"
         points="140.32,48.91 138.82,46.32 141.81,46.32 "
         fill="#040000"
         id="polygon52" />
      <polygon
         class="cls-4"
         transform="matrix(1,0,0,-1,0.16944,115.94)"
         points="141.81,36.19 140.32,33.6 138.82,36.19 "
         fill="#040000"
         id="polygon54" />
      <text
         transform="scale(1,-1)"
         x="144.01801"
         y="-69.515694"
         font-family="Aparajita"
         font-size="21.333px"
         style="font-style:normal;font-variant:normal;font-weight:normal;font-stretch:normal;font-size:20px;line-height:1.25;font-family:NanumSquareRoundR, NanumSquareRound;-inkscape-font-specification:'NanumSquareRoundR, NanumSquareRound, Normal';font-variant-ligatures:normal;font-variant-caps:normal;font-variant-numeric:normal;font-variant-east-asian:normal;fill:#000000"
         xml:space="preserve"
         id="text58"><tspan
           x="144.01801"
           y="-69.515694"
           id="tspan56"
           style="font-style:normal;font-variant:normal;font-weight:normal;font-stretch:normal;font-size:20px;font-family:NanumSquareRoundR, NanumSquareRound;-inkscape-font-specification:'NanumSquareRoundR, NanumSquareRound, Normal';font-variant-ligatures:normal;font-variant-caps:normal;font-variant-numeric:normal;font-variant-east-asian:normal;fill:#000000">D</tspan></text>
      <g
         stroke-dasharray="0.0455166, 0.0227583"
         stroke-width="0.022758"
         id="g72"
         style="fill:#000080">
        <path
           d="m 118.13,82.667 -0.54765,0.53453 0.26317,0.27778 0.26316,0.27778 1.1278,-1.096 -0.26462,-0.26572 c -0.14554,-0.14615 -0.27127,-0.26508 -0.2794,-0.26429 -0.008,7.89e-4 -0.26123,0.24197 -0.56243,0.53596 z"
           id="path60" />
        <path
           d="m 119.84,80.988 -0.54616,0.53404 0.53708,0.53485 0.14961,-0.14105 c 0.0823,-0.07758 0.33199,-0.32024 0.5549,-0.53924 l 0.4053,-0.39819 -0.2625,-0.26359 c -0.14437,-0.14498 -0.26915,-0.26298 -0.27728,-0.26222 -0.008,7.56e-4 -0.26056,0.24169 -0.56095,0.53541 z"
           id="path62" />
        <path
           d="m 121.54,79.292 -0.54749,0.54804 0.27055,0.26942 0.27054,0.26942 1.1089,-1.1078 -0.26245,-0.26355 c -0.14435,-0.14495 -0.26923,-0.26355 -0.27751,-0.26355 -0.008,0 -0.26143,0.24662 -0.56256,0.54804 z"
           id="path64" />
        <path
           d="m 123.24,77.592 -0.55428,0.55482 0.54051,0.54051 1.1086,-1.1096 -0.54051,-0.54051 z"
           id="path66" />
        <path
           d="m 124.93,75.899 -0.53981,0.54037 0.26942,0.27054 0.26941,0.27054 1.0958,-1.0947 -0.26245,-0.26355 c -0.14435,-0.14495 -0.26923,-0.26355 -0.27752,-0.26355 -0.008,0 -0.25798,0.24317 -0.55487,0.54037 z"
           id="path68" />
        <path
           d="m 126.65,74.201 -0.56339,0.54616 0.26992,0.26782 0.26991,0.26782 0.55662,-0.53491 c 0.30614,-0.2942 0.55662,-0.54299 0.55662,-0.55286 0,-0.0099 -0.11841,-0.13545 -0.26314,-0.27907 l -0.26315,-0.26112 z"
           id="path70" />
      </g>
      <line
         class="cls-2"
         x1="104.78"
         x2="94.994003"
         y1="83.640999"
         y2="83.640999"
         fill="none"
         stroke="#040000"
         stroke-linejoin="round"
         id="line76" />
      <line
         class="cls-2"
         x1="96.764"
         x2="96.764"
         y1="87.121002"
         y2="98.121002"
         fill="none"
         stroke="#040000"
         stroke-linejoin="round"
         id="line78" />
      <polygon
         class="cls-4"
         transform="rotate(180,118.54,66.941)"
         points="140.32,48.91 138.82,46.32 141.81,46.32 "
         fill="#040000"
         id="polygon80" />
      <polygon
         class="cls-4"
         transform="rotate(180,118.54,66.941)"
         points="140.32,33.6 138.82,36.19 141.81,36.19 "
         fill="#040000"
         id="polygon82" />
      <text
         x="81.676704"
         y="99.488838"
         font-family="Aparajita"
         font-size="21.333px"
         style="font-style:normal;font-variant:normal;font-weight:normal;font-stretch:normal;font-size:20px;line-height:1.25;font-family:NanumSquareRoundR, NanumSquareRound;-inkscape-font-specification:'NanumSquareRoundR, NanumSquareRound, Normal';font-variant-ligatures:normal;font-variant-caps:normal;font-variant-numeric:normal;font-variant-east-asian:normal"
         xml:space="preserve"
         id="text86"><tspan
           x="81.676704"
           y="99.488838"
           id="tspan84"
           style="font-style:normal;font-variant:normal;font-weight:normal;font-stretch:normal;font-size:20px;font-family:NanumSquareRoundR, NanumSquareRound;-inkscape-font-specification:'NanumSquareRoundR, NanumSquareRound, Normal';font-variant-ligatures:normal;font-variant-caps:normal;font-variant-numeric:normal;font-variant-east-asian:normal">C</tspan></text>
    </g>
  </g>
  <metadata
     id="metadata88">
    <rdf:RDF>
      <cc:Work
         rdf:about="">
        <dc:title>EA122</dc:title>
      </cc:Work>
    </rdf:RDF>
  </metadata>
</svg>
