<svg xmlns="http://www.w3.org/2000/svg" viewBox="0 0 156.72 137.34"><defs><style>.cls-1{fill:#f7f8f8;stroke-width:0.76px;}.cls-1,.cls-2,.cls-3{stroke:#040000;stroke-linejoin:round;}.cls-2,.cls-3{fill:none;}.cls-3{stroke-dasharray:1.77 1.77;}.cls-4{fill:#040000;}.cls-5{font-size:20px;fill:#231815;font-family:NanumSquareRoundR, NanumSquareRound;}</style></defs><title>자산 215</title><g id="레이어_2" data-name="레이어 2"><g id="레이어_1-2" data-name="레이어 1"><path class="cls-1" d="M127.3,83.64l-18,18H9.2S-8.25,84.8,6,55.53a44.8,44.8,0,0,0,4.27-15.29A61.32,61.32,0,0,0,.38.38H127.3Z"/><line class="cls-1" x1="127.3" y1="51" x2="7.83" y2="51"/><line class="cls-2" x1="109.33" y1="101.61" x2="110.33" y2="101.61"/><line class="cls-3" x1="112.11" y1="101.61" x2="125.42" y2="101.61"/><polyline class="cls-2" points="126.3 101.61 127.3 101.61 127.3 100.61"/><line class="cls-3" x1="127.3" y1="98.84" x2="127.3" y2="85.53"/><line class="cls-2" x1="127.3" y1="84.64" x2="127.3" y2="83.64"/><line class="cls-2" x1="127.3" y1="106.61" x2="127.3" y2="116.4"/><line class="cls-2" x1="109.33" y1="106.61" x2="109.33" y2="116.4"/><line class="cls-2" x1="123.82" y1="114.63" x2="112.82" y2="114.63"/><polygon class="cls-4" points="123.38 113.13 125.97 114.63 123.38 116.13 123.38 113.13"/><polygon class="cls-4" points="113.25 113.13 110.66 114.63 113.25 116.13 113.25 113.13"/><text class="cls-5" transform="translate(111.72 132.24)">A</text><line class="cls-2" x1="132.3" y1="101.61" x2="142.09" y2="101.61"/><line class="cls-2" x1="132.3" y1="83.64" x2="142.09" y2="83.64"/><line class="cls-2" x1="140.32" y1="98.13" x2="140.32" y2="87.13"/><polygon class="cls-4" points="141.81 97.69 140.32 100.28 138.82 97.69 141.81 97.69"/><polygon class="cls-4" points="141.81 87.57 140.32 84.97 138.82 87.57 141.81 87.57"/><text class="cls-5" transform="translate(143.92 99.61)">B</text></g></g></svg>