<svg xmlns="http://www.w3.org/2000/svg" viewBox="0 0 112.84 131.96"><defs><style>.cls-1{fill:#f7f8f8;stroke-width:0.76px;}.cls-1,.cls-3{stroke:#040000;}.cls-1,.cls-2,.cls-3,.cls-6{stroke-linejoin:round;}.cls-2,.cls-3,.cls-6{fill:none;}.cls-2{stroke:#036eb8;stroke-width:0.76px;}.cls-4{fill:#040000;}.cls-5{font-size:20px;fill:#231815;font-family:NanumSquareRoundR, NanumSquareRound;}.cls-6{stroke:#231815;stroke-width:0.1px;stroke-dasharray:1;}.cls-7{fill:#e60012;}</style></defs><title>자산 196</title><g id="레이어_2" data-name="레이어 2"><g id="레이어_1-2" data-name="레이어 1"><path class="cls-1" d="M33.6,101.61H9.2S-8.25,84.8,6,55.53a44.8,44.8,0,0,0,4.27-15.29A61.32,61.32,0,0,0,.38.38H102.23C107.17,4.87,117.7,30,109.33,51c-6.56,14.1-13,32.58,2,50.61H33.6Z"/><line class="cls-1" x1="109.33" y1="51" x2="7.83" y2="51"/><line class="cls-2" x1="37.28" y1="66.17" x2="62.45" y2="91.34"/><line class="cls-3" x1="32.81" y1="65.8" x2="18.02" y2="65.8"/><line class="cls-3" x1="32.81" y1="91.71" x2="18.01" y2="91.71"/><line class="cls-3" x1="19.78" y1="88.23" x2="19.78" y2="69.23"/><polygon class="cls-4" points="21.28 87.79 19.78 90.38 18.29 87.79 21.28 87.79"/><polygon class="cls-4" points="21.28 69.67 19.78 67.08 18.29 69.67 21.28 69.67"/><text class="cls-5" transform="translate(2.34 86.23)">C</text><polyline class="cls-6" points="37.38 66.41 37.38 91.34 62.75 91.34"/><circle class="cls-7" cx="37.57" cy="66.47" r="1.63"/><line class="cls-3" x1="62.24" y1="111.09" x2="62.24" y2="95.3"/><line class="cls-3" x1="37.27" y1="111.09" x2="37.27" y2="95.3"/><line class="cls-3" x1="58.76" y1="108.08" x2="40.09" y2="108.08"/><polygon class="cls-4" points="58.32 106.58 60.91 108.08 58.32 109.57 58.32 106.58"/><polygon class="cls-4" points="40.53 106.58 37.94 108.08 40.53 109.57 40.53 106.58"/><line class="cls-3" x1="86.76" y1="97.89" x2="86.76" y2="94.83"/><polygon class="cls-4" points="88.26 97.45 86.76 100.04 85.27 97.45 88.26 97.45"/><polygon class="cls-4" points="88.26 95.26 86.76 92.67 85.27 95.26 88.26 95.26"/><text class="cls-5" transform="translate(90.91 103.2)">B</text><text class="cls-5" transform="translate(42.82 126.86)">A</text><line class="cls-3" x1="66.75" y1="91.34" x2="88.54" y2="91.34"/></g></g></svg>