<svg xmlns="http://www.w3.org/2000/svg" viewBox="0 0 112.84 104.58"><defs><style>.cls-1{fill:#f7f8f8;stroke-width:0.76px;}.cls-1,.cls-2,.cls-5{stroke:#040000;}.cls-1,.cls-2,.cls-5,.cls-6{stroke-linejoin:round;}.cls-2,.cls-5,.cls-6{fill:none;}.cls-3{fill:#040000;}.cls-4{font-size:20px;fill:#231815;font-family:NanumSquareRoundR, NanumSquareRound;}.cls-5{stroke-width:0.1px;stroke-dasharray:1;}.cls-6{stroke:#036eb8;stroke-width:0.76px;}.cls-7{fill:#e60012;}</style></defs><title>자산 194</title><g id="레이어_2" data-name="레이어 2"><g id="레이어_1-2" data-name="레이어 1"><path class="cls-1" d="M33.6,101.61H9.2S-8.25,84.8,6,55.53a44.8,44.8,0,0,0,4.27-15.29A61.32,61.32,0,0,0,.38.38H102.23C107.17,4.87,117.7,30,109.33,51c-6.56,14.1-13,32.58,2,50.61H33.6Z"/><line class="cls-1" x1="109.33" y1="51" x2="7.83" y2="51"/><line class="cls-2" x1="67.03" y1="56.87" x2="67.03" y2="39.08"/><line class="cls-2" x1="42.06" y1="56.87" x2="42.06" y2="39.08"/><line class="cls-2" x1="63.55" y1="40.85" x2="45.54" y2="40.85"/><polygon class="cls-3" points="63.11 39.35 65.7 40.85 63.11 42.35 63.11 39.35"/><polygon class="cls-3" points="45.98 39.35 43.39 40.85 45.98 42.35 45.98 39.35"/><text class="cls-4" transform="translate(48.45 37.6)">A</text><line class="cls-2" x1="37.81" y1="60.51" x2="23.02" y2="60.51"/><line class="cls-2" x1="37.81" y1="86.43" x2="23.01" y2="86.43"/><line class="cls-2" x1="24.78" y1="82.94" x2="24.78" y2="63.94"/><polygon class="cls-3" points="26.28 82.51 24.78 85.1 23.29 82.51 26.28 82.51"/><polygon class="cls-3" points="26.28 64.38 24.78 61.79 23.29 64.38 26.28 64.38"/><text class="cls-4" transform="translate(7.89 80.94)">C</text><line class="cls-5" x1="66.93" y1="60.88" x2="41.97" y2="60.88"/><line class="cls-5" x1="41.97" y1="86.05" x2="41.97" y2="60.88"/><line class="cls-6" x1="41.86" y1="86.06" x2="67.03" y2="60.89"/><circle class="cls-7" cx="41.94" cy="86.08" r="1.63"/><line class="cls-2" x1="67.27" y1="97.98" x2="67.27" y2="89.91"/><polygon class="cls-3" points="68.77 97.54 67.28 100.13 65.78 97.54 68.77 97.54"/><polygon class="cls-3" points="68.77 90.35 67.28 87.76 65.78 90.35 68.77 90.35"/><text class="cls-4" transform="translate(70.46 99.48)">B</text><line class="cls-2" x1="47.26" y1="86.43" x2="69.05" y2="86.43"/></g></g></svg>