<svg xmlns="http://www.w3.org/2000/svg" viewBox="0 0 112.84 103.26"><defs><style>.cls-1{fill:#f7f8f8;stroke-width:0.76px;}.cls-1,.cls-3{stroke:#040000;}.cls-1,.cls-2,.cls-3{stroke-linejoin:round;}.cls-2,.cls-3{fill:none;}.cls-2{stroke:#036eb8;stroke-width:0.76px;}.cls-4{fill:#040000;}.cls-5{font-size:20px;fill:#231815;font-family:NanumSquareRoundR, NanumSquareRound;}</style></defs><title>자산 200</title><g id="레이어_2" data-name="레이어 2"><g id="레이어_1-2" data-name="레이어 1"><path class="cls-1" d="M33.6,101.61H9.2S-8.25,84.8,6,55.53a44.8,44.8,0,0,0,4.27-15.29A61.32,61.32,0,0,0,.38.38H102.23C107.17,4.87,117.7,30,109.33,51c-6.56,14.1-13,32.58,2,50.61H33.6Z"/><line class="cls-1" x1="109.33" y1="51" x2="7.83" y2="51"/><line class="cls-2" x1="32.06" y1="83.13" x2="67.66" y2="83.13"/><line class="cls-3" x1="32.4" y1="62.28" x2="32.4" y2="78.07"/><line class="cls-3" x1="67.37" y1="62.28" x2="67.37" y2="78.07"/><line class="cls-3" x1="35.88" y1="65.29" x2="64.55" y2="65.29"/><polygon class="cls-4" points="36.32 66.79 33.73 65.29 36.32 63.8 36.32 66.79"/><polygon class="cls-4" points="64.11 66.79 66.7 65.29 64.11 63.8 64.11 66.79"/><text class="cls-5" transform="translate(43.26 61.8)">A</text><line class="cls-3" x1="28.52" y1="83.09" x2="18.73" y2="83.09"/><line class="cls-3" x1="20.5" y1="86.57" x2="20.5" y2="97.9"/><polygon class="cls-4" points="19.01 87.01 20.5 84.42 22 87.01 19.01 87.01"/><polygon class="cls-4" points="19.01 97.46 20.5 100.05 22 97.46 19.01 97.46"/><text class="cls-5" transform="translate(4.26 98.16)">B</text></g></g></svg>