<svg xmlns="http://www.w3.org/2000/svg" viewBox="0 0 112.84 105.71"><defs><style>.cls-1{fill:#f7f8f8;stroke-width:0.76px;}.cls-1,.cls-3{stroke:#040000;}.cls-1,.cls-2,.cls-3{stroke-linejoin:round;}.cls-2,.cls-3{fill:none;}.cls-2{stroke:#036eb8;stroke-width:0.76px;}.cls-4{fill:#040000;}.cls-5{font-size:20px;fill:#231815;font-family:NanumSquareRoundR, NanumSquareRound;}</style></defs><title>자산 198</title><g id="레이어_2" data-name="레이어 2"><g id="레이어_1-2" data-name="레이어 1"><path class="cls-1" d="M30.6,101.61H9.2S-8.25,84.8,6,55.53a44.8,44.8,0,0,0,4.27-15.29A61.32,61.32,0,0,0,.38.38H102.23C107.17,4.87,117.7,30,109.33,51c-6.56,14.1-13,32.58,2,50.61H30.6Z"/><line class="cls-1" x1="109.33" y1="51" x2="7.83" y2="51"/><line class="cls-2" x1="49.86" y1="62.95" x2="49.86" y2="86.62"/><line class="cls-3" x1="45.55" y1="86.65" x2="32.76" y2="86.65"/><line class="cls-3" x1="34.53" y1="90.13" x2="34.53" y2="98.46"/><polygon class="cls-4" points="33.04 90.57 34.53 87.98 36.03 90.57 33.04 90.57"/><polygon class="cls-4" points="33.04 98.02 34.53 100.61 36.03 98.02 33.04 98.02"/><text class="cls-5" transform="translate(17.22 100.61)">B</text><line class="cls-3" x1="70.05" y1="63.13" x2="54.26" y2="63.13"/><line class="cls-3" x1="70.05" y1="86.44" x2="54.26" y2="86.44"/><line class="cls-3" x1="67.04" y1="66.62" x2="67.04" y2="83.62"/><polygon class="cls-4" points="65.54 67.05 67.04 64.46 68.53 67.05 65.54 67.05"/><polygon class="cls-4" points="65.54 83.18 67.04 85.77 68.53 83.18 65.54 83.18"/><text class="cls-5" transform="translate(71.44 81.15)">A</text></g></g></svg>