<svg xmlns="http://www.w3.org/2000/svg" viewBox="0 0 121.21 127.86"><defs><style>.cls-1,.cls-3,.cls-4,.cls-5,.cls-6,.cls-7{fill:none;}.cls-1,.cls-2{stroke:#231815;}.cls-1,.cls-2,.cls-3,.cls-4,.cls-5,.cls-6{stroke-miterlimit:10;}.cls-1{stroke-dasharray:1;}.cls-2{fill:#fff;}.cls-3,.cls-4,.cls-5,.cls-7{stroke:#040000;}.cls-4{stroke-dasharray:2.03 2.03;}.cls-5{stroke-dasharray:2 2;}.cls-6{stroke:#00a0e9;}.cls-7{stroke-linejoin:round;}.cls-8{fill:#040000;}.cls-9{font-size:20px;fill:#231815;font-family:NanumSquareRoundR, NanumSquareRound;}</style></defs><title>자산 59</title><g id="레이어_2" data-name="레이어 2"><g id="레이어_1-2" data-name="레이어 1"><polygon class="cls-1" points="16.51 26.18 0.5 40.12 0.5 26.18 16.51 26.18"/><path class="cls-2" d="M.5,40.12,16.3,26.18h94.87s12.59,20.89,8.14,33.33c0,0-9.18,24.3-9.77,35.56,0,0,.71,17.48,10.72,32.29H.5Z"/><line class="cls-3" x1="0.5" y1="43.18" x2="1.5" y2="43.18"/><line class="cls-4" x1="3.53" y1="43.18" x2="116.41" y2="43.18"/><line class="cls-3" x1="117.43" y1="43.18" x2="118.43" y2="43.18"/><line class="cls-3" x1="0.5" y1="60.18" x2="119.07" y2="60.18"/><line class="cls-3" x1="0.5" y1="93.36" x2="109.54" y2="93.36"/><line class="cls-3" x1="0.5" y1="110.36" x2="1.5" y2="110.36"/><line class="cls-5" x1="3.5" y1="110.36" x2="110.36" y2="110.36"/><line class="cls-3" x1="111.36" y1="110.36" x2="112.36" y2="110.36"/><path class="cls-6" d="M111.17,26.18s12.59,20.89,8.14,33.33c0,0-9.18,24.3-9.77,35.56a68.78,68.78,0,0,0,10.72,32.29"/><line class="cls-7" x1="3.99" y1="19.26" x2="13.03" y2="19.26"/><polygon class="cls-8" points="4.42 20.75 1.83 19.25 4.42 17.76 4.42 20.75"/><polygon class="cls-8" points="12.59 20.75 15.18 19.25 12.59 17.76 12.59 20.75"/><line class="cls-7" x1="0.5" y1="23.27" x2="0.5" y2="17.48"/><line class="cls-7" x1="16.51" y1="23.27" x2="16.51" y2="17.48"/><text class="cls-9" transform="translate(1.91 16)">A</text><line class="cls-7" x1="23.82" y1="40.23" x2="4.03" y2="40.23"/><line class="cls-7" x1="21.66" y1="36.51" x2="21.66" y2="29.51"/><polygon class="cls-8" points="23.16 36.08 21.66 38.67 20.16 36.08 23.16 36.08"/><polygon class="cls-8" points="23.16 29.95 21.66 27.36 20.16 29.95 23.16 29.95"/><text class="cls-9" transform="translate(24.52 41.7)">B</text></g></g></svg>