<?xml version="1.0" encoding="UTF-8"?>
<svg width="142.54" height="125.18" version="1.1" viewBox="0 0 142.54 125.18" xmlns="http://www.w3.org/2000/svg" xmlns:cc="http://creativecommons.org/ns#" xmlns:dc="http://purl.org/dc/elements/1.1/" xmlns:rdf="http://www.w3.org/1999/02/22-rdf-syntax-ns#">
 <defs>
  <style>.cls-1{fill:#fff;}.cls-1,.cls-6{stroke:#231815;}.cls-1,.cls-2,.cls-3,.cls-4,.cls-5,.cls-6{stroke-miterlimit:10;}.cls-2,.cls-3,.cls-4,.cls-5,.cls-6,.cls-7{fill:none;}.cls-2,.cls-3,.cls-4,.cls-7{stroke:#040000;}.cls-3{stroke-dasharray:2.03 2.03;}.cls-4{stroke-dasharray:2 2;}.cls-5{stroke:#00a0e9;}.cls-6{stroke-dasharray:1;}.cls-7{stroke-linejoin:round;}.cls-8{fill:#040000;}.cls-9{font-size:20px;fill:#231815;font-family:NanumSquareRoundR, NanumSquareRound;}</style>
 </defs>
 <title>HB002</title>
 <g transform="translate(21.339 -2.68)" data-name="레이어 1">
  <path class="cls-1" d="m0.5 34.326 27.4-1e-6 0.1698-8.1456h83.1s12.59 20.89 8.14 33.33c0 0-9.18 24.3-9.77 35.56 0 0 0.71 17.48 10.72 32.29h-119.76z"/>
  <line class="cls-3" x1=".94054" x2="118.62" y1="43.18" y2="43.18" stroke-width="1.021"/>
  <line class="cls-2" x1=".5" x2="119.07" y1="60.18" y2="60.18"/>
  <line class="cls-2" x1=".5" x2="109.54" y1="93.36" y2="93.36"/>
  <line class="cls-2" x1=".5" x2="1.5" y1="110.36" y2="110.36"/>
  <line class="cls-4" x1="3.5" x2="110.36" y1="110.36" y2="110.36"/>
  <line class="cls-2" x1="111.36" x2="112.36" y1="110.36" y2="110.36"/>
  <path class="cls-5" d="m111.17 26.18s12.59 20.89 8.14 33.33c0 0-9.18 24.3-9.77 35.56a68.78 68.78 0 0 0 10.72 32.29"/>
  <rect class="cls-6" x=".39952" y="26.08" width="27.5" height="8.2" stroke-width=".79905"/>
  <line class="cls-7" x1="3.99" x2="24.59" y1="19.26" y2="19.26"/>
  <polygon class="cls-8" points="4.42 20.75 1.83 19.25 4.42 17.76"/>
  <polygon class="cls-8" points="24.15 20.75 26.74 19.25 24.15 17.76"/>
  <line class="cls-7" x1=".5" x2=".5" y1="23.27" y2="17.48"/>
  <line class="cls-7" x1="28.07" x2="28.07" y1="23.27" y2="17.48"/>
  <text class="cls-9" transform="translate(7.69,16)">A</text>
  <line class="cls-7" x1="37.77" x2="31.48" y1="34.486" y2="34.486"/>
  <line class="cls-7" x1="35.61" x2="35.61" y1="31.582" y2="29.14" stroke-width=".62657"/>
  <polygon class="cls-8" transform="translate(0,-4)" points="34.11 34.92 37.1 34.92 35.61 37.51"/>
  <polygon class="cls-8" points="37.1 29.58 35.61 26.99 34.11 29.58"/>
  <text class="cls-9" transform="translate(38.4,41.7)" fill="#231815" font-family="NanumSquareRoundR, NanumSquareRound" font-size="20px" style="font-variant-caps:normal;font-variant-east-asian:normal;font-variant-ligatures:normal;font-variant-numeric:normal"><tspan x="0" y="0">C</tspan></text>
  <g fill="none" stroke="#040000" stroke-linejoin="round">
   <line class="cls-7" x1="-9.4194" x2="-3.1294" y1="34.329" y2="34.329"/>
   <line class="cls-7" x1="-9.4373" x2="-3.1473" y1="25.998" y2="25.998"/>
   <line class="cls-7" x1="-7.2594" x2="-7.2594" y1="31.425" y2="28.983" stroke-width=".62657"/>
  </g>
  <polygon class="cls-8" transform="matrix(-1,0,0,1,28.351,-4.1567)" points="34.11 34.92 37.1 34.92 35.61 37.51" fill="#040000"/>
  <polygon class="cls-8" transform="matrix(-1 0 0 1 28.351 -.15667)" points="37.1 29.58 35.61 26.99 34.11 29.58" fill="#040000"/>
  <line class="cls-7" x1="-9.3852" x2="-3.0952" y1="39.175" y2="39.175" fill="none" stroke="#040000" stroke-linejoin="round"/>
  <line class="cls-7" x1="-7.2438" x2="-7.2438" y1="37.869" y2="35.416" fill="none" stroke="#040000" stroke-linejoin="round" stroke-width=".39969"/>
  <polygon class="cls-8" transform="matrix(-1 0 0 .51581 28.385 20.957)" points="35.61 26.99 34.11 29.58 37.1 29.58" fill="#040000"/>
  <polygon class="cls-8" transform="matrix(-1 0 0 -.51581 28.386 52.511)" points="35.61 26.99 34.11 29.58 37.1 29.58" fill="#040000"/>
  <text class="cls-9" x="-23.233271" y="33.543327" fill="#231815" font-family="NanumSquareRoundR, NanumSquareRound" font-size="20px" style="font-variant-caps:normal;font-variant-east-asian:normal;font-variant-ligatures:normal;font-variant-numeric:normal"><tspan x="-23.233271" y="33.543327">B</tspan></text>
  <text class="cls-9" x="-23.259098" y="48.148361" fill="#231815" font-family="NanumSquareRoundR, NanumSquareRound" font-size="20px" style="font-variant-caps:normal;font-variant-east-asian:normal;font-variant-ligatures:normal;font-variant-numeric:normal"><tspan x="-23.259098" y="48.148361">D</tspan></text>
  <g fill="#000080" stroke="#000" stroke-miterlimit="1">
   <path d="m0.5094 39.245c4.6695-4.8393 4.6695-4.9242 4.6695-4.9242" stroke-dasharray="1, 1"/>
   <g stroke-dasharray="0.0212251, 0.0212251" stroke-width=".021225">
    <path d="m1.9018 37.794-0.34809-0.33681 0.67406-0.70187 0.33878 0.32324c0.18633 0.17778 0.34181 0.33234 0.34551 0.34345s-0.14377 0.17514-0.32772 0.3645l-0.33445 0.34429z"/>
    <path d="m3.2825 36.344c-0.33688-0.31855-0.34002-0.32236-0.30372-0.36851 0.020172-0.025645 0.17006-0.18616 0.33308-0.35671l0.2964-0.31008 0.70367 0.67213-0.32726 0.34252c-0.18 0.18839-0.33503 0.34252-0.34452 0.34252s-0.17043-0.14485-0.35765-0.32188z"/>
    <path d="m4.6713 34.909c-0.18582-0.17155-0.34202-0.32444-0.34712-0.33976-0.00509-0.01532 0.051568-0.09173 0.12592-0.1698 0.074348-0.07807 0.18046-0.19319 0.2358-0.25581l0.10063-0.11386 0.076599 0.0608c0.042129 0.03344 0.12888 0.10139 0.19277 0.151l0.11617 0.09021h0.50461l-0.013146 0.06898c-0.024696 0.12959-0.09167 0.22592-0.36074 0.51884-0.14804 0.16116-0.27467 0.29488-0.2814 0.29716-0.00673 0.0023-0.16428-0.13621-0.35009-0.30776z"/>
    <path d="m0.52359 39.245c-0.18875-0.18326-0.34318-0.34055-0.34318-0.34954 0-9e-3 0.1489-0.17022 0.33089-0.3583l0.33089-0.34196 0.34814 0.3341c0.19148 0.18375 0.34583 0.33988 0.34301 0.34695-0.00282 0.0071-0.15396 0.1679-0.33585 0.3574l-0.33072 0.34454z"/>
   </g>
  </g>
 </g>
 <metadata>
  <rdf:RDF>
   <cc:Work rdf:about="">
    <dc:title>HB002</dc:title>
   </cc:Work>
  </rdf:RDF>
 </metadata>
</svg>
