<svg xmlns="http://www.w3.org/2000/svg" viewBox="0 0 121.71 102.19"><defs><style>.cls-1{fill:#f8f9f9;stroke:#231815;}.cls-1,.cls-2,.cls-3,.cls-4,.cls-5,.cls-6{stroke-miterlimit:10;}.cls-2,.cls-3,.cls-4,.cls-5,.cls-6,.cls-7{fill:none;}.cls-2,.cls-3,.cls-4,.cls-7{stroke:#040000;}.cls-3{stroke-dasharray:2 2;}.cls-4{stroke-dasharray:2.01 2.01;}.cls-5{stroke:#00a0e9;}.cls-6{stroke:#0768ac;stroke-dasharray:1;}.cls-7{stroke-linejoin:round;}.cls-8{fill:#040000;}.cls-9{font-size:20px;fill:#231815;font-family:NanumSquareRoundR, NanumSquareRound;}.cls-10{fill:#e71f19;}</style></defs><title>자산 28</title><g id="레이어_2" data-name="레이어 2"><g id="레이어_1-2" data-name="레이어 1"><path class="cls-1" d="M11.74,101.69h109c-10-14.82-10.73-32.3-10.73-32.3.6-11.26,9.78-35.56,9.78-35.56C124.27,21.39,111.67.5,111.67.5H1s15.84,20.85,10.59,35c0,0-11.47,27.83-9.17,39.52C2.43,75,3.3,86.63,11.74,101.69Z"/><line class="cls-2" x1="11.3" y1="18.07" x2="12.3" y2="18.07"/><line class="cls-3" x1="14.3" y1="18.07" x2="117.24" y2="18.07"/><line class="cls-2" x1="118.24" y1="18.07" x2="119.24" y2="18.07"/><line class="cls-2" x1="11.3" y1="35.07" x2="119.21" y2="35.07"/><line class="cls-2" x1="2.25" y1="68.28" x2="110.38" y2="68.28"/><line class="cls-2" x1="4.47" y1="85.27" x2="5.47" y2="85.27"/><line class="cls-4" x1="7.48" y1="85.27" x2="111.19" y2="85.27"/><line class="cls-2" x1="112.19" y1="85.27" x2="113.19" y2="85.27"/><path class="cls-5" d="M12.17,101.69A63,63,0,0,1,2,70c.6-11.26,9.78-35.55,9.78-35.55C16.27,22,1.34.5,1.34.5"/><path class="cls-5" d="M111.82.75s12.61,20.75,7.89,33.68c0,0-9,23.06-9.63,35.56a68.25,68.25,0,0,0,10.77,31.86"/><rect class="cls-6" x="47.55" y="22.84" width="23.56" height="5.46" rx="2.73"/><line class="cls-7" x1="38.14" y1="25.47" x2="44.67" y2="25.47"/><line class="cls-7" x1="40.14" y1="28.66" x2="40.14" y2="32.05"/><polygon class="cls-8" points="38.65 29.09 40.14 26.5 41.64 29.09 38.65 29.09"/><polygon class="cls-8" points="38.65 31.62 40.14 34.21 41.64 31.62 38.65 31.62"/><text class="cls-9" transform="translate(24.35 33.81)">B</text><circle class="cls-10" cx="59.33" cy="25.57" r="0.8"/><polyline class="cls-2" points="76.59 25.61 79.6 25.57 84.24 25.57"/><polygon class="cls-8" points="77.2 27.6 73.72 25.66 77.14 23.61 77.2 27.6"/><text class="cls-9" transform="translate(84.15 33.62)">A</text><line class="cls-7" x1="65.05" y1="38.53" x2="53.54" y2="38.53"/><polygon class="cls-8" points="64.61 37.03 67.2 38.53 64.61 40.02 64.61 37.03"/><polygon class="cls-8" points="53.97 37.03 51.38 38.53 53.97 40.02 53.97 37.03"/><line class="cls-7" x1="68.53" y1="30.86" x2="68.53" y2="40.3"/><line class="cls-7" x1="50.05" y1="30.86" x2="50.05" y2="40.3"/><text class="cls-9" transform="translate(52.84 57.06)">C</text></g></g></svg>