<svg xmlns="http://www.w3.org/2000/svg" viewBox="0 0 121.71 102.19"><defs><style>.cls-1{fill:#fff;}.cls-1,.cls-6{stroke:#231815;}.cls-1,.cls-2,.cls-3,.cls-4,.cls-5,.cls-6{stroke-miterlimit:10;}.cls-2,.cls-3,.cls-4,.cls-5,.cls-6,.cls-7{fill:none;}.cls-2,.cls-3,.cls-4,.cls-7{stroke:#040000;}.cls-3{stroke-dasharray:2 2;}.cls-4{stroke-dasharray:2.01 2.01;}.cls-5{stroke:#00a0e9;}.cls-7{stroke-linejoin:round;}.cls-8{fill:#040000;}.cls-9{font-size:20px;fill:#231815;font-family:NanumSquareRoundR, NanumSquareRound;}</style></defs><title>자산 43</title><g id="레이어_2" data-name="레이어 2"><g id="레이어_1-2" data-name="레이어 1"><path class="cls-1" d="M11.74,101.69h109c-10-14.82-10.73-32.3-10.73-32.3.6-11.26,9.78-35.56,9.78-35.56C124.27,21.39,111.67.5,111.67.5H1s15.84,20.85,10.59,35c0,0-11.47,27.83-9.17,39.52C2.43,75,3.3,86.63,11.74,101.69Z"/><line class="cls-2" x1="11.3" y1="18.07" x2="12.3" y2="18.07"/><line class="cls-3" x1="14.3" y1="18.07" x2="117.24" y2="18.07"/><line class="cls-2" x1="118.24" y1="18.07" x2="119.24" y2="18.07"/><line class="cls-2" x1="11.3" y1="35.07" x2="119.21" y2="35.07"/><line class="cls-2" x1="2.25" y1="68.28" x2="110.38" y2="68.28"/><line class="cls-2" x1="4.47" y1="85.27" x2="5.47" y2="85.27"/><line class="cls-4" x1="7.48" y1="85.27" x2="111.19" y2="85.27"/><line class="cls-2" x1="112.19" y1="85.27" x2="113.19" y2="85.27"/><path class="cls-5" d="M12.17,101.69A63,63,0,0,1,2,70c.6-11.26,9.78-35.55,9.78-35.55C16.27,22,1.34.5,1.34.5"/><path class="cls-5" d="M111.82.75s12.61,20.75,7.89,33.68c0,0-9,23.06-9.63,35.56a68.25,68.25,0,0,0,10.77,31.86"/><polyline class="cls-6" points="34.92 35.07 34.92 25.76 80.99 25.76 80.99 35.07"/><line class="cls-7" x1="77.51" y1="43.28" x2="38.4" y2="43.28"/><polygon class="cls-8" points="77.07 41.79 79.66 43.28 77.07 44.78 77.07 41.79"/><polygon class="cls-8" points="38.84 41.79 36.25 43.28 38.84 44.78 38.84 41.79"/><line class="cls-7" x1="80.99" y1="37.27" x2="80.99" y2="45.06"/><line class="cls-7" x1="34.92" y1="37.27" x2="34.92" y2="45.06"/><text class="cls-9" transform="translate(51.35 61.51)">A</text><line class="cls-7" x1="26.06" y1="25.76" x2="32.85" y2="25.76"/><line class="cls-7" x1="28.16" y1="31.74" x2="28.16" y2="29.07"/><polygon class="cls-8" points="29.65 31.3 28.16 33.89 26.66 31.3 29.65 31.3"/><polygon class="cls-8" points="29.65 29.5 28.16 26.91 26.66 29.5 29.65 29.5"/><text class="cls-9" transform="translate(13.41 33.89)">B</text></g></g></svg>