<svg xmlns="http://www.w3.org/2000/svg" viewBox="0 0 121.71 102.19"><defs><style>.cls-1{fill:#f8f9f9;stroke:#231815;}.cls-1,.cls-2,.cls-3,.cls-4,.cls-5,.cls-9{stroke-miterlimit:10;}.cls-2,.cls-3,.cls-4,.cls-5,.cls-6,.cls-9{fill:none;}.cls-2,.cls-3,.cls-4,.cls-6{stroke:#040000;}.cls-3{stroke-dasharray:2 2;}.cls-4{stroke-dasharray:2.01 2.01;}.cls-5{stroke:#00a0e9;}.cls-6{stroke-linejoin:round;}.cls-7{fill:#040000;}.cls-8{font-size:20px;fill:#231815;font-family:NanumSquareRoundR, NanumSquareRound;}.cls-9{stroke:#0768ac;stroke-dasharray:1;}.cls-10{fill:#e71f19;}</style></defs><title>자산 23</title><g id="레이어_2" data-name="레이어 2"><g id="레이어_1-2" data-name="레이어 1"><path class="cls-1" d="M11.74,101.69h109c-10-14.82-10.73-32.3-10.73-32.3.6-11.26,9.78-35.56,9.78-35.56C124.27,21.39,111.67.5,111.67.5H1s15.84,20.85,10.59,35c0,0-11.47,27.83-9.17,39.52C2.43,75,3.3,86.63,11.74,101.69Z"/><line class="cls-2" x1="11.3" y1="18.07" x2="12.3" y2="18.07"/><line class="cls-3" x1="14.3" y1="18.07" x2="117.24" y2="18.07"/><line class="cls-2" x1="118.24" y1="18.07" x2="119.24" y2="18.07"/><line class="cls-2" x1="11.3" y1="35.07" x2="119.21" y2="35.07"/><line class="cls-2" x1="2.25" y1="68.28" x2="110.38" y2="68.28"/><line class="cls-2" x1="4.47" y1="85.27" x2="5.47" y2="85.27"/><line class="cls-4" x1="7.48" y1="85.27" x2="111.19" y2="85.27"/><line class="cls-2" x1="112.19" y1="85.27" x2="113.19" y2="85.27"/><path class="cls-5" d="M12.17,101.69A63,63,0,0,1,2,70c.6-11.26,9.78-35.55,9.78-35.55C16.27,22,1.34.5,1.34.5"/><path class="cls-5" d="M111.82.75s12.61,20.75,7.89,33.68c0,0-9,23.06-9.63,35.56a68.25,68.25,0,0,0,10.77,31.86"/><line class="cls-6" x1="67.72" y1="22.68" x2="73.51" y2="22.68"/><line class="cls-6" x1="67.72" y1="30.39" x2="73.51" y2="30.39"/><line class="cls-6" x1="71.73" y1="25.69" x2="71.73" y2="27.26"/><polygon class="cls-7" points="70.24 26.13 71.73 23.54 73.23 26.13 70.24 26.13"/><polygon class="cls-7" points="70.24 26.82 71.73 29.41 73.23 26.82 70.24 26.82"/><text class="cls-8" transform="translate(74.35 33.82)">C</text><line class="cls-6" x1="51.38" y1="27.03" x2="57.91" y2="27.03"/><line class="cls-6" x1="53.38" y1="30.14" x2="53.38" y2="32.09"/><polygon class="cls-7" points="51.88 30.57 53.38 27.98 54.88 30.57 51.88 30.57"/><polygon class="cls-7" points="51.88 31.65 53.38 34.24 54.88 31.65 51.88 31.65"/><text class="cls-8" transform="translate(37.39 33.81)">B</text><rect class="cls-9" x="57.83" y="24.04" width="11.1" height="5.99" rx="3" transform="translate(90.42 -36.35) rotate(90)"/><circle class="cls-10" cx="63.38" cy="27.03" r="0.8"/><polyline class="cls-2" points="64.91 36.25 67.52 40.4 73.54 40.4"/><polygon class="cls-7" points="63.53 37.8 63.38 33.81 66.91 35.68 63.53 37.8"/><text class="cls-8" transform="translate(72.31 51.09)">A</text></g></g></svg>