<svg xmlns="http://www.w3.org/2000/svg" viewBox="0 0 121.71 102.19"><defs><style>.cls-1{fill:#f8f9f9;stroke:#231815;}.cls-1,.cls-2,.cls-3,.cls-4,.cls-5,.cls-9{stroke-miterlimit:10;}.cls-2,.cls-3,.cls-4,.cls-5,.cls-6,.cls-9{fill:none;}.cls-2,.cls-3,.cls-4,.cls-6{stroke:#040000;}.cls-3{stroke-dasharray:2 2;}.cls-4{stroke-dasharray:2.01 2.01;}.cls-5{stroke:#00a0e9;}.cls-6{stroke-linejoin:round;}.cls-7{fill:#040000;}.cls-8{font-size:20px;fill:#231815;font-family:NanumSquareRoundR, NanumSquareRound;}.cls-9{stroke:#0768ac;stroke-dasharray:1;}.cls-10{fill:#e71f19;}</style></defs><title>자산 24</title><g id="레이어_2" data-name="레이어 2"><g id="레이어_1-2" data-name="레이어 1"><path class="cls-1" d="M11.74,101.69h109c-10-14.82-10.73-32.3-10.73-32.3.6-11.26,9.78-35.56,9.78-35.56C124.27,21.39,111.67.5,111.67.5H1s15.84,20.85,10.59,35c0,0-11.47,27.83-9.17,39.52C2.43,75,3.3,86.63,11.74,101.69Z"/><line class="cls-2" x1="11.3" y1="18.07" x2="12.3" y2="18.07"/><line class="cls-3" x1="14.3" y1="18.07" x2="117.24" y2="18.07"/><line class="cls-2" x1="118.24" y1="18.07" x2="119.24" y2="18.07"/><line class="cls-2" x1="11.3" y1="35.07" x2="119.21" y2="35.07"/><line class="cls-2" x1="2.25" y1="68.28" x2="110.38" y2="68.28"/><line class="cls-2" x1="4.47" y1="85.27" x2="5.47" y2="85.27"/><line class="cls-4" x1="7.48" y1="85.27" x2="111.19" y2="85.27"/><line class="cls-2" x1="112.19" y1="85.27" x2="113.19" y2="85.27"/><path class="cls-5" d="M12.17,101.69A63,63,0,0,1,2,70c.6-11.26,9.78-35.55,9.78-35.55C16.27,22,1.34.5,1.34.5"/><path class="cls-5" d="M111.82.75s12.61,20.75,7.89,33.68c0,0-9,23.06-9.63,35.56a68.25,68.25,0,0,0,10.77,31.86"/><line class="cls-6" x1="67.72" y1="40.59" x2="73.51" y2="40.59"/><line class="cls-6" x1="67.72" y1="48.3" x2="73.51" y2="48.3"/><line class="cls-6" x1="71.73" y1="43.6" x2="71.73" y2="45.17"/><polygon class="cls-7" points="70.24 44.04 71.73 41.45 73.23 44.04 70.24 44.04"/><polygon class="cls-7" points="70.24 44.73 71.73 47.32 73.23 44.73 70.24 44.73"/><text class="cls-8" transform="translate(74.35 50.49)">C</text><line class="cls-6" x1="51.38" y1="44.95" x2="57.91" y2="44.95"/><line class="cls-6" x1="53.38" y1="41.84" x2="53.38" y2="38.32"/><polygon class="cls-7" points="54.88 41.41 53.38 44 51.88 41.41 54.88 41.41"/><polygon class="cls-7" points="54.88 38.76 53.38 36.17 51.88 38.76 54.88 38.76"/><text class="cls-8" transform="translate(37.39 50.86)">B</text><rect class="cls-9" x="57.83" y="41.95" width="11.1" height="5.99" rx="3" transform="translate(108.33 -18.44) rotate(90)"/><circle class="cls-10" cx="63.38" cy="44.95" r="0.8"/><polyline class="cls-2" points="64.91 54.16 67.52 58.31 73.54 58.31"/><polygon class="cls-7" points="63.53 55.71 63.38 51.73 66.91 53.59 63.53 55.71"/><text class="cls-8" transform="translate(73.2 67.54)">A</text></g></g></svg>