<svg xmlns="http://www.w3.org/2000/svg" viewBox="0 0 121.71 102.19"><defs><style>.cls-1{fill:#f8f9f9;stroke:#231815;}.cls-1,.cls-2,.cls-3,.cls-4,.cls-5{stroke-miterlimit:10;}.cls-2,.cls-3,.cls-4,.cls-5,.cls-6{fill:none;}.cls-2,.cls-3,.cls-4,.cls-6{stroke:#040000;}.cls-3{stroke-dasharray:2 2;}.cls-4{stroke-dasharray:2.01 2.01;}.cls-5{stroke:#00a0e9;}.cls-6{stroke-linejoin:round;}.cls-7{fill:#040000;}.cls-8{font-size:20px;fill:#231815;font-family:NanumSquareRoundR, NanumSquareRound;}.cls-9{fill:#0768ac;}</style></defs><title>자산 19</title><g id="레이어_2" data-name="레이어 2"><g id="레이어_1-2" data-name="레이어 1"><path class="cls-1" d="M11.74,101.69h109c-10-14.82-10.73-32.3-10.73-32.3.6-11.26,9.78-35.56,9.78-35.56C124.27,21.39,111.67.5,111.67.5H1s15.84,20.85,10.59,35c0,0-11.47,27.83-9.17,39.52C2.43,75,3.3,86.63,11.74,101.69Z"/><line class="cls-2" x1="11.3" y1="18.07" x2="12.3" y2="18.07"/><line class="cls-3" x1="14.3" y1="18.07" x2="117.24" y2="18.07"/><line class="cls-2" x1="118.24" y1="18.07" x2="119.24" y2="18.07"/><line class="cls-2" x1="11.3" y1="35.07" x2="119.21" y2="35.07"/><line class="cls-2" x1="2.25" y1="68.28" x2="110.38" y2="68.28"/><line class="cls-2" x1="4.47" y1="85.27" x2="5.47" y2="85.27"/><line class="cls-4" x1="7.48" y1="85.27" x2="111.19" y2="85.27"/><line class="cls-2" x1="112.19" y1="85.27" x2="113.19" y2="85.27"/><path class="cls-5" d="M12.17,101.69A63,63,0,0,1,2,70c.6-11.26,9.78-35.55,9.78-35.55C16.27,22,1.34.5,1.34.5"/><path class="cls-5" d="M111.82.75s12.61,20.75,7.89,33.68c0,0-9,23.06-9.63,35.56a68.25,68.25,0,0,0,10.77,31.86"/><line class="cls-6" x1="54.73" y1="54.77" x2="79.81" y2="54.77"/><polygon class="cls-7" points="55.17 56.26 52.58 54.77 55.17 53.27 55.17 56.26"/><polygon class="cls-7" points="79.37 56.26 81.96 54.77 79.37 53.27 79.37 56.26"/><line class="cls-6" x1="51.12" y1="57.06" x2="51.12" y2="49.27"/><line class="cls-6" x1="83.17" y1="57.06" x2="83.17" y2="49.27"/><text class="cls-8" transform="translate(60.67 70.8)">A</text><rect class="cls-9" x="51.12" y="45.94" width="32.15" height="1.19"/><line class="cls-6" x1="42.04" y1="46.53" x2="48.57" y2="46.53"/><line class="cls-6" x1="44.04" y1="42.82" x2="44.04" y2="38.24"/><polygon class="cls-7" points="45.54 42.38 44.04 44.97 42.55 42.38 45.54 42.38"/><polygon class="cls-7" points="45.54 38.68 44.04 36.09 42.55 38.68 45.54 38.68"/><text class="cls-8" transform="translate(27.94 51.15)">B</text></g></g></svg>