<svg xmlns="http://www.w3.org/2000/svg" viewBox="0 0 140.81 110.48"><defs><style>.cls-1{fill:#fff;}.cls-1,.cls-6{stroke:#231815;}.cls-1,.cls-2,.cls-3,.cls-4,.cls-5,.cls-6,.cls-7{stroke-miterlimit:10;}.cls-2,.cls-3,.cls-4,.cls-5,.cls-6,.cls-7,.cls-8{fill:none;}.cls-2,.cls-3,.cls-4,.cls-8{stroke:#040000;}.cls-3{stroke-dasharray:2.03 2.03;}.cls-4{stroke-dasharray:2 2;}.cls-5{stroke:#00a0e9;}.cls-6,.cls-7{stroke-dasharray:1;}.cls-7{stroke:#1d2088;}.cls-8{stroke-linejoin:round;}.cls-9{fill:#040000;}.cls-10{font-size:20px;fill:#231815;font-family:NanumSquareRoundR, NanumSquareRound;}</style></defs><title>자산 38</title><g id="레이어_2" data-name="레이어 2"><g id="레이어_1-2" data-name="레이어 1"><path class="cls-1" d="M20.1,51.09V.5H130.77s12.59,20.89,8.15,33.33c0,0-9.19,24.3-9.78,35.56,0,0,.71,17.48,10.73,32.3H73.2V56.31H27.67Z"/><line class="cls-2" x1="20.1" y1="17.5" x2="21.1" y2="17.5"/><line class="cls-3" x1="23.14" y1="17.5" x2="136.01" y2="17.5"/><line class="cls-2" x1="137.03" y1="17.5" x2="138.03" y2="17.5"/><line class="cls-2" x1="20.1" y1="34.5" x2="138.67" y2="34.5"/><line class="cls-2" x1="73.2" y1="67.69" x2="129.14" y2="67.69"/><line class="cls-2" x1="20.1" y1="84.69" x2="21.1" y2="84.69"/><line class="cls-4" x1="23.1" y1="84.69" x2="129.96" y2="84.69"/><line class="cls-2" x1="130.96" y1="84.69" x2="131.96" y2="84.69"/><path class="cls-5" d="M130.77.5s12.59,20.89,8.15,33.33c0,0-9.19,24.3-9.78,35.56a68.78,68.78,0,0,0,10.73,32.3"/><polygon class="cls-6" points="73.2 101.69 73.2 56.48 27.57 56.48 20.1 51.09 20.1 101.69 73.2 101.69"/><path class="cls-7" d="M54.86,101.69,72.75,56.44a.17.17,0,0,1,.33,0l17.17,45.25"/><line class="cls-6" x1="20.1" y1="67.69" x2="73.2" y2="67.69"/><line class="cls-8" x1="23.54" y1="108.18" x2="70.02" y2="108.18"/><polygon class="cls-9" points="23.98 109.68 21.39 108.18 23.98 106.69 23.98 109.68"/><polygon class="cls-9" points="69.58 109.68 72.17 108.18 69.58 106.69 69.58 109.68"/><line class="cls-8" x1="19.93" y1="110.48" x2="19.93" y2="104.69"/><line class="cls-8" x1="73.38" y1="110.48" x2="73.38" y2="104.69"/><text class="cls-10" transform="translate(40.38 104.69)">B</text><line class="cls-8" x1="24.79" y1="57.31" x2="13.53" y2="57.31"/><line class="cls-8" x1="18.32" y1="50.97" x2="13.53" y2="50.97"/><line class="cls-8" x1="15.3" y1="55.02" x2="15.3" y2="53.14"/><polygon class="cls-9" points="16.3 54.73 15.3 56.46 14.3 54.73 16.3 54.73"/><polygon class="cls-9" points="16.3 53.43 15.3 51.7 14.3 53.43 16.3 53.43"/><text class="cls-10" transform="translate(0 61.01)">D</text><line class="cls-8" x1="71.03" y1="43.3" x2="23.54" y2="43.3"/><polygon class="cls-9" points="70.59 41.8 73.18 43.3 70.59 44.79 70.59 41.8"/><polygon class="cls-9" points="23.98 41.8 21.39 43.3 23.98 44.79 23.98 41.8"/><line class="cls-8" x1="74.51" y1="51.7" x2="74.51" y2="41.52"/><text class="cls-10" transform="translate(42.33 41.52)">A</text><text class="cls-10" transform="translate(81.39 67.69)">C</text><line class="cls-8" x1="76.03" y1="56.31" x2="81.06" y2="56.31"/><line class="cls-8" x1="79.29" y1="65.13" x2="79.29" y2="58.76"/><polygon class="cls-9" points="80.29 64.84 79.29 66.57 78.29 64.84 80.29 64.84"/><polygon class="cls-9" points="80.29 59.06 79.29 57.33 78.29 59.06 80.29 59.06"/></g></g></svg>