<svg xmlns="http://www.w3.org/2000/svg" viewBox="0 0 121.21 102.19"><defs><style>.cls-1{fill:#fff;}.cls-1,.cls-6{stroke:#231815;}.cls-1,.cls-2,.cls-3,.cls-4,.cls-5,.cls-6{stroke-miterlimit:10;}.cls-2,.cls-3,.cls-4,.cls-5,.cls-6,.cls-7{fill:none;}.cls-2,.cls-3,.cls-4,.cls-7{stroke:#040000;}.cls-3{stroke-dasharray:2.03 2.03;}.cls-4{stroke-dasharray:2 2;}.cls-5{stroke:#00a0e9;}.cls-6{stroke-dasharray:1;}.cls-7{stroke-linejoin:round;}.cls-8{fill:#040000;}.cls-9{font-size:20px;fill:#231815;font-family:NanumSquareRoundR, NanumSquareRound;}</style></defs><title>자산 58</title><g id="레이어_2" data-name="레이어 2"><g id="레이어_1-2" data-name="레이어 1"><path class="cls-1" d="M.5,81.63v20.06H120.26c-10-14.82-10.72-32.3-10.72-32.3.59-11.26,9.77-35.56,9.77-35.56C123.76,21.39,111.17.5,111.17.5H.5V67.69h16"/><line class="cls-2" x1="0.57" y1="17.5" x2="1.57" y2="17.5"/><line class="cls-3" x1="3.61" y1="17.5" x2="116.48" y2="17.5"/><line class="cls-2" x1="117.5" y1="17.5" x2="118.5" y2="17.5"/><line class="cls-2" x1="0.57" y1="34.5" x2="119.14" y2="34.5"/><polyline class="cls-2" points="109.61 67.69 16.51 67.69 0.57 81.63"/><line class="cls-2" x1="0.57" y1="84.69" x2="1.57" y2="84.69"/><line class="cls-4" x1="3.57" y1="84.69" x2="110.43" y2="84.69"/><line class="cls-2" x1="111.43" y1="84.69" x2="112.43" y2="84.69"/><path class="cls-5" d="M111.24.5s12.59,20.89,8.15,33.33c0,0-9.19,24.3-9.78,35.56a68.78,68.78,0,0,0,10.73,32.3"/><polygon class="cls-6" points="0.5 81.63 16.51 67.69 0.5 67.69 0.5 81.63"/><line class="cls-7" x1="4.19" y1="60.81" x2="13.19" y2="60.81"/><polygon class="cls-8" points="4.62 62.3 2.03 60.81 4.62 59.31 4.62 62.3"/><polygon class="cls-8" points="12.75 62.3 15.34 60.81 12.75 59.31 12.75 62.3"/><line class="cls-7" x1="16.55" y1="58.51" x2="16.55" y2="64.3"/><text class="cls-9" transform="translate(2.09 56.58)">A</text><line class="cls-7" x1="23.89" y1="81.63" x2="16.55" y2="81.63"/><line class="cls-7" x1="21.73" y1="77.91" x2="21.73" y2="70.91"/><polygon class="cls-8" points="23.23 77.47 21.73 80.06 20.24 77.47 23.23 77.47"/><polygon class="cls-8" points="23.23 71.34 21.73 68.75 20.24 71.34 23.23 71.34"/><text class="cls-9" transform="translate(24.08 83.28)">B</text></g></g></svg>