<?xml version="1.0" encoding="UTF-8"?>
<svg width="142.37" height="102.19" version="1.1" viewBox="0 0 142.37 102.19" xmlns="http://www.w3.org/2000/svg" xmlns:cc="http://creativecommons.org/ns#" xmlns:dc="http://purl.org/dc/elements/1.1/" xmlns:rdf="http://www.w3.org/1999/02/22-rdf-syntax-ns#">
 <defs>
  <style>.cls-1{fill:#f8f9f9;}.cls-1,.cls-2,.cls-3,.cls-4,.cls-7{stroke:#040000;}.cls-1,.cls-2,.cls-3,.cls-4,.cls-5,.cls-6{stroke-miterlimit:10;}.cls-2,.cls-3,.cls-4,.cls-5,.cls-6,.cls-7{fill:none;}.cls-3{stroke-dasharray:2.03 2.03;}.cls-4{stroke-dasharray:2 2;}.cls-5{stroke:#00a0e9;}.cls-6{stroke:#231815;stroke-dasharray:1;}.cls-7{stroke-linejoin:round;}.cls-8{fill:#040000;}.cls-9{font-size:20px;fill:#231815;font-family:NanumSquareRoundR, NanumSquareRound;}</style>
 </defs>
 <title>HB302</title>
 <g transform="translate(-.0003808)">
  <path class="cls-1" d="m140.24 67.69h-118.57v-67.19h119.76c-10 14.82-10.72 32.3-10.72 32.3 0.59 11.26 9.77 35.56 9.77 35.56 4.45 12.44-8.14 33.33-8.14 33.33h-110.67l0.07-25.52h27.5v-8.2"/>
  <line class="cls-2" x1="21.669" x2="22.669" y1="84.69" y2="84.69"/>
  <line class="cls-3" x1="24.699" x2="137.58" y1="84.69" y2="84.69"/>
  <line class="cls-2" x1="138.6" x2="139.6" y1="84.69" y2="84.69"/>
  <line class="cls-2" x1="21.669" x2="130.71" y1="34.5" y2="34.5"/>
  <line class="cls-2" x1="21.669" x2="22.669" y1="17.5" y2="17.5"/>
  <line class="cls-4" x1="24.669" x2="131.53" y1="17.5" y2="17.5"/>
  <line class="cls-2" x1="132.53" x2="133.53" y1="17.5" y2="17.5"/>
  <path class="cls-5" d="m132.34 101.69s12.59-20.89 8.14-33.33c0 0-9.18-24.3-9.77-35.56a68.84 68.84 0 0 1 10.72-32.3"/>
  <text class="cls-9" x="61.409" y="82.748337" fill="#231815" font-family="NanumSquareRoundR, NanumSquareRound" font-size="20px" style="font-variant-caps:normal;font-variant-east-asian:normal;font-variant-ligatures:normal;font-variant-numeric:normal"><tspan x="61.409" y="82.748337">C</tspan></text>
  <line class="cls-7" x1="25.419" x2="45.759" y1="57.57" y2="57.57"/>
  <polygon class="cls-8" transform="matrix(1,0,0,-1,21.169,102.19)" points="4.68 46.11 2.09 44.62 4.68 43.12"/>
  <polygon class="cls-8" transform="matrix(1,0,0,-1,21.169,102.19)" points="24.15 46.11 26.74 44.62 24.15 43.12"/>
  <line class="cls-7" x1="49.239" x2="49.239" y1="65.59" y2="55.8"/>
  <text class="cls-9" x="28.858999" y="52.91">A</text>
  <g transform="matrix(1,0,0,-1,21.169,102.19)" fill="none">
   <rect class="cls-6" transform="scale(1,-1)" x=".57" y="-34.22" width="27.5" height="8.2" stroke="#231815" stroke-dasharray="1" stroke-miterlimit="10" stroke-width=".79905"/>
   <line class="cls-7" x1="37.94" x2="31.65" y1="25.814" y2="25.814" stroke="#040000" stroke-linejoin="round"/>
   <line class="cls-7" x1="35.78" x2="35.78" y1="28.718" y2="31.16" stroke="#040000" stroke-linejoin="round" stroke-width=".62657"/>
  </g>
  <polygon class="cls-8" transform="translate(21.339 37.89)" points="37.1 34.92 35.61 37.51 34.11 34.92" fill="#040000"/>
  <polygon class="cls-8" transform="translate(21.339 41.89)" points="35.61 26.99 34.11 29.58 37.1 29.58" fill="#040000"/>
  <g transform="matrix(1,0,0,-1,21.169,102.19)" fill="none" stroke="#040000" stroke-linejoin="round">
   <line class="cls-7" x1="-9.249" x2="-2.959" y1="25.97" y2="25.97"/>
   <line class="cls-7" x1="-9.2668" x2="-2.9768" y1="34.302" y2="34.302"/>
   <line class="cls-7" x1="-7.089" x2="-7.089" y1="28.874" y2="31.316" stroke-width=".62657"/>
  </g>
  <polygon class="cls-8" transform="matrix(-1,0,0,1,49.691,37.734)" points="37.1 34.92 35.61 37.51 34.11 34.92" fill="#040000"/>
  <polygon class="cls-8" transform="matrix(-1,0,0,1,49.691,41.734)" points="35.61 26.99 34.11 29.58 37.1 29.58" fill="#040000"/>
  <line class="cls-7" x1="11.954" x2="18.244" y1="81.066" y2="81.066" fill="none" stroke="#040000" stroke-linejoin="round"/>
  <line class="cls-7" x1="14.096" x2="14.096" y1="79.76" y2="77.306" fill="none" stroke="#040000" stroke-linejoin="round" stroke-width=".39969"/>
  <polygon class="cls-8" transform="matrix(-1 0 0 .51581 49.724 62.847)" points="34.11 29.58 37.1 29.58 35.61 26.99" fill="#040000"/>
  <polygon class="cls-8" transform="matrix(-1 0 0 -.51581 49.726 94.402)" points="34.11 29.58 37.1 29.58 35.61 26.99" fill="#040000"/>
  <text class="cls-9" x="-1.8937937" y="75.433807" fill="#231815" font-family="NanumSquareRoundR, NanumSquareRound" font-size="20px" style="font-variant-caps:normal;font-variant-east-asian:normal;font-variant-ligatures:normal;font-variant-numeric:normal"><tspan x="-1.8937937" y="75.433807">B</tspan></text>
  <text class="cls-9" x="-1.9196192" y="91.332939" fill="#231815" font-family="NanumSquareRoundR, NanumSquareRound" font-size="20px" style="font-variant-caps:normal;font-variant-east-asian:normal;font-variant-ligatures:normal;font-variant-numeric:normal"><tspan x="-1.9196192" y="91.332939">D</tspan></text>
  <g transform="matrix(1,0,0,-1,21.169,102.19)" fill="#000080" stroke="#000" stroke-miterlimit="1">
   <path d="m0.67988 21.054c4.6695 4.8393 4.6695 4.9242 4.6695 4.9242" stroke-dasharray="1, 1"/>
   <g stroke-dasharray="0.0212251, 0.0212251" stroke-width=".021225">
    <path d="m2.0722 22.506-0.34809 0.33681 0.67406 0.70187 0.33878-0.32324c0.18633-0.17778 0.34181-0.33234 0.34551-0.34345s-0.14377-0.17514-0.32772-0.3645l-0.33445-0.34429z"/>
    <path d="m3.453 23.955c-0.33688 0.31855-0.34002 0.32236-0.30372 0.36851 0.02017 0.02564 0.17006 0.18616 0.33308 0.35671l0.2964 0.31008 0.70367-0.67213-0.32726-0.34252c-0.18-0.18839-0.33503-0.34252-0.34452-0.34252-0.0095 0-0.17043 0.14485-0.35765 0.32188z"/>
    <path d="m4.8417 25.391c-0.18582 0.17155-0.34202 0.32444-0.34712 0.33976s0.05157 0.09173 0.12592 0.1698 0.18046 0.19319 0.2358 0.25581l0.10063 0.11386 0.0766-0.0608c0.04213-0.03344 0.12888-0.10139 0.19277-0.151l0.11617-0.09021h0.50461l-0.01315-0.06898c-0.0247-0.12959-0.09167-0.22592-0.36074-0.51884-0.14804-0.16116-0.27467-0.29488-0.2814-0.29716-0.0067-0.0023-0.16428 0.13621-0.3501 0.30776z"/>
    <path d="m0.69407 21.055c-0.18875 0.18326-0.34318 0.34055-0.34318 0.34954 0 9e-3 0.1489 0.17022 0.33089 0.3583l0.33089 0.34196 0.34814-0.3341c0.19148-0.18375 0.34583-0.33988 0.34301-0.34695-0.0028-0.0071-0.15396-0.1679-0.33585-0.3574l-0.33072-0.34454z"/>
   </g>
  </g>
 </g>
 <metadata>
  <rdf:RDF>
   <cc:Work rdf:about="">
    <dc:title>HB302</dc:title>
   </cc:Work>
  </rdf:RDF>
 </metadata>
</svg>
