<svg xmlns="http://www.w3.org/2000/svg" viewBox="0 0 121.71 102.19"><defs><style>.cls-1{fill:#f8f9f9;stroke:#231815;}.cls-1,.cls-10,.cls-11,.cls-12,.cls-2,.cls-3,.cls-4,.cls-5{stroke-miterlimit:10;}.cls-10,.cls-11,.cls-12,.cls-2,.cls-3,.cls-4,.cls-5,.cls-6,.cls-9{fill:none;}.cls-2,.cls-3,.cls-4,.cls-6,.cls-9{stroke:#040000;}.cls-3{stroke-dasharray:2 2;}.cls-4{stroke-dasharray:2.01 2.01;}.cls-5{stroke:#00a0e9;}.cls-6,.cls-9{stroke-linejoin:round;}.cls-7{fill:#040000;}.cls-8{font-size:20px;fill:#231815;font-family:NanumSquareRoundR, NanumSquareRound;}.cls-9{stroke-width:0.8px;}.cls-10,.cls-11,.cls-12{stroke:#e60012;stroke-width:0.4px;}.cls-11{stroke-dasharray:1.05 1.05;}.cls-12{stroke-dasharray:0.93 0.93;}.cls-13{fill:#0768ac;}.cls-14{fill:#e71f19;}</style></defs><title>자산 6</title><g id="레이어_2" data-name="레이어 2"><g id="레이어_1-2" data-name="레이어 1"><path class="cls-1" d="M11.74,101.69h109c-10-14.82-10.73-32.3-10.73-32.3.6-11.26,9.78-35.56,9.78-35.56C124.27,21.39,111.67.5,111.67.5H1s15.84,20.85,10.59,35c0,0-11.47,27.83-9.17,39.52C2.43,75,3.3,86.63,11.74,101.69Z"/><line class="cls-2" x1="11.3" y1="18.07" x2="12.3" y2="18.07"/><line class="cls-3" x1="14.3" y1="18.07" x2="117.24" y2="18.07"/><line class="cls-2" x1="118.24" y1="18.07" x2="119.24" y2="18.07"/><line class="cls-2" x1="11.3" y1="35.07" x2="119.21" y2="35.07"/><line class="cls-2" x1="2.25" y1="68.28" x2="110.38" y2="68.28"/><line class="cls-2" x1="4.47" y1="85.27" x2="5.47" y2="85.27"/><line class="cls-4" x1="7.48" y1="85.27" x2="111.19" y2="85.27"/><line class="cls-2" x1="112.19" y1="85.27" x2="113.19" y2="85.27"/><path class="cls-5" d="M12.17,101.69A63,63,0,0,1,2,70c.6-11.26,9.78-35.55,9.78-35.55C16.27,22,1.34.5,1.34.5"/><path class="cls-5" d="M111.82.75s12.61,20.75,7.89,33.68c0,0-9,23.06-9.63,35.56a68.25,68.25,0,0,0,10.77,31.86"/><line class="cls-6" x1="67.3" y1="64.99" x2="64.23" y2="64.99"/><polygon class="cls-7" points="66.86 63.5 69.45 64.99 66.86 66.49 66.86 63.5"/><polygon class="cls-7" points="64.67 63.5 62.08 64.99 64.67 66.49 64.67 63.5"/><line class="cls-6" x1="70.33" y1="62.7" x2="70.33" y2="74.49"/><line class="cls-6" x1="61.27" y1="62.7" x2="61.27" y2="74.49"/><text class="cls-8" transform="translate(59.33 59.87)">A</text><line class="cls-6" x1="60.14" y1="82.99" x2="54.35" y2="82.99"/><line class="cls-6" x1="60.14" y1="76.5" x2="54.35" y2="76.5"/><line class="cls-9" x1="56.12" y1="80.41" x2="56.12" y2="78.98"/><polygon class="cls-7" points="57.32 80.06 56.12 82.14 54.93 80.06 57.32 80.06"/><polygon class="cls-7" points="57.32 79.33 56.12 77.26 54.93 79.33 57.32 79.33"/><text class="cls-8" transform="translate(39.67 84.11)">C</text><line class="cls-6" x1="78.27" y1="76.53" x2="71.99" y2="76.53"/><line class="cls-6" x1="76.11" y1="71.22" x2="76.11" y2="73.54"/><polygon class="cls-7" points="74.62 71.66 76.11 69.06 77.61 71.66 74.62 71.66"/><polygon class="cls-7" points="74.62 73.1 76.11 75.69 77.61 73.1 74.62 73.1"/><text class="cls-8" transform="translate(78.84 83.58)">B</text><line class="cls-10" x1="70.48" y1="76.57" x2="70.48" y2="77.07"/><line class="cls-11" x1="70.48" y1="78.13" x2="70.48" y2="81.82"/><polyline class="cls-10" points="70.48 82.34 70.48 82.84 69.98 82.84"/><line class="cls-12" x1="69.05" y1="82.84" x2="62.11" y2="82.84"/><line class="cls-10" x1="61.65" y1="82.84" x2="61.15" y2="82.84"/><polygon class="cls-13" points="70.68 76.78 61.49 82.97 61.16 82.64 70.35 76.44 70.68 76.78"/><circle class="cls-14" cx="70.55" cy="76.65" r="0.57"/></g></g></svg>