<svg xmlns="http://www.w3.org/2000/svg" viewBox="0 0 121.71 105.79"><defs><style>.cls-1{fill:#fff;}.cls-1,.cls-6{stroke:#231815;}.cls-1,.cls-2,.cls-3,.cls-4,.cls-5,.cls-6{stroke-miterlimit:10;}.cls-2,.cls-3,.cls-4,.cls-5,.cls-6,.cls-7{fill:none;}.cls-2,.cls-3,.cls-4,.cls-7{stroke:#040000;}.cls-3{stroke-dasharray:2 2;}.cls-4{stroke-dasharray:2.01 2.01;}.cls-5{stroke:#00a0e9;}.cls-6{stroke-dasharray:1;}.cls-7{stroke-linejoin:round;}.cls-8{fill:#040000;}.cls-9{font-size:20px;fill:#231815;font-family:NanumSquareRoundR, NanumSquareRound;}</style></defs><title>자산 40</title><g id="레이어_2" data-name="레이어 2"><g id="레이어_1-2" data-name="레이어 1"><path class="cls-1" d="M80.32,101.69h40.45c-10-14.82-10.73-32.3-10.73-32.3.6-11.26,9.78-35.56,9.78-35.56C124.27,21.39,111.67.5,111.67.5H1s15.84,20.85,10.59,35c0,0-11.47,27.83-9.17,39.52,0,0,.87,11.59,9.31,26.65h22.5V92.31h46Z"/><line class="cls-2" x1="11.3" y1="18.07" x2="12.3" y2="18.07"/><line class="cls-3" x1="14.3" y1="18.07" x2="117.24" y2="18.07"/><line class="cls-2" x1="118.24" y1="18.07" x2="119.24" y2="18.07"/><line class="cls-2" x1="11.3" y1="35.07" x2="119.21" y2="35.07"/><line class="cls-2" x1="2.25" y1="68.28" x2="110.38" y2="68.28"/><line class="cls-2" x1="4.47" y1="85.27" x2="5.47" y2="85.27"/><line class="cls-4" x1="7.48" y1="85.27" x2="111.19" y2="85.27"/><line class="cls-2" x1="112.19" y1="85.27" x2="113.19" y2="85.27"/><path class="cls-5" d="M12.17,101.69A63,63,0,0,1,2,70c.6-11.26,9.78-35.55,9.78-35.55C16.27,22,1.34.5,1.34.5"/><path class="cls-5" d="M111.82.75s12.61,20.75,7.89,33.68c0,0-9,23.06-9.63,35.56a68.25,68.25,0,0,0,10.77,31.86"/><rect class="cls-6" x="34.24" y="92.4" width="46.07" height="9.31"/><line class="cls-7" x1="37.86" y1="82.46" x2="76.96" y2="82.46"/><polygon class="cls-8" points="38.29 83.96 35.7 82.46 38.29 80.97 38.29 83.96"/><polygon class="cls-8" points="76.52 83.96 79.11 82.46 76.52 80.97 76.52 83.96"/><line class="cls-7" x1="34.24" y1="80.17" x2="34.24" y2="89.96"/><line class="cls-7" x1="80.32" y1="80.17" x2="80.32" y2="89.96"/><text class="cls-9" transform="translate(50.81 78.72)">A</text><line class="cls-7" x1="24.42" y1="92.4" x2="31.82" y2="92.4"/><line class="cls-7" x1="26.52" y1="98.74" x2="26.52" y2="95.7"/><polygon class="cls-8" points="28.01 98.31 26.52 100.9 25.02 98.31 28.01 98.31"/><polygon class="cls-8" points="28.01 96.14 26.52 93.55 25.02 96.14 28.01 96.14"/><text class="cls-9" transform="translate(11.52 100.69)">B</text></g></g></svg>