<svg xmlns="http://www.w3.org/2000/svg" viewBox="0 0 121.71 105.85"><defs><style>.cls-1{fill:#f8f9f9;stroke:#231815;}.cls-1,.cls-2,.cls-3,.cls-4,.cls-5,.cls-6{stroke-miterlimit:10;}.cls-2,.cls-3,.cls-4,.cls-5,.cls-6,.cls-7{fill:none;}.cls-2,.cls-3,.cls-4,.cls-7{stroke:#040000;}.cls-3{stroke-dasharray:2 2;}.cls-4{stroke-dasharray:2.01 2.01;}.cls-5{stroke:#00a0e9;}.cls-6{stroke:#0768ac;stroke-dasharray:1;}.cls-7{stroke-linejoin:round;}.cls-8{fill:#040000;}.cls-9{font-size:20px;fill:#231815;font-family:NanumSquareRoundR, NanumSquareRound;}.cls-10{fill:#e71f19;}</style></defs><title>자산 31</title><g id="레이어_2" data-name="레이어 2"><g id="레이어_1-2" data-name="레이어 1"><path class="cls-1" d="M11.74,101.69h109c-10-14.82-10.73-32.3-10.73-32.3.6-11.26,9.78-35.56,9.78-35.56C124.27,21.39,111.67.5,111.67.5H1s15.84,20.85,10.59,35c0,0-11.47,27.83-9.17,39.52C2.43,75,3.3,86.63,11.74,101.69Z"/><line class="cls-2" x1="11.3" y1="18.07" x2="12.3" y2="18.07"/><line class="cls-3" x1="14.3" y1="18.07" x2="117.24" y2="18.07"/><line class="cls-2" x1="118.24" y1="18.07" x2="119.24" y2="18.07"/><line class="cls-2" x1="11.3" y1="35.07" x2="119.21" y2="35.07"/><line class="cls-2" x1="2.25" y1="68.28" x2="110.38" y2="68.28"/><line class="cls-2" x1="4.47" y1="85.27" x2="5.47" y2="85.27"/><line class="cls-4" x1="7.48" y1="85.27" x2="111.19" y2="85.27"/><line class="cls-2" x1="112.19" y1="85.27" x2="113.19" y2="85.27"/><path class="cls-5" d="M12.17,101.69A63,63,0,0,1,2,70c.6-11.26,9.78-35.55,9.78-35.55C16.27,22,1.34.5,1.34.5"/><path class="cls-5" d="M111.82.75s12.61,20.75,7.89,33.68c0,0-9,23.06-9.63,35.56a68.25,68.25,0,0,0,10.77,31.86"/><circle class="cls-6" cx="59.22" cy="92.65" r="4.91"/><line class="cls-7" x1="44.67" y1="92.65" x2="51.2" y2="92.65"/><line class="cls-7" x1="46.67" y1="95.7" x2="46.67" y2="98.6"/><polygon class="cls-8" points="45.17 96.14 46.67 93.55 48.16 96.14 45.17 96.14"/><polygon class="cls-8" points="45.17 98.16 46.67 100.75 48.16 98.16 45.17 98.16"/><text class="cls-9" transform="translate(30.64 100.75)">B</text><circle class="cls-10" cx="59.22" cy="92.65" r="0.8"/><polyline class="cls-2" points="69.97 92.51 72.98 92.51 75.86 92.51"/><polygon class="cls-8" points="70.56 94.5 67.1 92.51 70.56 90.52 70.56 94.5"/><text class="cls-9" transform="translate(74.73 100.75)">A</text></g></g></svg>