<svg xmlns="http://www.w3.org/2000/svg" viewBox="0 0 121.71 105.85"><defs><style>.cls-1{fill:#f8f9f9;stroke:#231815;}.cls-1,.cls-2,.cls-3,.cls-4,.cls-5,.cls-6{stroke-miterlimit:10;}.cls-2,.cls-3,.cls-4,.cls-5,.cls-6,.cls-7{fill:none;}.cls-2,.cls-3,.cls-4,.cls-7{stroke:#040000;}.cls-3{stroke-dasharray:2 2;}.cls-4{stroke-dasharray:2.01 2.01;}.cls-5{stroke:#00a0e9;}.cls-6{stroke:#0768ac;stroke-dasharray:1;}.cls-7{stroke-linejoin:round;}.cls-8{fill:#040000;}.cls-9{font-size:20px;fill:#231815;font-family:NanumSquareRoundR, NanumSquareRound;}.cls-10{fill:#e71f19;}</style></defs><title>자산 26</title><g id="레이어_2" data-name="레이어 2"><g id="레이어_1-2" data-name="레이어 1"><path class="cls-1" d="M11.74,101.69h109c-10-14.82-10.73-32.3-10.73-32.3.6-11.26,9.78-35.56,9.78-35.56C124.27,21.39,111.67.5,111.67.5H1s15.84,20.85,10.59,35c0,0-11.47,27.83-9.17,39.52C2.43,75,3.3,86.63,11.74,101.69Z"/><line class="cls-2" x1="11.3" y1="18.07" x2="12.3" y2="18.07"/><line class="cls-3" x1="14.3" y1="18.07" x2="117.24" y2="18.07"/><line class="cls-2" x1="118.24" y1="18.07" x2="119.24" y2="18.07"/><line class="cls-2" x1="11.3" y1="35.07" x2="119.21" y2="35.07"/><line class="cls-2" x1="2.25" y1="68.28" x2="110.38" y2="68.28"/><line class="cls-2" x1="4.47" y1="85.27" x2="5.47" y2="85.27"/><line class="cls-4" x1="7.48" y1="85.27" x2="111.19" y2="85.27"/><line class="cls-2" x1="112.19" y1="85.27" x2="113.19" y2="85.27"/><path class="cls-5" d="M12.17,101.69A63,63,0,0,1,2,70c.6-11.26,9.78-35.55,9.78-35.55C16.27,22,1.34.5,1.34.5"/><path class="cls-5" d="M111.82.75s12.61,20.75,7.89,33.68c0,0-9,23.06-9.63,35.56a68.25,68.25,0,0,0,10.77,31.86"/><rect class="cls-6" x="47.55" y="89.12" width="23.56" height="5.46" rx="2.73"/><line class="cls-7" x1="38.14" y1="91.76" x2="44.67" y2="91.76"/><line class="cls-7" x1="40.14" y1="94.94" x2="40.14" y2="98.34"/><polygon class="cls-8" points="38.65 95.38 40.14 92.79 41.64 95.38 38.65 95.38"/><polygon class="cls-8" points="38.65 97.9 40.14 100.49 41.64 97.9 38.65 97.9"/><text class="cls-9" transform="translate(23.54 100.49)">B</text><circle class="cls-10" cx="59.33" cy="91.85" r="0.8"/><polyline class="cls-2" points="76.59 91.9 79.6 91.85 84.24 91.85"/><polygon class="cls-8" points="77.2 93.88 73.72 91.94 77.14 89.89 77.2 93.88"/><text class="cls-9" transform="translate(83.04 100.75)">A</text><line class="cls-7" x1="53.54" y1="81.05" x2="65.05" y2="81.05"/><polygon class="cls-8" points="53.97 82.55 51.38 81.05 53.97 79.56 53.97 82.55"/><polygon class="cls-8" points="64.61 82.55 67.2 81.05 64.61 79.56 64.61 82.55"/><line class="cls-7" x1="50.05" y1="87.07" x2="50.05" y2="79.28"/><line class="cls-7" x1="68.53" y1="87.07" x2="68.53" y2="79.28"/><text class="cls-9" transform="translate(52.84 76.35)">C</text></g></g></svg>