<svg xmlns="http://www.w3.org/2000/svg" viewBox="0 0 140.8 128.08"><defs><style>.cls-1{fill:#fff;}.cls-1,.cls-6{stroke:#231815;}.cls-1,.cls-2,.cls-3,.cls-4,.cls-5,.cls-6,.cls-7{stroke-miterlimit:10;}.cls-2,.cls-3,.cls-4,.cls-5,.cls-6,.cls-7,.cls-8{fill:none;}.cls-2,.cls-3,.cls-4,.cls-8{stroke:#040000;}.cls-3{stroke-dasharray:2.03 2.03;}.cls-4{stroke-dasharray:2 2;}.cls-5{stroke:#00a0e9;}.cls-6,.cls-7{stroke-dasharray:1;}.cls-7{stroke:#1d2088;}.cls-8{stroke-linejoin:round;}.cls-9{fill:#040000;}.cls-10{font-size:20px;fill:#231815;font-family:NanumSquareRoundR, NanumSquareRound;}</style></defs><title>자산 39</title><g id="레이어_2" data-name="레이어 2"><g id="레이어_1-2" data-name="레이어 1"><path class="cls-1" d="M73.2,26l57.57-.68s12.59,20.89,8.15,33.34c0,0-9.19,24.29-9.78,35.55,0,0,.71,17.48,10.73,32.3L20.1,127.58V75.87l7.23-5.22H73.08Z"/><line class="cls-2" x1="20.1" y1="42.27" x2="21.1" y2="42.27"/><line class="cls-3" x1="23.14" y1="42.27" x2="136.01" y2="42.27"/><line class="cls-2" x1="137.03" y1="42.27" x2="138.03" y2="42.27"/><line class="cls-2" x1="73.2" y1="59.27" x2="138.67" y2="59.27"/><line class="cls-2" x1="20.1" y1="92.46" x2="129.14" y2="92.46"/><line class="cls-2" x1="20.1" y1="109.46" x2="21.1" y2="109.46"/><line class="cls-4" x1="23.1" y1="109.46" x2="129.96" y2="109.46"/><line class="cls-2" x1="130.96" y1="109.46" x2="131.96" y2="109.46"/><path class="cls-5" d="M130.77,25.27s12.59,20.89,8.15,33.34c0,0-9.19,24.29-9.78,35.55a68.75,68.75,0,0,0,10.73,32.3"/><polygon class="cls-6" points="73.2 25.95 73.2 70.48 27.57 70.48 20.1 75.87 20.1 26.52 73.2 25.95"/><path class="cls-7" d="M54.86,25.27,72.75,70.52a.17.17,0,0,0,.33,0L90.25,25.27"/><line class="cls-6" x1="20.41" y1="59.27" x2="73.59" y2="59.27"/><line class="cls-8" x1="23.59" y1="19.26" x2="69.74" y2="19.26"/><polygon class="cls-9" points="24.02 20.75 21.43 19.25 24.02 17.76 24.02 20.75"/><polygon class="cls-9" points="69.3 20.75 71.89 19.25 69.3 17.76 69.3 20.75"/><line class="cls-8" x1="20.1" y1="23.27" x2="20.1" y2="17.48"/><line class="cls-8" x1="73.22" y1="23.27" x2="73.22" y2="17.48"/><text class="cls-10" transform="translate(40.6 16)">B</text><line class="cls-8" x1="69.66" y1="80.14" x2="23.84" y2="80.14"/><polygon class="cls-9" points="69.22 78.64 71.81 80.14 69.22 81.64 69.22 78.64"/><polygon class="cls-9" points="24.27 78.64 21.68 80.14 24.27 81.64 24.27 78.64"/><line class="cls-8" x1="73.27" y1="82.43" x2="73.27" y2="73.27"/><text class="cls-10" transform="translate(40.18 100.07)">A</text><text class="cls-10" transform="translate(81.83 70.41)">C</text><line class="cls-8" x1="76.03" y1="70.79" x2="81.06" y2="70.79"/><line class="cls-8" x1="79.29" y1="61.63" x2="79.29" y2="68.34"/><polygon class="cls-9" points="78.29 61.92 79.29 60.2 80.28 61.92 78.29 61.92"/><polygon class="cls-9" points="78.29 68.05 79.29 69.78 80.28 68.05 78.29 68.05"/><line class="cls-8" x1="18.32" y1="76.02" x2="13.53" y2="76.02"/><line class="cls-8" x1="24.14" y1="69.68" x2="13.53" y2="69.68"/><line class="cls-8" x1="15.3" y1="73.73" x2="15.3" y2="71.85"/><polygon class="cls-9" points="16.3 73.44 15.3 75.17 14.3 73.44 16.3 73.44"/><polygon class="cls-9" points="16.3 72.14 15.3 70.41 14.3 72.14 16.3 72.14"/><text class="cls-10" transform="translate(0 80.14)">D</text></g></g></svg>