<svg xmlns="http://www.w3.org/2000/svg" viewBox="0 0 121.71 127.86"><defs><style>.cls-1{fill:#fff;}.cls-1,.cls-6{stroke:#231815;}.cls-1,.cls-2,.cls-3,.cls-4,.cls-5,.cls-6{stroke-miterlimit:10;}.cls-2,.cls-3,.cls-4,.cls-5,.cls-6,.cls-7{fill:none;}.cls-2,.cls-3,.cls-4,.cls-7{stroke:#040000;}.cls-3{stroke-dasharray:2 2;}.cls-4{stroke-dasharray:2.01 2.01;}.cls-5{stroke:#00a0e9;}.cls-6{stroke-dasharray:1;}.cls-7{stroke-linejoin:round;}.cls-8{fill:#040000;}.cls-9{font-size:20px;fill:#231815;font-family:NanumSquareRoundR, NanumSquareRound;}</style></defs><title>자산 46</title><g id="레이어_2" data-name="레이어 2"><g id="레이어_1-2" data-name="레이어 1"><path class="cls-1" d="M80.42,26.18h31.25s12.6,20.89,8.15,33.33c0,0-9.18,24.3-9.78,35.56,0,0,.72,17.48,10.73,32.29h-109c-8.44-15-9.31-26.64-9.31-26.64C.13,89,11.6,61.2,11.6,61.2,16.85,47,1,26.18,1,26.18H34.35v9.56H80.42V26.18h.85"/><line class="cls-2" x1="11.3" y1="43.75" x2="12.3" y2="43.75"/><line class="cls-3" x1="14.3" y1="43.75" x2="117.24" y2="43.75"/><line class="cls-2" x1="118.24" y1="43.75" x2="119.24" y2="43.75"/><line class="cls-2" x1="11.3" y1="60.75" x2="119.21" y2="60.75"/><line class="cls-2" x1="2.25" y1="93.96" x2="110.38" y2="93.96"/><line class="cls-2" x1="4.47" y1="110.95" x2="5.47" y2="110.95"/><line class="cls-4" x1="7.48" y1="110.95" x2="111.19" y2="110.95"/><line class="cls-2" x1="112.19" y1="110.95" x2="113.19" y2="110.95"/><path class="cls-5" d="M12.17,127.36A62.93,62.93,0,0,1,2,95.66c.6-11.26,9.78-35.55,9.78-35.55C16.27,47.66,1.34,26.18,1.34,26.18"/><path class="cls-5" d="M111.82,26.43s12.61,20.75,7.89,33.68c0,0-9,23.06-9.63,35.56a68.25,68.25,0,0,0,10.77,31.86"/><rect class="cls-6" x="34.35" y="26.43" width="46.07" height="9.31"/><line class="cls-7" x1="37.83" y1="19.26" x2="76.94" y2="19.26"/><polygon class="cls-8" points="38.27 20.75 35.68 19.25 38.27 17.76 38.27 20.75"/><polygon class="cls-8" points="76.5 20.75 79.09 19.25 76.5 17.76 76.5 20.75"/><line class="cls-7" x1="34.35" y1="23.27" x2="34.35" y2="17.48"/><line class="cls-7" x1="80.42" y1="23.27" x2="80.42" y2="17.48"/><text class="cls-9" transform="translate(50.79 16)">A</text><line class="cls-7" x1="24.47" y1="35.74" x2="31.76" y2="35.74"/><line class="cls-7" x1="26.63" y1="32.02" x2="26.63" y2="29.14"/><polygon class="cls-8" points="28.12 31.58 26.63 34.17 25.13 31.58 28.12 31.58"/><polygon class="cls-8" points="28.12 29.58 26.63 26.99 25.13 29.58 28.12 29.58"/><text class="cls-9" transform="translate(10.35 41.7)">B</text></g></g></svg>