<svg xmlns="http://www.w3.org/2000/svg" viewBox="0 0 140.7 127.96"><defs><style>.cls-1{fill:#fff;}.cls-1,.cls-6{stroke:#231815;}.cls-1,.cls-2,.cls-3,.cls-4,.cls-5,.cls-6,.cls-7{stroke-miterlimit:10;}.cls-2,.cls-3,.cls-4,.cls-5,.cls-6,.cls-7,.cls-8{fill:none;}.cls-2,.cls-3,.cls-4,.cls-8{stroke:#040000;}.cls-3{stroke-dasharray:2.03 2.03;}.cls-4{stroke-dasharray:2 2;}.cls-5{stroke:#00a0e9;}.cls-6,.cls-7{stroke-dasharray:1;}.cls-7{stroke:#1d2088;}.cls-8{stroke-linejoin:round;}.cls-9{fill:#040000;}.cls-10{font-size:20px;fill:#231815;font-family:NanumSquareRoundR, NanumSquareRound;}</style></defs><title>자산 37</title><g id="레이어_2" data-name="레이어 2"><g id="레이어_1-2" data-name="레이어 1"><path class="cls-1" d="M120.71,76.86v50.6H10S-2.55,106.57,1.89,94.12c0,0,9.19-24.29,9.78-35.55,0,0-.72-17.48-10.73-32.3H67.61V71.51h45.87Z"/><line class="cls-2" x1="120.71" y1="110.46" x2="119.71" y2="110.46"/><line class="cls-3" x1="117.67" y1="110.46" x2="4.8" y2="110.46"/><line class="cls-2" x1="3.78" y1="110.46" x2="2.78" y2="110.46"/><line class="cls-2" x1="120.71" y1="93.46" x2="2.14" y2="93.46"/><line class="cls-2" x1="67.18" y1="60.27" x2="11.67" y2="60.27"/><line class="cls-2" x1="120.71" y1="43.27" x2="119.71" y2="43.27"/><line class="cls-4" x1="117.71" y1="43.27" x2="10.85" y2="43.27"/><line class="cls-2" x1="9.85" y1="43.27" x2="8.85" y2="43.27"/><path class="cls-5" d="M10,127.46S-2.55,106.57,1.89,94.12c0,0,9.19-24.29,9.78-35.55A68.75,68.75,0,0,0,.94,26.27"/><polygon class="cls-6" points="67.61 26.27 67.61 71.47 113.24 71.47 120.71 76.86 120.71 26.27 67.61 26.27"/><path class="cls-7" d="M86,26.27,68.06,71.52a.17.17,0,0,1-.33,0L50.56,26.27"/><line class="cls-6" x1="120.71" y1="60.27" x2="67.61" y2="60.27"/><line class="cls-8" x1="71.08" y1="19.26" x2="117.23" y2="19.26"/><polygon class="cls-9" points="71.52 20.75 68.93 19.25 71.52 17.76 71.52 20.75"/><polygon class="cls-9" points="116.79 20.75 119.38 19.25 116.79 17.76 116.79 20.75"/><line class="cls-8" x1="67.6" y1="23.27" x2="67.6" y2="17.48"/><line class="cls-8" x1="120.72" y1="23.27" x2="120.72" y2="17.48"/><text class="cls-10" transform="translate(88.09 16)">B</text><line class="cls-8" x1="71.23" y1="81.32" x2="116.7" y2="81.32"/><polygon class="cls-9" points="71.66 82.81 69.07 81.32 71.66 79.82 71.66 82.81"/><polygon class="cls-9" points="116.26 82.81 118.85 81.32 116.26 79.82 116.26 82.81"/><line class="cls-8" x1="67.61" y1="83.61" x2="67.61" y2="74.44"/><text class="cls-10" transform="translate(85.03 101.3)">A</text><line class="cls-8" x1="116.02" y1="70.83" x2="127.72" y2="70.83"/><line class="cls-8" x1="122.93" y1="76.86" x2="127.72" y2="76.86"/><line class="cls-8" x1="125.95" y1="73.02" x2="125.95" y2="74.58"/><polygon class="cls-9" points="124.95 73.31 125.95 71.58 126.95 73.31 124.95 73.31"/><polygon class="cls-9" points="124.95 74.28 125.95 76.01 126.95 74.28 124.95 74.28"/><text class="cls-10" transform="translate(127.04 81.32)">D</text><text class="cls-10" transform="translate(44.11 71.64)">C</text><line class="cls-8" x1="63.82" y1="71.56" x2="57.82" y2="71.56"/><line class="cls-8" x1="59.59" y1="63" x2="59.59" y2="69.11"/><polygon class="cls-9" points="58.6 63.29 59.59 61.56 60.59 63.29 58.6 63.29"/><polygon class="cls-9" points="58.6 68.81 59.59 70.54 60.59 68.81 58.6 68.81"/></g></g></svg>