<svg xmlns="http://www.w3.org/2000/svg" viewBox="0 0 121.21 127.86"><defs><style>.cls-1{fill:#fff;}.cls-1,.cls-6{stroke:#231815;}.cls-1,.cls-2,.cls-3,.cls-4,.cls-5,.cls-6{stroke-miterlimit:10;}.cls-2,.cls-3,.cls-4,.cls-5,.cls-6,.cls-7{fill:none;}.cls-2,.cls-3,.cls-4,.cls-7{stroke:#040000;}.cls-3{stroke-dasharray:2.03 2.03;}.cls-4{stroke-dasharray:2 2;}.cls-5{stroke:#00a0e9;}.cls-6{stroke-dasharray:1;}.cls-7{stroke-linejoin:round;}.cls-8{fill:#040000;}.cls-9{font-size:20px;fill:#231815;font-family:NanumSquareRoundR, NanumSquareRound;}</style></defs><title>자산 48</title><g id="레이어_2" data-name="레이어 2"><g id="레이어_1-2" data-name="레이어 1"><path class="cls-1" d="M120.71,127.36H10S-2.55,106.48,1.89,94c0,0,9.19-24.29,9.78-35.55,0,0-.72-17.49-10.73-32.3H104.69l16,13.94Z"/><line class="cls-2" x1="120.71" y1="110.36" x2="119.71" y2="110.36"/><line class="cls-3" x1="117.67" y1="110.36" x2="4.8" y2="110.36"/><line class="cls-2" x1="3.78" y1="110.36" x2="2.78" y2="110.36"/><line class="cls-2" x1="120.71" y1="93.36" x2="2.14" y2="93.36"/><line class="cls-2" x1="120.71" y1="60.18" x2="11.67" y2="60.18"/><line class="cls-2" x1="120.71" y1="43.18" x2="119.71" y2="43.18"/><line class="cls-4" x1="117.71" y1="43.18" x2="10.85" y2="43.18"/><line class="cls-2" x1="9.85" y1="43.18" x2="8.85" y2="43.18"/><path class="cls-5" d="M10,127.36S-2.55,106.48,1.89,94c0,0,9.19-24.29,9.78-35.55A68.75,68.75,0,0,0,.94,26.18"/><polygon class="cls-6" points="120.71 40.12 104.69 26.18 120.71 26.18 120.71 40.12"/><line class="cls-7" x1="108.18" y1="19.26" x2="117.22" y2="19.26"/><polygon class="cls-8" points="108.62 20.75 106.03 19.25 108.62 17.76 108.62 20.75"/><polygon class="cls-8" points="116.78 20.75 119.37 19.25 116.78 17.76 116.78 20.75"/><line class="cls-7" x1="104.69" y1="23.27" x2="104.69" y2="17.48"/><line class="cls-7" x1="120.71" y1="23.27" x2="120.71" y2="17.48"/><text class="cls-9" transform="translate(106.1 16)">A</text><line class="cls-7" x1="98.41" y1="40.08" x2="115.71" y2="40.08"/><line class="cls-7" x1="100.57" y1="36.36" x2="100.57" y2="29.14"/><polygon class="cls-8" points="102.06 35.92 100.57 38.51 99.07 35.92 102.06 35.92"/><polygon class="cls-8" points="102.06 29.58 100.57 26.99 99.07 29.58 102.06 29.58"/><text class="cls-9" transform="translate(84.66 41.7)">B</text></g></g></svg>