<svg xmlns="http://www.w3.org/2000/svg" viewBox="0 0 121.71 102.19"><defs><style>.cls-1{fill:#f8f9f9;stroke:#231815;}.cls-1,.cls-10,.cls-11,.cls-12,.cls-2,.cls-3,.cls-4,.cls-5{stroke-miterlimit:10;}.cls-10,.cls-11,.cls-12,.cls-2,.cls-3,.cls-4,.cls-5,.cls-6,.cls-8{fill:none;}.cls-2,.cls-3,.cls-4,.cls-6,.cls-8{stroke:#040000;}.cls-3{stroke-dasharray:2 2;}.cls-4{stroke-dasharray:2.01 2.01;}.cls-5{stroke:#00a0e9;}.cls-6,.cls-8{stroke-linejoin:round;}.cls-6{stroke-width:0.8px;}.cls-7{fill:#040000;}.cls-9{font-size:20px;fill:#231815;font-family:NanumSquareRoundR, NanumSquareRound;}.cls-10,.cls-11,.cls-12{stroke:#e60012;stroke-width:0.4px;}.cls-11{stroke-dasharray:1.01 1.01;}.cls-12{stroke-dasharray:1.02 1.02;}.cls-13{fill:#0768ac;}.cls-14{fill:#e71f19;}</style></defs><title>자산 5</title><g id="레이어_2" data-name="레이어 2"><g id="레이어_1-2" data-name="레이어 1"><path class="cls-1" d="M11.74,101.69h109c-10-14.82-10.73-32.3-10.73-32.3.6-11.26,9.78-35.56,9.78-35.56C124.27,21.39,111.67.5,111.67.5H1s15.84,20.85,10.59,35c0,0-11.47,27.83-9.17,39.52C2.43,75,3.3,86.63,11.74,101.69Z"/><line class="cls-2" x1="11.3" y1="18.07" x2="12.3" y2="18.07"/><line class="cls-3" x1="14.3" y1="18.07" x2="117.24" y2="18.07"/><line class="cls-2" x1="118.24" y1="18.07" x2="119.24" y2="18.07"/><line class="cls-2" x1="11.3" y1="35.07" x2="119.21" y2="35.07"/><line class="cls-2" x1="2.25" y1="68.28" x2="110.38" y2="68.28"/><line class="cls-2" x1="4.47" y1="85.27" x2="5.47" y2="85.27"/><line class="cls-4" x1="7.48" y1="85.27" x2="111.19" y2="85.27"/><line class="cls-2" x1="112.19" y1="85.27" x2="113.19" y2="85.27"/><path class="cls-5" d="M12.17,101.69A63,63,0,0,1,2,70c.6-11.26,9.78-35.55,9.78-35.55C16.27,22,1.34.5,1.34.5"/><path class="cls-5" d="M111.82.75s12.61,20.75,7.89,33.68c0,0-9,23.06-9.63,35.56a68.25,68.25,0,0,0,10.77,31.86"/><line class="cls-6" x1="59.41" y1="24.84" x2="60.96" y2="24.84"/><polygon class="cls-7" points="59.76 26.04 57.69 24.84 59.76 23.65 59.76 26.04"/><polygon class="cls-7" points="60.61 26.04 62.68 24.84 60.61 23.65 60.61 26.04"/><line class="cls-8" x1="57.01" y1="27.14" x2="57.01" y2="16.35"/><line class="cls-8" x1="63.36" y1="27.14" x2="63.36" y2="16.35"/><text class="cls-9" transform="translate(53.62 43.15)">A</text><line class="cls-8" x1="70.52" y1="15.24" x2="64.73" y2="15.24"/><line class="cls-8" x1="70.52" y1="8.74" x2="64.73" y2="8.74"/><line class="cls-6" x1="68.74" y1="12.66" x2="68.74" y2="11.22"/><polygon class="cls-7" points="69.94 12.31 68.74 14.38 67.54 12.31 69.94 12.31"/><polygon class="cls-7" points="69.94 11.57 68.74 9.5 67.54 11.57 69.94 11.57"/><text class="cls-9" transform="translate(71.32 17)">C</text><line class="cls-8" x1="48.88" y1="8.91" x2="55.41" y2="8.91"/><line class="cls-8" x1="50.98" y1="6" x2="50.98" y2="3.39"/><polygon class="cls-7" points="52.48 5.57 50.98 8.16 49.49 5.57 52.48 5.57"/><polygon class="cls-7" points="52.48 3.83 50.98 1.23 49.49 3.83 52.48 3.83"/><text class="cls-9" transform="translate(35.88 16.08)">B</text><line class="cls-10" x1="57.12" y1="8.99" x2="57.62" y2="8.99"/><line class="cls-11" x1="58.63" y1="8.99" x2="62.17" y2="8.99"/><polyline class="cls-10" points="62.67 8.99 63.17 8.99 63.17 9.49"/><line class="cls-12" x1="63.17" y1="10.51" x2="63.17" y2="14.08"/><line class="cls-10" x1="63.17" y1="14.59" x2="63.17" y2="15.09"/><rect class="cls-13" x="55.92" y="11.71" width="8.45" height="0.46" transform="translate(94.24 62.91) rotate(-135)"/><circle class="cls-14" cx="57.12" cy="8.91" r="0.55"/></g></g></svg>