<?xml version="1.0" encoding="UTF-8" standalone="no"?>
<svg
   width="142.37"
   height="102.19"
   version="1.1"
   viewBox="0 0 142.37 102.19"
   id="svg98"
   sodipodi:docname="HB102.svg"
   inkscape:version="1.1 (c68e22c387, 2021-05-23)"
   xmlns:inkscape="http://www.inkscape.org/namespaces/inkscape"
   xmlns:sodipodi="http://sodipodi.sourceforge.net/DTD/sodipodi-0.dtd"
   xmlns="http://www.w3.org/2000/svg"
   xmlns:svg="http://www.w3.org/2000/svg"
   xmlns:rdf="http://www.w3.org/1999/02/22-rdf-syntax-ns#"
   xmlns:cc="http://creativecommons.org/ns#"
   xmlns:dc="http://purl.org/dc/elements/1.1/">
  <sodipodi:namedview
     id="namedview100"
     pagecolor="#ffffff"
     bordercolor="#666666"
     borderopacity="1.0"
     inkscape:pageshadow="2"
     inkscape:pageopacity="0.0"
     inkscape:pagecheckerboard="0"
     showgrid="false"
     inkscape:zoom="5.4583858"
     inkscape:cx="69.068038"
     inkscape:cy="55.144508"
     inkscape:window-width="1920"
     inkscape:window-height="1058"
     inkscape:window-x="-8"
     inkscape:window-y="636"
     inkscape:window-maximized="1"
     inkscape:current-layer="svg98" />
  <defs
     id="defs4">
    <style
       id="style2">.cls-1{fill:#f8f9f9;}.cls-1,.cls-2,.cls-3,.cls-4,.cls-7{stroke:#040000;}.cls-1,.cls-2,.cls-3,.cls-4,.cls-5,.cls-6{stroke-miterlimit:10;}.cls-2,.cls-3,.cls-4,.cls-5,.cls-6,.cls-7{fill:none;}.cls-3{stroke-dasharray:2.03 2.03;}.cls-4{stroke-dasharray:2 2;}.cls-5{stroke:#00a0e9;}.cls-6{stroke:#231815;stroke-dasharray:1;}.cls-7{stroke-linejoin:round;}.cls-8{fill:#040000;}.cls-9{font-size:20px;fill:#231815;font-family:NanumSquareRoundR, NanumSquareRound;}</style>
  </defs>
  <title
     id="title6">HB102</title>
  <g
     transform="translate(21.169)"
     data-name="레이어 1"
     id="g94">
    <path
       class="cls-1"
       d="M 119.07,34.5 H 0.5 v 67.19 h 119.76 c -10,-14.82 -10.72,-32.3 -10.72,-32.3 0.59,-11.26 9.77,-35.56 9.77,-35.56 C 123.76,21.39 111.17,0.5 111.17,0.5 H 0.5 l 0.07,25.52 h 27.5 v 8.2"
       id="path8" />
    <line
       class="cls-2"
       x1="0.5"
       x2="1.5"
       y1="17.5"
       y2="17.5"
       id="line10" />
    <line
       class="cls-3"
       x1="3.53"
       x2="116.41"
       y1="17.5"
       y2="17.5"
       id="line12" />
    <line
       class="cls-2"
       x1="117.43"
       x2="118.43"
       y1="17.5"
       y2="17.5"
       id="line14" />
    <line
       class="cls-2"
       x1="0.5"
       x2="109.54"
       y1="67.690002"
       y2="67.690002"
       id="line16" />
    <line
       class="cls-2"
       x1="0.5"
       x2="1.5"
       y1="84.690002"
       y2="84.690002"
       id="line18" />
    <line
       class="cls-4"
       x1="3.5"
       x2="110.36"
       y1="84.690002"
       y2="84.690002"
       id="line20" />
    <line
       class="cls-2"
       x1="111.36"
       x2="112.36"
       y1="84.690002"
       y2="84.690002"
       id="line22" />
    <path
       class="cls-5"
       d="m 111.17,0.5 c 0,0 12.59,20.89 8.14,33.33 0,0 -9.18,24.3 -9.77,35.56 a 68.84,68.84 0 0 0 10.72,32.3"
       id="path24" />
    <text
       class="cls-9"
       x="40.240002"
       y="33.128075"
       fill="#231815"
       font-family="NanumSquareRoundR, NanumSquareRound"
       font-size="20px"
       style="font-variant-ligatures:normal;font-variant-caps:normal;font-variant-numeric:normal;font-variant-east-asian:normal"
       id="text28"><tspan
         x="40.240002"
         y="33.128075"
         id="tspan26">C</tspan></text>
    <line
       class="cls-7"
       x1="4.25"
       x2="24.59"
       y1="44.619999"
       y2="44.619999"
       id="line30" />
    <polygon
       class="cls-8"
       points="2.09,44.62 4.68,43.12 4.68,46.11 "
       id="polygon32" />
    <polygon
       class="cls-8"
       points="26.74,44.62 24.15,43.12 24.15,46.11 "
       id="polygon34" />
    <line
       class="cls-7"
       x1="28.07"
       x2="28.07"
       y1="36.599998"
       y2="46.389999"
       id="line36" />
    <text
       class="cls-9"
       transform="translate(7.69,62.6)"
       id="text38">A</text>
    <g
       fill="none"
       id="g46">
      <rect
         class="cls-6"
         transform="scale(1,-1)"
         x="0.56999999"
         y="-34.220001"
         width="27.5"
         height="8.1999998"
         stroke="#231815"
         stroke-dasharray="1"
         stroke-miterlimit="10"
         stroke-width="0.79905"
         id="rect40" />
      <line
         class="cls-7"
         x1="37.939999"
         x2="31.65"
         y1="25.813999"
         y2="25.813999"
         stroke="#040000"
         stroke-linejoin="round"
         id="line42" />
      <line
         class="cls-7"
         x1="35.779999"
         x2="35.779999"
         y1="28.718"
         y2="31.16"
         stroke="#040000"
         stroke-linejoin="round"
         stroke-width="0.62657"
         id="line44" />
    </g>
    <polygon
       class="cls-8"
       transform="matrix(1,0,0,-1,0.17048,64.3)"
       points="35.61,37.51 34.11,34.92 37.1,34.92 "
       fill="#040000"
       id="polygon48" />
    <polygon
       class="cls-8"
       transform="matrix(1,0,0,-1,0.17048,60.3)"
       points="34.11,29.58 37.1,29.58 35.61,26.99 "
       fill="#040000"
       id="polygon50" />
    <g
       fill="none"
       stroke="#040000"
       stroke-linejoin="round"
       id="g58">
      <line
         class="cls-7"
         x1="-9.2489996"
         x2="-2.9590001"
         y1="25.969999"
         y2="25.969999"
         id="line52" />
      <line
         class="cls-7"
         x1="-9.2667999"
         x2="-2.9768"
         y1="34.301998"
         y2="34.301998"
         id="line54" />
      <line
         class="cls-7"
         x1="-7.0890002"
         x2="-7.0890002"
         y1="28.874001"
         y2="31.316"
         stroke-width="0.62657"
         id="line56" />
    </g>
    <polygon
       class="cls-8"
       transform="rotate(180,14.261,32.228)"
       points="35.61,37.51 34.11,34.92 37.1,34.92 "
       fill="#040000"
       id="polygon60" />
    <polygon
       class="cls-8"
       transform="rotate(180,14.261,30.228)"
       points="34.11,29.58 37.1,29.58 35.61,26.99 "
       fill="#040000"
       id="polygon62" />
    <line
       class="cls-7"
       x1="-9.2146997"
       x2="-2.9247"
       y1="21.124001"
       y2="21.124001"
       fill="none"
       stroke="#040000"
       stroke-linejoin="round"
       id="line64" />
    <line
       class="cls-7"
       x1="-7.0732999"
       x2="-7.0732999"
       y1="22.43"
       y2="24.884001"
       fill="none"
       stroke="#040000"
       stroke-linejoin="round"
       stroke-width="0.39969"
       id="line66" />
    <polygon
       class="cls-8"
       transform="matrix(-1,0,0,-0.51581,28.555,39.343)"
       points="37.1,29.58 35.61,26.99 34.11,29.58 "
       fill="#040000"
       id="polygon68" />
    <polygon
       class="cls-8"
       transform="matrix(-1,0,0,0.51581,28.557,7.7881)"
       points="37.1,29.58 35.61,26.99 34.11,29.58 "
       fill="#040000"
       id="polygon70" />
    <text
       class="cls-9"
       x="-23.062794"
       y="40.442604"
       fill="#231815"
       font-family="NanumSquareRoundR, NanumSquareRound"
       font-size="20px"
       style="font-variant-ligatures:normal;font-variant-caps:normal;font-variant-numeric:normal;font-variant-east-asian:normal"
       id="text74"><tspan
         x="-23.062794"
         y="40.442604"
         id="tspan72">B</tspan></text>
    <text
       class="cls-9"
       transform="scale(1,-1)"
       x="-23.088619"
       y="-10.673856"
       fill="#231815"
       font-family="NanumSquareRoundR, NanumSquareRound"
       font-size="20px"
       style="font-variant-ligatures:normal;font-variant-caps:normal;font-variant-numeric:normal;font-variant-east-asian:normal"
       id="text78"><tspan
         x="-23.088619"
         y="-10.673856"
         id="tspan76">D</tspan></text>
    <g
       fill="#000080"
       stroke="#000000"
       stroke-miterlimit="1"
       id="g92">
      <path
         d="m 0.67988,21.054 c 4.6695,4.8393 4.6695,4.9242 4.6695,4.9242"
         stroke-dasharray="1, 1"
         id="path80" />
      <g
         stroke-dasharray="0.0212251, 0.0212251"
         stroke-width="0.021225"
         id="g90">
        <path
           d="m 2.0722,22.506 -0.34809,0.33681 0.67406,0.70187 0.33878,-0.32324 C 2.92328,23.04366 3.07876,22.8891 3.08246,22.87799 3.08616,22.86688 2.93869,22.70285 2.75474,22.51349 L 2.42029,22.1692 Z"
           id="path82" />
        <path
           d="m 3.453,23.955 c -0.33688,0.31855 -0.34002,0.32236 -0.30372,0.36851 0.02017,0.02564 0.17006,0.18616 0.33308,0.35671 l 0.2964,0.31008 0.70367,-0.67213 -0.32726,-0.34252 c -0.18,-0.18839 -0.33503,-0.34252 -0.34452,-0.34252 -0.0095,0 -0.17043,0.14485 -0.35765,0.32188 z"
           id="path84" />
        <path
           d="m 4.8417,25.391 c -0.18582,0.17155 -0.34202,0.32444 -0.34712,0.33976 -0.0051,0.01532 0.05157,0.09173 0.12592,0.1698 0.07435,0.07807 0.18046,0.19319 0.2358,0.25581 l 0.10063,0.11386 0.0766,-0.0608 c 0.04213,-0.03344 0.12888,-0.10139 0.19277,-0.151 L 5.34247,25.96822 H 5.84708 L 5.83393,25.89924 C 5.80923,25.76965 5.74226,25.67332 5.47319,25.3804 5.32515,25.21924 5.19852,25.08552 5.19179,25.08324 5.18509,25.08094 5.02751,25.21945 4.84169,25.391 Z"
           id="path86" />
        <path
           d="m 0.69407,21.055 c -0.18875,0.18326 -0.34318,0.34055 -0.34318,0.34954 0,0.009 0.1489,0.17022 0.33089,0.3583 l 0.33089,0.34196 0.34814,-0.3341 c 0.19148,-0.18375 0.34583,-0.33988 0.34301,-0.34695 -0.0028,-0.0071 -0.15396,-0.1679 -0.33585,-0.3574 L 1.03725,20.72181 Z"
           id="path88" />
      </g>
    </g>
  </g>
  <metadata
     id="metadata96">
    <rdf:RDF>
      <cc:Work
         rdf:about="">
        <dc:title>HB102</dc:title>
      </cc:Work>
    </rdf:RDF>
  </metadata>
</svg>
