<svg xmlns="http://www.w3.org/2000/svg" viewBox="0 0 121.21 102.2"><defs><style>.cls-1,.cls-3,.cls-4,.cls-5,.cls-6,.cls-7{fill:none;}.cls-1,.cls-2{stroke:#231815;}.cls-1,.cls-2,.cls-3,.cls-4,.cls-5,.cls-6{stroke-miterlimit:10;}.cls-1{stroke-dasharray:1;}.cls-2{fill:#fff;}.cls-3,.cls-4,.cls-5,.cls-7{stroke:#040000;}.cls-4{stroke-dasharray:2.03 2.03;}.cls-5{stroke-dasharray:2 2;}.cls-6{stroke:#00a0e9;}.cls-7{stroke-linejoin:round;}.cls-8{fill:#040000;}.cls-9{font-size:20px;fill:#231815;font-family:NanumSquareRoundR, NanumSquareRound;}</style></defs><title>자산 55</title><g id="레이어_2" data-name="레이어 2"><g id="레이어_1-2" data-name="레이어 1"><polygon class="cls-1" points="0.64 20.32 16.65 34.26 0.64 34.26 0.64 20.32"/><path class="cls-2" d="M119.07,34.52,16.51,34.26H.5V101.7H120.26c-10-14.81-10.72-32.29-10.72-32.29.59-11.26,9.77-35.56,9.77-35.56C123.76,21.41,111.17.52,111.17.52H.5V20.17l16.27,14.2"/><line class="cls-3" x1="0.64" y1="17.26" x2="1.64" y2="17.26"/><line class="cls-4" x1="3.67" y1="17.26" x2="116.55" y2="17.26"/><line class="cls-3" x1="117.56" y1="17.26" x2="118.56" y2="17.26"/><line class="cls-3" x1="0.64" y1="67.44" x2="109.67" y2="67.44"/><line class="cls-3" x1="0.64" y1="84.44" x2="1.64" y2="84.44"/><line class="cls-5" x1="3.63" y1="84.44" x2="110.49" y2="84.44"/><line class="cls-3" x1="111.49" y1="84.44" x2="112.49" y2="84.44"/><path class="cls-6" d="M111.3.26s12.59,20.89,8.15,33.33c0,0-9.18,24.3-9.78,35.56a68.87,68.87,0,0,0,10.73,32.29"/><line class="cls-7" x1="4.12" y1="44.04" x2="13.16" y2="44.04"/><polygon class="cls-8" points="4.56 45.54 1.97 44.04 4.56 42.55 4.56 45.54"/><polygon class="cls-8" points="12.73 45.54 15.32 44.04 12.73 42.55 12.73 45.54"/><line class="cls-7" x1="16.65" y1="36.03" x2="16.65" y2="45.82"/><text class="cls-9" transform="translate(2.15 62.03)">A</text><line class="cls-7" x1="27.44" y1="20.32" x2="17.65" y2="20.32"/><line class="cls-7" x1="25.34" y1="30.92" x2="25.34" y2="23.62"/><polygon class="cls-8" points="26.84 30.48 25.34 33.08 23.85 30.48 26.84 30.48"/><polygon class="cls-8" points="26.84 24.06 25.34 21.47 23.85 24.06 26.84 24.06"/><text class="cls-9" transform="translate(27.62 33.07)">B</text></g></g></svg>