<svg xmlns="http://www.w3.org/2000/svg" viewBox="0 0 121.21 102.19"><defs><style>.cls-1{fill:#fff;}.cls-1,.cls-6{stroke:#231815;}.cls-1,.cls-2,.cls-3,.cls-4,.cls-5,.cls-6{stroke-miterlimit:10;}.cls-2,.cls-3,.cls-4,.cls-5,.cls-6,.cls-7{fill:none;}.cls-2,.cls-3,.cls-4,.cls-7{stroke:#040000;}.cls-3{stroke-dasharray:2.03 2.03;}.cls-4{stroke-dasharray:2 2;}.cls-5{stroke:#00a0e9;}.cls-6{stroke-dasharray:1;}.cls-7{stroke-linejoin:round;}.cls-8{fill:#040000;}.cls-9{font-size:20px;fill:#231815;font-family:NanumSquareRoundR, NanumSquareRound;}</style></defs><title>자산 45</title><g id="레이어_2" data-name="레이어 2"><g id="레이어_1-2" data-name="레이어 1"><path class="cls-1" d="M120.71,34.5v67.19H10S-2.55,80.8,1.89,68.35c0,0,9.19-24.29,9.78-35.55C11.67,32.8,11,15.31.94.5H120.71V20.56l-16,13.94"/><line class="cls-2" x1="120.71" y1="84.69" x2="119.71" y2="84.69"/><line class="cls-3" x1="117.67" y1="84.69" x2="4.8" y2="84.69"/><line class="cls-2" x1="3.78" y1="84.69" x2="2.78" y2="84.69"/><line class="cls-2" x1="120.71" y1="67.69" x2="2.14" y2="67.69"/><polyline class="cls-2" points="11.67 34.5 120.71 34.5 120.71 35.85"/><line class="cls-2" x1="120.71" y1="17.5" x2="119.71" y2="17.5"/><line class="cls-4" x1="117.71" y1="17.5" x2="10.85" y2="17.5"/><line class="cls-2" x1="9.85" y1="17.5" x2="8.85" y2="17.5"/><path class="cls-5" d="M10,101.69S-2.55,80.8,1.89,68.35c0,0,9.19-24.29,9.78-35.55A68.75,68.75,0,0,0,.94.5"/><polygon class="cls-6" points="120.71 20.56 104.69 34.5 120.71 34.5 120.71 20.56"/><line class="cls-7" x1="108.18" y1="42.27" x2="117.22" y2="42.27"/><polygon class="cls-8" points="108.62 43.77 106.03 42.27 108.62 40.77 108.62 43.77"/><polygon class="cls-8" points="116.78 43.77 119.37 42.27 116.78 40.77 116.78 43.77"/><line class="cls-7" x1="104.69" y1="36.26" x2="104.69" y2="44.05"/><text class="cls-9" transform="translate(106.1 59.45)">A</text><line class="cls-7" x1="95.92" y1="20.56" x2="104.71" y2="20.56"/><line class="cls-7" x1="98.01" y1="31.16" x2="98.01" y2="23.86"/><polygon class="cls-8" points="99.51 30.73 98.01 33.32 96.52 30.73 99.51 30.73"/><polygon class="cls-8" points="99.51 24.3 98.01 21.71 96.52 24.3 99.51 24.3"/><text class="cls-9" transform="translate(80.82 33.32)">B</text></g></g></svg>