<svg xmlns="http://www.w3.org/2000/svg" viewBox="0 0 121.71 102.19"><defs><style>.cls-1{fill:#f8f9f9;stroke:#231815;}.cls-1,.cls-10,.cls-11,.cls-12,.cls-2,.cls-3,.cls-4,.cls-5{stroke-miterlimit:10;}.cls-10,.cls-11,.cls-12,.cls-2,.cls-3,.cls-4,.cls-5,.cls-6,.cls-9{fill:none;}.cls-2,.cls-3,.cls-4,.cls-6,.cls-9{stroke:#040000;}.cls-3{stroke-dasharray:2 2;}.cls-4{stroke-dasharray:2.01 2.01;}.cls-5{stroke:#00a0e9;}.cls-6,.cls-9{stroke-linejoin:round;}.cls-7{fill:#040000;}.cls-8{font-size:20px;fill:#231815;font-family:NanumSquareRoundR, NanumSquareRound;}.cls-9{stroke-width:0.8px;}.cls-10,.cls-11,.cls-12{stroke:#e60012;stroke-width:0.4px;}.cls-11{stroke-dasharray:1.05 1.05;}.cls-12{stroke-dasharray:0.93 0.93;}.cls-13{fill:#0768ac;}.cls-14{fill:#e71f19;}</style></defs><title>자산 7</title><g id="레이어_2" data-name="레이어 2"><g id="레이어_1-2" data-name="레이어 1"><path class="cls-1" d="M11.74,101.69h109c-10-14.82-10.73-32.3-10.73-32.3.6-11.26,9.78-35.56,9.78-35.56C124.27,21.39,111.67.5,111.67.5H1s15.84,20.85,10.59,35c0,0-11.47,27.83-9.17,39.52C2.43,75,3.3,86.63,11.74,101.69Z"/><line class="cls-2" x1="11.3" y1="18.07" x2="12.3" y2="18.07"/><line class="cls-3" x1="14.3" y1="18.07" x2="117.24" y2="18.07"/><line class="cls-2" x1="118.24" y1="18.07" x2="119.24" y2="18.07"/><line class="cls-2" x1="11.3" y1="35.07" x2="119.21" y2="35.07"/><line class="cls-2" x1="2.25" y1="68.28" x2="110.38" y2="68.28"/><line class="cls-2" x1="4.47" y1="85.27" x2="5.47" y2="85.27"/><line class="cls-4" x1="7.48" y1="85.27" x2="111.19" y2="85.27"/><line class="cls-2" x1="112.19" y1="85.27" x2="113.19" y2="85.27"/><path class="cls-5" d="M12.17,101.69A63,63,0,0,1,2,70c.6-11.26,9.78-35.55,9.78-35.55C16.27,22,1.34.5,1.34.5"/><path class="cls-5" d="M111.82.75s12.61,20.75,7.89,33.68c0,0-9,23.06-9.63,35.56a68.25,68.25,0,0,0,10.77,31.86"/><line class="cls-6" x1="64.3" y1="57.57" x2="67.37" y2="57.57"/><polygon class="cls-7" points="64.74 59.06 62.15 57.57 64.74 56.07 64.74 59.06"/><polygon class="cls-7" points="66.93 59.06 69.52 57.57 66.93 56.07 66.93 59.06"/><line class="cls-6" x1="61.27" y1="59.86" x2="61.27" y2="54.07"/><line class="cls-6" x1="70.33" y1="59.86" x2="70.33" y2="54.07"/><text class="cls-8" transform="translate(59.33 76.36)">A</text><line class="cls-6" x1="60.14" y1="52.96" x2="54.35" y2="52.96"/><line class="cls-6" x1="60.14" y1="46.47" x2="54.35" y2="46.47"/><line class="cls-9" x1="56.12" y1="50.38" x2="56.12" y2="48.94"/><polygon class="cls-7" points="57.32 50.03 56.12 52.1 54.93 50.03 57.32 50.03"/><polygon class="cls-7" points="57.32 49.3 56.12 47.22 54.93 49.3 57.32 49.3"/><text class="cls-8" transform="translate(39.67 56.12)">C</text><line class="cls-6" x1="78.27" y1="46.5" x2="71.99" y2="46.5"/><line class="cls-6" x1="76.11" y1="38.09" x2="76.11" y2="43.5"/><polygon class="cls-7" points="74.62 38.52 76.11 35.93 77.61 38.52 74.62 38.52"/><polygon class="cls-7" points="74.62 43.06 76.11 45.65 77.61 43.06 74.62 43.06"/><text class="cls-8" transform="translate(78.54 51.3)">B</text><line class="cls-10" x1="70.48" y1="46.54" x2="70.48" y2="47.04"/><line class="cls-11" x1="70.48" y1="48.09" x2="70.48" y2="51.78"/><polyline class="cls-10" points="70.48 52.31 70.48 52.81 69.98 52.81"/><line class="cls-12" x1="69.05" y1="52.81" x2="62.11" y2="52.81"/><line class="cls-10" x1="61.65" y1="52.81" x2="61.15" y2="52.81"/><polygon class="cls-13" points="70.68 46.74 61.49 52.94 61.16 52.6 70.35 46.41 70.68 46.74"/><circle class="cls-14" cx="70.55" cy="46.62" r="0.57"/></g></g></svg>