<svg xmlns="http://www.w3.org/2000/svg" viewBox="0 0 121.71 102.19"><defs><style>.cls-1{fill:#f8f9f9;stroke:#231815;}.cls-1,.cls-10,.cls-11,.cls-12,.cls-2,.cls-3,.cls-4,.cls-5{stroke-miterlimit:10;}.cls-10,.cls-11,.cls-12,.cls-2,.cls-3,.cls-4,.cls-5,.cls-6,.cls-8{fill:none;}.cls-2,.cls-3,.cls-4,.cls-6,.cls-8{stroke:#040000;}.cls-3{stroke-dasharray:2 2;}.cls-4{stroke-dasharray:2.01 2.01;}.cls-5{stroke:#00a0e9;}.cls-6,.cls-8{stroke-linejoin:round;}.cls-6{stroke-width:0.8px;}.cls-7{fill:#040000;}.cls-9{font-size:20px;fill:#231815;font-family:NanumSquareRoundR, NanumSquareRound;}.cls-10,.cls-11,.cls-12{stroke:#e60012;stroke-width:0.4px;}.cls-11{stroke-dasharray:1.01 1.01;}.cls-12{stroke-dasharray:1.02 1.02;}.cls-13{fill:#0768ac;}.cls-14{fill:#e71f19;}</style></defs><title>자산 4</title><g id="레이어_2" data-name="레이어 2"><g id="레이어_1-2" data-name="레이어 1"><path class="cls-1" d="M11.74,101.69h109c-10-14.82-10.73-32.3-10.73-32.3.6-11.26,9.78-35.56,9.78-35.56C124.27,21.39,111.67.5,111.67.5H1s15.84,20.85,10.59,35c0,0-11.47,27.83-9.17,39.52C2.43,75,3.3,86.63,11.74,101.69Z"/><line class="cls-2" x1="11.3" y1="18.07" x2="12.3" y2="18.07"/><line class="cls-3" x1="14.3" y1="18.07" x2="117.24" y2="18.07"/><line class="cls-2" x1="118.24" y1="18.07" x2="119.24" y2="18.07"/><line class="cls-2" x1="11.3" y1="35.07" x2="119.21" y2="35.07"/><line class="cls-2" x1="2.25" y1="68.28" x2="110.38" y2="68.28"/><line class="cls-2" x1="4.47" y1="85.27" x2="5.47" y2="85.27"/><line class="cls-4" x1="7.48" y1="85.27" x2="111.19" y2="85.27"/><line class="cls-2" x1="112.19" y1="85.27" x2="113.19" y2="85.27"/><path class="cls-5" d="M12.17,101.69A63,63,0,0,1,2,70c.6-11.26,9.78-35.55,9.78-35.55C16.27,22,1.34.5,1.34.5"/><path class="cls-5" d="M111.82.75s12.61,20.75,7.89,33.68c0,0-9,23.06-9.63,35.56a68.25,68.25,0,0,0,10.77,31.86"/><line class="cls-6" x1="59.41" y1="57.75" x2="60.96" y2="57.75"/><polygon class="cls-7" points="59.76 58.95 57.69 57.75 59.76 56.55 59.76 58.95"/><polygon class="cls-7" points="60.61 58.95 62.68 57.75 60.61 56.55 60.61 58.95"/><line class="cls-8" x1="57.01" y1="60.04" x2="57.01" y2="54.25"/><line class="cls-8" x1="63.36" y1="60.04" x2="63.36" y2="54.25"/><text class="cls-9" transform="translate(53.62 76.36)">A</text><line class="cls-8" x1="70.52" y1="53.14" x2="64.73" y2="53.14"/><line class="cls-8" x1="70.52" y1="46.65" x2="64.73" y2="46.65"/><line class="cls-6" x1="68.74" y1="50.56" x2="68.74" y2="49.12"/><polygon class="cls-7" points="69.94 50.21 68.74 52.28 67.54 50.21 69.94 50.21"/><polygon class="cls-7" points="69.94 49.48 68.74 47.4 67.54 49.48 69.94 49.48"/><text class="cls-9" transform="translate(71.8 57.15)">C</text><line class="cls-8" x1="48.88" y1="46.82" x2="55.41" y2="46.82"/><line class="cls-8" x1="50.98" y1="43.91" x2="50.98" y2="38.29"/><polygon class="cls-7" points="52.48 43.47 50.98 46.06 49.49 43.47 52.48 43.47"/><polygon class="cls-7" points="52.48 38.73 50.98 36.14 49.49 38.73 52.48 38.73"/><text class="cls-9" transform="translate(34.66 51.3)">B</text><line class="cls-10" x1="57.12" y1="46.89" x2="57.62" y2="46.89"/><line class="cls-11" x1="58.63" y1="46.89" x2="62.17" y2="46.89"/><polyline class="cls-10" points="62.67 46.89 63.17 46.89 63.17 47.39"/><line class="cls-12" x1="63.17" y1="48.41" x2="63.17" y2="51.99"/><line class="cls-10" x1="63.17" y1="52.5" x2="63.17" y2="53"/><rect class="cls-13" x="55.92" y="49.61" width="8.45" height="0.46" transform="translate(67.44 127.61) rotate(-135)"/><circle class="cls-14" cx="57.12" cy="46.82" r="0.55"/></g></g></svg>