<svg xmlns="http://www.w3.org/2000/svg" viewBox="0 0 121.71 102.19"><defs><style>.cls-1{fill:#f8f9f9;stroke:#231815;}.cls-1,.cls-2,.cls-3,.cls-4,.cls-5,.cls-6{stroke-miterlimit:10;}.cls-2,.cls-3,.cls-4,.cls-5,.cls-6,.cls-7{fill:none;}.cls-2,.cls-3,.cls-4,.cls-7{stroke:#040000;}.cls-3{stroke-dasharray:2 2;}.cls-4{stroke-dasharray:2.01 2.01;}.cls-5{stroke:#00a0e9;}.cls-6{stroke:#0768ac;stroke-dasharray:1;}.cls-7{stroke-linejoin:round;}.cls-8{fill:#040000;}.cls-9{font-size:20px;fill:#231815;font-family:NanumSquareRoundR, NanumSquareRound;}.cls-10{fill:#e71f19;}</style></defs><title>자산 27</title><g id="레이어_2" data-name="레이어 2"><g id="레이어_1-2" data-name="레이어 1"><path class="cls-1" d="M11.74,101.69h109c-10-14.82-10.73-32.3-10.73-32.3.6-11.26,9.78-35.56,9.78-35.56C124.27,21.39,111.67.5,111.67.5H1s15.84,20.85,10.59,35c0,0-11.47,27.83-9.17,39.52C2.43,75,3.3,86.63,11.74,101.69Z"/><line class="cls-2" x1="11.3" y1="18.07" x2="12.3" y2="18.07"/><line class="cls-3" x1="14.3" y1="18.07" x2="117.24" y2="18.07"/><line class="cls-2" x1="118.24" y1="18.07" x2="119.24" y2="18.07"/><line class="cls-2" x1="11.3" y1="35.07" x2="119.21" y2="35.07"/><line class="cls-2" x1="2.25" y1="68.28" x2="110.38" y2="68.28"/><line class="cls-2" x1="4.47" y1="85.27" x2="5.47" y2="85.27"/><line class="cls-4" x1="7.48" y1="85.27" x2="111.19" y2="85.27"/><line class="cls-2" x1="112.19" y1="85.27" x2="113.19" y2="85.27"/><path class="cls-5" d="M12.17,101.69A63,63,0,0,1,2,70c.6-11.26,9.78-35.55,9.78-35.55C16.27,22,1.34.5,1.34.5"/><path class="cls-5" d="M111.82.75s12.61,20.75,7.89,33.68c0,0-9,23.06-9.63,35.56a68.25,68.25,0,0,0,10.77,31.86"/><rect class="cls-6" x="46.55" y="74.55" width="23.56" height="5.46" rx="2.73"/><line class="cls-7" x1="37.14" y1="77.95" x2="43.67" y2="77.95"/><line class="cls-7" x1="39.14" y1="74.77" x2="39.14" y2="71.37"/><polygon class="cls-8" points="40.64 74.33 39.14 76.92 37.65 74.33 40.64 74.33"/><polygon class="cls-8" points="40.64 71.8 39.14 69.21 37.65 71.8 40.64 71.8"/><text class="cls-9" transform="translate(22.82 84.06)">B</text><circle class="cls-10" cx="58.33" cy="77.28" r="0.8"/><polyline class="cls-2" points="75.59 77.33 78.6 77.28 83.24 77.28"/><polygon class="cls-8" points="76.2 79.31 72.72 77.37 76.14 75.32 76.2 79.31"/><text class="cls-9" transform="translate(84.15 84.06)">A</text><line class="cls-7" x1="63.38" y1="64.09" x2="53.38" y2="64.09"/><polygon class="cls-8" points="62.94 62.6 65.53 64.09 62.94 65.59 62.94 62.6"/><polygon class="cls-8" points="53.82 62.6 51.23 64.09 53.82 65.59 53.82 62.6"/><line class="cls-7" x1="66.87" y1="71.11" x2="66.87" y2="62.32"/><line class="cls-7" x1="49.89" y1="71.11" x2="49.89" y2="62.32"/><text class="cls-9" transform="translate(51.93 59.87)">C</text></g></g></svg>