<svg xmlns="http://www.w3.org/2000/svg" viewBox="0 0 140.73 112.76"><defs><style>.cls-1{fill:#fff;}.cls-1,.cls-6{stroke:#231815;}.cls-1,.cls-2,.cls-3,.cls-4,.cls-5,.cls-6,.cls-7{stroke-miterlimit:10;}.cls-2,.cls-3,.cls-4,.cls-5,.cls-6,.cls-7,.cls-8{fill:none;}.cls-2,.cls-3,.cls-4,.cls-8{stroke:#040000;}.cls-3{stroke-dasharray:2.03 2.03;}.cls-4{stroke-dasharray:2 2;}.cls-5{stroke:#00a0e9;}.cls-6,.cls-7{stroke-dasharray:1;}.cls-7{stroke:#1d2088;}.cls-8{stroke-linejoin:round;}.cls-9{fill:#040000;}.cls-10{font-size:20px;fill:#231815;font-family:NanumSquareRoundR, NanumSquareRound;}</style></defs><title>자산 36</title><g id="레이어_2" data-name="레이어 2"><g id="레이어_1-2" data-name="레이어 1"><path class="cls-1" d="M113.11,57.57H67.6v44.56L10,102.81S-2.56,81.92,1.89,69.48c0,0,9.18-24.3,9.77-35.56,0,0-.71-17.48-10.72-32.29L120.7.5V52.22Z"/><line class="cls-2" x1="120.7" y1="85.81" x2="119.7" y2="85.81"/><line class="cls-3" x1="117.67" y1="85.81" x2="4.79" y2="85.81"/><line class="cls-2" x1="3.77" y1="85.81" x2="2.77" y2="85.81"/><line class="cls-2" x1="67.6" y1="68.81" x2="2.13" y2="68.81"/><line class="cls-2" x1="120.7" y1="35.63" x2="11.66" y2="35.63"/><line class="cls-2" x1="120.7" y1="18.63" x2="119.7" y2="18.63"/><line class="cls-4" x1="117.7" y1="18.63" x2="10.84" y2="18.63"/><line class="cls-2" x1="9.85" y1="18.63" x2="8.85" y2="18.63"/><path class="cls-5" d="M10,102.81S-2.56,81.92,1.89,69.48c0,0,9.18-24.3,9.77-35.56A68.78,68.78,0,0,0,.94,1.63"/><polygon class="cls-6" points="67.6 102.14 67.6 57.61 113.24 57.61 120.7 52.22 120.7 101.52 67.6 102.14"/><path class="cls-7" d="M86,102.81,68.05,57.56a.17.17,0,0,0-.33,0L50.55,102.81"/><line class="cls-6" x1="120.24" y1="68.81" x2="67.6" y2="68.81"/><line class="cls-8" x1="71.21" y1="110.47" x2="117.69" y2="110.47"/><polygon class="cls-9" points="71.65 111.97 69.06 110.47 71.65 108.97 71.65 111.97"/><polygon class="cls-9" points="117.25 111.97 119.84 110.47 117.25 108.97 117.25 111.97"/><line class="cls-8" x1="67.6" y1="112.76" x2="67.6" y2="106.97"/><line class="cls-8" x1="121.05" y1="112.76" x2="121.05" y2="106.97"/><text class="cls-10" transform="translate(88.05 106.97)">B</text><line class="cls-8" x1="122.93" y1="52.22" x2="127.72" y2="52.22"/><line class="cls-8" x1="116.37" y1="58.25" x2="127.72" y2="58.25"/><line class="cls-8" x1="125.94" y1="54.4" x2="125.94" y2="55.96"/><polygon class="cls-9" points="124.95 54.7 125.94 52.97 126.94 54.7 124.95 54.7"/><polygon class="cls-9" points="124.95 55.67 125.94 57.4 126.94 55.67 124.95 55.67"/><text class="cls-10" transform="translate(127.07 61.82)">D</text><line class="cls-8" x1="71.07" y1="47.08" x2="117.16" y2="47.08"/><polygon class="cls-9" points="71.51 48.58 68.92 47.08 71.51 45.59 71.51 48.58"/><polygon class="cls-9" points="116.72 48.58 119.31 47.08 116.72 45.59 116.72 48.58"/><line class="cls-8" x1="67.59" y1="54.49" x2="67.59" y2="45.31"/><text class="cls-10" transform="translate(88.53 43.83)">A</text><text class="cls-10" transform="translate(43.65 72.82)">C</text><line class="cls-8" x1="64.35" y1="57.44" x2="58.53" y2="57.44"/><line class="cls-8" x1="60.31" y1="66.44" x2="60.31" y2="59.89"/><polygon class="cls-9" points="61.31 66.15 60.31 67.88 59.31 66.15 61.31 66.15"/><polygon class="cls-9" points="61.31 60.18 60.31 58.45 59.31 60.18 61.31 60.18"/></g></g></svg>