<svg xmlns="http://www.w3.org/2000/svg" viewBox="0 0 121.21 102.19"><defs><style>.cls-1{fill:#fff;}.cls-1,.cls-6{stroke:#231815;}.cls-1,.cls-2,.cls-3,.cls-4,.cls-5,.cls-6{stroke-miterlimit:10;}.cls-2,.cls-3,.cls-4,.cls-5,.cls-6,.cls-7{fill:none;}.cls-2,.cls-3,.cls-4,.cls-7{stroke:#040000;}.cls-3{stroke-dasharray:2.03 2.03;}.cls-4{stroke-dasharray:2 2;}.cls-5{stroke:#00a0e9;}.cls-6{stroke-dasharray:1;}.cls-7{stroke-linejoin:round;}.cls-8{fill:#040000;}.cls-9{font-size:20px;fill:#231815;font-family:NanumSquareRoundR, NanumSquareRound;}</style></defs><title>자산 51</title><g id="레이어_2" data-name="레이어 2"><g id="레이어_1-2" data-name="레이어 1"><path class="cls-1" d="M120.71,67.69V.5H.94C11,15.31,11.67,32.8,11.67,32.8c-.59,11.26-9.78,35.55-9.78,35.55C-2.55,80.8,10,101.69,10,101.69H120.71V81.63l-16-13.94"/><line class="cls-2" x1="120.71" y1="84.69" x2="119.71" y2="84.69"/><line class="cls-3" x1="117.67" y1="84.69" x2="4.8" y2="84.69"/><line class="cls-2" x1="3.78" y1="84.69" x2="2.78" y2="84.69"/><line class="cls-2" x1="120.71" y1="67.69" x2="2.14" y2="67.69"/><line class="cls-2" x1="120.71" y1="34.5" x2="11.67" y2="34.5"/><line class="cls-2" x1="120.71" y1="17.5" x2="119.71" y2="17.5"/><line class="cls-4" x1="117.71" y1="17.5" x2="10.85" y2="17.5"/><line class="cls-2" x1="9.85" y1="17.5" x2="8.85" y2="17.5"/><path class="cls-5" d="M10,101.69S-2.55,80.8,1.89,68.35c0,0,9.19-24.29,9.78-35.55A68.75,68.75,0,0,0,.94.5"/><path class="cls-6" d="M104.69,67.69l16,13.94V67.69Z"/><line class="cls-7" x1="108.33" y1="58.53" x2="117.33" y2="58.53"/><polygon class="cls-8" points="108.76 60.03 106.17 58.53 108.76 57.04 108.76 60.03"/><polygon class="cls-8" points="116.89 60.03 119.48 58.53 116.89 57.04 116.89 60.03"/><line class="cls-7" x1="104.71" y1="56.24" x2="104.71" y2="64.03"/><text class="cls-9" transform="translate(106.23 54.43)">A</text><line class="cls-7" x1="97.35" y1="81.63" x2="104.69" y2="81.63"/><line class="cls-7" x1="99.5" y1="77.91" x2="99.5" y2="70.91"/><polygon class="cls-8" points="101 77.47 99.5 80.06 98.01 77.47 101 77.47"/><polygon class="cls-8" points="101 71.34 99.5 68.75 98.01 71.34 101 71.34"/><text class="cls-9" transform="translate(83.66 83.01)">B</text></g></g></svg>