<svg xmlns="http://www.w3.org/2000/svg" viewBox="0 0 121.71 102.19"><defs><style>.cls-1{fill:#f8f9f9;stroke:#231815;}.cls-1,.cls-2,.cls-3,.cls-4,.cls-5{stroke-miterlimit:10;}.cls-2,.cls-3,.cls-4,.cls-5,.cls-7{fill:none;}.cls-2,.cls-3,.cls-4,.cls-7{stroke:#040000;}.cls-3{stroke-dasharray:2 2;}.cls-4{stroke-dasharray:2.01 2.01;}.cls-5{stroke:#00a0e9;}.cls-6{fill:#0768ac;}.cls-7{stroke-linejoin:round;}.cls-8{fill:#040000;}.cls-9{font-size:20px;fill:#231815;font-family:NanumSquareRoundR, NanumSquareRound;}</style></defs><title>자산 11</title><g id="레이어_2" data-name="레이어 2"><g id="레이어_1-2" data-name="레이어 1"><path class="cls-1" d="M11.74,101.69h109c-10-14.82-10.73-32.3-10.73-32.3.6-11.26,9.78-35.56,9.78-35.56C124.27,21.39,111.67.5,111.67.5H1s15.84,20.85,10.59,35c0,0-11.47,27.83-9.17,39.52C2.43,75,3.3,86.63,11.74,101.69Z"/><line class="cls-2" x1="11.3" y1="18.07" x2="12.3" y2="18.07"/><line class="cls-3" x1="14.3" y1="18.07" x2="117.24" y2="18.07"/><line class="cls-2" x1="118.24" y1="18.07" x2="119.24" y2="18.07"/><line class="cls-2" x1="11.3" y1="35.07" x2="119.21" y2="35.07"/><line class="cls-2" x1="2.25" y1="68.28" x2="110.38" y2="68.28"/><line class="cls-2" x1="4.47" y1="85.27" x2="5.47" y2="85.27"/><line class="cls-4" x1="7.48" y1="85.27" x2="111.19" y2="85.27"/><line class="cls-2" x1="112.19" y1="85.27" x2="113.19" y2="85.27"/><path class="cls-5" d="M12.17,101.69A63,63,0,0,1,2,70c.6-11.26,9.78-35.55,9.78-35.55C16.27,22,1.34.5,1.34.5"/><path class="cls-5" d="M111.82.75s12.61,20.75,7.89,33.68c0,0-9,23.06-9.63,35.56a68.25,68.25,0,0,0,10.77,31.86"/><rect class="cls-6" x="62.23" y="78.85" width="7.77" height="1" transform="translate(-13.24 145.47) rotate(-90)"/><line class="cls-7" x1="68.75" y1="75.52" x2="74.54" y2="75.52"/><line class="cls-7" x1="68.75" y1="83.24" x2="74.54" y2="83.24"/><line class="cls-7" x1="72.77" y1="78.32" x2="72.77" y2="80.19"/><polygon class="cls-8" points="71.27 78.76 72.77 76.17 74.26 78.76 71.27 78.76"/><polygon class="cls-8" points="71.27 79.75 72.77 82.34 74.26 79.75 71.27 79.75"/><text class="cls-9" transform="translate(77.06 83.58)">A</text><line class="cls-7" x1="57.27" y1="75.47" x2="63.8" y2="75.47"/><line class="cls-7" x1="59.27" y1="72.6" x2="59.27" y2="71.12"/><polygon class="cls-8" points="60.76 72.17 59.27 74.75 57.77 72.17 60.76 72.17"/><polygon class="cls-8" points="60.76 71.56 59.27 68.97 57.77 71.56 60.76 71.56"/><text class="cls-9" transform="translate(42.74 83.58)">B</text></g></g></svg>