<svg xmlns="http://www.w3.org/2000/svg" viewBox="0 0 121.21 105.6"><defs><style>.cls-1{fill:#fff;}.cls-1,.cls-6{stroke:#231815;}.cls-1,.cls-2,.cls-3,.cls-4,.cls-5,.cls-6{stroke-miterlimit:10;}.cls-2,.cls-3,.cls-4,.cls-5,.cls-6,.cls-7{fill:none;}.cls-2,.cls-3,.cls-4,.cls-7{stroke:#040000;}.cls-3{stroke-dasharray:2.03 2.03;}.cls-4{stroke-dasharray:2 2;}.cls-5{stroke:#00a0e9;}.cls-6{stroke-dasharray:1;}.cls-7{stroke-linejoin:round;}.cls-8{fill:#040000;}.cls-9{font-size:20px;fill:#231815;font-family:NanumSquareRoundR, NanumSquareRound;}</style></defs><title>자산 54</title><g id="레이어_2" data-name="레이어 2"><g id="레이어_1-2" data-name="레이어 1"><path class="cls-1" d="M.5.5H111.17s12.59,20.89,8.14,33.33c0,0-9.18,24.3-9.77,35.56,0,0,.71,17.48,10.72,32.3H16.51l-6.88-6L.5,87.75Z"/><line class="cls-2" x1="0.5" y1="17.5" x2="1.5" y2="17.5"/><line class="cls-3" x1="3.53" y1="17.5" x2="116.41" y2="17.5"/><line class="cls-2" x1="117.43" y1="17.5" x2="118.43" y2="17.5"/><line class="cls-2" x1="0.5" y1="34.5" x2="119.07" y2="34.5"/><line class="cls-2" x1="0.5" y1="67.69" x2="109.54" y2="67.69"/><line class="cls-2" x1="0.5" y1="84.69" x2="1.5" y2="84.69"/><line class="cls-4" x1="3.5" y1="84.69" x2="110.36" y2="84.69"/><line class="cls-2" x1="111.36" y1="84.69" x2="112.36" y2="84.69"/><path class="cls-5" d="M111.17.5s12.59,20.89,8.14,33.33c0,0-9.18,24.3-9.77,35.56a68.84,68.84,0,0,0,10.72,32.3"/><polygon class="cls-6" points="16.51 101.69 0.5 87.75 0.5 101.69 16.51 101.69"/><line class="cls-7" x1="4.11" y1="81.37" x2="13.11" y2="81.37"/><polygon class="cls-8" points="4.55 82.86 1.96 81.37 4.55 79.87 4.55 82.86"/><polygon class="cls-8" points="12.68 82.86 15.27 81.37 12.68 79.87 12.68 82.86"/><line class="cls-7" x1="16.47" y1="83.66" x2="16.47" y2="77.87"/><text class="cls-9" transform="translate(2.01 78.53)">A</text><line class="cls-7" x1="25.38" y1="87.75" x2="17.47" y2="87.75"/><line class="cls-7" x1="23.28" y1="98.35" x2="23.28" y2="91.05"/><polygon class="cls-8" points="24.78 97.91 23.28 100.5 21.79 97.91 24.78 97.91"/><polygon class="cls-8" points="24.78 91.49 23.28 88.9 21.79 91.49 24.78 91.49"/><text class="cls-9" transform="translate(25.56 100.5)">B</text></g></g></svg>