<?xml version="1.0" encoding="UTF-8" standalone="no"?>
<svg
   version="1.1"
   viewBox="0 0 142.54035 125.1804"
   id="svg96"
   sodipodi:docname="HB402.svg"
   width="142.54034"
   height="125.1804"
   inkscape:version="1.1 (c68e22c387, 2021-05-23)"
   xmlns:inkscape="http://www.inkscape.org/namespaces/inkscape"
   xmlns:sodipodi="http://sodipodi.sourceforge.net/DTD/sodipodi-0.dtd"
   xmlns="http://www.w3.org/2000/svg"
   xmlns:svg="http://www.w3.org/2000/svg"
   xmlns:rdf="http://www.w3.org/1999/02/22-rdf-syntax-ns#"
   xmlns:cc="http://creativecommons.org/ns#"
   xmlns:dc="http://purl.org/dc/elements/1.1/">
  <sodipodi:namedview
     id="namedview98"
     pagecolor="#ffffff"
     bordercolor="#666666"
     borderopacity="1.0"
     inkscape:pageshadow="2"
     inkscape:pageopacity="0.0"
     inkscape:pagecheckerboard="0"
     showgrid="false"
     inkscape:zoom="3.2535586"
     inkscape:cx="12.601587"
     inkscape:cy="52.250481"
     inkscape:window-width="1920"
     inkscape:window-height="1058"
     inkscape:window-x="-8"
     inkscape:window-y="636"
     inkscape:window-maximized="1"
     inkscape:current-layer="svg96" />
  <defs
     id="defs4">
    <style
       id="style2">.cls-1{fill:#fff;}.cls-1,.cls-6{stroke:#231815;}.cls-1,.cls-2,.cls-3,.cls-4,.cls-5,.cls-6{stroke-miterlimit:10;}.cls-2,.cls-3,.cls-4,.cls-5,.cls-6,.cls-7{fill:none;}.cls-2,.cls-3,.cls-4,.cls-7{stroke:#040000;}.cls-3{stroke-dasharray:2.03 2.03;}.cls-4{stroke-dasharray:2 2;}.cls-5{stroke:#00a0e9;}.cls-6{stroke-dasharray:1;}.cls-7{stroke-linejoin:round;}.cls-8{fill:#040000;}.cls-9{font-size:20px;fill:#231815;font-family:NanumSquareRoundR, NanumSquareRound;}</style>
  </defs>
  <title
     id="title6">HB402</title>
  <g
     data-name="레이어 1"
     id="g92"
     transform="translate(21.339098,-2.679601)">
    <path
       class="cls-1"
       d="m 0.5,96.214 27.4,10e-7 0.1698,8.145599 h 83.1 c 0,0 12.59,-20.889999 8.14,-33.329999 0,0 -9.18,-24.3 -9.77,-35.56 0,0 0.71,-17.48 10.72,-32.29 H 0.4998 Z"
       id="path8" />
    <line
       class="cls-3"
       x1="0.94054002"
       x2="118.62"
       y1="87.360001"
       y2="87.360001"
       stroke-width="1.021"
       id="line10" />
    <line
       class="cls-2"
       x1="0.5"
       x2="119.07"
       y1="70.360001"
       y2="70.360001"
       id="line12" />
    <line
       class="cls-2"
       x1="0.5"
       x2="109.54"
       y1="37.18"
       y2="37.18"
       id="line14" />
    <line
       class="cls-2"
       x1="0.5"
       x2="1.5"
       y1="20.18"
       y2="20.18"
       id="line16" />
    <line
       class="cls-4"
       x1="3.5"
       x2="110.36"
       y1="20.18"
       y2="20.18"
       id="line18" />
    <line
       class="cls-2"
       x1="111.36"
       x2="112.36"
       y1="20.18"
       y2="20.18"
       id="line20" />
    <path
       class="cls-5"
       d="m 111.17,104.36 c 0,0 12.59,-20.89 8.14,-33.33 0,0 -9.18,-24.3 -9.77,-35.56 A 68.78,68.78 0 0 1 120.26,3.18"
       id="path22" />
    <rect
       class="cls-6"
       transform="scale(1,-1)"
       x="0.39952001"
       y="-104.46"
       width="27.5"
       height="8.1999998"
       stroke-width="0.79905"
       id="rect24" />
    <line
       class="cls-7"
       x1="3.99"
       x2="24.59"
       y1="111.28"
       y2="111.28"
       id="line26" />
    <polygon
       class="cls-8"
       transform="matrix(1,0,0,-1,0,130.54)"
       points="1.83,19.25 4.42,17.76 4.42,20.75 "
       id="polygon28" />
    <polygon
       class="cls-8"
       transform="matrix(1,0,0,-1,0,130.54)"
       points="26.74,19.25 24.15,17.76 24.15,20.75 "
       id="polygon30" />
    <line
       class="cls-7"
       x1="0.5"
       x2="0.5"
       y1="107.27"
       y2="113.06"
       id="line32" />
    <line
       class="cls-7"
       x1="28.07"
       x2="28.07"
       y1="107.27"
       y2="113.06"
       id="line34" />
    <text
       class="cls-9"
       x="7.6900001"
       y="127.86"
       id="text36">A</text>
    <line
       class="cls-7"
       x1="37.77"
       x2="31.48"
       y1="96.054001"
       y2="96.054001"
       id="line38" />
    <line
       class="cls-7"
       x1="35.610001"
       x2="35.610001"
       y1="98.958"
       y2="101.4"
       stroke-width="0.62657"
       id="line40" />
    <polygon
       class="cls-8"
       transform="matrix(1,0,0,-1,0,134.54)"
       points="37.1,34.92 35.61,37.51 34.11,34.92 "
       id="polygon42" />
    <polygon
       class="cls-8"
       transform="matrix(1,0,0,-1,0,130.54)"
       points="35.61,26.99 34.11,29.58 37.1,29.58 "
       id="polygon44" />
    <text
       class="cls-9"
       x="38.400002"
       y="102.70384"
       fill="#231815"
       font-family="NanumSquareRoundR, NanumSquareRound"
       font-size="20px"
       style="font-variant-ligatures:normal;font-variant-caps:normal;font-variant-numeric:normal;font-variant-east-asian:normal"
       id="text48"><tspan
         x="38.400002"
         y="102.70384"
         id="tspan46">C</tspan></text>
    <g
       fill="none"
       stroke="#040000"
       stroke-linejoin="round"
       id="g56">
      <line
         class="cls-7"
         x1="-9.4194002"
         x2="-3.1294"
         y1="96.210999"
         y2="96.210999"
         id="line50" />
      <line
         class="cls-7"
         x1="-9.4372997"
         x2="-3.1473"
         y1="104.54"
         y2="104.54"
         id="line52" />
      <line
         class="cls-7"
         x1="-7.2593999"
         x2="-7.2593999"
         y1="99.114998"
         y2="101.56"
         stroke-width="0.62657"
         id="line54" />
    </g>
    <polygon
       class="cls-8"
       transform="rotate(180,14.175,67.348)"
       points="37.1,34.92 35.61,37.51 34.11,34.92 "
       fill="#040000"
       id="polygon58" />
    <polygon
       class="cls-8"
       transform="rotate(180,14.175,65.348)"
       points="35.61,26.99 34.11,29.58 37.1,29.58 "
       fill="#040000"
       id="polygon60" />
    <line
       class="cls-7"
       x1="-9.3851995"
       x2="-3.0952001"
       y1="91.364998"
       y2="91.364998"
       fill="none"
       stroke="#040000"
       stroke-linejoin="round"
       id="line62" />
    <line
       class="cls-7"
       x1="-7.2438002"
       x2="-7.2438002"
       y1="92.670998"
       y2="95.124001"
       fill="none"
       stroke="#040000"
       stroke-linejoin="round"
       stroke-width="0.39969"
       id="line64" />
    <polygon
       class="cls-8"
       transform="matrix(-1,0,0,-0.51581,28.385,109.58)"
       points="34.11,29.58 37.1,29.58 35.61,26.99 "
       fill="#040000"
       id="polygon66" />
    <polygon
       class="cls-8"
       transform="matrix(-1,0,0,0.51581,28.386,78.029)"
       points="34.11,29.58 37.1,29.58 35.61,26.99 "
       fill="#040000"
       id="polygon68" />
    <text
       class="cls-9"
       x="-23.233271"
       y="110.31667"
       fill="#231815"
       font-family="NanumSquareRoundR, NanumSquareRound"
       font-size="20px"
       style="font-variant-ligatures:normal;font-variant-caps:normal;font-variant-numeric:normal;font-variant-east-asian:normal"
       id="text72"><tspan
         x="-23.233271"
         y="110.31667"
         id="tspan70">B</tspan></text>
    <text
       class="cls-9"
       transform="scale(1,-1)"
       x="-23.259098"
       y="-80.925728"
       fill="#231815"
       font-family="NanumSquareRoundR, NanumSquareRound"
       font-size="20px"
       style="font-variant-ligatures:normal;font-variant-caps:normal;font-variant-numeric:normal;font-variant-east-asian:normal"
       id="text76"><tspan
         x="-23.259098"
         y="-80.925728"
         id="tspan74">D</tspan></text>
    <g
       fill="#000080"
       stroke="#000000"
       stroke-miterlimit="1"
       id="g90">
      <path
         d="m 0.5094,91.295 c 4.6695,4.8393 4.6695,4.9242 4.6695,4.9242"
         stroke-dasharray="1, 1"
         id="path78" />
      <g
         stroke-dasharray="0.0212251, 0.0212251"
         stroke-width="0.021225"
         id="g88">
        <path
           d="m 1.9018,92.746 -0.34809,0.33681 0.67406,0.70187 0.33878,-0.32324 C 2.75288,93.28366 2.90836,93.1291 2.91206,93.11799 2.91576,93.10688 2.76829,92.94285 2.58434,92.75349 L 2.24989,92.4092 Z"
           id="path80" />
        <path
           d="m 3.2825,94.196 c -0.33688,0.31855 -0.34002,0.32236 -0.30372,0.36851 0.020172,0.02564 0.17006,0.18616 0.33308,0.35671 l 0.2964,0.31008 0.70367,-0.67213 -0.32726,-0.34252 c -0.18,-0.18839 -0.33503,-0.34252 -0.34452,-0.34252 -0.00949,0 -0.17043,0.14485 -0.35765,0.32188 z"
           id="path82" />
        <path
           d="m 4.6713,95.631 c -0.18582,0.17155 -0.34202,0.32444 -0.34712,0.33976 -0.00509,0.01532 0.051568,0.09173 0.12592,0.1698 0.074348,0.07807 0.18046,0.19319 0.2358,0.25581 l 0.10063,0.11386 0.076599,-0.0608 c 0.042129,-0.03344 0.12888,-0.10139 0.19277,-0.151 l 0.11617,-0.09021 h 0.50461 L 5.663533,96.13924 c -0.024696,-0.12959 -0.09167,-0.22592 -0.36074,-0.51884 -0.14804,-0.16116 -0.27467,-0.29488 -0.2814,-0.29716 -0.00673,-0.0023 -0.16428,0.13621 -0.35009,0.30776 z"
           id="path84" />
        <path
           d="m 0.52359,91.295 c -0.18875,0.18326 -0.34318,0.34055 -0.34318,0.34954 0,0.009 0.1489,0.17022 0.33089,0.3583 L 0.84219,92.3448 1.19033,92.0107 C 1.38181,91.82695 1.53616,91.67082 1.53334,91.66375 1.53052,91.65665 1.37938,91.49585 1.19749,91.30635 L 0.86677,90.96181 Z"
           id="path86" />
      </g>
    </g>
  </g>
  <metadata
     id="metadata94">
    <rdf:RDF>
      <cc:Work
         rdf:about="">
        <dc:title>HB402</dc:title>
      </cc:Work>
    </rdf:RDF>
  </metadata>
</svg>
