<svg xmlns="http://www.w3.org/2000/svg" viewBox="0 0 121.21 105.6"><defs><style>.cls-1{fill:#fff;}.cls-1,.cls-6{stroke:#231815;}.cls-1,.cls-2,.cls-3,.cls-4,.cls-5,.cls-6{stroke-miterlimit:10;}.cls-2,.cls-3,.cls-4,.cls-5,.cls-6,.cls-7{fill:none;}.cls-2,.cls-3,.cls-4,.cls-7{stroke:#040000;}.cls-3{stroke-dasharray:2.03 2.03;}.cls-4{stroke-dasharray:2 2;}.cls-5{stroke:#00a0e9;}.cls-6{stroke-dasharray:1;}.cls-7{stroke-linejoin:round;}.cls-8{fill:#040000;}.cls-9{font-size:20px;fill:#231815;font-family:NanumSquareRoundR, NanumSquareRound;}</style></defs><title>자산 42</title><g id="레이어_2" data-name="레이어 2"><g id="레이어_1-2" data-name="레이어 1"><path class="cls-1" d="M104.69,101.69H10S-2.55,80.8,1.89,68.35c0,0,9.19-24.29,9.78-35.55C11.67,32.8,11,15.31.94.5H120.71V87.75Z"/><line class="cls-2" x1="120.71" y1="84.69" x2="119.71" y2="84.69"/><line class="cls-3" x1="117.67" y1="84.69" x2="4.8" y2="84.69"/><line class="cls-2" x1="3.78" y1="84.69" x2="2.78" y2="84.69"/><line class="cls-2" x1="120.71" y1="67.69" x2="2.14" y2="67.69"/><line class="cls-2" x1="120.71" y1="34.5" x2="11.67" y2="34.5"/><line class="cls-2" x1="120.71" y1="17.5" x2="119.71" y2="17.5"/><line class="cls-4" x1="117.71" y1="17.5" x2="10.85" y2="17.5"/><line class="cls-2" x1="9.85" y1="17.5" x2="8.85" y2="17.5"/><path class="cls-5" d="M10,101.69S-2.55,80.8,1.89,68.35c0,0,9.19-24.29,9.78-35.55A68.75,68.75,0,0,0,.94.5"/><polygon class="cls-6" points="120.71 87.75 104.69 101.69 120.71 101.69 120.71 87.75"/><line class="cls-7" x1="108.33" y1="79.22" x2="117.33" y2="79.22"/><polygon class="cls-8" points="108.76 80.71 106.17 79.22 108.76 77.72 108.76 80.71"/><polygon class="cls-8" points="116.89 80.71 119.48 79.22 116.89 77.72 116.89 80.71"/><line class="cls-7" x1="104.71" y1="76.92" x2="104.71" y2="82.71"/><text class="cls-9" transform="translate(106.23 75.11)">A</text><line class="cls-7" x1="98.8" y1="88.27" x2="104.71" y2="88.27"/><line class="cls-7" x1="100.89" y1="98.87" x2="100.89" y2="91.57"/><polygon class="cls-8" points="102.39 98.43 100.89 101.02 99.4 98.43 102.39 98.43"/><polygon class="cls-8" points="102.39 92.01 100.89 89.42 99.4 92.01 102.39 92.01"/><text class="cls-9" transform="translate(85.01 100.5)">B</text></g></g></svg>