<svg xmlns="http://www.w3.org/2000/svg" viewBox="0 0 121.21 102.19"><defs><style>.cls-1,.cls-10,.cls-11,.cls-2,.cls-3,.cls-4,.cls-5,.cls-7,.cls-8,.cls-9{fill:none;}.cls-1,.cls-2,.cls-3,.cls-4,.cls-5,.cls-6{stroke:#231815;}.cls-1,.cls-10,.cls-11,.cls-2,.cls-3,.cls-4,.cls-5,.cls-6,.cls-7,.cls-8,.cls-9{stroke-miterlimit:10;}.cls-2{stroke-dasharray:1.99 1.99;}.cls-3{stroke-dasharray:1.99 1.99;}.cls-4{stroke-dasharray:2.02 2.02;}.cls-5{stroke-dasharray:2.04 2.04;}.cls-6{fill:#f8f9f9;}.cls-10,.cls-7,.cls-8,.cls-9{stroke:#040000;}.cls-8{stroke-dasharray:2.03 2.03;}.cls-9{stroke-dasharray:2.01 2.01;}.cls-10{stroke-dasharray:1.96 1.96;}.cls-11{stroke:#00a0e9;}</style></defs><title>자산 21</title><g id="레이어_2" data-name="레이어 2"><g id="레이어_1-2" data-name="레이어 1"><path class="cls-1" d="M72.89,101.69h1l-1-.22"/><path class="cls-2" d="M71,101C57.35,97.79.5,82.39.5,51.12A58.9,58.9,0,0,1,26.71,1.54"/><path class="cls-1" d="M27.56,1c.55-.33.86-.5.86-.5h-1"/><line class="cls-3" x1="25.42" y1="0.5" x2="2.5" y2="0.5"/><polyline class="cls-1" points="1.5 0.5 0.5 0.5 0.5 1.5"/><line class="cls-4" x1="0.5" y1="3.52" x2="0.5" y2="99.67"/><polyline class="cls-1" points="0.5 100.69 0.5 101.69 1.5 101.69"/><line class="cls-5" x1="3.54" y1="101.69" x2="71.87" y2="101.69"/><path class="cls-6" d="M28.42.5h82.75s12.59,20.89,8.14,33.33c0,0-9.18,24.3-9.77,35.56,0,0,.71,17.48,10.72,32.3H73.89S.5,86.35.5,51.12,28.42.5,28.42.5Z"/><line class="cls-7" x1="0.5" y1="24.5" x2="1.5" y2="24.5"/><line class="cls-8" x1="3.53" y1="24.5" x2="116.41" y2="24.5"/><line class="cls-7" x1="117.43" y1="24.5" x2="118.43" y2="24.5"/><line class="cls-7" x1="0.5" y1="51.12" x2="1.5" y2="51.12"/><polyline class="cls-9" points="3.51 51.12 51.16 51.12 111.2 51.12"/><line class="cls-7" x1="112.2" y1="51.12" x2="113.2" y2="51.12"/><line class="cls-7" x1="0.52" y1="77.68" x2="1.52" y2="77.68"/><line class="cls-10" x1="3.48" y1="77.68" x2="108.58" y2="77.68"/><line class="cls-7" x1="109.56" y1="77.68" x2="110.56" y2="77.68"/><path class="cls-11" d="M111.17.5s12.59,20.89,8.14,33.33c0,0-9.18,24.3-9.77,35.56a68.84,68.84,0,0,0,10.72,32.3"/></g></g></svg>