<svg xmlns="http://www.w3.org/2000/svg" viewBox="0 0 121.56 100.19"><defs><style>.cls-1,.cls-3,.cls-4,.cls-5,.cls-6,.cls-7,.cls-9{fill:none;}.cls-1,.cls-2{stroke:#231815;}.cls-1,.cls-2,.cls-3,.cls-4,.cls-5,.cls-6,.cls-7{stroke-miterlimit:10;}.cls-1{stroke-dasharray:2 2;}.cls-2{fill:#f8f9f9;}.cls-3,.cls-4,.cls-5,.cls-6{stroke:#040000;}.cls-4{stroke-dasharray:2.03 2.03;}.cls-5{stroke-dasharray:2.01 2.01;}.cls-6{stroke-dasharray:1.96 1.96;}.cls-7{stroke:#00a0e9;}.cls-8{font-size:20px;fill:#231815;font-family:NanumSquareRoundR, NanumSquareRound;}.cls-9{stroke:#e60012;stroke-linejoin:round;stroke-width:0.76px;stroke-dasharray:1;}</style></defs><title>자산 23</title><g id="레이어_2" data-name="레이어 2"><g id="레이어_1-2" data-name="레이어 1"><path class="cls-1" d="M1.47,98.59,56.94,1A.33.33,0,0,0,56.65.5H1.18A.33.33,0,0,0,.85.83v97.6A.33.33,0,0,0,1.47,98.59Z"/><path class="cls-2" d="M56.65.5h54.87s12.59,18.89,8.15,31.33c0,0-9.19,24.3-9.78,35.56,0,0,.72,17.48,10.73,32.3H.85Z"/><line class="cls-3" x1="0.93" y1="22.5" x2="1.93" y2="22.5"/><line class="cls-4" x1="3.96" y1="22.5" x2="116.76" y2="22.5"/><line class="cls-3" x1="117.78" y1="22.5" x2="118.78" y2="22.5"/><line class="cls-3" x1="0.93" y1="49.12" x2="1.93" y2="49.12"/><line class="cls-5" x1="3.94" y1="49.12" x2="111.55" y2="49.12"/><line class="cls-3" x1="112.56" y1="49.12" x2="113.56" y2="49.12"/><line class="cls-3" x1="0.93" y1="75.68" x2="1.93" y2="75.68"/><line class="cls-6" x1="3.89" y1="75.68" x2="108.93" y2="75.68"/><line class="cls-3" x1="109.92" y1="75.68" x2="110.92" y2="75.68"/><path class="cls-7" d="M111.52.5s12.59,18.89,8.15,31.33c0,0-9.19,24.3-9.78,35.56a68.78,68.78,0,0,0,10.73,32.3"/><text class="cls-8" transform="translate(4.55 54.25)">A</text><path class="cls-9" d="M.85,63.43s8.6-9.86,20.6,0"/></g></g></svg>