<svg xmlns="http://www.w3.org/2000/svg" viewBox="0 0 121.57 100.19"><defs><style>.cls-1,.cls-3,.cls-4,.cls-5,.cls-6,.cls-7,.cls-9{fill:none;}.cls-1,.cls-2{stroke:#231815;}.cls-1,.cls-2,.cls-3,.cls-4,.cls-5,.cls-6,.cls-7{stroke-miterlimit:10;}.cls-1{stroke-dasharray:2 2;}.cls-2{fill:#f8f9f9;}.cls-3,.cls-4,.cls-5,.cls-6{stroke:#040000;}.cls-4{stroke-dasharray:2.03 2.03;}.cls-5{stroke-dasharray:2.01 2.01;}.cls-6{stroke-dasharray:1.96 1.96;}.cls-7{stroke:#00a0e9;}.cls-8{font-size:20px;fill:#231815;font-family:NanumSquareRoundR, NanumSquareRound;}.cls-9{stroke:#e60012;stroke-linejoin:round;stroke-width:0.76px;stroke-dasharray:1;}</style></defs><title>자산 25</title><g id="레이어_2" data-name="레이어 2"><g id="레이어_1-2" data-name="레이어 1"><path class="cls-1" d="M57.08,99.44,1.16,1.05a.16.16,0,0,0-.3.08V99.52a.17.17,0,0,0,.16.17H56.94A.17.17,0,0,0,57.08,99.44Z"/><path class="cls-2" d="M.86.5H111.53s12.59,20.89,8.14,33.33c0,0-9.18,24.3-9.77,35.56a65.29,65.29,0,0,0,10.72,30.3H57.21Z"/><line class="cls-3" x1="0.86" y1="24.5" x2="1.86" y2="24.5"/><line class="cls-4" x1="3.89" y1="24.5" x2="116.77" y2="24.5"/><line class="cls-3" x1="117.79" y1="24.5" x2="118.79" y2="24.5"/><line class="cls-3" x1="0.94" y1="51.12" x2="1.94" y2="51.12"/><line class="cls-5" x1="3.95" y1="51.12" x2="111.56" y2="51.12"/><line class="cls-3" x1="112.56" y1="51.12" x2="113.56" y2="51.12"/><line class="cls-3" x1="0.86" y1="77.68" x2="1.86" y2="77.68"/><line class="cls-6" x1="3.82" y1="77.68" x2="108.94" y2="77.68"/><line class="cls-3" x1="109.92" y1="77.68" x2="110.92" y2="77.68"/><path class="cls-7" d="M111.53.5s12.59,20.89,8.14,33.33c0,0-9.18,24.3-9.77,35.56a64.62,64.62,0,0,0,10.72,30.3"/><text class="cls-8" transform="translate(5.33 49.59)">A</text><path class="cls-9" d="M.86,31.48S9.62,37.43,17,28.86"/></g></g></svg>