<svg xmlns="http://www.w3.org/2000/svg" viewBox="0 0 121.21 102.19"><defs><style>.cls-1,.cls-10,.cls-2,.cls-3,.cls-4,.cls-6,.cls-7,.cls-8,.cls-9{fill:none;}.cls-1,.cls-2,.cls-3,.cls-4,.cls-5{stroke:#231815;}.cls-1,.cls-10,.cls-2,.cls-3,.cls-4,.cls-5,.cls-6,.cls-7,.cls-8,.cls-9{stroke-miterlimit:10;}.cls-2{stroke-dasharray:1.98 1.98;}.cls-3{stroke-dasharray:1.99 1.99;}.cls-4{stroke-dasharray:2.02 2.02;}.cls-5{fill:#f8f9f9;}.cls-6,.cls-7,.cls-8,.cls-9{stroke:#040000;}.cls-7{stroke-dasharray:2.03 2.03;}.cls-8{stroke-dasharray:2.01 2.01;}.cls-9{stroke-dasharray:2.04 2.04;}.cls-10{stroke:#00a0e9;}</style></defs><title>자산 26</title><g id="레이어_2" data-name="레이어 2"><g id="레이어_1-2" data-name="레이어 1"><path class="cls-1" d="M93.79,101.69h-1s.33-.12.92-.38"/><path class="cls-2" d="M95.49,100.46c7-3.66,25.22-16.34,25.22-49.37,0-34.5-19.88-46.8-26.09-49.8"/><path class="cls-1" d="M93.71.87C93.12.62,92.79.5,92.79.5h1"/><line class="cls-3" x1="95.78" y1="0.5" x2="118.71" y2="0.5"/><polyline class="cls-1" points="119.71 0.5 120.71 0.5 120.71 1.5"/><line class="cls-4" x1="120.71" y1="3.52" x2="120.71" y2="99.67"/><polyline class="cls-1" points="120.71 100.69 120.71 101.69 119.71 101.69"/><line class="cls-3" x1="117.71" y1="101.69" x2="94.79" y2="101.69"/><path class="cls-5" d="M92.79,101.69H10S-2.55,80.8,1.89,68.35c0,0,9.19-24.29,9.78-35.55C11.67,32.8,11,15.31.94.5H92.79s27.9,10.05,27.9,50.62S92.79,101.69,92.79,101.69Z"/><line class="cls-6" x1="120.59" y1="77.69" x2="119.59" y2="77.69"/><line class="cls-7" x1="117.55" y1="77.69" x2="4.8" y2="77.69"/><line class="cls-6" x1="3.78" y1="77.69" x2="2.78" y2="77.69"/><line class="cls-6" x1="120.71" y1="51.07" x2="119.71" y2="51.07"/><line class="cls-8" x1="117.69" y1="51.07" x2="10.01" y2="51.07"/><line class="cls-6" x1="9" y1="51.07" x2="8" y2="51.07"/><line class="cls-6" x1="120.59" y1="24.5" x2="119.59" y2="24.5"/><line class="cls-9" x1="117.55" y1="24.5" x2="12.66" y2="24.5"/><line class="cls-6" x1="11.64" y1="24.5" x2="10.64" y2="24.5"/><path class="cls-10" d="M10,101.69S-2.55,80.8,1.89,68.35c0,0,9.19-24.29,9.78-35.55A68.75,68.75,0,0,0,.94.5"/></g></g></svg>