<svg xmlns="http://www.w3.org/2000/svg" viewBox="0 0 121.21 102.21"><defs><style>.cls-1,.cls-10,.cls-11,.cls-2,.cls-3,.cls-4,.cls-5,.cls-7,.cls-8,.cls-9{fill:none;}.cls-1,.cls-2,.cls-3,.cls-4,.cls-5,.cls-6{stroke:#231815;}.cls-1,.cls-10,.cls-11,.cls-2,.cls-3,.cls-4,.cls-5,.cls-6,.cls-7,.cls-8,.cls-9{stroke-miterlimit:10;}.cls-2{stroke-dasharray:1.99 1.99;}.cls-3{stroke-dasharray:2.04 2.04;}.cls-4{stroke-dasharray:2.02 2.02;}.cls-5{stroke-dasharray:1.99 1.99;}.cls-6{fill:#f8f9f9;}.cls-10,.cls-7,.cls-8,.cls-9{stroke:#040000;}.cls-8{stroke-dasharray:2.03 2.03;}.cls-9{stroke-dasharray:2.01 2.01;}.cls-10{stroke-dasharray:2.04 2.04;}.cls-11{stroke:#00a0e9;}</style></defs><title>자산 27</title><g id="레이어_2" data-name="레이어 2"><g id="레이어_1-2" data-name="레이어 1"><path class="cls-1" d="M93.79.5h-1s.31.17.86.51"/><path class="cls-2" d="M95.31,2.09a58.91,58.91,0,0,1,25.4,49c0,32.07-59.8,47.44-71.44,50.13"/><path class="cls-1" d="M48.29,101.48l-1,.21h1"/><line class="cls-3" x1="50.36" y1="101.69" x2="118.69" y2="101.69"/><polyline class="cls-1" points="119.71 101.69 120.71 101.69 120.71 100.69"/><line class="cls-4" x1="120.71" y1="98.66" x2="120.71" y2="2.54"/><polyline class="cls-1" points="120.71 1.53 120.71 0.53 119.71 0.53"/><line class="cls-5" x1="117.71" y1="0.52" x2="94.79" y2="0.5"/><path class="cls-6" d="M47.32,101.71H10S-2.55,80.82,1.89,68.38c0,0,9.19-24.3,9.78-35.56,0,0-.72-17.48-10.73-32.29H92.79s27.8,15.91,27.8,50.57C120.59,87.11,47.32,101.71,47.32,101.71Z"/><line class="cls-7" x1="120.59" y1="77.71" x2="119.59" y2="77.71"/><line class="cls-8" x1="117.55" y1="77.71" x2="4.8" y2="77.71"/><line class="cls-7" x1="3.78" y1="77.71" x2="2.78" y2="77.71"/><line class="cls-7" x1="120.71" y1="51.09" x2="119.71" y2="51.09"/><line class="cls-9" x1="117.69" y1="51.09" x2="10.01" y2="51.09"/><line class="cls-7" x1="9" y1="51.09" x2="8" y2="51.09"/><line class="cls-7" x1="120.59" y1="24.53" x2="119.59" y2="24.53"/><line class="cls-10" x1="117.55" y1="24.53" x2="12.66" y2="24.53"/><line class="cls-7" x1="11.64" y1="24.53" x2="10.64" y2="24.53"/><path class="cls-11" d="M10,101.71S-2.55,80.82,1.89,68.38c0,0,9.19-24.3,9.78-35.56A68.73,68.73,0,0,0,.94.53"/></g></g></svg>