<svg xmlns="http://www.w3.org/2000/svg" viewBox="0 0 121.57 100.23"><defs><style>.cls-1,.cls-3,.cls-4,.cls-5,.cls-6,.cls-7,.cls-9{fill:none;}.cls-1,.cls-2{stroke:#231815;}.cls-1,.cls-2,.cls-3,.cls-4,.cls-5,.cls-6,.cls-7{stroke-miterlimit:10;}.cls-1{stroke-dasharray:2.01 2.01;}.cls-2{fill:#f8f9f9;}.cls-3,.cls-4,.cls-5,.cls-6{stroke:#040000;}.cls-4{stroke-dasharray:2.03 2.03;}.cls-5{stroke-dasharray:2.01 2.01;}.cls-6{stroke-dasharray:1.97 1.97;}.cls-7{stroke:#00a0e9;}.cls-8{font-size:20px;fill:#231815;font-family:NanumSquareRoundR, NanumSquareRound;}.cls-9{stroke:#e60012;stroke-linejoin:round;stroke-width:0.76px;stroke-dasharray:1;}</style></defs><title>자산 22</title><g id="레이어_2" data-name="레이어 2"><g id="레이어_1-2" data-name="레이어 1"><path class="cls-1" d="M119.55,97.67,64.9,1.43A.62.62,0,0,1,65.44.5h54.65a.63.63,0,0,1,.63.63V97.36A.63.63,0,0,1,119.55,97.67Z"/><path class="cls-2" d="M120.72,99.73H10.05S-2.54,79.24,1.9,67c0,0,9.19-23.83,9.78-34.87C11.68,32.17,11,15,1,.5H64.81Z"/><line class="cls-3" x1="120.72" y1="76.19" x2="119.72" y2="76.19"/><line class="cls-4" x1="117.68" y1="76.19" x2="4.81" y2="76.19"/><line class="cls-3" x1="3.79" y1="76.19" x2="2.79" y2="76.19"/><line class="cls-3" x1="120.78" y1="50.09" x2="119.78" y2="50.09"/><line class="cls-5" x1="117.77" y1="50.09" x2="10.02" y2="50.09"/><line class="cls-3" x1="9.01" y1="50.09" x2="8.01" y2="50.09"/><line class="cls-3" x1="120.78" y1="24.04" x2="119.78" y2="24.04"/><line class="cls-6" x1="117.82" y1="24.04" x2="12.64" y2="24.04"/><line class="cls-3" x1="11.66" y1="24.04" x2="10.66" y2="24.04"/><path class="cls-7" d="M10.05,99.73S-2.54,79.24,1.9,67c0,0,9.19-23.83,9.78-34.87A66.45,66.45,0,0,0,1,.5"/><text class="cls-8" transform="translate(104.25 55.2)">A</text><path class="cls-9" d="M100.29,63.47s9.77-10.36,20.49,0"/></g></g></svg>