<svg xmlns="http://www.w3.org/2000/svg" viewBox="0 0 121.58 100.23"><defs><style>.cls-1,.cls-11,.cls-2,.cls-3,.cls-5,.cls-6,.cls-7,.cls-8,.cls-9{fill:none;}.cls-1,.cls-2,.cls-3,.cls-4{stroke:#231815;}.cls-1,.cls-2,.cls-3,.cls-4,.cls-5,.cls-6,.cls-7,.cls-8,.cls-9{stroke-miterlimit:10;}.cls-2{stroke-dasharray:2.01 2.01;}.cls-3{stroke-dasharray:1.99 1.99;}.cls-4{fill:#f8f9f9;}.cls-5,.cls-6,.cls-7,.cls-8{stroke:#040000;}.cls-6{stroke-dasharray:2.03 2.03;}.cls-7{stroke-dasharray:2.01 2.01;}.cls-8{stroke-dasharray:2.03 2.03;}.cls-9{stroke:#00a0e9;}.cls-10{font-size:20px;fill:#231815;font-family:NanumSquareRoundR, NanumSquareRound;}.cls-11{stroke:#e60012;stroke-linejoin:round;stroke-width:0.76px;stroke-dasharray:1;}</style></defs><title>자산 24</title><g id="레이어_2" data-name="레이어 2"><g id="레이어_1-2" data-name="레이어 1"><polyline class="cls-1" points="64.86 98.86 64.36 99.72 65.36 99.72"/><line class="cls-2" x1="67.38" y1="99.73" x2="118.71" y2="99.73"/><polyline class="cls-1" points="119.72 99.72 120.72 99.72 120.72 98.72"/><path class="cls-3" d="M120.72,96.74V2.33a.49.49,0,0,0-.91-.23L65.35,98"/><path class="cls-4" d="M64.36,99.73H10.05S-2.54,79.24,1.9,67c0,0,9.19-23.83,9.78-34.87C11.68,32.17,11,15,1,.5H120.72Z"/><line class="cls-5" x1="120.72" y1="76.19" x2="119.72" y2="76.19"/><line class="cls-6" x1="117.68" y1="76.19" x2="4.81" y2="76.19"/><line class="cls-5" x1="3.79" y1="76.19" x2="2.79" y2="76.19"/><line class="cls-5" x1="120.72" y1="50.09" x2="119.72" y2="50.09"/><line class="cls-7" x1="117.7" y1="50.09" x2="10.02" y2="50.09"/><line class="cls-5" x1="9.01" y1="50.09" x2="8.01" y2="50.09"/><line class="cls-5" x1="120.34" y1="24.04" x2="119.34" y2="24.04"/><line class="cls-8" x1="117.3" y1="24.04" x2="12.67" y2="24.04"/><line class="cls-5" x1="11.66" y1="24.04" x2="10.66" y2="24.04"/><path class="cls-9" d="M10.05,99.73S-2.54,79.24,1.9,67c0,0,9.19-23.83,9.78-34.87A66.45,66.45,0,0,0,1,.5"/><text class="cls-10" transform="translate(103.5 48.25)">A</text><path class="cls-11" d="M105.9,26.6s7.82,8.31,14.82,0"/></g></g></svg>