<svg xmlns="http://www.w3.org/2000/svg" viewBox="0 0 121.64 136.26"><defs><style>.cls-1,.cls-2,.cls-3,.cls-5,.cls-6{fill:none;}.cls-1,.cls-2,.cls-3,.cls-6{stroke:#040000;}.cls-1,.cls-2,.cls-3,.cls-4,.cls-5{stroke-miterlimit:10;}.cls-1{stroke-dasharray:2 2;}.cls-3{stroke-dasharray:1.84 1.84;}.cls-4{fill:#f8f9f9;stroke:#231815;}.cls-5{stroke:#00a0e9;}.cls-6{stroke-linejoin:round;}.cls-7{fill:#040000;}.cls-8{font-size:20px;fill:#231815;font-family:NanumSquareRoundR, NanumSquareRound;}</style></defs><title>자산 2</title><g id="레이어_2" data-name="레이어 2"><g id="레이어_1-2" data-name="레이어 1"><path class="cls-1" d="M22.55,127.46a.62.62,0,0,0,.61-.61V59.57a.6.6,0,0,0-.11-.34L2,27.93a.61.61,0,0,0-1.11.33v98.59a.62.62,0,0,0,.61.61Z"/><line class="cls-2" x1="0.93" y1="59.66" x2="1.93" y2="59.66"/><line class="cls-3" x1="3.77" y1="59.66" x2="21.24" y2="59.66"/><line class="cls-2" x1="22.16" y1="59.66" x2="23.16" y2="59.66"/><path class="cls-4" d="M.93,26.27H111.6s12.59,20.89,8.15,33.33c0,0-9.19,24.3-9.78,35.56,0,0,.72,17.48,10.73,32.3H23.16V59.66Z"/><line class="cls-2" x1="23.16" y1="94.16" x2="109.81" y2="94.16"/><line class="cls-2" x1="23.16" y1="59.66" x2="119.66" y2="59.66"/><path class="cls-5" d="M111.6,26.27s12.59,20.89,8.15,33.33c0,0-9.19,24.3-9.78,35.56a68.78,68.78,0,0,0,10.73,32.3"/><line class="cls-2" x1="0.93" y1="94.16" x2="1.93" y2="94.16"/><line class="cls-3" x1="3.77" y1="94.16" x2="21.24" y2="94.16"/><line class="cls-2" x1="22.16" y1="94.16" x2="23.16" y2="94.16"/><line class="cls-6" x1="4.54" y1="19.26" x2="19.55" y2="19.26"/><polygon class="cls-7" points="4.98 20.75 2.39 19.26 4.98 17.76 4.98 20.75"/><polygon class="cls-7" points="19.11 20.75 21.7 19.26 19.11 17.76 19.11 20.75"/><line class="cls-6" x1="1.06" y1="23.27" x2="1.06" y2="17.48"/><line class="cls-6" x1="23.03" y1="23.27" x2="23.03" y2="17.48"/><text class="cls-8" transform="translate(5.45 16)">A</text><line class="cls-6" x1="19.55" y1="134.47" x2="4.54" y2="134.47"/><polygon class="cls-7" points="19.11 132.97 21.7 134.47 19.11 135.97 19.11 132.97"/><polygon class="cls-7" points="4.98 132.97 2.39 134.47 4.98 135.97 4.98 132.97"/><line class="cls-6" x1="23.03" y1="130.46" x2="23.03" y2="136.25"/><line class="cls-6" x1="1.06" y1="130.46" x2="1.06" y2="136.25"/><text class="cls-8" transform="translate(5.21 131.16)">D</text><line class="cls-6" x1="4.54" y1="62.91" x2="19.55" y2="62.91"/><polygon class="cls-7" points="4.98 64.41 2.39 62.91 4.98 61.42 4.98 64.41"/><polygon class="cls-7" points="19.11 64.41 21.7 62.91 19.11 61.42 19.11 64.41"/><text class="cls-8" transform="translate(5.64 56.66)">B</text><line class="cls-6" x1="4.54" y1="97.64" x2="19.55" y2="97.64"/><polygon class="cls-7" points="4.98 99.14 2.39 97.64 4.98 96.14 4.98 99.14"/><polygon class="cls-7" points="19.11 99.14 21.7 97.64 19.11 96.14 19.11 99.14"/><text class="cls-8" transform="translate(5.59 91.38)">C</text></g></g></svg>