<svg xmlns="http://www.w3.org/2000/svg" viewBox="0 0 121.21 102.19"><defs><style>.cls-1,.cls-2,.cls-4{fill:none;}.cls-1,.cls-2{stroke:#040000;}.cls-1,.cls-2,.cls-3,.cls-4,.cls-5{stroke-miterlimit:10;}.cls-2{stroke-dasharray:1.84 1.84;}.cls-3{fill:#f8f9f9;stroke:#231815;}.cls-4{stroke:#00a0e9;}.cls-5{fill:#fff;stroke:#e71f19;}</style></defs><title>자산 3</title><g id="레이어_2" data-name="레이어 2"><g id="레이어_1-2" data-name="레이어 1"><line class="cls-1" x1="0.5" y1="33.89" x2="1.5" y2="33.89"/><line class="cls-2" x1="3.34" y1="33.89" x2="20.8" y2="33.89"/><line class="cls-1" x1="21.72" y1="33.89" x2="22.72" y2="33.89"/><path class="cls-3" d="M.5.5H111.17s12.59,20.89,8.14,33.33c0,0-9.18,24.3-9.77,35.56,0,0,.71,17.48,10.72,32.3H.5V.5Z"/><line class="cls-1" x1="0.5" y1="68.39" x2="109.38" y2="68.39"/><line class="cls-1" x1="0.5" y1="33.89" x2="119.23" y2="33.89"/><path class="cls-4" d="M111.17.5s12.59,20.89,8.14,33.33c0,0-9.18,24.3-9.77,35.56a68.84,68.84,0,0,0,10.72,32.3"/><line class="cls-1" x1="0.5" y1="68.39" x2="1.5" y2="68.39"/><line class="cls-2" x1="3.34" y1="68.39" x2="20.8" y2="68.39"/><line class="cls-1" x1="21.72" y1="68.39" x2="22.72" y2="68.39"/><line class="cls-5" x1="0.5" y1="101.69" x2="0.5" y2="0.5"/></g></g></svg>