<svg xmlns="http://www.w3.org/2000/svg" viewBox="0 0 121.64 136.26"><defs><style>.cls-1,.cls-3,.cls-4,.cls-5,.cls-6{fill:none;}.cls-1,.cls-3,.cls-5,.cls-6{stroke:#040000;}.cls-1,.cls-2,.cls-3,.cls-4,.cls-5{stroke-miterlimit:10;}.cls-1{stroke-dasharray:2 2;}.cls-2{fill:#f8f9f9;stroke:#231815;}.cls-4{stroke:#00a0e9;}.cls-5{stroke-dasharray:2;}.cls-6{stroke-linejoin:round;}.cls-7{fill:#040000;}.cls-8{font-size:20px;fill:#231815;font-family:NanumSquareRoundR, NanumSquareRound;}</style></defs><title>자산 1</title><g id="레이어_2" data-name="레이어 2"><g id="레이어_1-2" data-name="레이어 1"><path class="cls-1" d="M99.2,26.27a.72.72,0,0,0-.72.72V94.13a.73.73,0,0,0,.13.4l20.78,31a.72.72,0,0,0,1.32-.4V27a.72.72,0,0,0-.72-.72Z"/><path class="cls-2" d="M120.71,127.46H10S-2.55,106.57,1.89,94.12c0,0,9.19-24.29,9.78-35.55,0,0-.72-17.48-10.73-32.3H98.48v67.8Z"/><line class="cls-3" x1="98.48" y1="59.57" x2="11.83" y2="59.57"/><line class="cls-3" x1="98.48" y1="94.07" x2="1.97" y2="94.07"/><path class="cls-4" d="M10,127.46S-2.55,106.57,1.89,94.12c0,0,9.19-24.29,9.78-35.55A68.75,68.75,0,0,0,.94,26.27"/><line class="cls-5" x1="120.71" y1="94.07" x2="98.59" y2="94.07"/><line class="cls-5" x1="120.71" y1="59.57" x2="98.48" y2="59.57"/><line class="cls-6" x1="102.14" y1="19.26" x2="117.15" y2="19.26"/><polygon class="cls-7" points="102.58 20.75 99.99 19.26 102.58 17.76 102.58 20.75"/><polygon class="cls-7" points="116.71 20.75 119.3 19.26 116.71 17.76 116.71 20.75"/><line class="cls-6" x1="98.66" y1="23.27" x2="98.66" y2="17.48"/><line class="cls-6" x1="120.63" y1="23.27" x2="120.63" y2="17.48"/><text class="cls-8" transform="translate(103.05 16)">A</text><line class="cls-6" x1="117.15" y1="134.47" x2="102.14" y2="134.47"/><polygon class="cls-7" points="116.71 132.97 119.3 134.47 116.71 135.97 116.71 132.97"/><polygon class="cls-7" points="102.58 132.97 99.99 134.47 102.58 135.97 102.58 132.97"/><line class="cls-6" x1="120.63" y1="130.46" x2="120.63" y2="136.25"/><line class="cls-6" x1="98.66" y1="130.46" x2="98.66" y2="136.25"/><text class="cls-8" transform="translate(102.82 131.16)">D</text><line class="cls-6" x1="102.14" y1="62.91" x2="117.15" y2="62.91"/><polygon class="cls-7" points="102.58 64.41 99.99 62.91 102.58 61.42 102.58 64.41"/><polygon class="cls-7" points="116.71 64.41 119.3 62.91 116.71 61.42 116.71 64.41"/><text class="cls-8" transform="translate(103.25 56.66)">B</text><line class="cls-6" x1="102.14" y1="97.64" x2="117.15" y2="97.64"/><polygon class="cls-7" points="102.58 99.14 99.99 97.64 102.58 96.14 102.58 99.14"/><polygon class="cls-7" points="116.71 99.14 119.3 97.64 116.71 96.14 116.71 99.14"/><text class="cls-8" transform="translate(103.2 91.38)">C</text></g></g></svg>