<svg xmlns="http://www.w3.org/2000/svg" viewBox="0 0 141.91 130.98"><defs><style>.cls-1,.cls-3,.cls-4,.cls-5,.cls-6{fill:none;}.cls-1,.cls-2{stroke:#231815;}.cls-1,.cls-2,.cls-3,.cls-4,.cls-5{stroke-miterlimit:10;}.cls-1,.cls-5{stroke-dasharray:1;}.cls-2{fill:#f8f9f9;}.cls-3,.cls-6{stroke:#040000;}.cls-4{stroke:#00a0e9;}.cls-5{stroke:#1d2088;}.cls-6{stroke-linejoin:round;}.cls-7{fill:#040000;}.cls-8{font-size:20px;fill:#231815;font-family:NanumSquareRoundR, NanumSquareRound;}</style></defs><title>자산 90</title><g id="레이어_2" data-name="레이어 2"><g id="레이어_1-2" data-name="레이어 1"><polygon class="cls-1" points="75.64 26.93 75.64 96.21 30.01 96.21 21.2 104.32 21.2 26.93 75.64 26.93"/><line class="cls-1" x1="21.69" y1="90.6" x2="75.69" y2="90.6"/><path class="cls-2" d="M75.47,26.94h56.4S144.46,47.82,140,60.27c0,0-9.18,24.29-9.77,35.55,0,0,.71,17.49,10.72,32.3H21.2v-23.8L30,96.21H75.64Z"/><line class="cls-3" x1="130.08" y1="90.6" x2="75.64" y2="90.6"/><path class="cls-4" d="M131.87,26.94S144.46,47.82,140,60.27c0,0-9.18,24.29-9.77,35.55A68.81,68.81,0,0,0,141,128.12"/><path class="cls-5" d="M47.89,27.1,75.38,95.57a.27.27,0,0,0,.51,0L102.27,27.1"/><line class="cls-6" x1="21.06" y1="23.27" x2="21.06" y2="17.48"/><line class="cls-6" x1="75.39" y1="23.27" x2="75.39" y2="17.48"/><line class="cls-6" x1="24.54" y1="19.26" x2="71.9" y2="19.26"/><polygon class="cls-7" points="24.98 20.75 22.39 19.26 24.98 17.76 24.98 20.75"/><polygon class="cls-7" points="71.46 20.75 74.06 19.26 71.46 17.76 71.46 20.75"/><text class="cls-8" transform="translate(41.88 16)">B</text><line class="cls-6" x1="71.89" y1="109.57" x2="24.42" y2="109.57"/><polygon class="cls-7" points="71.45 108.08 74.04 109.57 71.45 111.07 71.45 108.08"/><polygon class="cls-7" points="24.86 108.08 22.27 109.57 24.86 111.07 24.86 108.08"/><line class="cls-6" x1="75.5" y1="111.87" x2="75.5" y2="97.7"/><text class="cls-8" transform="translate(41.68 125.88)">A</text><line class="cls-6" x1="19.54" y1="104.08" x2="14.75" y2="104.08"/><line class="cls-6" x1="27.36" y1="95.74" x2="14.75" y2="95.74"/><line class="cls-6" x1="16.52" y1="101.42" x2="16.52" y2="98.23"/><polygon class="cls-7" points="17.52 101.13 16.52 102.85 15.53 101.13 17.52 101.13"/><polygon class="cls-7" points="17.52 98.53 16.52 96.8 15.53 98.53 17.52 98.53"/><text class="cls-8" transform="translate(0 106.82)">D</text><text class="cls-8" transform="translate(84.97 98.81)">C</text><line class="cls-6" x1="78.5" y1="96.29" x2="83.53" y2="96.29"/><line class="cls-6" x1="81.76" y1="92.66" x2="81.76" y2="93.83"/><polygon class="cls-7" points="80.76 92.95 81.76 91.23 82.75 92.95 80.76 92.95"/><polygon class="cls-7" points="80.76 93.54 81.76 95.27 82.75 93.54 80.76 93.54"/></g></g></svg>