<svg xmlns="http://www.w3.org/2000/svg" viewBox="0 0 121.21 128.62"><defs><style>.cls-1,.cls-2,.cls-3,.cls-4,.cls-6,.cls-7{fill:none;}.cls-1,.cls-2,.cls-3,.cls-4,.cls-7{stroke:#040000;}.cls-1,.cls-2,.cls-3,.cls-4,.cls-5,.cls-6{stroke-miterlimit:10;}.cls-2{stroke-dasharray:2.04 2.04;}.cls-3{stroke-dasharray:1.91 1.91;}.cls-4{stroke-dasharray:1.91 1.91;}.cls-5{fill:#f8f9f9;stroke:#231815;}.cls-6{stroke:#00a0e9;}.cls-7{stroke-linejoin:round;}.cls-8{fill:#040000;}.cls-9{font-size:20px;fill:#231815;font-family:NanumSquareRoundR, NanumSquareRound;}</style></defs><title>자산 110</title><g id="레이어_2" data-name="레이어 2"><g id="레이어_1-2" data-name="레이어 1"><polyline class="cls-1" points="0.55 48.95 0.55 49.95 1.26 49.24"/><line class="cls-2" x1="2.7" y1="47.8" x2="22.14" y2="28.36"/><polyline class="cls-1" points="22.86 27.64 23.56 26.93 22.56 26.93"/><line class="cls-3" x1="20.65" y1="26.94" x2="2.46" y2="26.94"/><polyline class="cls-1" points="1.5 26.93 0.5 26.93 0.5 27.93"/><line class="cls-4" x1="0.51" y1="29.85" x2="0.55" y2="47.99"/><path class="cls-5" d="M.5,50l23.06-23h87.61s12.59,20.88,8.15,33.33c0,0-9.19,24.29-9.78,35.55,0,0,.71,17.49,10.73,32.3H.5Z"/><line class="cls-1" x1="0.5" y1="90.6" x2="109.38" y2="90.6"/><path class="cls-6" d="M111.17,26.94s12.59,20.88,8.15,33.33c0,0-9.19,24.29-9.78,35.55a68.75,68.75,0,0,0,10.73,32.3"/><line class="cls-7" x1="3.99" y1="19.26" x2="18.99" y2="19.26"/><polygon class="cls-8" points="4.42 20.75 1.83 19.26 4.42 17.76 4.42 20.75"/><polygon class="cls-8" points="18.55 20.75 21.14 19.26 18.55 17.76 18.55 20.75"/><line class="cls-7" x1="0.5" y1="23.27" x2="0.5" y2="17.48"/><line class="cls-7" x1="22.47" y1="23.27" x2="22.47" y2="17.48"/><text class="cls-9" transform="translate(4.89 16)">A</text><line class="cls-7" x1="33.96" y1="49.95" x2="3.17" y2="49.95"/><line class="cls-7" x1="31.8" y1="46.23" x2="31.8" y2="30.23"/><polygon class="cls-8" points="33.3 45.79 31.8 48.38 30.3 45.79 33.3 45.79"/><polygon class="cls-8" points="33.3 30.67 31.8 28.08 30.3 30.67 33.3 30.67"/><text class="cls-9" transform="translate(35.91 45.49)">B</text></g></g></svg>