<svg xmlns="http://www.w3.org/2000/svg" viewBox="0 0 121.47 136.91"><defs><style>.cls-1,.cls-3,.cls-4,.cls-5,.cls-8{fill:none;}.cls-1{stroke:#00a0e9;}.cls-1,.cls-2,.cls-3,.cls-4,.cls-8{stroke-miterlimit:10;}.cls-2{fill:#f7f8f8;}.cls-2,.cls-4{stroke:#231815;}.cls-3,.cls-5,.cls-8{stroke:#040000;}.cls-4{stroke-dasharray:2.01 2.01;}.cls-5{stroke-linejoin:round;}.cls-6{fill:#040000;}.cls-7{font-size:20px;fill:#231815;font-family:NanumSquareRoundR, NanumSquareRound;}.cls-8{stroke-dasharray:1.96 1.96;}</style></defs><title>자산 76</title><g id="레이어_2" data-name="레이어 2"><g id="레이어_1-2" data-name="레이어 1"><path class="cls-1" d="M111.43,26.94S124,47.82,119.58,60.27c0,0-9.19,24.29-9.78,35.55a68.75,68.75,0,0,0,10.73,32.3"/><path class="cls-2" d="M.76,26.94H111.43S124,47.82,119.58,60.27c0,0-9.19,24.29-9.78,35.55,0,0,.71,17.49,10.73,32.3H28.29V90.6Z"/><line class="cls-3" x1="109.64" y1="90.6" x2="28.29" y2="90.6"/><path class="cls-4" d="M28.29,127.83V90.66a.36.36,0,0,0,0-.11L1.32,28.23a.29.29,0,0,0-.56.12v99.48a.29.29,0,0,0,.29.29H28A.29.29,0,0,0,28.29,127.83Z"/><line class="cls-5" x1="4.37" y1="134.62" x2="23.98" y2="134.62"/><polygon class="cls-6" points="4.81 136.11 2.22 134.62 4.81 133.12 4.81 136.11"/><polygon class="cls-6" points="23.54 136.11 26.13 134.62 23.54 133.12 23.54 136.11"/><line class="cls-5" x1="0.76" y1="136.91" x2="0.76" y2="131.12"/><line class="cls-5" x1="27.34" y1="136.91" x2="27.34" y2="131.12"/><text class="cls-7" transform="translate(7.86 131.12)">C</text><line class="cls-5" x1="1.07" y1="23.27" x2="1.07" y2="17.48"/><line class="cls-5" x1="27.87" y1="23.27" x2="27.87" y2="17.48"/><line class="cls-5" x1="4.56" y1="19.26" x2="24.38" y2="19.26"/><polygon class="cls-6" points="5 20.75 2.4 19.26 5 17.76 5 20.75"/><polygon class="cls-6" points="23.95 20.75 26.54 19.26 23.95 17.76 23.95 20.75"/><text class="cls-7" transform="translate(8.08 16)">A</text><line class="cls-5" x1="4.76" y1="93.49" x2="24.59" y2="93.49"/><polygon class="cls-6" points="5.2 94.99 2.61 93.49 5.2 92 5.2 94.99"/><polygon class="cls-6" points="24.15 94.99 26.74 93.49 24.15 92 24.15 94.99"/><text class="cls-7" transform="translate(8.48 88.47)">B</text><line class="cls-3" x1="0.76" y1="90.6" x2="1.76" y2="90.6"/><line class="cls-8" x1="3.72" y1="90.6" x2="26.2" y2="90.6"/><line class="cls-3" x1="27.18" y1="90.6" x2="28.18" y2="90.6"/><path class="cls-1" d="M111.43,26.94S124,47.82,119.58,60.27c0,0-9.19,24.29-9.78,35.55a68.75,68.75,0,0,0,10.73,32.3"/></g></g></svg>