<svg xmlns="http://www.w3.org/2000/svg" viewBox="0 0 143.12 128.62"><defs><style>.cls-1,.cls-2,.cls-4,.cls-5{fill:none;}.cls-1,.cls-3{stroke:#231815;}.cls-1,.cls-2,.cls-3,.cls-4{stroke-miterlimit:10;}.cls-1{stroke-dasharray:1;}.cls-2{stroke:#00a0e9;}.cls-3{fill:#f8f9f9;}.cls-4,.cls-5{stroke:#040000;}.cls-5{stroke-linejoin:round;}.cls-6{fill:#040000;}.cls-7{font-size:20px;fill:#231815;font-family:NanumSquareRoundR, NanumSquareRound;}</style></defs><title>자산 75</title><g id="레이어_2" data-name="레이어 2"><g id="레이어_1-2" data-name="레이어 1"><polygon class="cls-1" points="49.43 128.12 49.43 90.6 22.98 61.51 49.43 27.1 22.42 27.1 22.42 128.12 49.43 128.12"/><line class="cls-1" x1="22.42" y1="90.6" x2="49.43" y2="90.6"/><path class="cls-2" d="M133.09,26.94s12.59,20.88,8.14,33.33c0,0-9.18,24.29-9.77,35.55a68.81,68.81,0,0,0,10.72,32.3"/><path class="cls-3" d="M49.43,26.94h83.66s12.59,20.88,8.14,33.33c0,0-9.18,24.29-9.77,35.55,0,0,.71,17.49,10.72,32.3H49.43V90.6L23,61.42Z"/><line class="cls-4" x1="49.43" y1="90.6" x2="131.3" y2="90.6"/><line class="cls-5" x1="22.32" y1="23.27" x2="22.32" y2="17.48"/><line class="cls-5" x1="49.11" y1="23.27" x2="49.11" y2="17.48"/><line class="cls-5" x1="25.8" y1="19.26" x2="45.63" y2="19.26"/><polygon class="cls-6" points="26.24 20.75 23.65 19.26 26.24 17.76 26.24 20.75"/><polygon class="cls-6" points="45.19 20.75 47.78 19.26 45.19 17.76 45.19 20.75"/><text class="cls-7" transform="translate(29.32 16)">A</text><line class="cls-5" x1="25.8" y1="93.49" x2="45.63" y2="93.49"/><polygon class="cls-6" points="26.24 94.99 23.65 93.49 26.24 92 26.24 94.99"/><polygon class="cls-6" points="45.19 94.99 47.78 93.49 45.19 92 45.19 94.99"/><text class="cls-7" transform="translate(29.47 88.47)">C</text><line class="cls-5" x1="19.07" y1="61.27" x2="14.28" y2="61.27"/><line class="cls-5" x1="19.07" y1="26.94" x2="14.28" y2="26.94"/><line class="cls-5" x1="16.06" y1="58.61" x2="16.06" y2="29.43"/><polygon class="cls-6" points="17.05 58.32 16.06 60.05 15.06 58.32 17.05 58.32"/><polygon class="cls-6" points="17.05 29.72 16.06 28 15.06 29.72 17.05 29.72"/><text class="cls-7" transform="translate(0 51.73)">B</text><path class="cls-2" d="M133.08,27s12.59,20.89,8.15,33.33c0,0-9.19,24.3-9.78,35.56a68.73,68.73,0,0,0,10.73,32.29"/></g></g></svg>