<svg xmlns="http://www.w3.org/2000/svg" viewBox="0 0 121.71 102.19"><defs><style>.cls-1{fill:#f8f9f9;stroke:#231815;}.cls-1,.cls-2,.cls-3,.cls-4{stroke-miterlimit:10;}.cls-2,.cls-3,.cls-4,.cls-5{fill:none;}.cls-2,.cls-5{stroke:#040000;}.cls-3{stroke:#00a0e9;}.cls-4{stroke:#0768ac;stroke-dasharray:1;}.cls-5{stroke-linejoin:round;}.cls-6{fill:#040000;}.cls-7{font-size:20px;fill:#231815;font-family:NanumSquareRoundR, NanumSquareRound;}.cls-8{fill:#e71f19;}</style></defs><title>자산 86</title><g id="레이어_2" data-name="레이어 2"><g id="레이어_1-2" data-name="레이어 1"><path class="cls-1" d="M11.74,101.69h109c-10-14.82-10.73-32.3-10.73-32.3.6-11.26,9.78-35.56,9.78-35.56C124.27,21.39,111.67.5,111.67.5H1s15.84,20.85,10.59,35c0,0-11.47,27.83-9.17,39.52C2.43,75,3.3,86.63,11.74,101.69Z"/><line class="cls-2" x1="110.81" y1="64.46" x2="3.15" y2="64.46"/><path class="cls-3" d="M111.82.75s12.61,20.75,7.89,33.68c0,0-9,23.06-9.63,35.56a68.25,68.25,0,0,0,10.77,31.86"/><path class="cls-3" d="M12.17,101.69A63,63,0,0,1,2,70c.6-11.26,9.78-35.55,9.78-35.55C16.27,22,1.34.5,1.34.5"/><circle class="cls-4" cx="60.89" cy="32.06" r="4.91"/><line class="cls-5" x1="46.34" y1="32.2" x2="52.87" y2="32.2"/><line class="cls-5" x1="48.34" y1="28.49" x2="48.34" y2="4.36"/><polygon class="cls-6" points="49.84 28.05 48.34 30.64 46.84 28.05 49.84 28.05"/><polygon class="cls-6" points="49.84 4.79 48.34 2.2 46.84 4.79 49.84 4.79"/><text class="cls-7" transform="translate(32.46 23.47)">B</text><circle class="cls-8" cx="60.89" cy="32.06" r="0.8"/><polyline class="cls-2" points="69.04 25.12 72.89 21.27 77.53 21.27"/><polygon class="cls-6" points="70.86 26.12 67.01 27.15 68.04 23.3 70.86 26.12"/><text class="cls-7" transform="translate(77.36 27.91)">A</text></g></g></svg>