<svg xmlns="http://www.w3.org/2000/svg" viewBox="0 0 121.71 128.01"><defs><style>.cls-1{fill:#f8f9f9;}.cls-1,.cls-4{stroke:#231815;}.cls-1,.cls-2,.cls-3,.cls-4{stroke-miterlimit:10;}.cls-2,.cls-3,.cls-4,.cls-5{fill:none;}.cls-2,.cls-5{stroke:#040000;}.cls-3{stroke:#00a0e9;}.cls-4{stroke-dasharray:2;}.cls-5{stroke-linejoin:round;}.cls-6{fill:#040000;}.cls-7{font-size:20px;fill:#231815;font-family:NanumSquareRoundR, NanumSquareRound;}</style></defs><title>자산 96</title><g id="레이어_2" data-name="레이어 2"><g id="레이어_1-2" data-name="레이어 1"><path class="cls-1" d="M11.74,127.51h109C110.76,112.7,110,95.22,110,95.22c.6-11.26,9.78-35.56,9.78-35.56,4.45-12.44-8.15-33.33-8.15-33.33h-25V51.64H40.6V26.33H1s15.84,20.85,10.59,35c0,0-11.47,27.83-9.17,39.51C2.43,100.86,3.3,112.46,11.74,127.51Z"/><line class="cls-2" x1="110.81" y1="90.29" x2="3.15" y2="90.29"/><path class="cls-3" d="M111.82,26.58s12.61,20.75,7.89,33.67c0,0-9,23.07-9.63,35.57a68.25,68.25,0,0,0,10.77,31.86"/><path class="cls-3" d="M12.17,127.51A62.93,62.93,0,0,1,2,95.81c.6-11.26,9.78-35.56,9.78-35.56C16.27,47.81,1.34,26.33,1.34,26.33"/><rect class="cls-4" x="40.6" y="26.33" width="46.07" height="25.31"/><line class="cls-5" x1="44.09" y1="19.26" x2="83.19" y2="19.26"/><polygon class="cls-6" points="44.53 20.75 41.94 19.25 44.53 17.76 44.53 20.75"/><polygon class="cls-6" points="82.75 20.75 85.34 19.25 82.75 17.76 82.75 20.75"/><line class="cls-5" x1="40.6" y1="23.27" x2="40.6" y2="17.48"/><line class="cls-5" x1="86.68" y1="23.27" x2="86.68" y2="17.48"/><text class="cls-7" transform="translate(57.17 16)">A</text><line class="cls-5" x1="31.47" y1="51.64" x2="38" y2="51.64"/><line class="cls-5" x1="33.47" y1="47.92" x2="33.47" y2="29.89"/><polygon class="cls-6" points="34.96 47.48 33.47 50.07 31.97 47.48 34.96 47.48"/><polygon class="cls-6" points="34.96 30.33 33.47 27.74 31.97 30.33 34.96 30.33"/><text class="cls-7" transform="translate(18.4 46.4)">B</text></g></g></svg>