<svg xmlns="http://www.w3.org/2000/svg" viewBox="0 0 121.71 102.19"><defs><style>.cls-1{fill:#f8f9f9;stroke:#231815;}.cls-1,.cls-2,.cls-3,.cls-7{stroke-miterlimit:10;}.cls-2,.cls-3,.cls-4,.cls-7{fill:none;}.cls-2,.cls-4{stroke:#040000;}.cls-3{stroke:#00a0e9;}.cls-4{stroke-linejoin:round;}.cls-5{fill:#040000;}.cls-6{font-size:20px;fill:#231815;font-family:NanumSquareRoundR, NanumSquareRound;}.cls-7{stroke:#0768ac;stroke-dasharray:1;}.cls-8{fill:#e71f19;}</style></defs><title>자산 85</title><g id="레이어_2" data-name="레이어 2"><g id="레이어_1-2" data-name="레이어 1"><path class="cls-1" d="M11.74,101.69h109c-10-14.82-10.73-32.3-10.73-32.3.6-11.26,9.78-35.56,9.78-35.56C124.27,21.39,111.67.5,111.67.5H1s15.84,20.85,10.59,35c0,0-11.47,27.83-9.17,39.52C2.43,75,3.3,86.63,11.74,101.69Z"/><line class="cls-2" x1="110.81" y1="64.46" x2="3.15" y2="64.46"/><path class="cls-3" d="M111.82.75s12.61,20.75,7.89,33.68c0,0-9,23.06-9.63,35.56a68.25,68.25,0,0,0,10.77,31.86"/><path class="cls-3" d="M12.17,101.69A63,63,0,0,1,2,70c.6-11.26,9.78-35.55,9.78-35.55C16.27,22,1.34.5,1.34.5"/><line class="cls-4" x1="69.73" y1="23.48" x2="75.52" y2="23.48"/><line class="cls-4" x1="69.73" y1="41.19" x2="75.52" y2="41.19"/><line class="cls-4" x1="73.74" y1="26.96" x2="73.74" y2="37.7"/><polygon class="cls-5" points="72.25 27.4 73.74 24.81 75.24 27.4 72.25 27.4"/><polygon class="cls-5" points="72.25 37.27 73.74 39.86 75.24 37.27 72.25 37.27"/><text class="cls-6" transform="translate(76.4 39.22)">C</text><line class="cls-4" x1="47.73" y1="32.2" x2="54.26" y2="32.2"/><line class="cls-4" x1="49.73" y1="28.49" x2="49.73" y2="4.36"/><polygon class="cls-5" points="51.23 28.05 49.73 30.64 48.23 28.05 51.23 28.05"/><polygon class="cls-5" points="51.23 4.79 49.73 2.2 48.23 4.79 51.23 4.79"/><text class="cls-6" transform="translate(34.18 23.47)">B</text><rect class="cls-7" x="49.95" y="27.94" width="23.56" height="8.78" rx="4.39" transform="translate(94.06 -29.4) rotate(90)"/><circle class="cls-8" cx="61.73" cy="32.33" r="0.8"/><polyline class="cls-2" points="66.43 16.33 70.28 12.48 74.92 12.48"/><polygon class="cls-5" points="68.25 17.33 64.4 18.36 65.43 14.51 68.25 17.33"/><text class="cls-6" transform="translate(74.49 17.32)">A</text></g></g></svg>