<svg xmlns="http://www.w3.org/2000/svg" viewBox="0 0 120.56 127.96"><defs><style>.cls-1,.cls-2,.cls-3,.cls-5,.cls-6{fill:none;}.cls-1,.cls-2,.cls-3,.cls-6{stroke:#040000;}.cls-1,.cls-2,.cls-3,.cls-4,.cls-5{stroke-miterlimit:10;}.cls-2{stroke-dasharray:2.04 2.04;}.cls-3{stroke-dasharray:1.91 1.91;}.cls-4{fill:#f8f9f9;stroke:#231815;}.cls-5{stroke:#00a0e9;}.cls-6{stroke-linejoin:round;}.cls-7{fill:#040000;}.cls-8{font-size:20px;fill:#231815;font-family:NanumSquareRoundR, NanumSquareRound;}</style></defs><title>자산 100</title><g id="레이어_2" data-name="레이어 2"><g id="레이어_1-2" data-name="레이어 1"><polyline class="cls-1" points="120.06 48.28 120.06 49.28 119.35 48.58"/><line class="cls-2" x1="117.91" y1="47.14" x2="98.47" y2="27.7"/><polyline class="cls-1" points="97.75 26.98 97.05 26.27 98.05 26.27"/><line class="cls-3" x1="99.96" y1="26.27" x2="118.1" y2="26.27"/><polyline class="cls-1" points="119.06 26.27 120.06 26.27 120.06 27.27"/><line class="cls-3" x1="120.06" y1="29.18" x2="120.06" y2="47.33"/><path class="cls-4" d="M120.06,49.28l-23-23H2.13S14.72,47.16,10.28,59.6c0,0-9.19,24.3-9.78,35.56,0,0,.72,17.48,10.73,32.3H120.06Z"/><line class="cls-1" x1="120.06" y1="89.94" x2="1.17" y2="89.94"/><path class="cls-5" d="M2.13,26.27S14.72,47.16,10.28,59.6c0,0-9.19,24.3-9.78,35.56a68.78,68.78,0,0,0,10.73,32.3"/><line class="cls-6" x1="101.57" y1="19.26" x2="116.57" y2="19.26"/><polygon class="cls-7" points="102.01 20.75 99.42 19.25 102.01 17.76 102.01 20.75"/><polygon class="cls-7" points="116.14 20.75 118.73 19.25 116.14 17.76 116.14 20.75"/><line class="cls-6" x1="98.09" y1="23.27" x2="98.09" y2="17.48"/><line class="cls-6" x1="120.06" y1="23.27" x2="120.06" y2="17.48"/><text class="cls-8" transform="translate(102.47 16)">A</text><line class="cls-6" x1="91.82" y1="49.28" x2="117.06" y2="49.28"/><line class="cls-6" x1="93.82" y1="45.57" x2="93.82" y2="29.56"/><polygon class="cls-7" points="95.32 45.13 93.82 47.72 92.33 45.13 95.32 45.13"/><polygon class="cls-7" points="95.32 30 93.82 27.41 92.33 30 95.32 30"/><text class="cls-8" transform="translate(77.28 44.53)">B</text></g></g></svg>