<svg xmlns="http://www.w3.org/2000/svg" viewBox="0 0 139.71 130.37"><defs><style>.cls-1,.cls-3,.cls-4,.cls-5,.cls-6{fill:none;}.cls-1,.cls-2{stroke:#231815;}.cls-1,.cls-2,.cls-3,.cls-4,.cls-5{stroke-miterlimit:10;}.cls-1,.cls-5{stroke-dasharray:1;}.cls-2{fill:#f8f9f9;}.cls-3,.cls-6{stroke:#040000;}.cls-4{stroke:#00a0e9;}.cls-5{stroke:#1d2088;}.cls-6{stroke-linejoin:round;}.cls-7{fill:#040000;}.cls-8{font-size:20px;fill:#231815;font-family:NanumSquareRoundR, NanumSquareRound;}</style></defs><title>자산 89</title><g id="레이어_2" data-name="레이어 2"><g id="레이어_1-2" data-name="레이어 1"><polygon class="cls-1" points="65.62 26.27 65.62 95.55 111.25 95.55 120.06 103.66 120.06 26.27 65.62 26.27"/><line class="cls-1" x1="119.71" y1="89.94" x2="65.48" y2="89.94"/><path class="cls-2" d="M65.62,26.27H2.13S14.72,47.16,10.28,59.6c0,0-9.19,24.3-9.78,35.56,0,0,.72,17.48,10.73,32.3H120.06v-23.8l-8.81-8.11H65.62Z"/><line class="cls-3" x1="65.62" y1="89.94" x2="1.17" y2="89.94"/><path class="cls-4" d="M2.13,26.27S14.72,47.16,10.28,59.6c0,0-9.19,24.3-9.78,35.56a68.78,68.78,0,0,0,10.73,32.3"/><path class="cls-5" d="M93.36,26.44,65.88,94.9a.27.27,0,0,1-.51,0L39,26.44"/><line class="cls-6" x1="65.49" y1="23.27" x2="65.49" y2="17.48"/><line class="cls-6" x1="119.82" y1="23.27" x2="119.82" y2="17.48"/><line class="cls-6" x1="68.97" y1="19.26" x2="116.33" y2="19.26"/><polygon class="cls-7" points="69.41 20.75 66.82 19.25 69.41 17.76 69.41 20.75"/><polygon class="cls-7" points="115.89 20.75 118.48 19.25 115.89 17.76 115.89 20.75"/><text class="cls-8" transform="translate(86.31 16)">B</text><line class="cls-6" x1="114.67" y1="95.07" x2="126.37" y2="95.07"/><line class="cls-6" x1="121.58" y1="103.41" x2="126.37" y2="103.41"/><line class="cls-6" x1="124.59" y1="97.73" x2="124.59" y2="100.91"/><polygon class="cls-7" points="123.6 98.02 124.59 96.3 125.59 98.02 123.6 98.02"/><polygon class="cls-7" points="123.6 100.62 124.59 102.35 125.59 100.62 123.6 100.62"/><text class="cls-8" transform="translate(126.05 106.41)">D</text><line class="cls-6" x1="69.36" y1="109.4" x2="116.83" y2="109.4"/><polygon class="cls-7" points="69.8 110.9 67.2 109.4 69.8 107.9 69.8 110.9"/><polygon class="cls-7" points="116.39 110.9 118.98 109.4 116.39 107.9 116.39 110.9"/><line class="cls-6" x1="65.75" y1="111.69" x2="65.75" y2="97.53"/><text class="cls-8" transform="translate(85.27 125.27)">A</text><text class="cls-8" transform="translate(43.8 98.19)">C</text><line class="cls-6" x1="63.8" y1="95.6" x2="58.77" y2="95.6"/><line class="cls-6" x1="60.54" y1="91.98" x2="60.54" y2="93.15"/><polygon class="cls-7" points="59.55 92.27 60.54 90.55 61.54 92.27 59.55 92.27"/><polygon class="cls-7" points="59.55 92.86 60.54 94.59 61.54 92.86 59.55 92.86"/></g></g></svg>