<svg xmlns="http://www.w3.org/2000/svg" viewBox="0 0 121.05 136.25"><defs><style>.cls-1{fill:#f8f9f9;}.cls-1,.cls-4{stroke:#231815;}.cls-1,.cls-2,.cls-3,.cls-4,.cls-8{stroke-miterlimit:10;}.cls-2,.cls-3,.cls-4,.cls-5,.cls-8{fill:none;}.cls-2,.cls-5,.cls-8{stroke:#040000;}.cls-3{stroke:#00a0e9;}.cls-4,.cls-8{stroke-dasharray:2;}.cls-5{stroke-linejoin:round;}.cls-6{fill:#040000;}.cls-7{font-size:20px;fill:#231815;font-family:NanumSquareRoundR, NanumSquareRound;}</style></defs><title>자산 101</title><g id="레이어_2" data-name="레이어 2"><g id="레이어_1-2" data-name="레이어 1"><path class="cls-1" d="M92.53,26.27H2.13S14.72,47.16,10.28,59.6c0,0-9.19,24.3-9.78,35.56,0,0,.72,17.48,10.73,32.3H120.06L92.53,89.94Z"/><line class="cls-2" x1="92.53" y1="89.94" x2="1.17" y2="89.94"/><path class="cls-3" d="M2.13,26.27S14.72,47.16,10.28,59.6c0,0-9.19,24.3-9.78,35.56a68.78,68.78,0,0,0,10.73,32.3"/><polygon class="cls-4" points="120.06 127.46 92.53 89.94 92.53 26.27 120.06 26.27 120.06 127.46"/><line class="cls-5" x1="96.83" y1="133.95" x2="116.43" y2="133.95"/><polygon class="cls-6" points="97.26 135.45 94.67 133.95 97.26 132.46 97.26 135.45"/><polygon class="cls-6" points="115.99 135.45 118.58 133.95 115.99 132.46 115.99 135.45"/><line class="cls-5" x1="93.21" y1="136.25" x2="93.21" y2="130.46"/><line class="cls-5" x1="119.79" y1="136.25" x2="119.79" y2="130.46"/><text class="cls-7" transform="translate(100.31 130.46)">C</text><line class="cls-5" x1="92.9" y1="23.27" x2="92.9" y2="17.48"/><line class="cls-5" x1="119.69" y1="23.27" x2="119.69" y2="17.48"/><line class="cls-5" x1="96.38" y1="19.26" x2="116.21" y2="19.26"/><polygon class="cls-6" points="96.82 20.75 94.23 19.25 96.82 17.76 96.82 20.75"/><polygon class="cls-6" points="115.77 20.75 118.36 19.25 115.77 17.76 115.77 20.75"/><text class="cls-7" transform="translate(99.9 16)">A</text><line class="cls-5" x1="96.38" y1="87.77" x2="116.21" y2="87.77"/><polygon class="cls-6" points="96.82 89.27 94.23 87.78 96.82 86.28 96.82 89.27"/><polygon class="cls-6" points="115.77 89.27 118.36 87.78 115.77 86.28 115.77 89.27"/><text class="cls-7" transform="translate(100.1 84.75)">B</text><line class="cls-8" x1="92.53" y1="89.94" x2="120.06" y2="89.94"/></g></g></svg>