<svg xmlns="http://www.w3.org/2000/svg" viewBox="0 0 140.4 127.96"><defs><style>.cls-1,.cls-3,.cls-4,.cls-5{fill:none;}.cls-1,.cls-2{stroke:#231815;}.cls-1,.cls-2,.cls-3,.cls-4{stroke-miterlimit:10;}.cls-1{stroke-dasharray:1;}.cls-2{fill:#f8f9f9;}.cls-3,.cls-5{stroke:#040000;}.cls-4{stroke:#00a0e9;}.cls-5{stroke-linejoin:round;}.cls-6{fill:#040000;}.cls-7{font-size:20px;fill:#231815;font-family:NanumSquareRoundR, NanumSquareRound;}</style></defs><title>자산 94</title><g id="레이어_2" data-name="레이어 2"><g id="레이어_1-2" data-name="레이어 1"><polygon class="cls-1" points="92.61 26.35 119.06 60.76 92.61 89.85 92.61 127.37 120.06 127.46 120.06 26.27 92.61 26.35"/><line class="cls-1" x1="92.61" y1="89.85" x2="120.06" y2="89.85"/><path class="cls-2" d="M92.61,26.27H2.13S14.72,47.16,10.28,59.6c0,0-9.19,24.3-9.78,35.56,0,0,.72,17.48,10.73,32.3H92.61V89.94l26.45-29.18Z"/><line class="cls-3" x1="92.61" y1="89.94" x2="1.17" y2="89.94"/><path class="cls-4" d="M2.13,26.27S14.72,47.16,10.28,59.6c0,0-9.19,24.3-9.78,35.56a68.78,68.78,0,0,0,10.73,32.3"/><line class="cls-5" x1="93.15" y1="23.27" x2="93.15" y2="17.48"/><line class="cls-5" x1="119.94" y1="23.27" x2="119.94" y2="17.48"/><line class="cls-5" x1="96.63" y1="19.26" x2="116.46" y2="19.26"/><polygon class="cls-6" points="97.07 20.75 94.48 19.25 97.07 17.76 97.07 20.75"/><polygon class="cls-6" points="116.02 20.75 118.61 19.25 116.02 17.76 116.02 20.75"/><text class="cls-7" transform="translate(100.15 16)">A</text><line class="cls-5" x1="96.84" y1="92.64" x2="116.66" y2="92.64"/><polygon class="cls-6" points="97.28 94.13 94.69 92.64 97.28 91.14 97.28 94.13"/><polygon class="cls-6" points="116.23 94.13 118.82 92.64 116.23 91.14 116.23 94.13"/><text class="cls-7" transform="translate(100.51 87.61)">C</text><line class="cls-5" x1="122.75" y1="26.23" x2="127.54" y2="26.23"/><line class="cls-5" x1="122.75" y1="60.57" x2="127.54" y2="60.57"/><line class="cls-5" x1="125.76" y1="28.89" x2="125.76" y2="58.07"/><polygon class="cls-6" points="124.77 29.18 125.76 27.45 126.76 29.18 124.77 29.18"/><polygon class="cls-6" points="124.77 57.78 125.76 59.51 126.76 57.78 124.77 57.78"/><text class="cls-7" transform="translate(127.6 49.02)">B</text></g></g></svg>