<svg xmlns="http://www.w3.org/2000/svg" viewBox="0 0 121.71 102.19"><defs><style>.cls-1{fill:#f8f9f9;stroke:#231815;}.cls-1,.cls-2,.cls-3,.cls-4,.cls-5,.cls-6{stroke-miterlimit:10;}.cls-2,.cls-3,.cls-4,.cls-5,.cls-6,.cls-8{fill:none;}.cls-2,.cls-8{stroke:#040000;}.cls-3{stroke:#00a0e9;}.cls-4,.cls-5,.cls-6{stroke:#e60012;}.cls-5{stroke-dasharray:0.98 0.98;}.cls-6{stroke-dasharray:0.99 0.99;}.cls-7{fill:#0768ac;}.cls-8{stroke-linejoin:round;}.cls-9{fill:#040000;}.cls-10{font-size:20px;fill:#231815;font-family:NanumSquareRoundR, NanumSquareRound;}.cls-11{fill:#e71f19;}</style></defs><title>자산 80</title><g id="레이어_2" data-name="레이어 2"><g id="레이어_1-2" data-name="레이어 1"><path class="cls-1" d="M11.74,101.69h109c-10-14.82-10.73-32.3-10.73-32.3.6-11.26,9.78-35.56,9.78-35.56C124.27,21.39,111.67.5,111.67.5H1s15.84,20.85,10.59,35c0,0-11.47,27.83-9.17,39.52C2.43,75,3.3,86.63,11.74,101.69Z"/><line class="cls-2" x1="110.81" y1="64.46" x2="3.15" y2="64.46"/><path class="cls-3" d="M111.82.75s12.61,20.75,7.89,33.68c0,0-9,23.06-9.63,35.56a68.25,68.25,0,0,0,10.77,31.86"/><path class="cls-3" d="M12.17,101.69A63,63,0,0,1,2,70c.6-11.26,9.78-35.55,9.78-35.55C16.27,22,1.34.5,1.34.5"/><line class="cls-4" x1="53.22" y1="42.15" x2="53.22" y2="41.65"/><line class="cls-5" x1="53.22" y1="40.67" x2="53.22" y2="27.44"/><polyline class="cls-4" points="53.23 26.95 53.23 26.45 53.73 26.45"/><line class="cls-6" x1="54.71" y1="26.45" x2="68.08" y2="26.45"/><line class="cls-4" x1="68.57" y1="26.45" x2="69.07" y2="26.45"/><rect class="cls-7" x="49.92" y="33.71" width="21.92" height="1.19" transform="translate(128.19 15.52) rotate(135)"/><line class="cls-8" x1="53.22" y1="22.85" x2="53.22" y2="17.06"/><line class="cls-8" x1="68.94" y1="22.85" x2="68.94" y2="17.06"/><line class="cls-8" x1="56.71" y1="18.83" x2="65.45" y2="18.83"/><polygon class="cls-9" points="57.15 20.33 54.56 18.83 57.15 17.34 57.15 20.33"/><polygon class="cls-9" points="65.02 20.33 67.61 18.83 65.02 17.34 65.02 20.33"/><text class="cls-10" transform="translate(54.55 16.32)">A</text><line class="cls-8" x1="72.3" y1="26.45" x2="78.09" y2="26.45"/><line class="cls-8" x1="76.32" y1="3.95" x2="76.32" y2="22.97"/><polygon class="cls-9" points="74.82 4.39 76.32 1.8 77.81 4.39 74.82 4.39"/><polygon class="cls-9" points="74.82 22.53 76.32 25.12 77.81 22.53 74.82 22.53"/><text class="cls-10" transform="translate(78.48 20.73)">B</text><line class="cls-8" x1="50.09" y1="42.17" x2="44.3" y2="42.17"/><line class="cls-8" x1="50.09" y1="26.46" x2="44.3" y2="26.46"/><line class="cls-8" x1="46.08" y1="38.69" x2="46.08" y2="29.95"/><polygon class="cls-9" points="47.57 38.25 46.08 40.84 44.58 38.25 47.57 38.25"/><polygon class="cls-9" points="47.57 30.38 46.08 27.79 44.58 30.38 47.57 30.38"/><text class="cls-10" transform="translate(29.75 41.48)">C</text><circle class="cls-11" cx="53.03" cy="42.15" r="1.42"/></g></g></svg>