<svg xmlns="http://www.w3.org/2000/svg" viewBox="0 0 121.71 102.19"><defs><style>.cls-1{fill:#f8f9f9;stroke:#231815;}.cls-1,.cls-2,.cls-3{stroke-miterlimit:10;}.cls-2,.cls-3,.cls-5{fill:none;}.cls-2,.cls-5{stroke:#040000;}.cls-3{stroke:#00a0e9;}.cls-4{fill:#0768ac;}.cls-5{stroke-linejoin:round;}.cls-6{fill:#040000;}.cls-7{font-size:20px;fill:#231815;font-family:NanumSquareRoundR, NanumSquareRound;}</style></defs><title>자산 97</title><g id="레이어_2" data-name="레이어 2"><g id="레이어_1-2" data-name="레이어 1"><path class="cls-1" d="M11.74,101.69h109c-10-14.82-10.73-32.3-10.73-32.3.6-11.26,9.78-35.56,9.78-35.56C124.27,21.39,111.67.5,111.67.5H1s15.84,20.85,10.59,35c0,0-11.47,27.83-9.17,39.52C2.43,75,3.3,86.63,11.74,101.69Z"/><line class="cls-2" x1="110.81" y1="64.46" x2="3.15" y2="64.46"/><path class="cls-3" d="M111.82.75s12.61,20.75,7.89,33.68c0,0-9,23.06-9.63,35.56a68.25,68.25,0,0,0,10.77,31.86"/><path class="cls-3" d="M12.17,101.69A63,63,0,0,1,2,70c.6-11.26,9.78-35.55,9.78-35.55C16.27,22,1.34.5,1.34.5"/><rect class="cls-4" x="54.23" y="32.79" width="17.77" height="1" transform="translate(29.82 96.4) rotate(-90)"/><line class="cls-5" x1="65.75" y1="24.46" x2="71.54" y2="24.46"/><line class="cls-5" x1="65.75" y1="42.17" x2="71.54" y2="42.17"/><line class="cls-5" x1="69.77" y1="27.95" x2="69.77" y2="38.69"/><polygon class="cls-6" points="68.27 28.38 69.77 25.79 71.26 28.38 68.27 28.38"/><polygon class="cls-6" points="68.27 38.25 69.77 40.84 71.26 38.25 68.27 38.25"/><text class="cls-7" transform="translate(72.75 39.98)">A</text><line class="cls-5" x1="54.26" y1="24.41" x2="60.8" y2="24.41"/><line class="cls-5" x1="56.26" y1="20.69" x2="56.26" y2="4.83"/><polygon class="cls-6" points="57.76 20.25 56.26 22.84 54.77 20.25 57.76 20.25"/><polygon class="cls-6" points="57.76 5.27 56.26 2.68 54.77 5.27 57.76 5.27"/><text class="cls-7" transform="translate(39.72 19.92)">B</text></g></g></svg>