<svg xmlns="http://www.w3.org/2000/svg" viewBox="0 0 121.71 102.19"><defs><style>.cls-1{fill:#f8f9f9;stroke:#231815;}.cls-1,.cls-2,.cls-3{stroke-miterlimit:10;}.cls-2,.cls-3,.cls-5{fill:none;}.cls-2,.cls-5{stroke:#040000;}.cls-3{stroke:#00a0e9;}.cls-4{fill:#0768ac;}.cls-5{stroke-linejoin:round;}.cls-6{fill:#040000;}.cls-7{font-size:20px;fill:#231815;font-family:NanumSquareRoundR, NanumSquareRound;}</style></defs><title>자산 98</title><g id="레이어_2" data-name="레이어 2"><g id="레이어_1-2" data-name="레이어 1"><path class="cls-1" d="M11.74,101.69h109c-10-14.82-10.73-32.3-10.73-32.3.6-11.26,9.78-35.56,9.78-35.56C124.27,21.39,111.67.5,111.67.5H1s15.84,20.85,10.59,35c0,0-11.47,27.83-9.17,39.52C2.43,75,3.3,86.63,11.74,101.69Z"/><line class="cls-2" x1="110.81" y1="64.46" x2="3.15" y2="64.46"/><path class="cls-3" d="M111.82.75s12.61,20.75,7.89,33.68c0,0-9,23.06-9.63,35.56a68.25,68.25,0,0,0,10.77,31.86"/><path class="cls-3" d="M12.17,101.69A63,63,0,0,1,2,70c.6-11.26,9.78-35.55,9.78-35.55C16.27,22,1.34.5,1.34.5"/><rect class="cls-4" x="44.82" y="32.08" width="32.15" height="1.19"/><line class="cls-5" x1="44.82" y1="29.5" x2="44.82" y2="23.71"/><line class="cls-5" x1="76.96" y1="29.5" x2="76.96" y2="23.71"/><line class="cls-5" x1="48.3" y1="25.49" x2="73.48" y2="25.49"/><polygon class="cls-6" points="48.74 26.98 46.15 25.49 48.74 23.99 48.74 26.98"/><polygon class="cls-6" points="73.04 26.98 75.63 25.49 73.04 23.99 73.04 26.98"/><text class="cls-7" transform="translate(54.49 22.23)">A</text><line class="cls-5" x1="35.74" y1="32.68" x2="42.27" y2="32.68"/><line class="cls-5" x1="37.74" y1="28.96" x2="37.74" y2="4.83"/><polygon class="cls-6" points="39.23 28.52 37.74 31.11 36.24 28.52 39.23 28.52"/><polygon class="cls-6" points="39.23 5.27 37.74 2.68 36.24 5.27 39.23 5.27"/><text class="cls-7" transform="translate(21.19 23.71)">B</text></g></g></svg>