<svg xmlns="http://www.w3.org/2000/svg" viewBox="0 0 121.71 102.19"><defs><style>.cls-1{fill:#f8f9f9;stroke:#231815;}.cls-1,.cls-2,.cls-3,.cls-7,.cls-8,.cls-9{stroke-miterlimit:10;}.cls-2,.cls-3,.cls-4,.cls-7,.cls-8,.cls-9{fill:none;}.cls-2,.cls-4{stroke:#040000;}.cls-3{stroke:#00a0e9;}.cls-4{stroke-linejoin:round;}.cls-5{fill:#040000;}.cls-6{font-size:20px;fill:#231815;font-family:NanumSquareRoundR, NanumSquareRound;}.cls-7,.cls-8,.cls-9{stroke:#e60012;}.cls-8{stroke-dasharray:0.98 0.98;}.cls-9{stroke-dasharray:0.99 0.99;}.cls-10{fill:#0768ac;}.cls-11{fill:#e71f19;}</style></defs><title>자산 78</title><g id="레이어_2" data-name="레이어 2"><g id="레이어_1-2" data-name="레이어 1"><path class="cls-1" d="M11.74,101.69h109c-10-14.82-10.73-32.3-10.73-32.3.6-11.26,9.78-35.56,9.78-35.56C124.27,21.39,111.67.5,111.67.5H1s15.84,20.85,10.59,35c0,0-11.47,27.83-9.17,39.52C2.43,75,3.3,86.63,11.74,101.69Z"/><line class="cls-2" x1="110.81" y1="64.46" x2="3.15" y2="64.46"/><path class="cls-3" d="M111.82.75s12.61,20.75,7.89,33.68c0,0-9,23.06-9.63,35.56a68.25,68.25,0,0,0,10.77,31.86"/><path class="cls-3" d="M12.17,101.69A63,63,0,0,1,2,70c.6-11.26,9.78-35.55,9.78-35.55C16.27,22,1.34.5,1.34.5"/><line class="cls-4" x1="52.61" y1="24.85" x2="52.61" y2="19.06"/><line class="cls-4" x1="69.32" y1="41.29" x2="69.32" y2="19.06"/><line class="cls-4" x1="56.09" y1="20.83" x2="65.84" y2="20.83"/><polygon class="cls-5" points="56.53 22.33 53.94 20.83 56.53 19.34 56.53 22.33"/><polygon class="cls-5" points="65.4 22.33 67.99 20.83 65.4 19.34 65.4 22.33"/><text class="cls-6" transform="translate(54.28 17.58)">A</text><line class="cls-4" x1="49.43" y1="44.17" x2="43.64" y2="44.17"/><line class="cls-4" x1="45.41" y1="40.69" x2="45.41" y2="31.95"/><polygon class="cls-5" points="46.91 40.25 45.41 42.84 43.92 40.25 46.91 40.25"/><polygon class="cls-5" points="46.91 32.38 45.41 29.79 43.92 32.38 46.91 32.38"/><text class="cls-6" transform="translate(28.86 43.6)">C</text><line class="cls-4" x1="43.32" y1="28.41" x2="49.86" y2="28.41"/><line class="cls-4" x1="45.43" y1="25.76" x2="45.43" y2="3.99"/><polygon class="cls-5" points="46.92 25.32 45.43 27.91 43.93 25.32 46.92 25.32"/><polygon class="cls-5" points="46.92 4.43 45.43 1.84 43.93 4.43 46.92 4.43"/><text class="cls-6" transform="translate(28.91 21.35)">B</text><line class="cls-7" x1="53.22" y1="28.46" x2="53.22" y2="28.96"/><line class="cls-8" x1="53.22" y1="29.94" x2="53.22" y2="43.17"/><polyline class="cls-7" points="53.23 43.66 53.23 44.16 53.73 44.16"/><line class="cls-9" x1="54.71" y1="44.16" x2="68.08" y2="44.16"/><line class="cls-7" x1="68.57" y1="44.16" x2="69.07" y2="44.16"/><rect class="cls-10" x="49.92" y="35.71" width="21.92" height="1.19" transform="translate(78.25 105.03) rotate(-135)"/><circle class="cls-11" cx="53.03" cy="28.46" r="1.42"/></g></g></svg>