<svg xmlns="http://www.w3.org/2000/svg" viewBox="0 0 142.28 110.38"><defs><style>.cls-1{font-size:20px;fill:#231815;font-family:NanumSquareRoundR, NanumSquareRound;}.cls-2,.cls-4,.cls-5,.cls-6,.cls-7{fill:none;}.cls-2,.cls-3{stroke:#231815;}.cls-2,.cls-3,.cls-4,.cls-5,.cls-6{stroke-miterlimit:10;}.cls-2,.cls-6{stroke-dasharray:1;}.cls-3{fill:#fff;}.cls-4,.cls-7{stroke:#040000;}.cls-5{stroke:#00a0e9;}.cls-6{stroke:#1d2088;}.cls-7{stroke-linejoin:round;}.cls-8{fill:#040000;}</style></defs><title>자산 91</title><g id="레이어_2" data-name="레이어 2"><g id="레이어_1-2" data-name="레이어 1"><text class="cls-1" transform="translate(0 60.6)">D</text><polygon class="cls-2" points="21.58 49.3 30.38 57.41 76.02 57.41 76.02 101.52 21.58 101.52 21.58 49.3"/><line class="cls-2" x1="21.58" y1="64.17" x2="75.65" y2="64.17"/><path class="cls-3" d="M21.58.5H132.24s12.6,20.89,8.15,33.33c0,0-9.18,24.3-9.78,35.56,0,0,.72,17.48,10.73,32.3H76l-.45-44.32-45.19,0-8.8-8.11Z"/><line class="cls-4" x1="76.02" y1="64.17" x2="130.46" y2="64.17"/><path class="cls-5" d="M132.24.5s12.6,20.89,8.15,33.33c0,0-9.18,24.3-9.78,35.56a68.92,68.92,0,0,0,10.73,32.3"/><path class="cls-6" d="M57.67,101.52l17.9-44.15a.18.18,0,0,1,.33,0l17.17,44.15"/><line class="cls-7" x1="71.7" y1="44.77" x2="24.2" y2="44.77"/><polygon class="cls-8" points="71.26 43.27 73.85 44.77 71.26 46.27 71.26 43.27"/><polygon class="cls-8" points="24.64 43.27 22.05 44.77 24.64 46.27 24.64 43.27"/><line class="cls-7" x1="75.18" y1="53.17" x2="75.18" y2="42.99"/><text class="cls-1" transform="translate(43 41.51)">A</text><line class="cls-7" x1="72.27" y1="108.08" x2="24.8" y2="108.08"/><polygon class="cls-8" points="71.83 106.59 74.42 108.08 71.83 109.58 71.83 106.59"/><polygon class="cls-8" points="25.23 106.59 22.64 108.08 25.23 109.58 25.23 106.59"/><line class="cls-7" x1="75.88" y1="110.38" x2="75.88" y2="104.59"/><line class="cls-7" x1="21.44" y1="110.38" x2="21.44" y2="104.59"/><text class="cls-1" transform="translate(42.08 104.59)">B</text><line class="cls-7" x1="26.83" y1="57.7" x2="15.13" y2="57.7"/><line class="cls-7" x1="19.92" y1="49.36" x2="15.13" y2="49.36"/><line class="cls-7" x1="16.9" y1="55.04" x2="16.9" y2="51.86"/><polygon class="cls-8" points="17.9 54.75 16.9 56.48 15.9 54.75 17.9 54.75"/><polygon class="cls-8" points="17.9 52.15 16.9 50.43 15.9 52.15 17.9 52.15"/><text class="cls-1" transform="translate(85.35 63)">C</text><line class="cls-7" x1="78.88" y1="57.33" x2="83.91" y2="57.33"/><line class="cls-7" x1="82.14" y1="61.37" x2="82.14" y2="59.78"/><polygon class="cls-8" points="83.13 61.08 82.14 62.8 81.14 61.08 83.13 61.08"/><polygon class="cls-8" points="83.13 60.07 82.14 58.34 81.14 60.07 83.13 60.07"/></g></g></svg>