<svg xmlns="http://www.w3.org/2000/svg" viewBox="0 0 121.33 110.38"><defs><style>.cls-1,.cls-3,.cls-4,.cls-5{fill:none;}.cls-1,.cls-3,.cls-5{stroke:#040000;}.cls-1,.cls-2,.cls-3,.cls-4{stroke-miterlimit:10;}.cls-1{stroke-dasharray:2;}.cls-2{fill:#fff;stroke:#231815;}.cls-4{stroke:#00a0e9;}.cls-5{stroke-linejoin:round;}.cls-6{fill:#040000;}.cls-7{font-size:20px;fill:#231815;font-family:NanumSquareRoundR, NanumSquareRound;}</style></defs><title>자산 104</title><g id="레이어_2" data-name="레이어 2"><g id="레이어_1-2" data-name="레이어 1"><polygon class="cls-1" points="23.69 101.69 0.68 78.67 0.63 101.69 23.69 101.69"/><path class="cls-2" d="M.63.5H111.29s12.6,20.89,8.15,33.33c0,0-9.18,24.3-9.78,35.56,0,0,.72,17.48,10.73,32.3H23.69L.63,78.67Z"/><line class="cls-3" x1="0.63" y1="64.17" x2="109.51" y2="64.17"/><path class="cls-4" d="M111.29.5s12.6,20.89,8.15,33.33c0,0-9.18,24.3-9.78,35.56a68.92,68.92,0,0,0,10.73,32.3"/><line class="cls-5" x1="4.11" y1="108.08" x2="19.11" y2="108.08"/><polygon class="cls-6" points="4.55 109.58 1.96 108.08 4.55 106.59 4.55 109.58"/><polygon class="cls-6" points="18.68 109.58 21.27 108.08 18.68 106.59 18.68 109.58"/><line class="cls-5" x1="0.5" y1="110.38" x2="0.5" y2="104.59"/><line class="cls-5" x1="22.47" y1="110.38" x2="22.47" y2="104.59"/><text class="cls-7" transform="translate(4.89 104.86)">A</text><line class="cls-5" x1="29.25" y1="78.24" x2="3.67" y2="78.24"/><line class="cls-5" x1="27.09" y1="81.96" x2="27.09" y2="97.96"/><polygon class="cls-6" points="25.59 82.4 27.09 79.81 28.59 82.4 25.59 82.4"/><polygon class="cls-6" points="25.59 97.52 27.09 100.11 28.59 97.52 25.59 97.52"/><text class="cls-7" transform="translate(28.77 96.76)">B</text></g></g></svg>