<svg xmlns="http://www.w3.org/2000/svg" viewBox="0 0 142.76 110.65"><defs><style>.cls-1,.cls-3,.cls-4,.cls-5{fill:none;}.cls-1,.cls-2{stroke:#231815;}.cls-1,.cls-2,.cls-3,.cls-4{stroke-miterlimit:10;}.cls-1{stroke-dasharray:1;}.cls-2{fill:#f8f9f9;}.cls-3,.cls-5{stroke:#040000;}.cls-4{stroke:#00a0e9;}.cls-5{stroke-linejoin:round;}.cls-6{fill:#040000;}.cls-7{font-size:20px;fill:#231815;font-family:NanumSquareRoundR, NanumSquareRound;}</style></defs><title>자산 93</title><g id="레이어_2" data-name="레이어 2"><g id="레이어_1-2" data-name="레이어 1"><polygon class="cls-1" points="48.9 0.94 48.9 64.44 22.6 86.8 48.9 101.96 21.88 101.96 21.88 0.78 48.9 0.94"/><line class="cls-1" x1="21.88" y1="64.44" x2="48.89" y2="64.44"/><path class="cls-2" d="M49,.5h83.73s12.59,20.89,8.14,33.33c0,0-9.18,24.3-9.77,35.56,0,0,.71,17.48,10.72,32.3H48.41L22.6,86.8,49.06,64.17Z"/><line class="cls-3" x1="48.89" y1="64.44" x2="130.76" y2="64.44"/><path class="cls-4" d="M132.55.78s12.59,20.89,8.15,33.33c0,0-9.19,24.3-9.78,35.56A68.73,68.73,0,0,0,141.65,102"/><line class="cls-5" x1="25.4" y1="108.36" x2="45" y2="108.36"/><polygon class="cls-6" points="25.83 109.86 23.24 108.36 25.83 106.86 25.83 109.86"/><polygon class="cls-6" points="44.56 109.86 47.15 108.36 44.56 106.86 44.56 109.86"/><line class="cls-5" x1="21.78" y1="110.65" x2="21.78" y2="104.86"/><line class="cls-5" x1="48.36" y1="110.65" x2="48.36" y2="104.86"/><text class="cls-7" transform="translate(29.39 104.86)">A</text><line class="cls-5" x1="25.27" y1="60.49" x2="45.09" y2="60.49"/><polygon class="cls-6" points="25.71 61.99 23.12 60.49 25.71 59 25.71 61.99"/><polygon class="cls-6" points="44.66 61.99 47.25 60.49 44.66 59 44.66 61.99"/><text class="cls-7" transform="translate(28.94 57.47)">C</text><line class="cls-5" x1="18.54" y1="102.05" x2="13.75" y2="102.05"/><line class="cls-5" x1="18.54" y1="86.71" x2="13.75" y2="86.71"/><line class="cls-5" x1="15.52" y1="99.39" x2="15.52" y2="89.2"/><polygon class="cls-6" points="16.52 99.09 15.52 100.82 14.53 99.09 16.52 99.09"/><polygon class="cls-6" points="16.52 89.5 15.52 87.77 14.53 89.5 16.52 89.5"/><text class="cls-7" transform="translate(0 101.68)">B</text></g></g></svg>