<svg xmlns="http://www.w3.org/2000/svg" viewBox="0 0 121.71 103.83"><defs><style>.cls-1{fill:#f8f9f9;stroke:#231815;}.cls-1,.cls-2,.cls-3,.cls-7{stroke-miterlimit:10;}.cls-2,.cls-3,.cls-4,.cls-7{fill:none;}.cls-2,.cls-4{stroke:#040000;}.cls-3{stroke:#00a0e9;}.cls-4{stroke-linejoin:round;}.cls-5{fill:#040000;}.cls-6{font-size:20px;fill:#231815;font-family:NanumSquareRoundR, NanumSquareRound;}.cls-7{stroke:#0768ac;stroke-dasharray:1;}.cls-8{fill:#e71f19;}</style></defs><title>자산 83</title><g id="레이어_2" data-name="레이어 2"><g id="레이어_1-2" data-name="레이어 1"><path class="cls-1" d="M11.74,101.69h109c-10-14.82-10.73-32.3-10.73-32.3.6-11.26,9.78-35.56,9.78-35.56C124.27,21.39,111.67.5,111.67.5H1s15.84,20.85,10.59,35c0,0-11.47,27.83-9.17,39.52C2.43,75,3.3,86.63,11.74,101.69Z"/><line class="cls-2" x1="110.81" y1="64.46" x2="3.15" y2="64.46"/><path class="cls-3" d="M111.82.75s12.61,20.75,7.89,33.68c0,0-9,23.06-9.63,35.56a68.25,68.25,0,0,0,10.77,31.86"/><path class="cls-3" d="M12.17,101.69A63,63,0,0,1,2,70c.6-11.26,9.78-35.55,9.78-35.55C16.27,22,1.34.5,1.34.5"/><line class="cls-4" x1="46.91" y1="83.08" x2="55.19" y2="83.08"/><line class="cls-4" x1="49.07" y1="97.98" x2="49.07" y2="86.63"/><polygon class="cls-5" points="50.57 97.54 49.07 100.13 47.57 97.54 50.57 97.54"/><polygon class="cls-5" points="50.57 87.07 49.07 84.48 47.57 87.07 50.57 87.07"/><text class="cls-6" transform="translate(33.14 98.73)">B</text><circle class="cls-7" cx="61.89" cy="83.08" r="4.91"/><circle class="cls-8" cx="61.89" cy="83.08" r="0.8"/><polyline class="cls-2" points="70.2 77.89 74.05 74.05 78.69 74.05"/><polygon class="cls-5" points="72.02 78.89 68.17 79.92 69.2 76.07 72.02 78.89"/><text class="cls-6" transform="translate(78.23 82.28)">A</text></g></g></svg>