<svg xmlns="http://www.w3.org/2000/svg" viewBox="0 0 121.71 111.62"><defs><style>.cls-1{fill:#f8f9f9;}.cls-1,.cls-4{stroke:#231815;}.cls-1,.cls-2,.cls-3,.cls-4{stroke-miterlimit:10;}.cls-2,.cls-3,.cls-4,.cls-5{fill:none;}.cls-2,.cls-5{stroke:#040000;}.cls-3{stroke:#00a0e9;}.cls-4{stroke-dasharray:2;}.cls-5{stroke-linejoin:round;}.cls-6{fill:#040000;}.cls-7{font-size:20px;fill:#231815;font-family:NanumSquareRoundR, NanumSquareRound;}</style></defs><title>자산 106</title><g id="레이어_2" data-name="레이어 2"><g id="레이어_1-2" data-name="레이어 1"><path class="cls-1" d="M11.74,101.69H40.6V76.33l46.08,0v25.31h34.09c-10-14.82-10.73-32.3-10.73-32.3.6-11.26,9.78-35.56,9.78-35.56C124.27,21.39,111.67.5,111.67.5H1s15.84,20.85,10.59,35c0,0-11.47,27.83-9.17,39.52C2.43,75,3.3,86.63,11.74,101.69Z"/><line class="cls-2" x1="110.81" y1="64.46" x2="3.15" y2="64.46"/><path class="cls-3" d="M111.82.75s12.61,20.75,7.89,33.68c0,0-9,23.06-9.63,35.56a68.25,68.25,0,0,0,10.77,31.86"/><path class="cls-3" d="M12.17,101.69A63,63,0,0,1,2,70c.6-11.26,9.78-35.55,9.78-35.55C16.27,22,1.34.5,1.34.5"/><rect class="cls-4" x="40.6" y="76.38" width="46.07" height="25.31"/><line class="cls-5" x1="44.21" y1="108.35" x2="83.32" y2="108.35"/><polygon class="cls-6" points="44.65 109.84 42.06 108.35 44.65 106.85 44.65 109.84"/><polygon class="cls-6" points="82.88 109.84 85.47 108.35 82.88 106.85 82.88 109.84"/><line class="cls-5" x1="40.6" y1="110.64" x2="40.6" y2="104.85"/><line class="cls-5" x1="86.68" y1="110.64" x2="86.68" y2="104.85"/><text class="cls-7" transform="translate(57.17 106.52)">A</text><line class="cls-5" x1="29.32" y1="76.43" x2="37.6" y2="76.43"/><line class="cls-5" x1="31.48" y1="98.39" x2="31.48" y2="79.99"/><polygon class="cls-6" points="32.98 97.95 31.48 100.54 29.98 97.95 32.98 97.95"/><polygon class="cls-6" points="32.98 80.42 31.48 77.83 29.98 80.42 32.98 80.42"/><text class="cls-7" transform="translate(15.3 95.74)">B</text></g></g></svg>