<svg xmlns="http://www.w3.org/2000/svg" viewBox="0 0 121.71 104.73"><defs><style>.cls-1{fill:#f8f9f9;stroke:#231815;}.cls-1,.cls-2,.cls-3,.cls-7{stroke-miterlimit:10;}.cls-2,.cls-3,.cls-4,.cls-7{fill:none;}.cls-2,.cls-4{stroke:#040000;}.cls-3{stroke:#00a0e9;}.cls-4{stroke-linejoin:round;}.cls-5{fill:#040000;}.cls-6{font-size:20px;fill:#231815;font-family:NanumSquareRoundR, NanumSquareRound;}.cls-7{stroke:#0768ac;stroke-dasharray:1;}.cls-8{fill:#e71f19;}</style></defs><title>자산 84</title><g id="레이어_2" data-name="레이어 2"><g id="레이어_1-2" data-name="레이어 1"><path class="cls-1" d="M11.74,101.69h109c-10-14.82-10.73-32.3-10.73-32.3.6-11.26,9.78-35.56,9.78-35.56C124.27,21.39,111.67.5,111.67.5H1s15.84,20.85,10.59,35c0,0-11.47,27.83-9.17,39.52C2.43,75,3.3,86.63,11.74,101.69Z"/><line class="cls-2" x1="110.81" y1="64.46" x2="3.15" y2="64.46"/><path class="cls-3" d="M111.82.75s12.61,20.75,7.89,33.68c0,0-9,23.06-9.63,35.56a68.25,68.25,0,0,0,10.77,31.86"/><path class="cls-3" d="M12.17,101.69A63,63,0,0,1,2,70c.6-11.26,9.78-35.55,9.78-35.55C16.27,22,1.34.5,1.34.5"/><line class="cls-4" x1="69.73" y1="75.28" x2="75.52" y2="75.28"/><line class="cls-4" x1="69.73" y1="92.99" x2="75.52" y2="92.99"/><line class="cls-4" x1="73.74" y1="78.76" x2="73.74" y2="89.51"/><polygon class="cls-5" points="72.25 79.2 73.74 76.61 75.24 79.2 72.25 79.2"/><polygon class="cls-5" points="72.25 89.07 73.74 91.66 75.24 89.07 72.25 89.07"/><text class="cls-6" transform="translate(76.96 90.72)">C</text><line class="cls-4" x1="45.5" y1="83.96" x2="53.78" y2="83.96"/><line class="cls-4" x1="47.66" y1="98.16" x2="47.66" y2="87.52"/><polygon class="cls-5" points="49.15 97.73 47.66 100.32 46.16 97.73 49.15 97.73"/><polygon class="cls-5" points="49.15 87.95 47.66 85.36 46.16 87.95 49.15 87.95"/><text class="cls-6" transform="translate(30.69 99.63)">B</text><rect class="cls-7" x="50.09" y="79.58" width="23.56" height="8.78" rx="4.39" transform="translate(145.83 22.09) rotate(90)"/><circle class="cls-8" cx="61.87" cy="83.96" r="0.8"/><polyline class="cls-2" points="64.78 67.21 69.28 59.05 73.92 59.05"/><polygon class="cls-5" points="66.81 67.66 63.4 69.72 63.32 65.74 66.81 67.66"/><text class="cls-6" transform="translate(74.49 62.8)">A</text></g></g></svg>