<svg xmlns="http://www.w3.org/2000/svg" viewBox="0 0 141.7 110.48"><defs><style>.cls-1,.cls-3,.cls-4,.cls-5{fill:none;}.cls-1,.cls-2{stroke:#231815;}.cls-1,.cls-2,.cls-3,.cls-4{stroke-miterlimit:10;}.cls-1{stroke-dasharray:1;}.cls-2{fill:#f8f9f9;}.cls-3,.cls-5{stroke:#040000;}.cls-4{stroke:#00a0e9;}.cls-5{stroke-linejoin:round;}.cls-6{fill:#040000;}.cls-7{font-size:20px;fill:#231815;font-family:NanumSquareRoundR, NanumSquareRound;}</style></defs><title>자산 92</title><g id="레이어_2" data-name="레이어 2"><g id="레이어_1-2" data-name="레이어 1"><polygon class="cls-1" points="93.39 0.58 93.39 64.08 119.68 86.44 93.39 101.6 120.06 101.6 120.06 0.5 93.39 0.58"/><line class="cls-1" x1="119.68" y1="64.17" x2="93.39" y2="64.17"/><path class="cls-2" d="M93.44.5H2.13s12.59,20.89,8.15,33.33c0,0-9.19,24.3-9.78,35.56,0,0,.72,17.48,10.73,32.3H93.39l26.29-15.25L93.39,64.08Z"/><line class="cls-3" x1="93.39" y1="64.17" x2="1.17" y2="64.17"/><path class="cls-4" d="M2.13.5s12.59,20.89,8.15,33.33c0,0-9.19,24.3-9.78,35.56a68.78,68.78,0,0,0,10.73,32.3"/><line class="cls-5" x1="97.05" y1="108.18" x2="116.65" y2="108.18"/><polygon class="cls-6" points="97.48 109.68 94.89 108.18 97.48 106.69 97.48 109.68"/><polygon class="cls-6" points="116.21 109.68 118.81 108.18 116.21 106.69 116.21 109.68"/><line class="cls-5" x1="93.44" y1="110.48" x2="93.44" y2="104.69"/><line class="cls-5" x1="120.01" y1="110.48" x2="120.01" y2="104.69"/><text class="cls-7" transform="translate(101.04 104.69)">A</text><line class="cls-5" x1="96.67" y1="60.96" x2="116.5" y2="60.96"/><polygon class="cls-6" points="97.11 62.46 94.52 60.96 97.11 59.47 97.11 62.46"/><polygon class="cls-6" points="116.06 62.46 118.65 60.96 116.06 59.47 116.06 62.46"/><text class="cls-7" transform="translate(100.34 57.94)">C</text><line class="cls-5" x1="123.01" y1="101.69" x2="127.8" y2="101.69"/><line class="cls-5" x1="123.01" y1="86.35" x2="127.8" y2="86.35"/><line class="cls-5" x1="126.03" y1="99.03" x2="126.03" y2="88.85"/><polygon class="cls-6" points="127.02 98.74 126.03 100.46 125.03 98.74 127.02 98.74"/><polygon class="cls-6" points="127.02 89.14 126.03 87.41 125.03 89.14 127.02 89.14"/><text class="cls-7" transform="translate(128.9 100.98)">B</text></g></g></svg>