<svg xmlns="http://www.w3.org/2000/svg" viewBox="0 0 139.99 110.48"><defs><style>.cls-1,.cls-3,.cls-4,.cls-5,.cls-6{fill:none;}.cls-1,.cls-2{stroke:#231815;}.cls-1,.cls-2,.cls-3,.cls-4,.cls-5{stroke-miterlimit:10;}.cls-1{stroke-dasharray:2;}.cls-2{fill:#f8f9f9;}.cls-3,.cls-6{stroke:#040000;}.cls-4{stroke:#00a0e9;}.cls-5{stroke:#1d2088;stroke-dasharray:1;}.cls-6{stroke-linejoin:round;}.cls-7{fill:#040000;}.cls-8{font-size:20px;fill:#231815;font-family:NanumSquareRoundR, NanumSquareRound;}</style></defs><title>자산 95</title><g id="레이어_2" data-name="레이어 2"><g id="레이어_1-2" data-name="레이어 1"><polygon class="cls-1" points="120.34 49.46 111.53 57.57 65.9 57.57 65.9 101.69 120.34 101.69 120.34 49.46"/><line class="cls-1" x1="66.21" y1="64.17" x2="120.34" y2="64.17"/><path class="cls-2" d="M120.06.5H2.13s12.59,20.89,8.15,33.33c0,0-9.19,24.3-9.78,35.56,0,0,.72,17.48,10.73,32.3H65.62V57.43l45.63.14,8.81-8.11Z"/><line class="cls-3" x1="65.9" y1="64.17" x2="1.45" y2="64.17"/><path class="cls-4" d="M2.41.5S15,21.39,10.56,33.83c0,0-9.19,24.3-9.78,35.56a68.78,68.78,0,0,0,10.73,32.3"/><path class="cls-5" d="M84.24,101.69,66.35,57.54a.18.18,0,0,0-.34,0L48.84,101.69"/><line class="cls-6" x1="69.51" y1="108.18" x2="116.98" y2="108.18"/><polygon class="cls-7" points="69.95 109.68 67.36 108.18 69.95 106.69 69.95 109.68"/><polygon class="cls-7" points="116.54 109.68 119.13 108.18 116.54 106.69 116.54 109.68"/><line class="cls-6" x1="65.9" y1="110.48" x2="65.9" y2="104.69"/><line class="cls-6" x1="120.34" y1="110.48" x2="120.34" y2="104.69"/><text class="cls-8" transform="translate(86.72 104.69)">B</text><line class="cls-6" x1="69.36" y1="46.02" x2="116.85" y2="46.02"/><polygon class="cls-7" points="69.8 47.52 67.21 46.02 69.8 44.52 69.8 47.52"/><polygon class="cls-7" points="116.41 47.52 119 46.02 116.41 44.52 116.41 47.52"/><line class="cls-6" x1="65.88" y1="54.43" x2="65.88" y2="44.25"/><text class="cls-8" transform="translate(86.82 42.76)">A</text><line class="cls-6" x1="114.95" y1="57.8" x2="126.65" y2="57.8"/><line class="cls-6" x1="121.86" y1="49.46" x2="126.65" y2="49.46"/><line class="cls-6" x1="124.87" y1="55.14" x2="124.87" y2="51.96"/><polygon class="cls-7" points="125.87 54.85 124.87 56.58 123.88 54.85 125.87 54.85"/><polygon class="cls-7" points="125.87 52.25 124.87 50.52 123.88 52.25 125.87 52.25"/><text class="cls-8" transform="translate(126.33 60.67)">D</text><text class="cls-8" transform="translate(43.08 69.1)">C</text><line class="cls-6" x1="62.9" y1="57.43" x2="57.86" y2="57.43"/><line class="cls-6" x1="59.64" y1="61.47" x2="59.64" y2="59.88"/><polygon class="cls-7" points="60.63 61.18 59.64 62.9 58.64 61.18 60.63 61.18"/><polygon class="cls-7" points="60.63 60.17 59.64 58.44 58.64 60.17 60.63 60.17"/></g></g></svg>