<?xml version="1.0" encoding="UTF-8" standalone="no"?>
<svg
   viewBox="0 0 150.2001 131.74671"
   version="1.1"
   id="svg40"
   sodipodi:docname="UA122.svg"
   width="150.2001"
   height="131.74672"
   inkscape:version="1.1 (c68e22c387, 2021-05-23)"
   xmlns:inkscape="http://www.inkscape.org/namespaces/inkscape"
   xmlns:sodipodi="http://sodipodi.sourceforge.net/DTD/sodipodi-0.dtd"
   xmlns="http://www.w3.org/2000/svg"
   xmlns:svg="http://www.w3.org/2000/svg"
   xmlns:rdf="http://www.w3.org/1999/02/22-rdf-syntax-ns#"
   xmlns:cc="http://creativecommons.org/ns#"
   xmlns:dc="http://purl.org/dc/elements/1.1/">
  <sodipodi:namedview
     id="namedview42"
     pagecolor="#ffffff"
     bordercolor="#666666"
     borderopacity="1.0"
     inkscape:pageshadow="2"
     inkscape:pageopacity="0.0"
     inkscape:pagecheckerboard="0"
     showgrid="false"
     inkscape:zoom="7.5307746"
     inkscape:cx="120.70471"
     inkscape:cy="103.70779"
     inkscape:window-width="1920"
     inkscape:window-height="1058"
     inkscape:window-x="-8"
     inkscape:window-y="636"
     inkscape:window-maximized="1"
     inkscape:current-layer="svg40" />
  <defs
     id="defs4">
    <style
       id="style2">.cls-1,.cls-3,.cls-4,.cls-5{fill:none;}.cls-1,.cls-3,.cls-5{stroke:#040000;}.cls-1,.cls-2,.cls-3,.cls-4{stroke-miterlimit:10;}.cls-1{stroke-dasharray:2;}.cls-2{fill:#f8f9f9;stroke:#231815;}.cls-4{stroke:#00a0e9;}.cls-5{stroke-linejoin:round;}.cls-6{fill:#040000;}.cls-7{font-size:20px;fill:#231815;font-family:NanumSquareRoundR, NanumSquareRound;}</style>
  </defs>
  <title
     id="title6">UA122</title>
  <g
     id="g905">
    <path
       class="cls-2"
       d="M 120.06093,0.5 H 2.1309268 c 0,0 12.5900002,20.89 8.1500002,33.33 0,0 -9.1900002,24.3 -9.78000015,35.56 0,0 0.71999995,17.48 10.73000015,32.3 l 90.904453,0.16935 0.0419,-17.857811 17.9281,-0.112188 z"
       id="path10"
       sodipodi:nodetypes="ccccccccc" />
    <line
       class="cls-3"
       x1="120.06092"
       y1="64.169998"
       x2="1.1709268"
       y2="64.169998"
       id="line12" />
    <path
       class="cls-4"
       d="m 2.1309268,0.5 c 0,0 12.5900002,20.89 8.1500002,33.33 0,0 -9.1900002,24.3 -9.78000015,35.56 a 68.78,68.78 0 0 0 10.73000015,32.3"
       id="path14" />
    <line
       class="cls-2"
       x1="102.13538"
       x2="103.13538"
       y1="101.85935"
       y2="101.85935"
       id="line12-7"
       style="fill:none;stroke:#040000;stroke-linejoin:round" />
    <line
       class="cls-3"
       x1="104.91536"
       x2="118.22536"
       y1="101.85935"
       y2="101.85935"
       id="line14"
       style="fill:none;stroke:#040000;stroke-linejoin:round;stroke-dasharray:1.77, 1.77" />
    <polyline
       class="cls-2"
       points="126.3 101.61 127.3 101.61 127.3 100.61"
       id="polyline16"
       transform="translate(-7.1946304,0.24935618)"
       style="fill:none;stroke:#040000;stroke-linejoin:round" />
    <line
       class="cls-3"
       x1="120.10537"
       x2="120.10537"
       y1="99.089348"
       y2="85.77935"
       id="line18"
       style="fill:none;stroke:#040000;stroke-linejoin:round;stroke-dasharray:1.77, 1.77" />
    <line
       class="cls-2"
       x1="120.10537"
       x2="120.10537"
       y1="84.889351"
       y2="83.889351"
       id="line20"
       style="fill:none;stroke:#040000;stroke-linejoin:round" />
    <line
       class="cls-2"
       x1="120.10537"
       x2="120.10537"
       y1="106.85935"
       y2="116.64935"
       id="line22"
       style="fill:none;stroke:#040000;stroke-linejoin:round" />
    <line
       class="cls-2"
       x1="102.13538"
       x2="102.13538"
       y1="106.85935"
       y2="116.64935"
       id="line24"
       style="fill:none;stroke:#040000;stroke-linejoin:round" />
    <line
       class="cls-2"
       x1="116.62537"
       x2="105.62537"
       y1="114.87935"
       y2="114.87935"
       id="line26"
       style="fill:none;stroke:#040000;stroke-linejoin:round" />
    <polygon
       class="cls-4"
       points="123.38,116.13 123.38,113.13 125.97,114.63 "
       id="polygon28"
       transform="translate(-7.1946304,0.24935618)"
       style="fill:#040000;stroke:none" />
    <polygon
       class="cls-4"
       points="113.25,116.13 113.25,113.13 110.66,114.63 "
       id="polygon30"
       transform="translate(-7.1946304,0.24935618)"
       style="fill:#040000;stroke:none" />
    <line
       class="cls-2"
       x1="125.10537"
       x2="134.89537"
       y1="101.85935"
       y2="101.85935"
       id="line34"
       style="fill:none;stroke:#040000;stroke-linejoin:round" />
    <line
       class="cls-2"
       x1="125.10537"
       x2="134.89537"
       y1="83.889351"
       y2="83.889351"
       id="line36"
       style="fill:none;stroke:#040000;stroke-linejoin:round" />
    <line
       class="cls-2"
       x1="133.12538"
       x2="133.12538"
       y1="98.379349"
       y2="87.379349"
       id="line38"
       style="fill:none;stroke:#040000;stroke-linejoin:round" />
    <polygon
       class="cls-4"
       points="138.82,97.69 141.81,97.69 140.32,100.28 "
       id="polygon40"
       transform="translate(-7.1946304,0.24935618)"
       style="fill:#040000;stroke:none" />
    <polygon
       class="cls-4"
       points="138.82,87.57 141.81,87.57 140.32,84.97 "
       id="polygon42"
       transform="translate(-7.1946304,0.24935618)"
       style="fill:#040000;stroke:none" />
    <line
       class="cls-2"
       x1="133.2854"
       x2="133.2854"
       y1="76.369354"
       y2="81.420349"
       fill="none"
       stroke="#040000"
       stroke-linejoin="round"
       stroke-width="0.67762"
       id="line48"
       style="fill:none;stroke:#040000;stroke-linejoin:round" />
    <line
       class="cls-2"
       x1="125.27541"
       x2="135.0654"
       y1="73.951355"
       y2="73.951355"
       fill="none"
       stroke="#040000"
       stroke-linejoin="round"
       id="line50"
       style="fill:none;stroke:#040000;stroke-linejoin:round" />
    <polygon
       class="cls-4"
       transform="matrix(1,0,0,-1,-7.0251574,124.18935)"
       points="141.81,46.32 140.32,48.91 138.82,46.32 "
       fill="#040000"
       id="polygon52"
       style="fill:#040000;stroke:none" />
    <polygon
       class="cls-4"
       transform="matrix(1,0,0,-1,-7.0251574,116.18935)"
       points="138.82,36.19 141.81,36.19 140.32,33.6 "
       fill="#040000"
       id="polygon54"
       style="fill:#040000;stroke:none" />
    <text
       transform="scale(1,-1)"
       x="136.82341"
       y="-69.765045"
       font-family="Aparajita"
       font-size="21.333px"
       style="font-style:normal;font-variant:normal;font-weight:normal;font-stretch:normal;font-size:20px;line-height:1.25;font-family:NanumSquareRoundR, NanumSquareRound;-inkscape-font-specification:'NanumSquareRoundR, NanumSquareRound, Normal';font-variant-ligatures:normal;font-variant-caps:normal;font-variant-numeric:normal;font-variant-east-asian:normal;fill:#000000"
       xml:space="preserve"
       id="text58"><tspan
         x="136.82341"
         y="-69.765045"
         id="tspan56"
         style="font-style:normal;font-variant:normal;font-weight:normal;font-stretch:normal;font-size:20px;font-family:NanumSquareRoundR, NanumSquareRound;-inkscape-font-specification:'NanumSquareRoundR, NanumSquareRound, Normal';font-variant-ligatures:normal;font-variant-caps:normal;font-variant-numeric:normal;font-variant-east-asian:normal;fill:#000000">D</tspan></text>
    <g
       stroke-dasharray="0.0455166, 0.0227583"
       stroke-width="0.022758"
       id="g72"
       style="fill:#000080"
       transform="translate(-7.1945974,0.24935618)">
      <path
         d="m 118.13,82.667 -0.54765,0.53453 0.26317,0.27778 0.26316,0.27778 1.1278,-1.096 -0.26462,-0.26572 c -0.14554,-0.14615 -0.27127,-0.26508 -0.2794,-0.26429 -0.008,7.89e-4 -0.26123,0.24197 -0.56243,0.53596 z"
         id="path60" />
      <path
         d="m 119.84,80.988 -0.54616,0.53404 0.53708,0.53485 0.14961,-0.14105 c 0.0823,-0.07758 0.33199,-0.32024 0.5549,-0.53924 l 0.4053,-0.39819 -0.2625,-0.26359 c -0.14437,-0.14498 -0.26915,-0.26298 -0.27728,-0.26222 -0.008,7.56e-4 -0.26056,0.24169 -0.56095,0.53541 z"
         id="path62" />
      <path
         d="m 121.54,79.292 -0.54749,0.54804 0.27055,0.26942 0.27054,0.26942 1.1089,-1.1078 -0.26245,-0.26355 c -0.14435,-0.14495 -0.26923,-0.26355 -0.27751,-0.26355 -0.008,0 -0.26143,0.24662 -0.56256,0.54804 z"
         id="path64" />
      <path
         d="m 123.24,77.592 -0.55428,0.55482 0.54051,0.54051 1.1086,-1.1096 -0.54051,-0.54051 z"
         id="path66" />
      <path
         d="m 124.93,75.899 -0.53981,0.54037 0.26942,0.27054 0.26941,0.27054 1.0958,-1.0947 -0.26245,-0.26355 c -0.14435,-0.14495 -0.26923,-0.26355 -0.27752,-0.26355 -0.008,0 -0.25798,0.24317 -0.55487,0.54037 z"
         id="path68" />
      <path
         d="m 126.65,74.201 -0.56339,0.54616 0.26992,0.26782 0.26991,0.26782 0.55662,-0.53491 c 0.30614,-0.2942 0.55662,-0.54299 0.55662,-0.55286 0,-0.0099 -0.11841,-0.13545 -0.26314,-0.27907 l -0.26315,-0.26112 z"
         id="path70" />
    </g>
    <line
       class="cls-2"
       x1="97.585396"
       x2="87.7994"
       y1="83.89035"
       y2="83.89035"
       fill="none"
       stroke="#040000"
       stroke-linejoin="round"
       id="line76"
       style="fill:none;stroke:#040000;stroke-linejoin:round" />
    <line
       class="cls-2"
       x1="89.569397"
       x2="89.569397"
       y1="87.370354"
       y2="98.370354"
       fill="none"
       stroke="#040000"
       stroke-linejoin="round"
       id="line78"
       style="fill:none;stroke:#040000;stroke-linejoin:round" />
    <polygon
       class="cls-4"
       transform="rotate(180,114.94269,67.065678)"
       points="141.81,46.32 140.32,48.91 138.82,46.32 "
       fill="#040000"
       id="polygon80"
       style="fill:#040000;stroke:none" />
    <polygon
       class="cls-4"
       transform="rotate(180,114.94269,67.065678)"
       points="141.81,36.19 140.32,33.6 138.82,36.19 "
       fill="#040000"
       id="polygon82"
       style="fill:#040000;stroke:none" />
    <text
       x="74.482101"
       y="99.73819"
       font-family="Aparajita"
       font-size="21.333px"
       style="font-style:normal;font-variant:normal;font-weight:normal;font-stretch:normal;font-size:20px;line-height:1.25;font-family:NanumSquareRoundR, NanumSquareRound;-inkscape-font-specification:'NanumSquareRoundR, NanumSquareRound, Normal';font-variant-ligatures:normal;font-variant-caps:normal;font-variant-numeric:normal;font-variant-east-asian:normal"
       xml:space="preserve"
       id="text86"><tspan
         x="74.482101"
         y="99.73819"
         id="tspan84"
         style="font-style:normal;font-variant:normal;font-weight:normal;font-stretch:normal;font-size:20px;font-family:NanumSquareRoundR, NanumSquareRound;-inkscape-font-specification:'NanumSquareRoundR, NanumSquareRound, Normal';font-variant-ligatures:normal;font-variant-caps:normal;font-variant-numeric:normal;font-variant-east-asian:normal">C</tspan></text>
    <text
       x="136.82597"
       y="99.611931"
       font-family="Aparajita"
       font-size="21.333px"
       style="font-style:normal;font-variant:normal;font-weight:normal;font-stretch:normal;font-size:20px;line-height:1.25;font-family:NanumSquareRoundR, NanumSquareRound;-inkscape-font-specification:'NanumSquareRoundR, NanumSquareRound, Normal';font-variant-ligatures:normal;font-variant-caps:normal;font-variant-numeric:normal;font-variant-east-asian:normal"
       xml:space="preserve"
       id="text86-2"><tspan
         sodipodi:role="line"
         id="tspan1811"
         x="136.82597"
         y="99.611931">B</tspan></text>
    <text
       x="104.69115"
       y="131.74672"
       font-family="Aparajita"
       font-size="21.333px"
       style="font-style:normal;font-variant:normal;font-weight:normal;font-stretch:normal;font-size:20px;line-height:1.25;font-family:NanumSquareRoundR, NanumSquareRound;-inkscape-font-specification:'NanumSquareRoundR, NanumSquareRound, Normal';font-variant-ligatures:normal;font-variant-caps:normal;font-variant-numeric:normal;font-variant-east-asian:normal"
       xml:space="preserve"
       id="text86-4"><tspan
         sodipodi:role="line"
         id="tspan1791"
         x="104.69115"
         y="131.74672">A</tspan></text>
  </g>
  <metadata
     id="metadata1831">
    <rdf:RDF>
      <cc:Work
         rdf:about="">
        <dc:title>UA122</dc:title>
      </cc:Work>
    </rdf:RDF>
  </metadata>
</svg>
