<svg xmlns="http://www.w3.org/2000/svg" viewBox="0 0 120.56 110.48"><defs><style>.cls-1,.cls-2,.cls-3,.cls-5,.cls-6{fill:none;}.cls-1,.cls-2,.cls-3,.cls-6{stroke:#040000;}.cls-1,.cls-2,.cls-3,.cls-4,.cls-5{stroke-miterlimit:10;}.cls-2{stroke-dasharray:2.04 2.04;}.cls-3{stroke-dasharray:1.91 1.91;}.cls-4{fill:#f8f9f9;stroke:#231815;}.cls-5{stroke:#00a0e9;}.cls-6{stroke-linejoin:round;}.cls-7{fill:#040000;}.cls-8{font-size:20px;fill:#231815;font-family:NanumSquareRoundR, NanumSquareRound;}</style></defs><title>자산 105</title><g id="레이어_2" data-name="레이어 2"><g id="레이어_1-2" data-name="레이어 1"><polyline class="cls-1" points="98.05 101.69 97.05 101.69 97.75 100.98"/><line class="cls-2" x1="99.19" y1="99.54" x2="118.63" y2="80.1"/><polyline class="cls-1" points="119.35 79.38 120.06 78.67 120.06 79.67"/><line class="cls-3" x1="120.06" y1="81.58" x2="120.06" y2="99.73"/><polyline class="cls-1" points="120.06 100.69 120.06 101.69 119.06 101.69"/><line class="cls-3" x1="117.15" y1="101.69" x2="99" y2="101.69"/><path class="cls-4" d="M120.06.5H2.13s12.59,20.89,8.15,33.33c0,0-9.19,24.3-9.78,35.56,0,0,.72,17.48,10.73,32.3H97.05l23-23Z"/><line class="cls-1" x1="120.06" y1="64.17" x2="1.17" y2="64.17"/><path class="cls-5" d="M2.13.5s12.59,20.89,8.15,33.33c0,0-9.19,24.3-9.78,35.56a68.78,68.78,0,0,0,10.73,32.3"/><line class="cls-6" x1="101.7" y1="108.18" x2="116.7" y2="108.18"/><polygon class="cls-7" points="102.14 109.68 99.55 108.18 102.14 106.69 102.14 109.68"/><polygon class="cls-7" points="116.26 109.68 118.85 108.18 116.26 106.69 116.26 109.68"/><line class="cls-6" x1="98.09" y1="110.48" x2="98.09" y2="104.69"/><line class="cls-6" x1="120.06" y1="110.48" x2="120.06" y2="104.69"/><text class="cls-8" transform="translate(101.85 104.69)">A</text><line class="cls-6" x1="92.85" y1="78.69" x2="117.06" y2="78.69"/><line class="cls-6" x1="95.01" y1="98.24" x2="95.01" y2="82.24"/><polygon class="cls-7" points="96.5 97.8 95.01 100.39 93.51 97.8 96.5 97.8"/><polygon class="cls-7" points="96.5 82.67 95.01 80.08 93.51 82.67 96.5 82.67"/><text class="cls-8" transform="translate(79.12 96.62)">B</text></g></g></svg>