<svg xmlns="http://www.w3.org/2000/svg" viewBox="0 0 121.71 105.46"><defs><style>.cls-1{fill:#f8f9f9;stroke:#231815;}.cls-1,.cls-2,.cls-3{stroke-miterlimit:10;}.cls-2,.cls-3,.cls-5{fill:none;}.cls-2,.cls-5{stroke:#040000;}.cls-3{stroke:#00a0e9;}.cls-4{fill:#0768ac;}.cls-5{stroke-linejoin:round;}.cls-6{fill:#040000;}.cls-7{font-size:20px;fill:#231815;font-family:NanumSquareRoundR, NanumSquareRound;}</style></defs><title>자산 108</title><g id="레이어_2" data-name="레이어 2"><g id="레이어_1-2" data-name="레이어 1"><path class="cls-1" d="M11.74,101.69h109c-10-14.82-10.73-32.3-10.73-32.3.6-11.26,9.78-35.56,9.78-35.56C124.27,21.39,111.67.5,111.67.5H1s15.84,20.85,10.59,35c0,0-11.47,27.83-9.17,39.52C2.43,75,3.3,86.63,11.74,101.69Z"/><line class="cls-2" x1="110.81" y1="64.46" x2="3.15" y2="64.46"/><path class="cls-3" d="M111.82.75s12.61,20.75,7.89,33.68c0,0-9,23.06-9.63,35.56a68.25,68.25,0,0,0,10.77,31.86"/><path class="cls-3" d="M12.17,101.69A63,63,0,0,1,2,70c.6-11.26,9.78-35.55,9.78-35.55C16.27,22,1.34.5,1.34.5"/><rect class="cls-4" x="48.1" y="78.46" width="17.77" height="1" transform="translate(-21.98 135.94) rotate(-90)"/><line class="cls-5" x1="60.62" y1="70.13" x2="66.41" y2="70.13"/><line class="cls-5" x1="60.62" y1="87.84" x2="66.41" y2="87.84"/><line class="cls-5" x1="64.64" y1="73.62" x2="64.64" y2="84.36"/><polygon class="cls-6" points="63.14 74.05 64.64 71.46 66.13 74.05 63.14 74.05"/><polygon class="cls-6" points="63.14 83.92 64.64 86.51 66.13 83.92 63.14 83.92"/><text class="cls-7" transform="translate(67.81 85.82)">A</text><line class="cls-5" x1="44.96" y1="87.84" x2="53.24" y2="87.84"/><line class="cls-5" x1="47.11" y1="98.08" x2="47.11" y2="91.4"/><polygon class="cls-6" points="48.61 97.65 47.12 100.24 45.62 97.65 48.61 97.65"/><polygon class="cls-6" points="48.61 91.83 47.12 89.24 45.62 91.83 48.61 91.83"/><text class="cls-7" transform="translate(30.84 100.36)">B</text></g></g></svg>