<svg xmlns="http://www.w3.org/2000/svg" viewBox="0 0 121.71 105.34"><defs><style>.cls-1{fill:#f8f9f9;stroke:#231815;}.cls-1,.cls-2,.cls-3,.cls-7,.cls-8,.cls-9{stroke-miterlimit:10;}.cls-2,.cls-3,.cls-4,.cls-7,.cls-8,.cls-9{fill:none;}.cls-2,.cls-4{stroke:#040000;}.cls-3{stroke:#00a0e9;}.cls-4{stroke-linejoin:round;}.cls-5{fill:#040000;}.cls-6{font-size:20px;fill:#231815;font-family:NanumSquareRoundR, NanumSquareRound;}.cls-7,.cls-8,.cls-9{stroke:#e60012;}.cls-8{stroke-dasharray:0.98 0.98;}.cls-9{stroke-dasharray:0.99 0.99;}.cls-10{fill:#0768ac;}.cls-11{fill:#e71f19;}</style></defs><title>자산 77</title><g id="레이어_2" data-name="레이어 2"><g id="레이어_1-2" data-name="레이어 1"><path class="cls-1" d="M11.74,101.69h109c-10-14.82-10.73-32.3-10.73-32.3.6-11.26,9.78-35.56,9.78-35.56C124.27,21.39,111.67.5,111.67.5H1s15.84,20.85,10.59,35c0,0-11.47,27.83-9.17,39.52C2.43,75,3.3,86.63,11.74,101.69Z"/><line class="cls-2" x1="110.81" y1="64.46" x2="3.15" y2="64.46"/><path class="cls-3" d="M111.82.75s12.61,20.75,7.89,33.68c0,0-9,23.06-9.63,35.56a68.25,68.25,0,0,0,10.77,31.86"/><path class="cls-3" d="M12.17,101.69A63,63,0,0,1,2,70c.6-11.26,9.78-35.55,9.78-35.55C16.27,22,1.34.5,1.34.5"/><line class="cls-4" x1="46.16" y1="70.43" x2="46.16" y2="56.64"/><line class="cls-4" x1="61.88" y1="85.35" x2="61.88" y2="56.64"/><line class="cls-4" x1="49.65" y1="58.42" x2="58.39" y2="58.42"/><polygon class="cls-5" points="50.09 59.91 47.49 58.42 50.09 56.92 50.09 59.91"/><polygon class="cls-5" points="57.95 59.91 60.54 58.42 57.95 56.92 57.95 59.91"/><text class="cls-6" transform="translate(47.49 55.16)">A</text><line class="cls-4" x1="43.07" y1="89.16" x2="37.28" y2="89.16"/><line class="cls-4" x1="43.07" y1="73.44" x2="37.28" y2="73.44"/><line class="cls-4" x1="39.06" y1="85.67" x2="39.06" y2="76.93"/><polygon class="cls-5" points="40.55 85.24 39.06 87.83 37.56 85.24 40.55 85.24"/><polygon class="cls-5" points="40.55 77.37 39.06 74.78 37.56 77.37 40.55 77.37"/><text class="cls-6" transform="translate(23.24 88.24)">C</text><line class="cls-4" x1="72.28" y1="89.21" x2="64" y2="89.21"/><line class="cls-4" x1="70.12" y1="98.08" x2="70.12" y2="92.76"/><polygon class="cls-5" points="71.62 97.65 70.13 100.24 68.63 97.65 71.62 97.65"/><polygon class="cls-5" points="71.62 93.19 70.13 90.61 68.63 93.19 71.62 93.19"/><text class="cls-6" transform="translate(72.33 100.24)">B</text><line class="cls-7" x1="46.1" y1="73.56" x2="46.1" y2="74.06"/><line class="cls-8" x1="46.1" y1="75.04" x2="46.1" y2="88.27"/><polyline class="cls-7" points="46.1 88.76 46.1 89.26 46.6 89.26"/><line class="cls-9" x1="47.59" y1="89.26" x2="60.95" y2="89.26"/><line class="cls-7" x1="61.44" y1="89.26" x2="61.94" y2="89.26"/><rect class="cls-10" x="42.79" y="80.81" width="21.92" height="1.19" transform="translate(34.2 176.97) rotate(-135)"/><circle class="cls-11" cx="61.41" cy="89.06" r="1.42"/></g></g></svg>