<svg xmlns="http://www.w3.org/2000/svg" viewBox="0 0 121.71 105.46"><defs><style>.cls-1{fill:#f8f9f9;stroke:#231815;}.cls-1,.cls-2,.cls-3,.cls-7,.cls-8,.cls-9{stroke-miterlimit:10;}.cls-2,.cls-3,.cls-4,.cls-7,.cls-8,.cls-9{fill:none;}.cls-2,.cls-4{stroke:#040000;}.cls-3{stroke:#00a0e9;}.cls-4{stroke-linejoin:round;}.cls-5{fill:#040000;}.cls-6{font-size:20px;fill:#231815;font-family:NanumSquareRoundR, NanumSquareRound;}.cls-7,.cls-8,.cls-9{stroke:#e60012;}.cls-8{stroke-dasharray:0.98 0.98;}.cls-9{stroke-dasharray:0.99 0.99;}.cls-10{fill:#0768ac;}.cls-11{fill:#e71f19;}</style></defs><title>자산 79</title><g id="레이어_2" data-name="레이어 2"><g id="레이어_1-2" data-name="레이어 1"><path class="cls-1" d="M11.74,101.69h109c-10-14.82-10.73-32.3-10.73-32.3.6-11.26,9.78-35.56,9.78-35.56C124.27,21.39,111.67.5,111.67.5H1s15.84,20.85,10.59,35c0,0-11.47,27.83-9.17,39.52C2.43,75,3.3,86.63,11.74,101.69Z"/><line class="cls-2" x1="110.81" y1="64.46" x2="3.15" y2="64.46"/><path class="cls-3" d="M111.82.75s12.61,20.75,7.89,33.68c0,0-9,23.06-9.63,35.56a68.25,68.25,0,0,0,10.77,31.86"/><path class="cls-3" d="M12.17,101.69A63,63,0,0,1,2,70c.6-11.26,9.78-35.55,9.78-35.55C16.27,22,1.34.5,1.34.5"/><line class="cls-4" x1="47.1" y1="70.43" x2="47.1" y2="56.64"/><line class="cls-4" x1="62.81" y1="70.43" x2="62.81" y2="56.64"/><line class="cls-4" x1="50.58" y1="58.42" x2="59.33" y2="58.42"/><polygon class="cls-5" points="51.02 59.91 48.43 58.42 51.02 56.92 51.02 59.91"/><polygon class="cls-5" points="58.89 59.91 61.48 58.42 58.89 56.92 58.89 59.91"/><text class="cls-6" transform="translate(48.42 55.16)">A</text><line class="cls-4" x1="43.68" y1="89.41" x2="37.89" y2="89.41"/><line class="cls-4" x1="43.68" y1="73.69" x2="37.89" y2="73.69"/><line class="cls-4" x1="39.67" y1="85.92" x2="39.67" y2="77.18"/><polygon class="cls-5" points="41.16 85.48 39.67 88.07 38.17 85.48 41.16 85.48"/><polygon class="cls-5" points="41.16 77.61 39.67 75.02 38.17 77.61 41.16 77.61"/><text class="cls-6" transform="translate(23.79 88.24)">C</text><line class="cls-4" x1="59.74" y1="89.21" x2="51.46" y2="89.21"/><line class="cls-4" x1="57.58" y1="98.08" x2="57.58" y2="92.76"/><polygon class="cls-5" points="59.08 97.65 57.58 100.24 56.09 97.65 59.08 97.65"/><polygon class="cls-5" points="59.08 93.19 57.58 90.61 56.09 93.19 59.08 93.19"/><text class="cls-6" transform="translate(60.23 100.36)">B</text><line class="cls-7" x1="47.1" y1="89.4" x2="47.1" y2="88.9"/><line class="cls-8" x1="47.1" y1="87.92" x2="47.1" y2="74.69"/><polyline class="cls-7" points="47.1 74.2 47.1 73.7 47.6 73.7"/><line class="cls-9" x1="48.59" y1="73.7" x2="61.95" y2="73.7"/><line class="cls-7" x1="62.44" y1="73.7" x2="62.94" y2="73.7"/><rect class="cls-10" x="43.79" y="80.96" width="21.92" height="1.19" transform="translate(151.13 100.5) rotate(135)"/><circle class="cls-11" cx="46.91" cy="89.21" r="1.42"/></g></g></svg>