<?xml version="1.0" standalone="no"?>
<!DOCTYPE svg PUBLIC "-//W3C//DTD SVG 20010904//EN"
 "http://www.w3.org/TR/2001/REC-SVG-20010904/DTD/svg10.dtd">
<svg version="1.0" xmlns="http://www.w3.org/2000/svg"
 width="1001.000000pt" height="733.000000pt" viewBox="0 0 1001.000000 733.000000"
 preserveAspectRatio="xMidYMid meet">

<g transform="translate(0.000000,733.000000) scale(0.100000,-0.100000)"
fill="#000000" stroke="none">
<path d="M4863 6693 c-10 -3 -13 -76 -13 -314 l0 -309 23 -5 c18 -4 69 -2 100
4 4 0 7 140 7 310 0 287 -1 310 -17 314 -25 6 -86 7 -100 0z"/>
<path d="M4863 5393 c-20 -8 -18 -599 1 -619 18 -17 53 -18 59 -1 4 10 6 10 6
0 1 -17 19 -16 37 1 11 12 14 68 14 315 0 277 -1 300 -17 304 -25 6 -86 7
-100 0z"/>
<path d="M7980 4955 c0 -10 -10 -15 -30 -15 -16 0 -30 -4 -30 -10 0 -5 9 -10
20 -10 17 0 20 -7 20 -42 0 -24 4 -47 8 -53 4 -6 40 -9 85 -7 l77 4 0 74 0 74
-75 0 c-60 0 -75 -3 -75 -15z"/>
<path d="M8300 4921 c0 -10 -3 -39 -6 -65 -6 -42 -5 -46 15 -46 12 0 21 -6 21
-15 0 -11 13 -15 54 -15 34 0 56 -5 59 -12 3 -7 8 2 12 20 4 17 13 32 20 32
16 0 25 22 25 60 0 27 -2 28 -87 44 -110 20 -113 20 -113 -3z"/>
<path d="M1558 4923 c-26 -4 -27 -6 -21 -56 3 -29 10 -53 15 -55 4 -2 8 -10 8
-18 0 -11 19 -14 90 -14 l90 0 0 75 0 75 -77 -1 c-43 -1 -90 -4 -105 -6z"/>
<path d="M1910 4898 c0 -14 -3 -46 -6 -72 -7 -45 -6 -46 20 -46 14 0 26 -4 26
-8 0 -4 23 -13 51 -19 47 -9 52 -8 56 8 3 11 9 19 14 19 5 0 9 9 9 20 0 11 5
20 10 20 6 0 10 11 10 25 0 18 -5 25 -20 25 -11 0 -20 5 -20 10 0 6 -11 10
-24 10 -13 0 -26 4 -28 9 -1 5 -24 12 -50 16 -46 7 -48 6 -48 -17z"/>
<path d="M7730 4881 c0 -5 -16 -12 -35 -15 -19 -4 -35 -11 -35 -15 0 -5 -14
-11 -30 -15 -17 -3 -33 -13 -37 -21 -6 -18 25 -95 39 -95 4 0 8 -7 8 -16 0
-21 47 -11 69 15 9 10 33 24 54 32 37 13 50 29 22 29 -8 0 -15 8 -15 18 0 30
-21 92 -30 92 -6 0 -10 -4 -10 -9z"/>
<path d="M1340 4850 c0 -5 -10 -10 -22 -10 -38 0 -106 -31 -111 -51 -3 -10 2
-35 9 -56 8 -21 17 -46 21 -55 7 -23 19 -23 45 2 12 11 33 20 46 20 34 0 63
36 56 69 -12 55 -26 91 -35 91 -5 0 -9 -4 -9 -10z"/>
<path d="M8660 4794 c-6 -14 -10 -30 -10 -35 0 -5 -7 -12 -15 -15 -8 -4 -15
-14 -15 -24 0 -10 -6 -20 -12 -23 -7 -2 -1 -8 14 -12 15 -4 29 -13 32 -21 3
-8 12 -14 20 -14 7 0 16 -7 20 -15 3 -8 12 -15 21 -15 8 0 15 -4 15 -10 0 -30
47 7 67 53 7 15 17 27 23 27 5 0 10 7 10 15 0 8 -4 15 -10 15 -5 0 -19 8 -29
18 -40 35 -51 42 -69 42 -11 0 -22 9 -25 20 -7 28 -26 25 -37 -6z"/>
<path d="M2265 4750 c-4 -16 -13 -30 -20 -30 -8 0 -17 -9 -20 -20 -3 -11 -11
-20 -16 -20 -21 0 -7 -20 18 -26 15 -4 39 -20 53 -36 13 -15 30 -28 36 -28 7
0 15 -6 18 -12 5 -10 7 -10 12 0 3 6 12 12 20 12 8 0 18 8 21 18 4 9 15 26 25
36 23 26 23 43 -1 51 -11 3 -23 15 -26 26 -4 10 -12 19 -19 19 -18 0 -66 24
-66 33 0 4 -6 7 -14 7 -8 0 -17 -13 -21 -30z"/>
<path d="M7408 4683 c-10 -2 -18 -8 -18 -13 0 -4 -20 -29 -45 -54 -25 -26 -45
-51 -45 -57 0 -5 13 -15 30 -20 20 -7 33 -22 42 -45 16 -45 39 -43 60 6 10 23
29 47 47 58 35 19 42 57 13 66 -10 3 -26 19 -35 36 -10 16 -21 29 -25 29 -4
-1 -15 -3 -24 -6z"/>
<path d="M985 4633 c-10 -15 -33 -43 -52 -61 l-34 -33 30 -28 c17 -16 31 -33
31 -39 0 -5 6 -15 14 -21 17 -14 56 5 56 26 0 7 6 13 13 13 8 0 19 11 25 25 7
14 19 28 27 31 20 8 19 30 -4 53 -10 10 -23 26 -27 34 -5 9 -21 18 -35 22 -21
5 -29 1 -44 -22z"/>
<path d="M8928 4542 c-15 -9 -33 -30 -40 -46 -10 -25 -8 -34 10 -70 12 -22 22
-47 22 -53 0 -7 4 -13 9 -13 5 0 13 -10 16 -21 4 -12 10 -17 14 -12 3 5 27 17
52 26 52 20 63 40 44 83 -7 16 -18 44 -25 62 -7 17 -18 32 -25 32 -7 0 -15 7
-19 15 -7 19 -23 18 -58 -3z"/>
<path d="M2546 4525 c-9 -9 -16 -21 -16 -26 0 -5 -9 -9 -20 -9 -11 0 -20 -7
-20 -15 0 -7 -8 -19 -17 -24 -13 -8 -15 -13 -6 -18 6 -5 14 -20 18 -35 4 -14
15 -28 26 -31 11 -3 22 -17 25 -35 4 -17 12 -33 20 -36 14 -5 44 18 44 35 0 5
6 9 14 9 8 0 26 4 40 10 22 8 24 12 16 40 -9 33 -26 53 -51 62 -9 4 -21 23
-26 44 -10 43 -24 52 -47 29z"/>
<path d="M7164 4345 c-3 -14 -9 -25 -13 -25 -8 0 -31 -60 -31 -82 0 -9 -6 -19
-12 -21 -8 -3 -6 -6 5 -6 9 -1 17 -5 17 -10 0 -5 17 -12 38 -15 20 -4 44 -9
53 -12 13 -3 18 4 23 32 4 20 18 47 32 61 13 13 24 28 24 33 0 21 -13 40 -29
40 -9 0 -25 7 -35 15 -31 24 -65 19 -72 -10z"/>
<path d="M765 4320 c-4 -17 -17 -41 -29 -54 -13 -12 -25 -37 -28 -54 -4 -29
-2 -32 29 -38 18 -3 33 -10 33 -15 0 -5 11 -9 25 -9 14 0 25 -4 25 -10 0 -5 3
-10 8 -10 4 0 13 26 21 57 7 33 22 65 34 76 18 15 19 20 7 27 -8 6 -21 10 -27
10 -7 0 -13 4 -13 9 0 18 -31 41 -55 41 -18 0 -25 -7 -30 -30z"/>
<path d="M9128 4213 c-16 -2 -28 -9 -28 -14 0 -5 -8 -9 -17 -9 -43 -1 -46 -12
-33 -104 12 -80 15 -86 37 -86 12 0 23 5 23 10 0 6 20 10 45 10 53 0 52 -2 30
113 -8 43 -15 81 -15 83 0 2 -3 3 -7 3 -5 -1 -20 -4 -35 -6z"/>
<path d="M2708 4176 c-21 -5 -38 -13 -38 -18 0 -4 -7 -8 -15 -8 -10 0 -15 -10
-15 -30 0 -16 4 -30 9 -30 5 0 12 -27 16 -60 6 -55 9 -60 31 -60 13 0 24 5 24
10 0 6 20 10 45 10 43 0 45 1 45 30 0 17 -4 30 -9 30 -5 0 -12 27 -16 60 -5
39 -11 60 -20 60 -7 0 -15 3 -17 8 -1 4 -20 3 -40 -2z"/>
<path d="M4863 4095 c-10 -11 -13 -88 -13 -314 l0 -301 23 -5 c18 -4 69 -2
100 4 4 0 7 136 7 302 0 247 -3 303 -14 315 -18 17 -33 18 -39 2 -4 -10 -6
-10 -6 0 -1 16 -43 15 -58 -3z"/>
<path d="M7048 3933 c-6 -115 -4 -123 38 -123 24 0 34 5 34 15 0 9 9 15 25 15
18 0 25 5 25 20 0 11 5 20 10 20 6 0 10 27 10 60 l0 60 -45 0 c-25 0 -45 5
-45 10 0 6 -11 10 -24 10 -23 0 -24 -3 -28 -87z"/>
<path d="M660 3925 c0 -51 -3 -65 -15 -65 -10 0 -15 -10 -15 -29 0 -35 25 -44
94 -35 42 6 46 9 46 35 0 16 5 29 10 29 6 0 10 25 10 55 l0 55 -45 0 c-25 0
-45 5 -45 10 0 6 -9 10 -20 10 -18 0 -20 -7 -20 -65z"/>
<path d="M8090 3893 c-32 -6 -40 -19 -40 -65 0 -27 5 -40 19 -48 27 -14 94
-13 109 2 13 13 16 76 4 95 -9 15 -57 23 -92 16z"/>
<path d="M1691 3872 c-17 -12 -28 -102 -12 -102 6 0 11 -7 11 -15 0 -11 12
-15 45 -15 33 0 45 4 45 15 0 8 7 15 16 15 14 0 16 8 11 45 -2 26 -7 48 -9 50
-10 10 -94 15 -107 7z"/>
<path d="M9090 3810 c0 -16 -4 -30 -10 -30 -5 0 -10 -22 -10 -50 0 -38 4 -50
15 -50 8 0 15 -7 15 -15 0 -11 11 -15 39 -15 22 0 42 -5 44 -12 11 -26 27 17
27 72 0 30 3 72 6 93 l7 37 -67 0 -66 0 0 -30z"/>
<path d="M2686 3778 c-3 -13 -6 -51 -6 -85 l0 -62 38 -6 c20 -4 49 -9 65 -11
33 -7 34 -3 40 104 l4 82 -67 0 c-62 0 -68 -2 -74 -22z"/>
<path d="M7100 3640 c0 -5 -7 -10 -16 -10 -13 0 -15 -8 -9 -42 17 -113 28
-148 47 -148 10 0 18 6 18 14 0 9 16 18 43 23 l42 9 -3 54 c-2 30 -8 57 -13
58 -5 2 -9 15 -9 28 0 22 -4 24 -50 24 -27 0 -50 -4 -50 -10z"/>
<path d="M688 3613 c-21 -5 -22 -18 -7 -99 17 -96 17 -97 50 -90 16 3 42 9 58
12 38 8 43 31 29 116 l-11 68 -51 -1 c-28 -1 -59 -3 -68 -6z"/>
<path d="M9026 3474 c-3 -9 -6 -24 -6 -35 0 -10 -7 -19 -15 -19 -8 0 -15 -7
-15 -15 0 -9 -7 -18 -15 -21 -8 -4 -15 -18 -15 -34 0 -24 6 -30 49 -44 28 -9
57 -16 65 -16 18 0 36 30 36 59 0 12 5 21 10 21 6 0 10 7 10 15 0 8 5 15 10
15 6 0 10 6 10 14 0 8 6 17 13 19 6 3 2 6 -10 6 -13 1 -23 7 -23 15 0 8 -19
18 -44 25 -56 14 -53 14 -60 -5z"/>
<path d="M2610 3455 c0 -8 -9 -42 -21 -75 -25 -72 -20 -90 21 -90 19 0 30 -5
30 -14 0 -13 20 -26 41 -26 5 0 9 7 9 15 0 8 9 24 20 35 11 11 20 32 20 46 0
14 5 35 11 46 13 24 2 35 -43 45 -16 3 -28 12 -28 19 0 9 -11 14 -30 14 -20 0
-30 -5 -30 -15z"/>
<path d="M7248 3301 c-53 -18 -61 -38 -28 -71 11 -11 20 -31 20 -45 0 -19 9
-29 33 -41 31 -15 36 -15 65 0 20 10 32 24 32 36 0 11 5 20 10 20 15 0 12 26
-5 40 -8 7 -15 21 -15 31 0 12 -7 19 -19 19 -10 0 -21 7 -25 15 -6 17 -6 17
-68 -4z"/>
<path d="M863 3293 c-13 -2 -23 -9 -23 -15 0 -6 -8 -17 -17 -24 -15 -11 -16
-16 -5 -33 6 -12 12 -30 12 -41 0 -27 43 -70 70 -70 11 0 36 10 55 23 44 28
46 62 7 103 -16 16 -31 37 -35 47 -6 17 -19 19 -64 10z"/>
<path d="M8853 3203 c-7 -2 -13 -13 -13 -22 0 -10 -18 -31 -40 -46 -52 -36
-54 -69 -5 -119 19 -20 35 -41 35 -46 0 -6 7 -10 15 -10 8 0 15 5 15 10 0 6
19 30 41 52 40 41 64 91 53 110 -3 5 -16 13 -29 18 -13 5 -25 19 -27 32 -3 23
-22 31 -45 21z"/>
<path d="M2424 3131 c-17 -15 -34 -40 -38 -55 -3 -14 -13 -26 -21 -26 -8 0
-15 -4 -15 -10 0 -5 7 -10 15 -10 8 0 15 -7 15 -15 0 -9 7 -18 15 -21 8 -4 15
-12 15 -19 0 -7 6 -18 14 -24 17 -14 56 5 56 27 0 7 7 15 15 18 33 13 75 62
75 88 0 21 -9 30 -52 51 -28 14 -54 25 -57 25 -3 0 -20 -13 -37 -29z"/>
<path d="M7520 3063 c0 -7 -13 -19 -28 -27 -56 -29 -55 -126 0 -126 11 0 22
-9 25 -20 6 -23 61 -42 79 -28 7 5 15 24 18 43 4 19 11 35 16 35 6 0 10 11 10
25 0 14 -4 25 -9 25 -4 0 -20 11 -35 25 -15 14 -33 25 -41 25 -8 0 -19 8 -24
18 -6 9 -11 11 -11 5z"/>
<path d="M1097 3014 c-15 -14 -27 -36 -27 -46 0 -11 -9 -22 -20 -25 -26 -7
-26 -19 1 -26 11 -3 23 -15 26 -26 3 -12 10 -21 17 -21 6 0 24 -11 40 -25 16
-14 37 -25 47 -25 35 0 75 119 47 136 -8 5 -17 17 -21 27 -3 9 -16 17 -28 17
-11 0 -28 9 -38 21 l-17 21 -27 -28z"/>
<path d="M8568 2947 c-16 -6 -28 -14 -28 -19 0 -4 -18 -11 -40 -14 -34 -6 -40
-10 -40 -30 0 -14 6 -24 14 -24 8 0 16 -15 20 -37 11 -60 16 -73 32 -73 8 0
14 5 14 10 0 6 7 10 15 10 8 0 15 6 15 14 0 8 21 21 50 31 28 9 50 20 50 23 0
23 -23 82 -39 101 -20 23 -24 24 -63 8z"/>
<path d="M2190 2932 c0 -4 -16 -14 -35 -21 -19 -7 -35 -19 -35 -27 0 -9 -11
-14 -30 -14 -23 0 -30 -4 -30 -20 0 -11 5 -20 10 -20 6 0 10 -7 10 -15 0 -8 5
-15 10 -15 6 0 10 -11 10 -24 0 -13 6 -26 13 -29 18 -7 77 4 77 14 0 5 7 9 15
9 8 0 15 6 15 14 0 7 14 16 31 20 25 5 30 10 24 23 -3 10 -9 30 -12 45 -3 14
-14 28 -24 31 -10 3 -19 12 -19 21 0 9 -7 16 -15 16 -8 0 -15 -4 -15 -8z"/>
<path d="M7820 2889 c0 -13 -25 -39 -38 -39 -5 0 -12 -14 -16 -31 -12 -63 -12
-64 72 -79 64 -11 112 -14 118 -7 1 1 5 27 8 58 l7 55 -66 13 c-43 9 -65 18
-65 27 0 8 -4 14 -10 14 -5 0 -10 -5 -10 -11z"/>
<path d="M1402 2851 c-10 -6 -31 -78 -32 -108 0 -7 31 -17 75 -24 64 -11 75
-16 76 -33 1 -12 6 -2 12 22 5 23 14 42 18 42 5 0 9 15 9 34 0 31 -4 35 -32
41 -18 4 -35 11 -38 15 -7 10 -75 19 -88 11z"/>
<path d="M8240 2840 c0 -5 -25 -10 -55 -10 l-55 0 0 -61 0 -62 92 7 c89 7 117
14 91 23 -7 3 -13 19 -13 36 0 56 -10 77 -36 77 -13 0 -24 -4 -24 -10z"/>
<path d="M1798 2813 l-58 -4 0 -74 0 -75 34 0 c18 0 61 3 95 6 56 6 61 9 61
30 0 13 -4 24 -10 24 -5 0 -10 15 -10 34 0 49 -9 66 -34 64 -11 -1 -47 -3 -78
-5z"/>
<path d="M4863 2803 c-10 -3 -13 -76 -13 -314 l0 -309 23 -5 c18 -4 69 -2 100
4 4 0 7 140 7 310 0 287 -1 310 -17 314 -25 6 -86 7 -100 0z"/>
<path d="M4863 1503 c-20 -8 -18 -609 1 -629 18 -17 53 -18 59 -1 4 10 6 9 6
0 1 -17 19 -16 37 1 11 12 14 69 14 320 0 282 -1 305 -17 309 -25 6 -86 7
-100 0z"/>
</g>
</svg>
